                                                                        S      1
,,15HOmarUSholder v2,15HOmarUSholder v2,7Hunknown,7Hunknown,32,38,7,99, G      1
15,,1.,1,4HINCH,1,0.08,15H20210504.163342,0.000393700787401575,10000.,7HG      2
unknown,7Hunknown,11,0,15H20210330.045311;                              G      3
     186       1                                                00000000D      1
     186            -169       1       0                               0D      2
     514       2                                                00010000D      3
     514                       2       1                               0D      4
     510       4                                                00010000D      5
     510            -169       1       1                               0D      6
     510       5                                                00010000D      7
     510            -169       1       1                               0D      8
     510       6                                                00010000D      9
     510            -169       1       1                               0D     10
     510       7                                                00010000D     11
     510            -169       1       1                               0D     12
     510       8                                                00010000D     13
     510            -169       1       1                               0D     14
     510       9                                                00010000D     15
     510            -169       1       1                               0D     16
     510      10                                                00010000D     17
     510            -169       1       1                               0D     18
     510      11                                                00010000D     19
     510            -169       1       1                               0D     20
     510      12                                                00010000D     21
     510            -169       1       1                               0D     22
     510      13                                                00010000D     23
     510            -169       1       1                               0D     24
     510      14                                                00010000D     25
     510            -169       1       1                               0D     26
     510      15                                                00010000D     27
     510            -169       1       1                               0D     28
     510      16                                                00010000D     29
     510            -169       1       1                               0D     30
     508      17                                                00010000D     31
     508                       2       1                               0D     32
     508      19                                                00010000D     33
     508                       1       1                               0D     34
     508      20                                                00010000D     35
     508                       1       1                               0D     36
     508      21                                                00010000D     37
     508                       1       1                               0D     38
     508      22                                                00010000D     39
     508                       1       1                               0D     40
     508      23                                                00010000D     41
     508                       2       1                               0D     42
     508      25                                                00010000D     43
     508                       1       1                               0D     44
     508      26                                                00010000D     45
     508                       1       1                               0D     46
     508      27                                                00010000D     47
     508                       1       1                               0D     48
     508      28                                                00010000D     49
     508                       2       1                               0D     50
     508      30                                                00010000D     51
     508                       2       1                               0D     52
     508      32                                                00010000D     53
     508                       2       1                               0D     54
     508      34                                                00010000D     55
     508                       1       1                               0D     56
     508      35                                                00010000D     57
     508                       1       1                               0D     58
     508      36                                                00010000D     59
     508                       1       1                               0D     60
     508      37                                                00010000D     61
     508                       1       1                               0D     62
     508      38                                                00010000D     63
     508                       2       1                               0D     64
     508      40                                                00010000D     65
     508                       1       1                               0D     66
     126      41                                                00010000D     67
     126       0              10       0                               0D     68
     126      51                                                00010000D     69
     126       0               4       0                               0D     70
     126      55                                                00010000D     71
     126       0               2       0                               0D     72
     126      57                                                00010000D     73
     126       0               2       0                               0D     74
     126      59                                                00010000D     75
     126       0               3       0                               0D     76
     126      62                                                00010000D     77
     126       0               3       0                               0D     78
     126      65                                                00010000D     79
     126       0               3       0                               0D     80
     126      68                                                00010000D     81
     126       0               4       0                               0D     82
     126      72                                                00010000D     83
     126       0               2       0                               0D     84
     126      74                                                00010000D     85
     126       0              13       0                               0D     86
     126      87                                                00010000D     87
     126       0               5       0                               0D     88
     126      92                                                00010000D     89
     126       0               5       0                               0D     90
     126      97                                                00010000D     91
     126       0               7       0                               0D     92
     126     104                                                00010000D     93
     126       0               2       0                               0D     94
     126     106                                                00010000D     95
     126       0               3       0                               0D     96
     126     109                                                00010000D     97
     126       0               3       0                               0D     98
     126     112                                                00010000D     99
     126       0               3       0                               0D    100
     126     115                                                00010000D    101
     126       0               5       0                               0D    102
     126     120                                                00010000D    103
     126       0               5       0                               0D    104
     126     125                                                00010000D    105
     126       0               2       0                               0D    106
     126     127                                                00010000D    107
     126       0               2       0                               0D    108
     126     129                                                00010000D    109
     126       0               2       0                               0D    110
     126     131                                                00010000D    111
     126       0               3       0                               0D    112
     126     134                                                00010000D    113
     126       0               7       0                               0D    114
     126     141                                                00010000D    115
     126       0               8       0                               0D    116
     126     149                                                00010000D    117
     126       0               4       0                               0D    118
     126     153                                                00010000D    119
     126       0               9       0                               0D    120
     126     162                                                00010000D    121
     126       0               7       0                               0D    122
     126     169                                                00010000D    123
     126       0               9       0                               0D    124
     126     178                                                00010000D    125
     126       0               3       0                               0D    126
     126     181                                                00010000D    127
     126       0              12       0                               0D    128
     126     193                                                00010000D    129
     126       0               3       0                               0D    130
     126     196                                                00010000D    131
     126       0               5       0                               0D    132
     126     201                                                00010000D    133
     126       0               7       0                               0D    134
     126     208                                                00010000D    135
     126       0               2       0                               0D    136
     128     210                                                00010000D    137
     128       0    -169       7       0                               0D    138
     128     217                                                00010000D    139
     128       0    -169       6       0                               0D    140
     128     223                                                00010000D    141
     128       0    -169       7       0                               0D    142
     128     230                                                00010000D    143
     128       0    -169       8       0                               0D    144
     128     238                                                00010000D    145
     128       0    -169      14       0                               0D    146
     128     252                                                00010000D    147
     128       0    -169       6       0                               0D    148
     128     258                                                00010000D    149
     128       0    -169       5       0                               0D    150
     128     263                                                00010000D    151
     128       0    -169      18       0                               0D    152
     128     281                                                00010000D    153
     128       0    -169      21       0                               0D    154
     128     302                                                00010000D    155
     128       0    -169      14       0                               0D    156
     128     316                                                00010000D    157
     128       0    -169       4       0                               0D    158
     128     320                                                00010000D    159
     128       0    -169       3       0                               0D    160
     128     323                                                00010000D    161
     128       0    -169       4       0                               0D    162
     502     327                                                00010000D    163
     502                      12       1                               0D    164
     504     339                                                00010001D    165
     504                      10       1                               0D    166
     406     349                                                00000000D    167
     406                       1      15                               0D    168
     314     350                                                00000200D    169
     314                       2       0                               0D    170
     314     352                                                00000200D    171
     314                       2       0                               0D    172
186,3,1,0,0,1,167;                                                     1P      1
514,13,5,1,7,1,9,1,11,1,13,1,15,1,17,1,19,1,21,1,23,1,25,1,27,1,       3P      2
29,1;                                                                  3P      3
510,137,1,1,31;                                                        5P      4
510,139,1,1,33;                                                        7P      5
510,141,2,1,35,37;                                                     9P      6
510,143,1,1,39;                                                       11P      7
510,145,1,1,41;                                                       13P      8
510,147,1,1,43;                                                       15P      9
510,149,2,1,45,47;                                                    17P     10
510,151,1,1,49;                                                       19P     11
510,153,1,1,51;                                                       21P     12
510,155,1,1,53;                                                       23P     13
510,157,2,1,55,57;                                                    25P     14
510,159,2,1,59,61;                                                    27P     15
510,161,2,1,63,65;                                                    29P     16
508,6,0,165,1,0,0,0,165,2,0,0,0,165,3,0,0,0,165,4,0,0,0,165,5,0,      31P     17
0,0,165,6,0,0;                                                        31P     18
508,4,0,165,2,1,0,0,165,7,1,0,0,165,8,0,0,0,165,9,0,0;                33P     19
508,2,0,165,10,1,0,0,165,11,1,0;                                      35P     20
508,2,0,165,12,1,0,0,165,13,1,0;                                      37P     21
508,4,0,165,6,1,0,0,165,14,0,0,0,165,15,0,0,0,165,16,0,0;             39P     22
508,9,0,165,10,0,0,0,165,11,0,0,0,165,17,1,0,0,165,18,0,0,0,165,      41P     23
7,0,0,0,165,1,1,0,0,165,16,1,0,0,165,19,0,0,0,165,17,0,0;             41P     24
508,4,0,165,4,1,0,0,165,20,0,0,0,165,21,0,0,0,165,22,0,0;             43P     25
508,4,0,165,5,1,0,0,165,22,1,0,0,165,23,1,0,0,165,14,1,0;             45P     26
508,2,0,165,24,1,0,0,165,25,1,0;                                      47P     27
508,5,0,165,24,0,0,0,165,25,0,0,0,165,26,1,0,0,165,27,0,0,0,165,      49P     28
26,0,0;                                                               49P     29
508,5,0,165,28,0,0,0,165,29,0,0,0,165,30,1,0,0,165,31,0,0,0,165,      51P     30
30,0,0;                                                               51P     31
508,6,0,165,12,0,0,0,165,13,0,0,0,165,32,1,0,0,165,33,1,0,0,165,      53P     32
34,1,0,0,165,32,0,0;                                                  53P     33
508,2,0,165,34,0,0,0,165,33,0,0;                                      55P     34
508,2,0,165,28,1,0,0,165,29,1,0;                                      57P     35
508,4,0,165,3,1,0,0,165,9,1,0,0,165,35,1,0,0,165,20,1,0;              59P     36
508,1,0,165,27,1,0;                                                   61P     37
508,7,0,165,15,1,0,0,165,23,0,0,0,165,21,1,0,0,165,35,0,0,0,165,      63P     38
8,1,0,0,165,18,1,0,0,165,19,1,0;                                      63P     39
508,1,0,165,31,1,0;                                                   65P     40
126,6,2,0,0,0,0,-1.78993738579243,-1.78993738579243,                  67P     41
-1.78993738579243,-0.596645795264143,-0.596645795264143,              67P     42
0.596645795264143,0.596645795264143,1.78993738579243,                 67P     43
1.78993738579243,1.78993738579243,1.,0.827224895023703,1.,            67P     44
0.8272248950237,1.,0.827224895023701,1.,-0.6125,0.925,                67P     45
-1.9348734688177,-1.03183484381383,0.925,-2.02826676143006,           67P     46
-1.27321974610249,0.925,-1.67288338071503,-1.51460464839115,          67P     47
0.925,-1.3175,-1.27321974610249,0.925,-0.962116619284968,             67P     48
-1.03183484381383,0.925,-0.606733238569935,-0.6125,0.925,             67P     49
-0.7001265311823,-1.78993738579243,1.78993738579243,0.,0.,0.;         67P     50
126,1,1,0,0,1,0,-1.35271069460152,-1.35271069460152,                  69P     51
-1.18728930539848,-1.18728930539848,1.,1.,-0.6125,0.925,-2.,          69P     52
-0.6125,0.925,-1.9348734688177,-1.35271069460152,                     69P     53
-1.18728930539848,0.,0.,0.;                                           69P     54
126,1,1,0,0,1,0,-2.25425,-2.25425,-0.28575,-0.28575,1.,1.,            71P     55
-1.3875,0.925,-2.,-0.6125,0.925,-2.,-2.25425,-0.28575,0.,0.,0.;       71P     56
126,1,1,0,0,1,0,-3.81,-3.81,1.27,1.27,1.,1.,-1.3875,0.925,0.,         73P     57
-1.3875,0.925,-2.,-3.81,1.27,0.,0.,0.;                                73P     58
126,1,1,0,0,1,0,-2.25425,-2.25425,-0.28575,-0.28575,1.,1.,            75P     59
-0.6125,0.925,2.54103130972397D-33,-1.3875,0.925,                     75P     60
3.22102560387546D-34,-2.25425,-0.28575,0.,0.,0.;                      75P     61
126,1,1,0,0,1,0,-0.508321389203041,-0.508321389203041,1.27,1.27,      77P     62
1.,1.,-0.6125,0.925,-0.7001265311823,-0.6125,0.925,0.,                77P     63
-0.508321389203041,1.27,0.,0.,0.;                                     77P     64
126,1,1,0,0,1,0,1.905,1.905,4.2545,4.2545,1.,1.,-0.6125,0.925,        79P     65
-1.9348734688177,-0.6125,0.,-1.9348734688177,1.905,4.2545,0.,0.,      79P     66
0.;                                                                   79P     67
126,1,1,0,0,1,0,-1.35271069460152,-1.35271069460152,                  81P     68
-1.18728930539848,-1.18728930539848,1.,1.,-0.6125,0.,-2.,             81P     69
-0.6125,0.,-1.9348734688177,-1.35271069460152,-1.18728930539848,      81P     70
0.,0.,0.;                                                             81P     71
126,1,1,0,0,1,0,-0.22225,-0.22225,2.12725,2.12725,1.,1.,-0.6125,      83P     72
0.925,-2.,-0.6125,0.,-2.,-0.22225,2.12725,0.,0.,0.;                   83P     73
126,8,2,0,0,0,0,-1.78993738579243,-1.78993738579243,                  85P     74
-1.78993738579243,-0.557054875946873,-0.557054875946873,              85P     75
0.675827633898682,0.675827633898682,1.90871014374424,                 85P     76
1.90871014374424,3.14159265358979,3.14159265358979,                   85P     77
3.14159265358979,1.,0.815941054571036,1.,0.815941054571034,1.,        85P     78
0.815941054571036,1.,0.815941054571035,1.,-0.6125,1.675,              85P     79
-1.9348734688177,-1.04994002216118,1.675,-2.03229910513853,           85P     80
-1.2868760210522,1.675,-1.65189555621922,-1.52381201994322,           85P     81
1.675,-1.2714920072999,-1.24346985723547,1.675,                       85P     82
-0.921843899326701,-0.963127694527733,1.675,-0.5721957913535,         85P     83
-0.540313847263867,1.675,-0.720768932138841,-0.1175,1.675,            85P     84
-0.869342072924183,-0.1175,1.675,-1.3175,-1.78993738579243,           85P     85
3.14159265358979,0.,0.,0.;                                            85P     86
126,2,2,0,0,0,0,3.14159265358979,3.14159265358979,                    87P     87
3.14159265358979,4.49324792138716,4.49324792138716,                   87P     88
4.49324792138716,1.,0.780189497605495,1.,-0.1175,1.675,-1.3175,       87P     89
-0.1175,1.675,-1.82462820652882,-0.6125,1.675,-1.9348734688177,       87P     90
3.14159265358979,4.49324792138716,0.,0.,0.;                           87P     91
126,4,2,0,0,0,0,0.,0.,0.,1.5707963267949,1.5707963267949,             89P     92
3.14159265358979,3.14159265358979,3.14159265358979,1.,                89P     93
0.707106781186548,1.,0.707106781186548,1.,-0.3175,1.675,-1.3175,      89P     94
-0.3175,1.675,-0.885,-0.75,1.675,-0.885,-1.1825,1.675,-0.885,         89P     95
-1.1825,1.675,-1.3175,0.,3.14159265358979,0.,0.,0.;                   89P     96
126,4,2,0,0,0,0,3.14159265358979,3.14159265358979,                    91P     97
3.14159265358979,4.71238898038469,4.71238898038469,                   91P     98
6.28318530717959,6.28318530717959,6.28318530717959,1.,                91P     99
0.707106781186546,1.,0.707106781186548,1.,-1.1825,1.675,-1.3175,      91P    100
-1.1825,1.675,-1.75,-0.75,1.675,-1.75,-0.3175,1.675,-1.75,            91P    101
-0.3175,1.675,-1.3175,3.14159265358979,6.28318530717959,0.,0.,        91P    102
0.;                                                                   91P    103
126,1,1,0,0,1,0,-2.12725,-2.12725,0.22225,0.22225,1.,1.,-0.6125,      93P    104
0.,0.,-0.6125,0.925,0.,-2.12725,0.22225,0.,0.,0.;                     93P    105
126,1,1,0,0,1,0,-0.508321389203041,-0.508321389203041,1.27,1.27,      95P    106
1.,1.,-0.6125,0.,-0.7001265311823,-0.6125,0.,0.,                      95P    107
-0.508321389203041,1.27,0.,0.,0.;                                     95P    108
126,1,1,0,0,1,0,1.905,1.905,4.2545,4.2545,1.,1.,-0.6125,0.925,        97P    109
-0.7001265311823,-0.6125,0.,-0.7001265311823,1.905,4.2545,0.,0.,      97P    110
0.;                                                                   97P    111
126,1,1,0,0,1,0,0.,0.,2.64822134387352,2.64822134387352,1.,1.,        99P    112
-0.1175,1.675,-1.3175,-0.1175,0.,-1.3175,0.,2.64822134387352,0.,      99P    113
0.,0.;                                                                99P    114
126,2,2,0,0,0,0,1.78993738579243,1.78993738579243,                   101P    115
1.78993738579243,3.14159265358979,3.14159265358979,                  101P    116
3.14159265358979,1.,0.780189497605494,1.,-0.6125,0.,                 101P    117
-1.9348734688177,-0.1175,0.,-1.82462820652883,-0.1175,0.,            101P    118
-1.3175,1.78993738579243,3.14159265358979,0.,0.,0.;                  101P    119
126,2,2,0,0,0,0,3.14159265358979,3.14159265358979,                   103P    120
3.14159265358979,4.49324792138716,4.49324792138716,                  103P    121
4.49324792138716,1.,0.780189497605495,1.,-0.1175,0.,-1.3175,         103P    122
-0.1175,0.,-0.810371793471175,-0.6125,0.,-0.7001265311823,           103P    123
3.14159265358979,4.49324792138716,0.,0.,0.;                          103P    124
126,1,1,0,0,1,0,-2.12725,-2.12725,0.22225,0.22225,1.,1.,-1.3875,     105P    125
0.,-2.,-1.3875,0.925,-2.,-2.12725,0.22225,0.,0.,0.;                  105P    126
126,1,1,0,0,1,0,-3.81,-3.81,1.27,1.27,1.,1.,-1.3875,0.,0.,           107P    127
-1.3875,0.,-2.,-3.81,1.27,0.,0.,0.;                                  107P    128
126,1,1,0,0,1,0,-0.22225,-0.22225,2.12725,2.12725,1.,1.,-1.3875,     109P    129
0.925,0.,-1.3875,0.,0.,-0.22225,2.12725,0.,0.,0.;                    109P    130
126,1,1,0,0,1,0,1.55575,1.55575,3.52425,3.52425,1.,1.,-1.3875,       111P    131
0.,-3.97259824477973D-33,-0.6125,0.,-1.75366949544331D-33,           111P    132
1.55575,3.52425,0.,0.,0.;                                            111P    133
126,4,2,0,0,0,0,0.,0.,0.,1.5707963267949,1.5707963267949,            113P    134
3.14159265358979,3.14159265358979,3.14159265358979,1.,               113P    135
0.707106781186549,1.,0.707106781186549,1.,-0.8125,0.5,               113P    136
-5.18943013957713D-33,-0.8125,0.3125,-5.18943013957713D-33,-1.,      113P    137
0.3125,-5.72626774022304D-33,-1.1875,0.3125,                         113P    138
-6.26310534086895D-33,-1.1875,0.5,-6.26310534086895D-33,0.,          113P    139
3.14159265358979,0.,0.,0.;                                           113P    140
126,4,2,0,0,0,0,3.14159265358979,3.14159265358979,                   115P    141
3.14159265358979,4.71238898038469,4.71238898038469,                  115P    142
6.28318530717959,6.28318530717959,6.28318530717959,1.,               115P    143
0.70710678118655,1.,0.707106781186548,1.,-1.1875,0.5,                115P    144
-6.26310534086895D-33,-1.1875,0.6875,-6.26310534086895D-33,-1.,      115P    145
0.6875,-5.72626774022304D-33,-0.8125,0.6875,                         115P    146
-5.18943013957713D-33,-0.8125,0.5,-5.18943013957713D-33,             115P    147
3.14159265358979,6.28318530717959,0.,0.,0.;                          115P    148
126,1,1,0,0,1,0,1.24069134371499D-32,1.24069134371499D-32,           117P    149
10.6666666666667,10.6666666666667,1.,1.,-1.1875,0.5,                 117P    150
-5.18943013957713D-33,-1.1875,0.5,-2.,1.24069134371499D-32,          117P    151
10.6666666666667,0.,0.,0.;                                           117P    152
126,8,2,0,1,0,0,-3.14159265358979,-3.14159265358979,                 119P    153
-3.14159265358979,-1.5707963267949,-1.5707963267949,0.,0.,           119P    154
1.5707963267949,1.5707963267949,3.14159265358979,                    119P    155
3.14159265358979,3.14159265358979,1.,0.707106781186549,1.,           119P    156
0.707106781186549,1.,0.707106781186549,1.,0.707106781186549,1.,      119P    157
-1.1875,0.5,-2.,-1.1875,0.3125,-2.,-1.,0.3125,-2.,-0.8125,           119P    158
0.3125,-2.,-0.8125,0.5,-2.,-0.8125,0.6875,-2.,-1.,0.6875,-2.,        119P    159
-1.1875,0.6875,-2.,-1.1875,0.5,-2.,-3.14159265358979,                119P    160
3.14159265358979,0.,0.,0.;                                           119P    161
126,4,2,0,0,0,0,0.,0.,0.,1.5707963267949,1.5707963267949,            121P    162
3.14159265358979,3.14159265358979,3.14159265358979,1.,               121P    163
0.707106781186549,1.,0.707106781186548,1.,-0.370739068054236,        121P    164
0.875,-1.18402297275314,-0.370739068054236,0.875,                    121P    165
-0.99652297275314,-0.558239068054236,0.875,-0.99652297275314,        121P    166
-0.745739068054236,0.875,-0.99652297275314,-0.745739068054236,       121P    167
0.875,-1.18402297275314,0.,3.14159265358979,0.,0.,0.;                121P    168
126,4,2,0,0,0,0,3.14159265358979,3.14159265358979,                   123P    169
3.14159265358979,4.71238898038469,4.71238898038469,                  123P    170
6.28318530717959,6.28318530717959,6.28318530717959,1.,               123P    171
0.707106781186549,1.,0.707106781186548,1.,-0.745739068054236,        123P    172
0.875,-1.18402297275314,-0.745739068054236,0.875,                    123P    173
-1.37152297275314,-0.558239068054236,0.875,-1.37152297275314,        123P    174
-0.370739068054236,0.875,-1.37152297275314,-0.370739068054236,       123P    175
0.875,-1.18402297275314,3.14159265358979,6.28318530717959,0.,0.,     123P    176
0.;                                                                  123P    177
126,1,1,0,0,1,0,0.,0.,4.66666666666667,4.66666666666667,1.,1.,       125P    178
-0.745739068054236,0.875,-1.18402297275314,-0.745739068054236,       125P    179
0.,-1.18402297275314,0.,4.66666666666667,0.,0.,0.;                   125P    180
126,8,2,0,1,0,0,-3.14159265358979,-3.14159265358979,                 127P    181
-3.14159265358979,-1.5707963267949,-1.5707963267949,0.,0.,           127P    182
1.5707963267949,1.5707963267949,3.14159265358979,                    127P    183
3.14159265358979,3.14159265358979,1.,0.707106781186548,1.,           127P    184
0.707106781186549,1.,0.707106781186549,1.,0.707106781186548,1.,      127P    185
-0.745739068054236,0.,-1.18402297275314,-0.745739068054236,0.,       127P    186
-0.99652297275314,-0.558239068054236,0.,-0.99652297275314,           127P    187
-0.370739068054236,0.,-0.99652297275314,-0.370739068054236,0.,       127P    188
-1.18402297275314,-0.370739068054236,0.,-1.37152297275314,           127P    189
-0.558239068054236,0.,-1.37152297275314,-0.745739068054236,0.,       127P    190
-1.37152297275314,-0.745739068054236,0.,-1.18402297275314,           127P    191
-3.14159265358979,3.14159265358979,0.,0.,0.;                         127P    192
126,1,1,0,0,1,0,0.,0.,1.84971098265896,1.84971098265896,1.,1.,       129P    193
-1.1825,1.675,-1.3175,-1.1825,0.875,-1.3175,0.,1.84971098265896,     129P    194
0.,0.,0.;                                                            129P    195
126,4,2,0,0,0,0,-3.14159265358979,-3.14159265358979,                 131P    196
-3.14159265358979,-1.5707963267949,-1.5707963267949,0.,0.,0.,1.,     131P    197
0.707106781186546,1.,0.707106781186545,1.,-1.1825,0.875,-1.3175,     131P    198
-1.1825,0.875,-1.75,-0.75,0.875,-1.75,-0.3175,0.875,-1.75,           131P    199
-0.3175,0.875,-1.3175,-3.14159265358979,0.,0.,0.,0.;                 131P    200
126,4,2,0,0,0,0,-6.28318530717959,-6.28318530717959,                 133P    201
-6.28318530717959,-4.71238898038469,-4.71238898038469,               133P    202
-3.14159265358979,-3.14159265358979,-3.14159265358979,1.,            133P    203
0.707106781186547,1.,0.707106781186547,1.,-0.3175,0.875,-1.3175,     133P    204
-0.3175,0.875,-0.885,-0.75,0.875,-0.885,-1.1825,0.875,-0.885,        133P    205
-1.1825,0.875,-1.3175,-6.28318530717959,-3.14159265358979,0.,0.,     133P    206
0.;                                                                  133P    207
126,1,1,0,0,1,0,1.55575,1.55575,3.52425,3.52425,1.,1.,-0.6125,       135P    208
0.,-2.,-1.3875,0.,-2.,1.55575,3.52425,0.,0.,0.;                      135P    209
128,1,1,1,1,0,0,1,0,0,-0.98525,-0.98525,1.30809580691351,            137P    210
1.30809580691351,-2.61279757403236,-2.61279757403236,2.541,          137P    211
2.541,1.,1.,1.,1.,-0.612106299212599,0.925,-2.02866046221747,        137P    212
-1.51499834917855,0.925,-2.02866046221747,-0.612106299212599,        137P    213
0.925,0.000393700787401531,-1.51499834917855,0.925,                  137P    214
0.000393700787401357,-0.98525,1.30809580691351,                      137P    215
-2.61279757403236,2.541;                                             137P    216
128,1,1,1,1,0,0,1,0,0,-0.001,-0.001,0.166421389203042,               139P    217
0.166421389203042,1.904,1.904,4.2555,4.2555,1.,1.,1.,1.,-0.6125,     139P    218
0.925393700787401,-2.0003937007874,-0.6125,0.925393700787401,        139P    219
-1.9344797680303,-0.6125,-0.000393700787401706,-2.0003937007874,     139P    220
-0.6125,-0.000393700787401706,-1.9344797680303,-0.001,               139P    221
0.166421389203042,1.904,4.2555;                                      139P    222
128,1,1,1,1,0,0,1,0,0,-1.0733734688177,-1.0733734688177,             141P    223
0.4383734688177,0.4383734688177,-0.5058734688177,                    141P    224
-0.5058734688177,1.0058734688177,1.0058734688177,1.,1.,1.,1.,        141P    225
-1.5058734688177,1.675,-2.0733734688177,-1.5058734688177,1.675,      141P    226
-0.5616265311823,0.00587346881770022,1.675,-2.0733734688177,         141P    227
0.00587346881770022,1.675,-0.5616265311823,-1.0733734688177,         141P    228
0.4383734688177,-0.5058734688177,1.0058734688177;                    141P    229
128,1,1,1,1,0,0,1,0,0,-0.000999999999999938,                         143P    230
-0.000999999999999938,1.77932138920304,1.77932138920304,1.904,       143P    231
1.904,4.2555,4.2555,1.,1.,1.,1.,-0.6125,0.925393700787401,           143P    232
-0.700520231969701,-0.6125,0.925393700787401,                        143P    233
0.000393700787401575,-0.6125,-0.000393700787401706,                  143P    234
-0.700520231969701,-0.6125,-0.000393700787401706,                    143P    235
0.000393700787401575,-0.000999999999999938,1.77932138920304,         143P    236
1.904,4.2555;                                                        143P    237
128,1,8,1,2,0,1,0,0,1,0.,0.,2.64822134387352,2.64822134387352,       145P    238
-3.14159265358979,-3.14159265358979,-3.14159265358979,               145P    239
-1.5707963267949,-1.5707963267949,0.,0.,1.5707963267949,             145P    240
1.5707963267949,3.14159265358979,3.14159265358979,                   145P    241
3.14159265358979,1.,1.,0.707106781186548,0.707106781186548,1.,       145P    242
1.,0.707106781186548,0.707106781186548,1.,1.,0.707106781186548,      145P    243
0.707106781186548,1.,1.,0.707106781186548,0.707106781186548,1.,      145P    244
1.,-0.1175,0.,-1.3175,-0.1175,1.675,-1.3175,-0.1175,0.,-0.685,       145P    245
-0.1175,1.675,-0.685,-0.75,0.,-0.685,-0.75,1.675,-0.685,-1.3825,     145P    246
0.,-0.685,-1.3825,1.675,-0.685,-1.3825,0.,-1.3175,-1.3825,1.675,     145P    247
-1.3175,-1.3825,0.,-1.95,-1.3825,1.675,-1.95,-0.75,0.,-1.95,         145P    248
-0.75,1.675,-1.95,-0.1175,0.,-1.95,-0.1175,1.675,-1.95,-0.1175,      145P    249
0.,-1.3175,-0.1175,1.675,-1.3175,0.,2.64822134387352,                145P    250
-3.14159265358979,3.14159265358979;                                  145P    251
128,1,1,1,1,0,0,1,0,0,-0.001,-0.001,5.081,5.081,1.904,1.904,         147P    252
4.2555,4.2555,1.,1.,1.,1.,-1.3875,0.925393700787401,                 147P    253
0.000393700787401706,-1.3875,0.925393700787401,-2.0003937007874,     147P    254
-1.3875,-0.000393700787401706,0.000393700787401706,-1.3875,          147P    255
-0.000393700787401706,-2.0003937007874,-0.001,5.081,1.904,           147P    256
4.2555;                                                              147P    257
128,1,1,1,1,0,0,1,0,0,0.6115,0.6115,1.3885,1.3885,-0.001,-0.001,     149P    258
0.926,0.926,1.,1.,1.,1.,-1.3885,-0.001,-3.97546137864985D-33,        149P    259
-0.6115,-0.001,-1.75080636157319D-33,-1.3885,0.926,                  149P    260
-3.97546137864985D-33,-0.6115,0.926,-1.75080636157319D-33,           149P    261
0.6115,1.3885,-0.001,0.926;                                          149P    262
128,1,8,1,2,0,1,0,0,1,1.24069134371499D-32,1.24069134371499D-32,     151P    263
10.6666666666667,10.6666666666667,-3.14159265358979,                 151P    264
-3.14159265358979,-3.14159265358979,-1.5707963267949,                151P    265
-1.5707963267949,0.,0.,1.5707963267949,1.5707963267949,              151P    266
3.14159265358979,3.14159265358979,3.14159265358979,1.,1.,            151P    267
0.707106781186548,0.707106781186548,1.,1.,0.707106781186548,         151P    268
0.707106781186548,1.,1.,0.707106781186548,0.707106781186548,1.,      151P    269
1.,0.707106781186548,0.707106781186548,1.,1.,-1.1875,0.5,            151P    270
-5.18943013957713D-33,-1.1875,0.5,-2.,-1.1875,0.6875,                151P    271
-5.18943013957713D-33,-1.1875,0.6875,-2.,-1.,0.6875,                 151P    272
-5.18943013957713D-33,-1.,0.6875,-2.,-0.8125,0.6875,                 151P    273
-5.18943013957713D-33,-0.8125,0.6875,-2.,-0.8125,0.5,                151P    274
-5.18943013957713D-33,-0.8125,0.5,-2.,-0.8125,0.3125,                151P    275
-5.18943013957713D-33,-0.8125,0.3125,-2.,-1.,0.3125,                 151P    276
-5.18943013957713D-33,-1.,0.3125,-2.,-1.1875,0.3125,                 151P    277
-5.18943013957713D-33,-1.1875,0.3125,-2.,-1.1875,0.5,                151P    278
-5.18943013957713D-33,-1.1875,0.5,-2.,1.24069134371499D-32,          151P    279
10.6666666666667,-3.14159265358979,3.14159265358979;                 151P    280
128,1,8,1,2,0,1,0,0,1,0.,0.,4.66666666666667,4.66666666666667,       153P    281
-3.14159265358979,-3.14159265358979,-3.14159265358979,               153P    282
-1.5707963267949,-1.5707963267949,0.,0.,1.5707963267949,             153P    283
1.5707963267949,3.14159265358979,3.14159265358979,                   153P    284
3.14159265358979,1.,1.,0.707106781186548,0.707106781186548,1.,       153P    285
1.,0.707106781186548,0.707106781186548,1.,1.,0.707106781186548,      153P    286
0.707106781186548,1.,1.,0.707106781186548,0.707106781186548,1.,      153P    287
1.,-0.745739068054236,0.875,-1.18402297275314,                       153P    288
-0.745739068054236,0.,-1.18402297275314,-0.745739068054236,          153P    289
0.875,-1.37152297275314,-0.745739068054236,0.,-1.37152297275314,     153P    290
-0.558239068054236,0.875,-1.37152297275314,-0.558239068054236,       153P    291
0.,-1.37152297275314,-0.370739068054236,0.875,-1.37152297275314,     153P    292
-0.370739068054236,0.,-1.37152297275314,-0.370739068054236,          153P    293
0.875,-1.18402297275314,-0.370739068054236,0.,-1.18402297275314,     153P    294
-0.370739068054236,0.875,-0.99652297275314,-0.370739068054236,       153P    295
0.,-0.99652297275314,-0.558239068054236,0.875,-0.99652297275314,     153P    296
-0.558239068054236,0.,-0.99652297275314,-0.745739068054236,          153P    297
0.875,-0.99652297275314,-0.745739068054236,0.,-0.99652297275314,     153P    298
-0.745739068054236,0.875,-1.18402297275314,-0.745739068054236,       153P    299
0.,-1.18402297275314,0.,4.66666666666667,-3.14159265358979,          153P    300
3.14159265358979;                                                    153P    301
128,1,8,1,2,0,1,0,0,1,0.,0.,1.84971098265896,1.84971098265896,       155P    302
-3.14159265358979,-3.14159265358979,-3.14159265358979,               155P    303
-1.5707963267949,-1.5707963267949,0.,0.,1.5707963267949,             155P    304
1.5707963267949,3.14159265358979,3.14159265358979,                   155P    305
3.14159265358979,1.,1.,0.707106781186548,0.707106781186548,1.,       155P    306
1.,0.707106781186548,0.707106781186548,1.,1.,0.707106781186548,      155P    307
0.707106781186548,1.,1.,0.707106781186548,0.707106781186548,1.,      155P    308
1.,-1.1825,1.675,-1.3175,-1.1825,0.875,-1.3175,-1.1825,1.675,        155P    309
-1.75,-1.1825,0.875,-1.75,-0.75,1.675,-1.75,-0.75,0.875,-1.75,       155P    310
-0.3175,1.675,-1.75,-0.3175,0.875,-1.75,-0.3175,1.675,-1.3175,       155P    311
-0.3175,0.875,-1.3175,-0.3175,1.675,-0.885,-0.3175,0.875,-0.885,     155P    312
-0.75,1.675,-0.885,-0.75,0.875,-0.885,-1.1825,1.675,-0.885,          155P    313
-1.1825,0.875,-0.885,-1.1825,1.675,-1.3175,-1.1825,0.875,            155P    314
-1.3175,0.,1.84971098265896,-3.14159265358979,3.14159265358979;      155P    315
128,1,1,1,1,0,0,1,0,0,-0.4335,-0.4335,0.4335,0.4335,-0.4335,         157P    316
-0.4335,0.4335,0.4335,1.,1.,1.,1.,-1.1835,0.875,-1.751,-1.1835,      157P    317
0.875,-0.884,-0.3165,0.875,-1.751,-0.3165,0.875,-0.884,-0.4335,      157P    318
0.4335,-0.4335,0.4335;                                               157P    319
128,1,1,1,1,0,0,1,0,0,0.6115,0.6115,1.3885,1.3885,-0.001,-0.001,     159P    320
0.926,0.926,1.,1.,1.,1.,-0.6115,-0.001,-2.,-1.3885,-0.001,-2.,       159P    321
-0.6115,0.926,-2.,-1.3885,0.926,-2.,0.6115,1.3885,-0.001,0.926;      159P    322
128,1,1,1,1,0,0,1,0,0,-1.001,-1.001,1.001,1.001,-0.3885,-0.3885,     161P    323
0.8835,0.8835,1.,1.,1.,1.,-1.3885,0.,0.000999999999999907,           161P    324
-1.3885,0.,-2.001,-0.1165,0.,0.000999999999999907,-0.1165,0.,        161P    325
-2.001,-1.001,1.001,-0.3885,0.8835;                                  161P    326
502,25,-0.6125,0.925,-1.9348734688177,-0.6125,0.925,                 163P    327
-0.7001265311823,-0.6125,0.925,-2.,-1.3875,0.925,-2.,-1.3875,        163P    328
0.925,0.,-0.6125,0.925,0.,-0.6125,0.,-1.9348734688177,-0.6125,       163P    329
0.,-2.,-0.6125,1.675,-1.9348734688177,-0.1175,1.675,-1.3175,         163P    330
-0.3175,1.675,-1.3175,-1.1825,1.675,-1.3175,-0.6125,0.,              163P    331
-1.75366949544331D-33,-0.6125,0.,-0.7001265311823,-0.1175,0.,        163P    332
-1.3175,-1.3875,0.,-2.,-1.3875,0.,8.57252786761767D-17,-0.8125,      163P    333
0.5,-2.32629626946561D-33,-1.1875,0.5,-5.18943013957713D-33,         163P    334
-1.1875,0.5,-2.,-0.370739068054236,0.875,-1.18402297275314,          163P    335
-0.745739068054236,0.875,-1.18402297275314,-0.745739068054236,       163P    336
0.,-1.18402297275314,-1.1825,0.875,-1.3175,-0.3175,0.875,            163P    337
-1.3175;                                                             163P    338
504,35,67,163,1,163,2,69,163,3,163,1,71,163,4,163,3,73,163,5,        165P    339
163,4,75,163,6,163,5,77,163,2,163,6,79,163,1,163,7,81,163,8,163,     165P    340
7,83,163,3,163,8,85,163,9,163,10,87,163,10,163,9,89,163,11,163,      165P    341
12,91,163,12,163,11,93,163,13,163,6,95,163,14,163,13,97,163,2,       165P    342
163,14,99,163,10,163,15,101,163,7,163,15,103,163,15,163,14,105,      165P    343
163,16,163,4,107,163,17,163,16,109,163,5,163,17,111,163,17,163,      165P    344
13,113,163,18,163,19,115,163,19,163,18,117,163,19,163,20,119,        165P    345
163,20,163,20,121,163,21,163,22,123,163,22,163,21,125,163,22,        165P    346
163,23,127,163,23,163,23,129,163,12,163,24,131,163,24,163,25,        165P    347
133,163,25,163,24,135,163,8,163,16;                                  165P    348
406,1,5HBody1;                                                       167P    349
314,74.9019607843137,74.9019607843137,74.9019607843137,19HOpaque     169P    350
(191,191,191);                                                       169P    351
314,62.7450980392157,62.7450980392157,62.7450980392157,13HSteel      171P    352
- Satin;                                                             171P    353
S      1G      3D    172P    353                                        T      1
