                                                                        S      1
,,22HDHECbottomlockcapv2 v4,22HDHECbottomlockcapv2 v4,7Hunknown,7HunknowG      1
n,32,38,7,99,15,,1.,2,2HMM,1,0.08,15H20210504.162824,0.01,10000.,7HunknoG      2
wn,7Hunknown,11,0,15H20210222.202412;                                   G      3
     186       1                                                00000000D      1
     186            -187       1       0                               0D      2
     514       2                                                00010000D      3
     514                       2       1                               0D      4
     510       4                                                00010000D      5
     510            -187       1       1                               0D      6
     510       5                                                00010000D      7
     510            -187       1       1                               0D      8
     510       6                                                00010000D      9
     510            -187       1       1                               0D     10
     510       7                                                00010000D     11
     510            -187       1       1                               0D     12
     510       8                                                00010000D     13
     510            -187       1       1                               0D     14
     510       9                                                00010000D     15
     510            -187       1       1                               0D     16
     510      10                                                00010000D     17
     510            -187       1       1                               0D     18
     510      11                                                00010000D     19
     510            -187       1       1                               0D     20
     510      12                                                00010000D     21
     510            -187       1       1                               0D     22
     510      13                                                00010000D     23
     510            -187       1       1                               0D     24
     510      14                                                00010000D     25
     510            -187       1       1                               0D     26
     510      15                                                00010000D     27
     510            -187       1       1                               0D     28
     510      16                                                00010000D     29
     510            -187       1       1                               0D     30
     510      17                                                00010000D     31
     510            -187       1       1                               0D     32
     510      18                                                00010000D     33
     510            -187       1       1                               0D     34
     510      19                                                00010000D     35
     510            -187       1       1                               0D     36
     508      20                                                00010000D     37
     508                       1       1                               0D     38
     508      21                                                00010000D     39
     508                       1       1                               0D     40
     508      22                                                00010000D     41
     508                       1       1                               0D     42
     508      23                                                00010000D     43
     508                       1       1                               0D     44
     508      24                                                00010000D     45
     508                       1       1                               0D     46
     508      25                                                00010000D     47
     508                       1       1                               0D     48
     508      26                                                00010000D     49
     508                       1       1                               0D     50
     508      27                                                00010000D     51
     508                       1       1                               0D     52
     508      28                                                00010000D     53
     508                       1       1                               0D     54
     508      29                                                00010000D     55
     508                       1       1                               0D     56
     508      30                                                00010000D     57
     508                       1       1                               0D     58
     508      31                                                00010000D     59
     508                       1       1                               0D     60
     508      32                                                00010000D     61
     508                       1       1                               0D     62
     508      33                                                00010000D     63
     508                       1       1                               0D     64
     508      34                                                00010000D     65
     508                       2       1                               0D     66
     508      36                                                00010000D     67
     508                       1       1                               0D     68
     508      37                                                00010000D     69
     508                       1       1                               0D     70
     508      38                                                00010000D     71
     508                       1       1                               0D     72
     508      39                                                00010000D     73
     508                       2       1                               0D     74
     508      41                                                00010000D     75
     508                       1       1                               0D     76
     508      42                                                00010000D     77
     508                       1       1                               0D     78
     126      43                                                00010000D     79
     126       0               2       0                               0D     80
     126      45                                                00010000D     81
     126       0               5       0                               0D     82
     126      50                                                00010000D     83
     126       0               2       0                               0D     84
     126      52                                                00010000D     85
     126       0               5       0                               0D     86
     126      57                                                00010000D     87
     126       0               9       0                               0D     88
     126      66                                                00010000D     89
     126       0               9       0                               0D     90
     126      75                                                00010000D     91
     126       0               2       0                               0D     92
     126      77                                                00010000D     93
     126       0               2       0                               0D     94
     126      79                                                00010000D     95
     126       0               5       0                               0D     96
     126      84                                                00010000D     97
     126       0               2       0                               0D     98
     126      86                                                00010000D     99
     126       0               2       0                               0D    100
     126      88                                                00010000D    101
     126       0               2       0                               0D    102
     126      90                                                00010000D    103
     126       0               2       0                               0D    104
     126      92                                                00010000D    105
     126       0              10       0                               0D    106
     126     102                                                00010000D    107
     126       0               2       0                               0D    108
     126     104                                                00010000D    109
     126       0               2       0                               0D    110
     126     106                                                00010000D    111
     126       0               2       0                               0D    112
     126     108                                                00010000D    113
     126       0               9       0                               0D    114
     126     117                                                00010000D    115
     126       0               2       0                               0D    116
     126     119                                                00010000D    117
     126       0               9       0                               0D    118
     126     128                                                00010000D    119
     126       0               5       0                               0D    120
     126     133                                                00010000D    121
     126       0               2       0                               0D    122
     126     135                                                00010000D    123
     126       0               5       0                               0D    124
     126     140                                                00010000D    125
     126       0               2       0                               0D    126
     126     142                                                00010000D    127
     126       0               2       0                               0D    128
     126     144                                                00010000D    129
     126       0               2       0                               0D    130
     126     146                                                00010000D    131
     126       0               2       0                               0D    132
     126     148                                                00010000D    133
     126       0               2       0                               0D    134
     126     150                                                00010000D    135
     126       0               5       0                               0D    136
     126     155                                                00010000D    137
     126       0               2       0                               0D    138
     126     157                                                00010000D    139
     126       0               2       0                               0D    140
     126     159                                                00010000D    141
     126       0               2       0                               0D    142
     126     161                                                00010000D    143
     126       0               2       0                               0D    144
     126     163                                                00010000D    145
     126       0               2       0                               0D    146
     126     165                                                00010000D    147
     126       0              10       0                               0D    148
     128     175                                                00010000D    149
     128       0    -187       3       0                               0D    150
     128     178                                                00010000D    151
     128       0    -187      13       0                               0D    152
     128     191                                                00010000D    153
     128       0    -187       7       0                               0D    154
     128     198                                                00010000D    155
     128       0    -187       3       0                               0D    156
     128     201                                                00010000D    157
     128       0    -187       3       0                               0D    158
     128     204                                                00010000D    159
     128       0    -187      12       0                               0D    160
     128     216                                                00010000D    161
     128       0    -187       7       0                               0D    162
     128     223                                                00010000D    163
     128       0    -187       3       0                               0D    164
     128     226                                                00010000D    165
     128       0    -187       3       0                               0D    166
     128     229                                                00010000D    167
     128       0    -187       4       0                               0D    168
     128     233                                                00010000D    169
     128       0    -187       3       0                               0D    170
     128     236                                                00010000D    171
     128       0    -187       9       0                               0D    172
     128     245                                                00010000D    173
     128       0    -187       3       0                               0D    174
     128     248                                                00010000D    175
     128       0    -187       3       0                               0D    176
     128     251                                                00010000D    177
     128       0    -187      12       0                               0D    178
     128     263                                                00010000D    179
     128       0    -187       3       0                               0D    180
     502     266                                                00010000D    181
     502                       6       1                               0D    182
     504     272                                                00010001D    183
     504                      10       1                               0D    184
     406     282                                                00000000D    185
     406                       1      15                               0D    186
     314     283                                                00000200D    187
     314                       2       0                               0D    188
186,3,1,0,0,1,185;                                                     1P      1
514,16,5,1,7,1,9,1,11,1,13,1,15,1,17,1,19,1,21,1,23,1,25,1,27,1,       3P      2
29,1,31,1,33,1,35,1;                                                   3P      3
510,149,2,1,37,39;                                                     5P      4
510,151,1,1,41;                                                        7P      5
510,153,1,1,43;                                                        9P      6
510,155,2,1,45,47;                                                    11P      7
510,157,2,1,49,51;                                                    13P      8
510,159,1,1,53;                                                       15P      9
510,161,1,1,55;                                                       17P     10
510,163,2,1,57,59;                                                    19P     11
510,165,2,1,61,63;                                                    21P     12
510,167,1,1,65;                                                       23P     13
510,169,1,1,67;                                                       25P     14
510,171,1,1,69;                                                       27P     15
510,173,1,1,71;                                                       29P     16
510,175,1,1,73;                                                       31P     17
510,177,1,1,75;                                                       33P     18
510,179,1,1,77;                                                       35P     19
508,4,0,183,1,1,0,0,183,2,1,0,0,183,3,1,0,0,183,4,1,0;                37P     20
508,1,0,183,5,1,0;                                                    39P     21
508,4,0,183,6,1,0,0,183,7,1,0,0,183,5,0,0,0,183,7,0,0;                41P     22
508,4,0,183,4,0,0,0,183,8,1,0,0,183,9,1,0,0,183,10,0,0;               43P     23
508,4,0,183,11,0,0,0,183,12,0,0,0,183,9,0,0,0,183,13,0,0;             45P     24
508,1,0,183,6,0,0;                                                    47P     25
508,1,0,183,14,1,0;                                                   49P     26
508,4,0,183,15,1,0,0,183,11,1,0,0,183,16,1,0,0,183,17,1,0;            51P     27
508,4,0,183,18,0,0,0,183,19,1,0,0,183,20,1,0,0,183,19,0,0;            53P     28
508,4,0,183,21,1,0,0,183,22,1,0,0,183,23,0,0,0,183,24,0,0;            55P     29
508,4,0,183,17,0,0,0,183,25,1,0,0,183,23,1,0,0,183,26,1,0;            57P     30
508,1,0,183,18,1,0;                                                   59P     31
508,4,0,183,27,1,0,0,183,21,0,0,0,183,28,1,0,0,183,29,1,0;            61P     32
508,1,0,183,20,0,0;                                                   63P     33
508,6,0,183,15,0,0,0,183,26,0,0,0,183,22,0,0,0,183,30,0,0,0,183,      65P     34
10,1,0,0,183,12,1,0;                                                  65P     35
508,4,0,183,30,1,0,0,183,27,0,0,0,183,31,0,0,0,183,1,0,0;             67P     36
508,4,0,183,31,1,0,0,183,29,0,0,0,183,32,0,0,0,183,2,0,0;             69P     37
508,4,0,183,32,1,0,0,183,28,0,0,0,183,33,0,0,0,183,3,0,0;             71P     38
508,6,0,183,33,1,0,0,183,24,1,0,0,183,25,0,0,0,183,16,0,0,0,183,      73P     39
13,1,0,0,183,8,0,0;                                                   73P     40
508,4,0,183,14,0,0,0,183,34,1,0,0,183,35,1,0,0,183,34,0,0;            75P     41
508,1,0,183,35,0,0;                                                   77P     42
126,1,1,0,0,1,0,0.,0.,0.35,0.35,1.,1.,-17.5,-10.,15.,-17.5,-6.5,      79P     43
15.,0.,0.35,0.,0.,0.;                                                 79P     44
126,4,2,0,0,0,0,-3.14159265358979,-3.14159265358979,                  81P     45
-3.14159265358979,-1.5707963267949,-1.5707963267949,0.,0.,0.,1.,      81P     46
0.707106781186548,1.,0.707106781186547,1.,-17.5,-6.5,15.,-17.5,       81P     47
-6.5,8.5,-17.5,3.9801020972289D-16,8.5,-17.5,6.5,8.5,-17.5,6.5,       81P     48
15.,-3.14159265358979,0.,0.,0.,0.;                                    81P     49
126,1,1,0,0,1,0,-0.35,-0.35,0.,0.,1.,1.,-17.5,6.5,15.,-17.5,10.,      83P     50
15.,-0.35,0.,0.,0.,0.;                                                83P     51
126,4,2,0,0,0,0,0.,0.,0.,1.5707963267949,1.5707963267949,             85P     52
3.14159265358979,3.14159265358979,3.14159265358979,1.,                85P     53
0.707106781186547,1.,0.707106781186547,1.,-17.5,10.,15.,-17.5,        85P     54
10.,25.,-17.5,6.12323399573677D-16,25.,-17.5,-10.,25.,-17.5,          85P     55
-10.,15.,0.,3.14159265358979,0.,0.,0.;                                85P     56
126,8,2,0,1,0,0,-3.14159265358979,-3.14159265358979,                  87P     57
-3.14159265358979,-1.5707963267949,-1.5707963267949,0.,0.,            87P     58
1.5707963267949,1.5707963267949,3.14159265358979,                     87P     59
3.14159265358979,3.14159265358979,1.,0.707106781186547,1.,            87P     60
0.707106781186547,1.,0.707106781186547,1.,0.707106781186547,1.,       87P     61
-17.5,-3.5,15.,-17.5,-3.5,18.5,-17.5,2.14313189850787D-16,18.5,       87P     62
-17.5,3.5,18.5,-17.5,3.5,15.,-17.5,3.5,11.5,-17.5,                    87P     63
2.14313189850787D-16,11.5,-17.5,-3.5,11.5,-17.5,-3.5,15.,             87P     64
-3.14159265358979,3.14159265358979,0.,0.,0.;                          87P     65
126,8,2,0,1,0,0,-3.14159265358979,-3.14159265358979,                  89P     66
-3.14159265358979,-1.5707963267949,-1.5707963267949,0.,0.,            89P     67
1.5707963267949,1.5707963267949,3.14159265358979,                     89P     68
3.14159265358979,3.14159265358979,1.,0.707106781186547,1.,            89P     69
0.707106781186547,1.,0.707106781186547,1.,0.707106781186547,1.,       89P     70
-22.5,-3.5,15.,-22.5,-3.5,18.5,-22.5,2.14313189850787D-16,18.5,       89P     71
-22.5,3.5,18.5,-22.5,3.5,15.,-22.5,3.5,11.5,-22.5,                    89P     72
2.14313189850787D-16,11.5,-22.5,-3.5,11.5,-22.5,-3.5,15.,             89P     73
-3.14159265358979,3.14159265358979,0.,0.,0.;                          89P     74
126,1,1,0,0,1,0,-1.42857142857143,-1.42857142857143,0.,0.,1.,1.,      91P     75
-22.5,-3.5,15.,-17.5,-3.5,15.,-1.42857142857143,0.,0.,0.,0.;          91P     76
126,1,1,0,0,1,0,0.,0.,0.5,0.5,1.,1.,-17.5,10.,15.,-22.5,10.,15.,      93P     77
0.,0.5,0.,0.,0.;                                                      93P     78
126,4,2,0,0,0,0,0.,0.,0.,1.5707963267949,1.5707963267949,             95P     79
3.14159265358979,3.14159265358979,3.14159265358979,1.,                95P     80
0.707106781186547,1.,0.707106781186547,1.,-22.5,10.,15.,-22.5,        95P     81
10.,25.,-22.5,6.12323399573677D-16,25.,-22.5,-10.,25.,-22.5,          95P     82
-10.,15.,0.,3.14159265358979,0.,0.,0.;                                95P     83
126,1,1,0,0,1,0,0.,0.,0.5,0.5,1.,1.,-17.5,-10.,15.,-22.5,-10.,        97P     84
15.,0.,0.5,0.,0.,0.;                                                  97P     85
126,1,1,0,0,1,0,-1.,-1.,1.,1.,1.,1.,-22.5,-10.,5.,-22.5,10.,5.,       99P     86
-1.,1.,0.,0.,0.;                                                      99P     87
126,1,1,0,0,1,0,-1.,-1.,0.,0.,1.,1.,-22.5,-10.,15.,-22.5,-10.,       101P     88
5.,-1.,0.,0.,0.,0.;                                                  101P     89
126,1,1,0,0,1,0,0.,0.,1.,1.,1.,1.,-22.5,10.,5.,-22.5,10.,15.,0.,     103P     90
1.,0.,0.,0.;                                                         103P     91
126,8,2,0,1,0,0,-3.14159265358979,-3.14159265358979,                 105P     92
-3.14159265358979,-1.5707963267949,-1.5707963267949,0.,0.,           105P     93
1.5707963267949,1.5707963267949,3.14159265358979,                    105P     94
3.14159265358979,3.14159265358979,1.,0.707106781186547,1.,           105P     95
0.707106781186548,1.,0.707106781186548,1.,0.707106781186547,1.,      105P     96
-37.5,-4.59242549680258D-15,5.,-37.5,-37.5,5.,                       105P     97
2.29621274840129D-15,-37.5,5.,37.5,-37.5,5.,37.5,0.,5.,37.5,         105P     98
37.5,5.,2.29621274840129D-15,37.5,5.,-37.5,37.5,5.,-37.5,            105P     99
4.59242549680258D-15,5.,-3.14159265358979,3.14159265358979,0.,       105P    100
0.,0.;                                                               105P    101
126,1,1,0,0,1,0,-3.125,-3.125,1.375,1.375,1.,1.,22.5,-10.,5.,        107P    102
-22.5,-10.,5.,-3.125,1.375,0.,0.,0.;                                 107P    103
126,1,1,0,0,1,0,-1.375,-1.375,3.125,3.125,1.,1.,-22.5,10.,5.,        109P    104
22.5,10.,5.,-1.375,3.125,0.,0.,0.;                                   109P    105
126,1,1,0,0,1,0,-1.,-1.,1.,1.,1.,1.,22.5,10.,5.,22.5,-10.,5.,        111P    106
-1.,1.,0.,0.,0.;                                                     111P    107
126,8,2,0,1,0,0,-3.14159265358979,-3.14159265358979,                 113P    108
-3.14159265358979,-1.5707963267949,-1.5707963267949,0.,0.,           113P    109
1.5707963267949,1.5707963267949,3.14159265358979,                    113P    110
3.14159265358979,3.14159265358979,1.,0.707106781186547,1.,           113P    111
0.707106781186547,1.,0.707106781186547,1.,0.707106781186547,1.,      113P    112
22.5,-3.5,15.,22.5,-3.5,18.5,22.5,2.14313189850787D-16,18.5,         113P    113
22.5,3.5,18.5,22.5,3.5,15.,22.5,3.5,11.5,22.5,                       113P    114
2.14313189850787D-16,11.5,22.5,-3.5,11.5,22.5,-3.5,15.,              113P    115
-3.14159265358979,3.14159265358979,0.,0.,0.;                         113P    116
126,1,1,0,0,1,0,-1.42857142857143,-1.42857142857143,0.,0.,1.,1.,     115P    117
22.5,-3.5,15.,17.5,-3.5,15.,-1.42857142857143,0.,0.,0.,0.;           115P    118
126,8,2,0,1,0,0,-3.14159265358979,-3.14159265358979,                 117P    119
-3.14159265358979,-1.5707963267949,-1.5707963267949,0.,0.,           117P    120
1.5707963267949,1.5707963267949,3.14159265358979,                    117P    121
3.14159265358979,3.14159265358979,1.,0.707106781186547,1.,           117P    122
0.707106781186547,1.,0.707106781186547,1.,0.707106781186547,1.,      117P    123
17.5,-3.5,15.,17.5,-3.5,18.5,17.5,2.14313189850787D-16,18.5,         117P    124
17.5,3.5,18.5,17.5,3.5,15.,17.5,3.5,11.5,17.5,                       117P    125
2.14313189850787D-16,11.5,17.5,-3.5,11.5,17.5,-3.5,15.,              117P    126
-3.14159265358979,3.14159265358979,0.,0.,0.;                         117P    127
126,4,2,0,0,0,0,0.,0.,0.,1.5707963267949,1.5707963267949,            119P    128
3.14159265358979,3.14159265358979,3.14159265358979,1.,               119P    129
0.707106781186547,1.,0.707106781186547,1.,17.5,10.,15.,17.5,10.,     119P    130
25.,17.5,6.12323399573677D-16,25.,17.5,-10.,25.,17.5,-10.,15.,       119P    131
0.,3.14159265358979,0.,0.,0.;                                        119P    132
126,1,1,0,0,1,0,0.,0.,0.5,0.5,1.,1.,17.5,-10.,15.,22.5,-10.,15.,     121P    133
0.,0.5,0.,0.,0.;                                                     121P    134
126,4,2,0,0,0,0,0.,0.,0.,1.5707963267949,1.5707963267949,            123P    135
3.14159265358979,3.14159265358979,3.14159265358979,1.,               123P    136
0.707106781186547,1.,0.707106781186547,1.,22.5,10.,15.,22.5,10.,     123P    137
25.,22.5,6.12323399573677D-16,25.,22.5,-10.,25.,22.5,-10.,15.,       123P    138
0.,3.14159265358979,0.,0.,0.;                                        123P    139
126,1,1,0,0,1,0,0.,0.,0.5,0.5,1.,1.,17.5,10.,15.,22.5,10.,15.,       125P    140
0.,0.5,0.,0.,0.;                                                     125P    141
126,1,1,0,0,1,0,0.,0.,1.,1.,1.,1.,22.5,10.,5.,22.5,10.,15.,0.,       127P    142
1.,0.,0.,0.;                                                         127P    143
126,1,1,0,0,1,0,-1.,-1.,0.,0.,1.,1.,22.5,-10.,15.,22.5,-10.,5.,      129P    144
-1.,0.,0.,0.,0.;                                                     129P    145
126,1,1,0,0,1,0,-0.35,-0.35,0.,0.,1.,1.,17.5,-6.5,15.,17.5,-10.,     131P    146
15.,-0.35,0.,0.,0.,0.;                                               131P    147
126,1,1,0,0,1,0,0.,0.,0.35,0.35,1.,1.,17.5,10.,15.,17.5,6.5,15.,     133P    148
0.,0.35,0.,0.,0.;                                                    133P    149
126,4,2,0,0,0,0,0.,0.,0.,1.5707963267949,1.5707963267949,            135P    150
3.14159265358979,3.14159265358979,3.14159265358979,1.,               135P    151
0.707106781186547,1.,0.707106781186548,1.,17.5,6.5,15.,17.5,6.5,     135P    152
8.5,17.5,3.9801020972289D-16,8.5,17.5,-6.5,8.5,17.5,-6.5,15.,0.,     135P    153
3.14159265358979,0.,0.,0.;                                           135P    154
126,1,1,0,0,1,0,-1.75,-1.75,1.75,1.75,1.,1.,-17.5,-10.,15.,17.5,     137P    155
-10.,15.,-1.75,1.75,0.,0.,0.;                                        137P    156
126,1,1,0,0,1,0,-1.75,-1.75,1.75,1.75,1.,1.,-17.5,-6.5,15.,17.5,     139P    157
-6.5,15.,-1.75,1.75,0.,0.,0.;                                        139P    158
126,1,1,0,0,1,0,-1.75,-1.75,1.75,1.75,1.,1.,-17.5,6.5,15.,17.5,      141P    159
6.5,15.,-1.75,1.75,0.,0.,0.;                                         141P    160
126,1,1,0,0,1,0,-1.75,-1.75,1.75,1.75,1.,1.,-17.5,10.,15.,17.5,      143P    161
10.,15.,-1.75,1.75,0.,0.,0.;                                         143P    162
126,1,1,0,0,1,0,-0.133333333333333,-0.133333333333333,0.,0.,1.,      145P    163
1.,-37.5,0.,5.,-37.5,0.,0.,-0.133333333333333,0.,0.,0.,0.;           145P    164
126,8,2,0,1,0,0,-3.14159265358979,-3.14159265358979,                 147P    165
-3.14159265358979,-1.5707963267949,-1.5707963267949,0.,0.,           147P    166
1.5707963267949,1.5707963267949,3.14159265358979,                    147P    167
3.14159265358979,3.14159265358979,1.,0.707106781186547,1.,           147P    168
0.707106781186548,1.,0.707106781186548,1.,0.707106781186547,1.,      147P    169
-37.5,-4.59242549680258D-15,0.,-37.5,-37.5,0.,                       147P    170
2.29621274840129D-15,-37.5,0.,37.5,-37.5,0.,37.5,0.,0.,37.5,         147P    171
37.5,0.,2.29621274840129D-15,37.5,0.,-37.5,37.5,0.,-37.5,            147P    172
4.59242549680258D-15,0.,-3.14159265358979,3.14159265358979,0.,       147P    173
0.,0.;                                                               147P    174
128,1,1,1,1,0,0,1,0,0,-1.001,-1.001,1.001,1.001,-0.651,-0.651,       149P    175
1.001,1.001,1.,1.,1.,1.,-17.5,-10.01,8.49,-17.5,10.01,8.49,          149P    176
-17.5,-10.01,25.01,-17.5,10.01,25.01,-1.001,1.001,-0.651,1.001;      149P    177
128,1,8,1,2,0,1,0,0,1,0.,0.,1.42857142857143,1.42857142857143,       151P    178
-3.14159265358979,-3.14159265358979,-3.14159265358979,               151P    179
-1.5707963267949,-1.5707963267949,0.,0.,1.5707963267949,             151P    180
1.5707963267949,3.14159265358979,3.14159265358979,                   151P    181
3.14159265358979,1.,1.,0.707106781186548,0.707106781186548,1.,       151P    182
1.,0.707106781186548,0.707106781186548,1.,1.,0.707106781186548,      151P    183
0.707106781186548,1.,1.,0.707106781186548,0.707106781186548,1.,      151P    184
1.,-22.5,-3.5,15.,-17.5,-3.5,15.,-22.5,-3.5,11.5,-17.5,-3.5,         151P    185
11.5,-22.5,0.,11.5,-17.5,0.,11.5,-22.5,3.5,11.5,-17.5,3.5,11.5,      151P    186
-22.5,3.5,15.,-17.5,3.5,15.,-22.5,3.5,18.5,-17.5,3.5,18.5,-22.5,     151P    187
0.,18.5,-17.5,0.,18.5,-22.5,-3.5,18.5,-17.5,-3.5,18.5,-22.5,         151P    188
-3.5,15.,-17.5,-3.5,15.,0.,1.42857142857143,-3.14159265358979,       151P    189
3.14159265358979;                                                    151P    190
128,1,4,1,2,0,0,0,0,0,0.,0.,0.5,0.5,0.,0.,0.,1.5707963267949,        153P    191
1.5707963267949,3.14159265358979,3.14159265358979,                   153P    192
3.14159265358979,1.,1.,0.707106781186548,0.707106781186548,1.,       153P    193
1.,0.707106781186548,0.707106781186548,1.,1.,-17.5,10.,15.,          153P    194
-22.5,10.,15.,-17.5,10.,25.,-22.5,10.,25.,-17.5,0.,25.,-22.5,0.,     153P    195
25.,-17.5,-10.,25.,-22.5,-10.,25.,-17.5,-10.,15.,-22.5,-10.,15.,     153P    196
0.,0.5,0.,3.14159265358979;                                          153P    197
128,1,1,1,1,0,0,1,0,0,-1.001,-1.001,1.001,1.001,-1.001,-1.001,       155P    198
1.001,1.001,1.,1.,1.,1.,-22.5,10.01,4.99,-22.5,-10.01,4.99,          155P    199
-22.5,10.01,25.01,-22.5,-10.01,25.01,-1.001,1.001,-1.001,1.001;      155P    200
128,1,1,1,1,0,0,1,0,0,-3.751,-3.751,3.751,3.751,-3.751,-3.751,       157P    201
3.751,3.751,1.,1.,1.,1.,-37.51,-37.51,5.,37.51,-37.51,5.,-37.51,     157P    202
37.51,5.,37.51,37.51,5.,-3.751,3.751,-3.751,3.751;                   157P    203
128,1,8,1,2,0,1,0,0,1,0.,0.,1.42857142857143,1.42857142857143,       159P    204
-3.14159265358979,-3.14159265358979,-3.14159265358979,               159P    205
-1.5707963267949,-1.5707963267949,0.,0.,1.5707963267949,             159P    206
1.5707963267949,3.14159265358979,3.14159265358979,                   159P    207
3.14159265358979,1.,1.,0.707106781186548,0.707106781186548,1.,       159P    208
1.,0.707106781186548,0.707106781186548,1.,1.,0.707106781186548,      159P    209
0.707106781186548,1.,1.,0.707106781186548,0.707106781186548,1.,      159P    210
1.,17.5,-3.5,15.,22.5,-3.5,15.,17.5,-3.5,11.5,22.5,-3.5,11.5,        159P    211
17.5,0.,11.5,22.5,0.,11.5,17.5,3.5,11.5,22.5,3.5,11.5,17.5,3.5,      159P    212
15.,22.5,3.5,15.,17.5,3.5,18.5,22.5,3.5,18.5,17.5,0.,18.5,22.5,      159P    213
0.,18.5,17.5,-3.5,18.5,22.5,-3.5,18.5,17.5,-3.5,15.,22.5,-3.5,       159P    214
15.,0.,1.42857142857143,-3.14159265358979,3.14159265358979;          159P    215
128,1,4,1,2,0,0,0,0,0,0.,0.,0.5,0.5,0.,0.,0.,1.5707963267949,        161P    216
1.5707963267949,3.14159265358979,3.14159265358979,                   161P    217
3.14159265358979,1.,1.,0.707106781186548,0.707106781186548,1.,       161P    218
1.,0.707106781186548,0.707106781186548,1.,1.,22.5,10.,15.,17.5,      161P    219
10.,15.,22.5,10.,25.,17.5,10.,25.,22.5,0.,25.,17.5,0.,25.,22.5,      161P    220
-10.,25.,17.5,-10.,25.,22.5,-10.,15.,17.5,-10.,15.,0.,0.5,0.,        161P    221
3.14159265358979;                                                    161P    222
128,1,1,1,1,0,0,1,0,0,-1.001,-1.001,1.001,1.001,-1.001,-1.001,       163P    223
1.001,1.001,1.,1.,1.,1.,22.5,-10.01,4.99,22.5,10.01,4.99,22.5,       163P    224
-10.01,25.01,22.5,10.01,25.01,-1.001,1.001,-1.001,1.001;             163P    225
128,1,1,1,1,0,0,1,0,0,-1.001,-1.001,1.001,1.001,-0.651,-0.651,       165P    226
1.001,1.001,1.,1.,1.,1.,17.5,10.01,8.49,17.5,-10.01,8.49,17.5,       165P    227
10.01,25.01,17.5,-10.01,25.01,-1.001,1.001,-0.651,1.001;             165P    228
128,1,1,1,1,0,0,1,0,0,-0.00100000000000022,-0.00100000000000022,     167P    229
1.001,1.001,-2.251,-2.251,2.251,2.251,1.,1.,1.,1.,-22.51,-10.,       167P    230
15.01,-22.51,-10.,4.99,22.51,-10.,15.01,22.51,-10.,4.99,             167P    231
-0.00100000000000022,1.001,-2.251,2.251;                             167P    232
128,1,1,1,1,0,0,1,0,0,-0.001,-0.001,0.351,0.351,-1.751,-1.751,       169P    233
1.751,1.751,1.,1.,1.,1.,-17.51,-6.49,15.,-17.51,-10.01,15.,          169P    234
17.51,-6.49,15.,17.51,-10.01,15.,-0.001,0.351,-1.751,1.751;          169P    235
128,1,4,1,2,0,0,0,0,0,-2.69230769230769,-2.69230769230769,           171P    236
2.69230769230769,2.69230769230769,-3.14159265358979,                 171P    237
-3.14159265358979,-3.14159265358979,-1.5707963267949,                171P    238
-1.5707963267949,0.,0.,0.,1.,1.,0.707106781186548,                   171P    239
0.707106781186548,1.,1.,0.707106781186548,0.707106781186548,1.,      171P    240
1.,-17.5,-6.5,15.,17.5,-6.5,15.,-17.5,-6.5,8.5,17.5,-6.5,8.5,        171P    241
-17.5,0.,8.5,17.5,0.,8.5,-17.5,6.5,8.5,17.5,6.5,8.5,-17.5,6.5,       171P    242
15.,17.5,6.5,15.,-2.69230769230769,2.69230769230769,                 171P    243
-3.14159265358979,0.;                                                171P    244
128,1,1,1,1,0,0,1,0,0,-0.001,-0.001,0.351,0.351,-1.751,-1.751,       173P    245
1.751,1.751,1.,1.,1.,1.,-17.51,10.01,15.,-17.51,6.49,15.,17.51,      173P    246
10.01,15.,17.51,6.49,15.,-0.001,0.351,-1.751,1.751;                  173P    247
128,1,1,1,1,0,0,1,0,0,-0.001,-0.001,1.001,1.001,-2.251,-2.251,       175P    248
2.251,2.251,1.,1.,1.,1.,-22.51,10.,4.99,-22.51,10.,15.01,22.51,      175P    249
10.,4.99,22.51,10.,15.01,-0.001,1.001,-2.251,2.251;                  175P    250
128,1,8,1,2,0,1,0,0,1,0.,0.,0.133333333333333,0.133333333333333,     177P    251
-3.14159265358979,-3.14159265358979,-3.14159265358979,               177P    252
-1.5707963267949,-1.5707963267949,0.,0.,1.5707963267949,             177P    253
1.5707963267949,3.14159265358979,3.14159265358979,                   177P    254
3.14159265358979,1.,1.,0.707106781186548,0.707106781186548,1.,       177P    255
1.,0.707106781186548,0.707106781186548,1.,1.,0.707106781186548,      177P    256
0.707106781186548,1.,1.,0.707106781186548,0.707106781186548,1.,      177P    257
1.,-37.5,0.,5.,-37.5,0.,0.,-37.5,-37.5,5.,-37.5,-37.5,0.,0.,         177P    258
-37.5,5.,0.,-37.5,0.,37.5,-37.5,5.,37.5,-37.5,0.,37.5,0.,5.,         177P    259
37.5,0.,0.,37.5,37.5,5.,37.5,37.5,0.,0.,37.5,5.,0.,37.5,0.,          177P    260
-37.5,37.5,5.,-37.5,37.5,0.,-37.5,0.,5.,-37.5,0.,0.,0.,              177P    261
0.133333333333333,-3.14159265358979,3.14159265358979;                177P    262
128,1,1,1,1,0,0,1,0,0,-3.751,-3.751,3.751,3.751,-3.751,-3.751,       179P    263
3.751,3.751,1.,1.,1.,1.,37.51,-37.51,0.,-37.51,-37.51,0.,37.51,      179P    264
37.51,0.,-37.51,37.51,0.,-3.751,3.751,-3.751,3.751;                  179P    265
502,22,-17.5,-10.,15.,-17.5,-6.5,15.,-17.5,6.5,15.,-17.5,10.,        181P    266
15.,-17.5,-3.5,15.,-22.5,-3.5,15.,-22.5,10.,15.,-22.5,-10.,15.,      181P    267
-22.5,-10.,5.,-22.5,10.,5.,-37.5,-4.59242549680258D-15,5.,22.5,      181P    268
-10.,5.,22.5,10.,5.,22.5,-3.5,15.,17.5,-3.5,15.,17.5,10.,15.,        181P    269
17.5,-10.,15.,22.5,-10.,15.,22.5,10.,15.,17.5,-6.5,15.,17.5,6.5,     181P    270
15.,-37.5,-4.59242549680258D-15,0.;                                  181P    271
504,35,79,181,1,181,2,81,181,2,181,3,83,181,3,181,4,85,181,4,        183P    272
181,1,87,181,5,181,5,89,181,6,181,6,91,181,6,181,5,93,181,4,181,     183P    273
7,95,181,7,181,8,97,181,1,181,8,99,181,9,181,10,101,181,8,181,9,     183P    274
103,181,10,181,7,105,181,11,181,11,107,181,12,181,9,109,181,10,      183P    275
181,13,111,181,13,181,12,113,181,14,181,14,115,181,14,181,15,        183P    276
117,181,15,181,15,119,181,16,181,17,121,181,17,181,18,123,181,       183P    277
19,181,18,125,181,16,181,19,127,181,13,181,19,129,181,18,181,12,     183P    278
131,181,20,181,17,133,181,16,181,21,135,181,21,181,20,137,181,1,     183P    279
181,17,139,181,2,181,20,141,181,3,181,21,143,181,4,181,16,145,       183P    280
181,11,181,22,147,181,22,181,22;                                     183P    281
406,1,5HBody1;                                                       185P    282
314,62.7450980392157,62.7450980392157,62.7450980392157,13HSteel      187P    283
- Satin;                                                             187P    284
S      1G      3D    188P    284                                        T      1
