                                                                        S      1
,,20HDHEClockingbottom v1,20HDHEClockingbottom v1,7Hunknown,7Hunknown,  G      1
32,38,7,99,15,,1.,2,2HMM,1,0.08,15H20210504.162904,0.01,10000.,7HunknownG      2
,7Hunknown,11,0,15H20200916.162223;                                     G      3
     186       1                                                00000000D      1
     186            -223       1       0                               0D      2
     514       2                                                00010000D      3
     514                       2       1                               0D      4
     510       4                                                00010000D      5
     510            -223       1       1                               0D      6
     510       5                                                00010000D      7
     510            -223       1       1                               0D      8
     510       6                                                00010000D      9
     510            -223       1       1                               0D     10
     510       7                                                00010000D     11
     510            -223       1       1                               0D     12
     510       8                                                00010000D     13
     510            -223       1       1                               0D     14
     510       9                                                00010000D     15
     510            -223       1       1                               0D     16
     510      10                                                00010000D     17
     510            -223       1       1                               0D     18
     510      11                                                00010000D     19
     510            -223       1       1                               0D     20
     510      12                                                00010000D     21
     510            -223       1       1                               0D     22
     510      13                                                00010000D     23
     510            -223       1       1                               0D     24
     510      14                                                00010000D     25
     510            -223       1       1                               0D     26
     510      15                                                00010000D     27
     510            -223       1       1                               0D     28
     510      16                                                00010000D     29
     510            -223       1       1                               0D     30
     510      17                                                00010000D     31
     510            -223       1       1                               0D     32
     510      18                                                00010000D     33
     510            -223       1       1                               0D     34
     510      19                                                00010000D     35
     510            -223       1       1                               0D     36
     510      20                                                00010000D     37
     510            -223       1       1                               0D     38
     510      21                                                00010000D     39
     510            -223       1       1                               0D     40
     510      22                                                00010000D     41
     510            -223       1       1                               0D     42
     508      23                                                00010000D     43
     508                       1       1                               0D     44
     508      24                                                00010000D     45
     508                       1       1                               0D     46
     508      25                                                00010000D     47
     508                       1       1                               0D     48
     508      26                                                00010000D     49
     508                       1       1                               0D     50
     508      27                                                00010000D     51
     508                       1       1                               0D     52
     508      28                                                00010000D     53
     508                       1       1                               0D     54
     508      29                                                00010000D     55
     508                       1       1                               0D     56
     508      30                                                00010000D     57
     508                       1       1                               0D     58
     508      31                                                00010000D     59
     508                       1       1                               0D     60
     508      32                                                00010000D     61
     508                       1       1                               0D     62
     508      33                                                00010000D     63
     508                       1       1                               0D     64
     508      34                                                00010000D     65
     508                       1       1                               0D     66
     508      35                                                00010000D     67
     508                       1       1                               0D     68
     508      36                                                00010000D     69
     508                       1       1                               0D     70
     508      37                                                00010000D     71
     508                       1       1                               0D     72
     508      38                                                00010000D     73
     508                       1       1                               0D     74
     508      39                                                00010000D     75
     508                       1       1                               0D     76
     508      40                                                00010000D     77
     508                       1       1                               0D     78
     508      41                                                00010000D     79
     508                       1       1                               0D     80
     508      42                                                00010000D     81
     508                       1       1                               0D     82
     508      43                                                00010000D     83
     508                       1       1                               0D     84
     508      44                                                00010000D     85
     508                       1       1                               0D     86
     508      45                                                00010000D     87
     508                       1       1                               0D     88
     508      46                                                00010000D     89
     508                       1       1                               0D     90
     508      47                                                00010000D     91
     508                       2       1                               0D     92
     508      49                                                00010000D     93
     508                       1       1                               0D     94
     508      50                                                00010000D     95
     508                       1       1                               0D     96
     126      51                                                00010000D     97
     126       0               6       0                               0D     98
     126      57                                                00010000D     99
     126       0               4       0                               0D    100
     126      61                                                00010000D    101
     126       0               6       0                               0D    102
     126      67                                                00010000D    103
     126       0               4       0                               0D    104
     126      71                                                00010000D    105
     126       0               5       0                               0D    106
     126      76                                                00010000D    107
     126       0               2       0                               0D    108
     126      78                                                00010000D    109
     126       0               5       0                               0D    110
     126      83                                                00010000D    111
     126       0               2       0                               0D    112
     126      85                                                00010000D    113
     126       0               9       0                               0D    114
     126      94                                                00010000D    115
     126       0               2       0                               0D    116
     126      96                                                00010000D    117
     126       0               9       0                               0D    118
     126     105                                                00010000D    119
     126       0              11       0                               0D    120
     126     116                                                00010000D    121
     126       0               4       0                               0D    122
     126     120                                                00010000D    123
     126       0              11       0                               0D    124
     126     131                                                00010000D    125
     126       0               2       0                               0D    126
     126     133                                                00010000D    127
     126       0               2       0                               0D    128
     126     135                                                00010000D    129
     126       0               2       0                               0D    130
     126     137                                                00010000D    131
     126       0               3       0                               0D    132
     126     140                                                00010000D    133
     126       0               4       0                               0D    134
     126     144                                                00010000D    135
     126       0               3       0                               0D    136
     126     147                                                00010000D    137
     126       0               3       0                               0D    138
     126     150                                                00010000D    139
     126       0               3       0                               0D    140
     126     153                                                00010000D    141
     126       0               2       0                               0D    142
     126     155                                                00010000D    143
     126       0               2       0                               0D    144
     126     157                                                00010000D    145
     126       0               3       0                               0D    146
     126     160                                                00010000D    147
     126       0               4       0                               0D    148
     126     164                                                00010000D    149
     126       0               3       0                               0D    150
     126     167                                                00010000D    151
     126       0              12       0                               0D    152
     126     179                                                00010000D    153
     126       0               2       0                               0D    154
     126     181                                                00010000D    155
     126       0               2       0                               0D    156
     126     183                                                00010000D    157
     126       0              10       0                               0D    158
     126     193                                                00010000D    159
     126       0               6       0                               0D    160
     126     199                                                00010000D    161
     126       0               6       0                               0D    162
     126     205                                                00010000D    163
     126       0               2       0                               0D    164
     126     207                                                00010000D    165
     126       0               9       0                               0D    166
     126     216                                                00010000D    167
     126       0              10       0                               0D    168
     126     226                                                00010000D    169
     126       0               2       0                               0D    170
     126     228                                                00010000D    171
     126       0              10       0                               0D    172
     126     238                                                00010000D    173
     126       0               2       0                               0D    174
     126     240                                                00010000D    175
     126       0              10       0                               0D    176
     126     250                                                00010000D    177
     126       0               3       0                               0D    178
     128     253                                                00010000D    179
     128       0    -223      11       0                               0D    180
     128     264                                                00010000D    181
     128       0    -223       7       0                               0D    182
     128     271                                                00010000D    183
     128       0    -223      12       0                               0D    184
     128     283                                                00010000D    185
     128       0    -223      18       0                               0D    186
     128     301                                                00010000D    187
     128       0    -223       3       0                               0D    188
     128     304                                                00010000D    189
     128       0    -223       5       0                               0D    190
     128     309                                                00010000D    191
     128       0    -223       6       0                               0D    192
     128     315                                                00010000D    193
     128       0    -223       3       0                               0D    194
     128     318                                                00010000D    195
     128       0    -223       5       0                               0D    196
     128     323                                                00010000D    197
     128       0    -223       5       0                               0D    198
     128     328                                                00010000D    199
     128       0    -223       6       0                               0D    200
     128     334                                                00010000D    201
     128       0    -223       7       0                               0D    202
     128     341                                                00010000D    203
     128       0    -223       3       0                               0D    204
     128     344                                                00010000D    205
     128       0    -223       3       0                               0D    206
     128     347                                                00010000D    207
     128       0    -223       3       0                               0D    208
     128     350                                                00010000D    209
     128       0    -223      13       0                               0D    210
     128     363                                                00010000D    211
     128       0    -223      12       0                               0D    212
     128     375                                                00010000D    213
     128       0    -223      13       0                               0D    214
     128     388                                                00010000D    215
     128       0    -223       3       0                               0D    216
     502     391                                                00010000D    217
     502                      12       1                               0D    218
     504     403                                                00010001D    219
     504                      12       1                               0D    220
     406     415                                                00000000D    221
     406                       1      15                               0D    222
     314     416                                                00000200D    223
     314                       2       0                               0D    224
186,3,1,0,0,1,221;                                                     1P      1
514,19,5,1,7,1,9,1,11,1,13,1,15,1,17,1,19,1,21,1,23,1,25,1,27,1,       3P      2
29,1,31,1,33,1,35,1,37,1,39,1,41,1;                                    3P      3
510,179,1,1,43;                                                        5P      4
510,181,1,1,45;                                                        7P      5
510,183,1,1,47;                                                        9P      6
510,185,1,1,49;                                                       11P      7
510,187,1,1,51;                                                       13P      8
510,189,1,1,53;                                                       15P      9
510,191,2,1,55,57;                                                    17P     10
510,193,2,1,59,61;                                                    19P     11
510,195,1,1,63;                                                       21P     12
510,197,2,1,65,67;                                                    23P     13
510,199,3,1,69,71,73;                                                 25P     14
510,201,1,1,75;                                                       27P     15
510,203,1,1,77;                                                       29P     16
510,205,2,1,79,81;                                                    31P     17
510,207,2,1,83,85;                                                    33P     18
510,209,1,1,87;                                                       35P     19
510,211,1,1,89;                                                       37P     20
510,213,1,1,91;                                                       39P     21
510,215,2,1,93,95;                                                    41P     22
508,4,0,219,1,0,0,0,219,2,0,0,0,219,3,0,0,0,219,4,1,0;                43P     23
508,4,0,219,5,0,0,0,219,6,1,0,0,219,7,0,0,0,219,8,0,0;                45P     24
508,4,0,219,9,0,0,0,219,10,1,0,0,219,11,0,0,0,219,10,0,0;             47P     25
508,4,0,219,12,0,0,0,219,13,1,0,0,219,14,0,0,0,219,13,0,0;            49P     26
508,4,0,219,6,0,0,0,219,15,0,0,0,219,16,0,0,0,219,17,1,0;             51P     27
508,4,0,219,4,0,0,0,219,18,0,0,0,219,19,0,0,0,219,20,1,0;             53P     28
508,4,0,219,3,1,0,0,219,21,0,0,0,219,22,0,0,0,219,18,1,0;             55P     29
508,1,0,219,14,1,0;                                                   57P     30
508,4,0,219,5,1,0,0,219,23,0,0,0,219,24,0,0,0,219,15,1,0;             59P     31
508,1,0,219,11,1,0;                                                   61P     32
508,4,0,219,2,1,0,0,219,25,0,0,0,219,26,0,0,0,219,21,1,0;             63P     33
508,4,0,219,1,1,0,0,219,20,0,0,0,219,27,0,0,0,219,25,1,0;             65P     34
508,1,0,219,12,1,0;                                                   67P     35
508,4,0,219,19,1,0,0,219,28,1,0,0,219,26,1,0,0,219,27,1,0;            69P     36
508,4,0,219,24,1,0,0,219,29,1,0,0,219,30,1,0,0,219,16,1,0;            71P     37
508,1,0,219,31,1,0;                                                   73P     38
508,3,0,219,22,1,0,0,219,32,1,0,0,219,33,1,0;                         75P     39
508,4,0,219,8,1,0,0,219,34,0,0,0,219,29,0,0,0,219,23,1,0;             77P     40
508,4,0,219,7,1,0,0,219,17,0,0,0,219,30,0,0,0,219,34,1,0;             79P     41
508,1,0,219,9,1,0;                                                    81P     42
508,1,0,219,35,0,0;                                                   83P     43
508,1,0,219,36,1,0;                                                   85P     44
508,4,0,219,31,0,0,0,219,37,1,0,0,219,36,0,0,0,219,37,0,0;            87P     45
508,4,0,219,38,0,0,0,219,39,1,0,0,219,35,1,0,0,219,39,0,0;            89P     46
508,6,0,219,40,0,0,0,219,41,1,0,0,219,32,0,0,0,219,28,0,0,0,219,      91P     47
33,0,0,0,219,41,0,0;                                                  91P     48
508,1,0,219,40,1,0;                                                   93P     49
508,1,0,219,38,1,0;                                                   95P     50
126,4,2,0,0,0,0,-3.14159265358979,-3.14159265358979,                  97P     51
-3.14159265358979,-1.5707963267949,-1.5707963267949,0.,0.,0.,1.,      97P     52
0.707106781186548,1.,0.707106781186548,1.,-41.3977370137813,          97P     53
-7.5,-12.5,-41.3977370137813,-7.5,-20.,-41.3977370137813,             97P     54
4.59242549680257D-16,-20.,-41.3977370137813,7.5,-20.,                 97P     55
-41.3977370137813,7.5,-12.5,-3.14159265358979,0.,0.,0.,0.;            97P     56
126,1,1,0,0,1,0,-8.13977370137813,-8.13977370137813,                  99P     57
-7.63977370137813,-7.63977370137813,1.,1.,-46.3977370137813,          99P     58
-7.49999999999997,-12.5,-41.3977370137813,-7.49999999999997,          99P     59
-12.5,-8.13977370137813,-7.63977370137813,0.,0.,0.;                   99P     60
126,4,2,0,0,0,0,0.,0.,0.,1.5707963267949,1.5707963267949,            101P     61
3.14159265358979,3.14159265358979,3.14159265358979,1.,               101P     62
0.707106781186548,1.,0.707106781186548,1.,-46.3977370137813,7.5,     101P     63
-12.5,-46.3977370137813,7.5,-20.,-46.3977370137813,                  101P     64
4.59242549680257D-16,-20.,-46.3977370137813,-7.5,-20.,               101P     65
-46.3977370137813,-7.5,-12.5,0.,3.14159265358979,0.,0.,0.;           101P     66
126,1,1,0,0,1,0,-8.13977370137813,-8.13977370137813,                 103P     67
-7.63977370137813,-7.63977370137813,1.,1.,-46.3977370137813,         103P     68
7.50000000000003,-12.5,-41.3977370137813,7.50000000000003,-12.5,     103P     69
-8.13977370137813,-7.63977370137813,0.,0.,0.;                        103P     70
126,4,2,0,0,0,0,0.,0.,0.,1.5707963267949,1.5707963267949,            105P     71
3.14159265358979,3.14159265358979,3.14159265358979,1.,               105P     72
0.707106781186548,1.,0.707106781186548,1.,30.,7.5,-12.5,30.,7.5,     105P     73
-20.,30.,4.59242549680257D-16,-20.,30.,-7.5,-20.,30.,-7.5,-12.5,     105P     74
0.,3.14159265358979,0.,0.,0.;                                        105P     75
126,1,1,0,0,1,0,-0.5,-0.5,0.,0.,1.,1.,30.,7.5,-12.5,35.,7.5,         107P     76
-12.5,-0.5,0.,0.,0.,0.;                                              107P     77
126,4,2,0,0,0,0,-3.14159265358979,-3.14159265358979,                 109P     78
-3.14159265358979,-1.5707963267949,-1.5707963267949,0.,0.,0.,1.,     109P     79
0.707106781186548,1.,0.707106781186548,1.,35.,-7.5,-12.5,35.,        109P     80
-7.5,-20.,35.,4.59242549680257D-16,-20.,35.,7.5,-20.,35.,7.5,        109P     81
-12.5,-3.14159265358979,0.,0.,0.,0.;                                 109P     82
126,1,1,0,0,1,0,-0.5,-0.5,0.,0.,1.,1.,30.,-7.5,-12.5,35.,-7.5,       111P     83
-12.5,-0.5,0.,0.,0.,0.;                                              111P     84
126,8,2,0,1,0,0,-3.14159265358979,-3.14159265358979,                 113P     85
-3.14159265358979,-1.5707963267949,-1.5707963267949,0.,0.,           113P     86
1.5707963267949,1.5707963267949,3.14159265358979,                    113P     87
3.14159265358979,3.14159265358979,1.,0.707106781186548,1.,           113P     88
0.707106781186547,1.,0.707106781186547,1.,0.707106781186548,1.,      113P     89
35.,-5.,-12.5,35.,-5.,-7.5,35.,3.06161699786838D-16,-7.5,35.,5.,     113P     90
-7.5,35.,5.,-12.5,35.,5.,-17.5,35.,3.06161699786838D-16,-17.5,       113P     91
35.,-5.,-17.5,35.,-5.,-12.5,-3.14159265358979,3.14159265358979,      113P     92
0.,0.,0.;                                                            113P     93
126,1,1,0,0,1,0,0.,0.,1.,1.,1.,1.,35.,-5.,-12.5,30.,-5.,-12.5,       115P     94
0.,1.,0.,0.,0.;                                                      115P     95
126,8,2,0,1,0,0,-3.14159265358979,-3.14159265358979,                 117P     96
-3.14159265358979,-1.5707963267949,-1.5707963267949,0.,0.,           117P     97
1.5707963267949,1.5707963267949,3.14159265358979,                    117P     98
3.14159265358979,3.14159265358979,1.,0.707106781186548,1.,           117P     99
0.707106781186547,1.,0.707106781186547,1.,0.707106781186548,1.,      117P    100
30.,-5.,-12.5,30.,-5.,-17.5,30.,3.06161699786838D-16,-17.5,30.,      117P    101
5.,-17.5,30.,5.,-12.5,30.,5.,-7.5,30.,3.06161699786838D-16,-7.5,     117P    102
30.,-5.,-7.5,30.,-5.,-12.5,-3.14159265358979,3.14159265358979,       117P    103
0.,0.,0.;                                                            117P    104
126,8,2,0,1,0,0,-3.14159265358979,-3.14159265358979,                 119P    105
-3.14159265358979,-1.5707963267949,-1.5707963267949,0.,0.,           119P    106
1.5707963267949,1.5707963267949,3.14159265358979,                    119P    107
3.14159265358979,3.14159265358979,1.,0.707106781186548,1.,           119P    108
0.707106781186547,1.,0.707106781186547,1.,0.707106781186548,1.,      119P    109
-41.3977370137813,-5.,-12.5,-41.3977370137813,-5.,-7.5,              119P    110
-41.3977370137813,3.06161699786838D-16,-7.5,-41.3977370137813,       119P    111
5.,-7.5,-41.3977370137813,5.,-12.5,-41.3977370137813,5.,-17.5,       119P    112
-41.3977370137813,3.06161699786838D-16,-17.5,-41.3977370137813,      119P    113
-5.,-17.5,-41.3977370137813,-5.,-12.5,-3.14159265358979,             119P    114
3.14159265358979,0.,0.,0.;                                           119P    115
126,1,1,0,0,1,0,15.2795474027563,15.2795474027563,                   121P    116
16.2795474027563,16.2795474027563,1.,1.,-41.3977370137813,-5.,       121P    117
-12.5,-46.3977370137813,-5.,-12.5,15.2795474027563,                  121P    118
16.2795474027563,0.,0.,0.;                                           121P    119
126,8,2,0,1,0,0,-3.14159265358979,-3.14159265358979,                 123P    120
-3.14159265358979,-1.5707963267949,-1.5707963267949,0.,0.,           123P    121
1.5707963267949,1.5707963267949,3.14159265358979,                    123P    122
3.14159265358979,3.14159265358979,1.,0.707106781186548,1.,           123P    123
0.707106781186547,1.,0.707106781186547,1.,0.707106781186548,1.,      123P    124
-46.3977370137813,-5.,-12.5,-46.3977370137813,-5.,-17.5,             123P    125
-46.3977370137813,3.06161699786838D-16,-17.5,-46.3977370137813,      123P    126
5.,-17.5,-46.3977370137813,5.,-12.5,-46.3977370137813,5.,-7.5,       123P    127
-46.3977370137813,3.06161699786838D-16,-7.5,-46.3977370137813,       123P    128
-5.,-7.5,-46.3977370137813,-5.,-12.5,-3.14159265358979,              123P    129
3.14159265358979,0.,0.,0.;                                           123P    130
126,1,1,0,0,1,0,0.,0.,0.75,0.75,1.,1.,30.,7.5,-5.,30.,7.5,-12.5,     125P    131
0.,0.75,0.,0.,0.;                                                    125P    132
126,1,1,0,0,1,0,-2.,-2.,-1.5,-1.5,1.,1.,35.,7.5,-5.,30.,7.5,-5.,     127P    133
-2.,-1.5,0.,0.,0.;                                                   127P    134
126,1,1,0,0,1,0,0.,0.,0.75,0.75,1.,1.,35.,7.5,-5.,35.,7.5,-12.5,     129P    135
0.,0.75,0.,0.,0.;                                                    129P    136
126,1,1,0,0,1,0,0.,0.,0.75,0.75,1.,1.,-46.3977370137813,             131P    137
7.50000000000001,-5.,-46.3977370137813,7.50000000000001,-12.5,       131P    138
0.,0.75,0.,0.,0.;                                                    131P    139
126,1,1,0,0,1,0,1.81988685068906,1.81988685068906,                   133P    140
2.31988685068906,2.31988685068906,1.,1.,-41.3977370137813,           133P    141
7.50000000000001,-5.,-46.3977370137813,7.50000000000001,-5.,         133P    142
1.81988685068906,2.31988685068906,0.,0.,0.;                          133P    143
126,1,1,0,0,1,0,0.,0.,0.75,0.75,1.,1.,-41.3977370137813,             135P    144
7.50000000000001,-5.,-41.3977370137813,7.50000000000001,-12.5,       135P    145
0.,0.75,0.,0.,0.;                                                    135P    146
126,1,1,0,0,1,0,0.,0.,0.75,0.75,1.,1.,-46.3977370137813,             137P    147
-7.49999999999999,-5.,-46.3977370137813,-7.49999999999999,-12.5,     137P    148
0.,0.75,0.,0.,0.;                                                    137P    149
126,1,1,0,0,1,0,-1.125,-1.125,0.375,0.375,1.,1.,                     139P    150
-46.3977370137813,7.50000000000001,-5.,-46.3977370137813,            139P    151
-7.49999999999999,-5.,-1.125,0.375,0.,0.,0.;                         139P    152
126,1,1,0,0,1,0,0.,0.,0.75,0.75,1.,1.,30.,-7.5,-5.,30.,-7.5,         141P    153
-12.5,0.,0.75,0.,0.,0.;                                              141P    154
126,1,1,0,0,1,0,-1.125,-1.125,0.375,0.375,1.,1.,30.,7.5,-5.,30.,     143P    155
-7.5,-5.,-1.125,0.375,0.,0.,0.;                                      143P    156
126,1,1,0,0,1,0,0.,0.,0.75,0.75,1.,1.,-41.3977370137813,             145P    157
-7.49999999999999,-5.,-41.3977370137813,-7.49999999999999,-12.5,     145P    158
0.,0.75,0.,0.,0.;                                                    145P    159
126,1,1,0,0,1,0,-2.56988685068906,-2.56988685068906,                 147P    160
-2.06988685068906,-2.06988685068906,1.,1.,-46.3977370137813,         147P    161
-7.49999999999999,-5.,-41.3977370137813,-7.49999999999999,-5.,       147P    162
-2.56988685068906,-2.06988685068906,0.,0.,0.;                        147P    163
126,1,1,0,0,1,0,-1.125,-1.125,0.375,0.375,1.,1.,                     149P    164
-41.3977370137813,-7.49999999999999,-5.,-41.3977370137813,           149P    165
7.50000000000001,-5.,-1.125,0.375,0.,0.,0.;                          149P    166
126,8,2,0,0,0,0,-2.98133307117577,-2.98133307117577,                 151P    167
-2.98133307117577,-1.49066653558788,-1.49066653558788,               151P    168
2.22044604925031D-16,2.22044604925031D-16,1.49066653558788,          151P    169
1.49066653558788,2.98133307117577,2.98133307117577,                  151P    170
2.98133307117577,1.,0.734861915393739,1.,0.734861915393739,1.,       151P    171
0.734861915393739,1.,0.734861915393739,1.,-46.3977370137812,7.5,     151P    172
-5.,-39.4758574771228,50.32127285106,-5.,3.76207126143862,           151P    173
46.8491923070597,-5.,47.,43.3771117630593,-5.,47.,                   151P    174
-1.04360964314765D-14,-5.,47.,-43.3771117630593,-5.,                 151P    175
3.7620712614386,-46.8491923070597,-5.,-39.4758574771228,             151P    176
-50.32127285106,-5.,-46.3977370137812,-7.49999999999998,-5.,         151P    177
-2.98133307117577,2.98133307117577,0.,0.,0.;                         151P    178
126,1,1,0,0,1,0,1.25,1.25,1.75,1.75,1.,1.,30.,-7.5,-5.,35.,-7.5,     153P    179
-5.,1.25,1.75,0.,0.,0.;                                              153P    180
126,1,1,0,0,1,0,-1.125,-1.125,0.375,0.375,1.,1.,35.,-7.5,-5.,        155P    181
35.,7.5,-5.,-1.125,0.375,0.,0.,0.;                                   155P    182
126,8,2,0,1,0,0,-3.14159265358979,-3.14159265358979,                 157P    183
-3.14159265358979,-1.5707963267949,-1.5707963267949,0.,0.,           157P    184
1.5707963267949,1.5707963267949,3.14159265358979,                    157P    185
3.14159265358979,3.14159265358979,1.,0.707106781186547,1.,           157P    186
0.707106781186548,1.,0.707106781186548,1.,0.707106781186547,1.,      157P    187
-28.488,-3.48877380141098D-15,-5.,-28.488,-28.488,-5.,               157P    188
1.74438690070549D-15,-28.488,-5.,28.488,-28.488,-5.,28.488,0.,       157P    189
-5.,28.488,28.488,-5.,1.74438690070549D-15,28.488,-5.,-28.488,       157P    190
28.488,-5.,-28.488,3.48877380141098D-15,-5.,-3.14159265358979,       157P    191
3.14159265358979,0.,0.,0.;                                           157P    192
126,2,2,0,0,0,0,-3.30185223600382,-3.30185223600382,                 159P    193
-3.30185223600382,-3.14159265358979,-3.14159265358979,               159P    194
-3.14159265358979,1.,0.99679132568217,1.,-46.3977370137812,          159P    195
-7.49999999999997,-5.,-47.,-3.77418138030458,-5.,-47.,               159P    196
5.75583995599256D-15,-5.,-3.30185223600382,-3.14159265358979,0.,     159P    197
0.,0.;                                                               159P    198
126,2,2,0,0,0,0,-3.14159265358979,-3.14159265358979,                 161P    199
-3.14159265358979,-2.98133307117577,-2.98133307117577,               161P    200
-2.98133307117577,1.,0.99679132568216,1.,-47.,                       161P    201
5.75583995599256D-15,-5.,-47.,3.7741813803046,-5.,                   161P    202
-46.3977370137812,7.5,-5.,-3.14159265358979,-2.98133307117577,       161P    203
0.,0.,0.;                                                            161P    204
126,1,1,0,0,1,0,0.,0.,0.75,0.75,1.,1.,35.,-7.5,-5.,35.,-7.5,         163P    205
-12.5,0.,0.75,0.,0.,0.;                                              163P    206
126,8,2,0,1,0,0,-3.14159265358979,-3.14159265358979,                 165P    207
-3.14159265358979,-1.5707963267949,-1.5707963267949,0.,0.,           165P    208
1.5707963267949,1.5707963267949,3.14159265358979,                    165P    209
3.14159265358979,3.14159265358979,1.,0.707106781186548,1.,           165P    210
0.707106781186548,1.,0.707106781186548,1.,0.707106781186548,1.,      165P    211
-45.,5.51091059616309D-15,0.,-45.,45.,0.,2.75545529808154D-15,       165P    212
45.,0.,45.,45.,0.,45.,0.,0.,45.,-45.,0.,2.75545529808154D-15,        165P    213
-45.,0.,-45.,-45.,0.,-45.,-5.51091059616309D-15,0.,                  165P    214
-3.14159265358979,3.14159265358979,0.,0.,0.;                         165P    215
126,8,2,0,1,0,0,-3.14159265358979,-3.14159265358979,                 167P    216
-3.14159265358979,-1.5707963267949,-1.5707963267949,0.,0.,           167P    217
1.5707963267949,1.5707963267949,3.14159265358979,                    167P    218
3.14159265358979,3.14159265358979,1.,0.707106781186547,1.,           167P    219
0.707106781186548,1.,0.707106781186548,1.,0.707106781186547,1.,      167P    220
-28.488,3.48877380141098D-15,0.,-28.488,28.488,0.,                   167P    221
1.74438690070549D-15,28.488,0.,28.488,28.488,0.,28.488,0.,0.,        167P    222
28.488,-28.488,0.,1.74438690070549D-15,-28.488,0.,-28.488,           167P    223
-28.488,0.,-28.488,-3.48877380141098D-15,0.,-3.14159265358979,       167P    224
3.14159265358979,0.,0.,0.;                                           167P    225
126,1,1,0,0,1,0,-0.12987012987013,-0.12987012987013,0.,0.,1.,1.,     169P    226
-28.488,0.,-5.,-28.488,0.,0.,-0.12987012987013,0.,0.,0.,0.;          169P    227
126,8,2,0,1,0,0,-3.14159265358979,-3.14159265358979,                 171P    228
-3.14159265358979,-1.5707963267949,-1.5707963267949,0.,0.,           171P    229
1.5707963267949,1.5707963267949,3.14159265358979,                    171P    230
3.14159265358979,3.14159265358979,1.,0.707106781186548,1.,           171P    231
0.707106781186548,1.,0.707106781186548,1.,0.707106781186548,1.,      171P    232
-45.,5.51091059616309D-15,10.,-45.,45.,10.,2.75545529808154D-15,     171P    233
45.,10.,45.,45.,10.,45.,0.,10.,45.,-45.,10.,                         171P    234
2.75545529808154D-15,-45.,10.,-45.,-45.,10.,-45.,                    171P    235
-5.51091059616309D-15,10.,-3.14159265358979,3.14159265358979,0.,     171P    236
0.,0.;                                                               171P    237
126,1,1,0,0,1,0,-0.222222222222222,-0.222222222222222,0.,0.,1.,      173P    238
1.,-45.,0.,10.,-45.,0.,0.,-0.222222222222222,0.,0.,0.,0.;            173P    239
126,8,2,0,1,0,0,-3.14159265358979,-3.14159265358979,                 175P    240
-3.14159265358979,-1.5707963267949,-1.5707963267949,0.,0.,           175P    241
1.5707963267949,1.5707963267949,3.14159265358979,                    175P    242
3.14159265358979,3.14159265358979,1.,0.707106781186548,1.,           175P    243
0.707106781186548,1.,0.707106781186548,1.,0.707106781186548,1.,      175P    244
-47.,-5.75583995599256D-15,10.,-47.,-47.,10.,                        175P    245
2.87791997799628D-15,-47.,10.,47.,-47.,10.,47.,0.,10.,47.,47.,       175P    246
10.,2.87791997799628D-15,47.,10.,-47.,47.,10.,-47.,                  175P    247
5.75583995599256D-15,10.,-3.14159265358979,3.14159265358979,0.,      175P    248
0.,0.;                                                               175P    249
126,1,1,0,0,1,0,-0.212765957446809,-0.212765957446809,               177P    250
0.106382978723404,0.106382978723404,1.,1.,-47.,0.,10.,-47.,0.,       177P    251
-5.,-0.212765957446809,0.106382978723404,0.,0.,0.;                   177P    252
128,1,4,1,2,0,0,0,0,0,10.1863649351708,10.1863649351708,             179P    253
10.8530316018375,10.8530316018375,0.,0.,0.,1.5707963267949,          179P    254
1.5707963267949,3.14159265358979,3.14159265358979,                   179P    255
3.14159265358979,1.,1.,0.707106781186548,0.707106781186548,1.,       179P    256
1.,0.707106781186548,0.707106781186548,1.,1.,-46.3977370137813,      179P    257
7.5,-12.5,-41.3977370137813,7.5,-12.5,-46.3977370137813,7.5,         179P    258
-20.,-41.3977370137813,7.5,-20.,-46.3977370137813,0.,-20.,           179P    259
-41.3977370137813,0.,-20.,-46.3977370137813,-7.5,-20.,               179P    260
-41.3977370137813,-7.5,-20.,-46.3977370137813,-7.5,-12.5,            179P    261
-41.3977370137813,-7.5,-12.5,10.1863649351708,10.8530316018375,      179P    262
0.,3.14159265358979;                                                 179P    263
128,1,4,1,2,0,0,0,0,0,0.,0.,0.666666666666667,0.666666666666667,     181P    264
0.,0.,0.,1.5707963267949,1.5707963267949,3.14159265358979,           181P    265
3.14159265358979,3.14159265358979,1.,1.,0.707106781186548,           181P    266
0.707106781186548,1.,1.,0.707106781186548,0.707106781186548,1.,      181P    267
1.,30.,7.5,-12.5,35.,7.5,-12.5,30.,7.5,-20.,35.,7.5,-20.,30.,0.,     181P    268
-20.,35.,0.,-20.,30.,-7.5,-20.,35.,-7.5,-20.,30.,-7.5,-12.5,35.,     181P    269
-7.5,-12.5,0.,0.666666666666667,0.,3.14159265358979;                 181P    270
128,1,8,1,2,0,1,0,0,1,0.,0.,1.,1.,-3.14159265358979,                 183P    271
-3.14159265358979,-3.14159265358979,-1.5707963267949,                183P    272
-1.5707963267949,0.,0.,1.5707963267949,1.5707963267949,              183P    273
3.14159265358979,3.14159265358979,3.14159265358979,1.,1.,            183P    274
0.707106781186548,0.707106781186548,1.,1.,0.707106781186548,         183P    275
0.707106781186548,1.,1.,0.707106781186548,0.707106781186548,1.,      183P    276
1.,0.707106781186548,0.707106781186548,1.,1.,35.,-5.,-12.5,30.,      183P    277
-5.,-12.5,35.,-5.,-7.5,30.,-5.,-7.5,35.,0.,-7.5,30.,0.,-7.5,35.,     183P    278
5.,-7.5,30.,5.,-7.5,35.,5.,-12.5,30.,5.,-12.5,35.,5.,-17.5,30.,      183P    279
5.,-17.5,35.,0.,-17.5,30.,0.,-17.5,35.,-5.,-17.5,30.,-5.,-17.5,      183P    280
35.,-5.,-12.5,30.,-5.,-12.5,0.,1.,-3.14159265358979,                 183P    281
3.14159265358979;                                                    183P    282
128,1,8,1,2,0,1,0,0,1,15.2795474027563,15.2795474027563,             185P    283
16.2795474027563,16.2795474027563,-3.14159265358979,                 185P    284
-3.14159265358979,-3.14159265358979,-1.5707963267949,                185P    285
-1.5707963267949,0.,0.,1.5707963267949,1.5707963267949,              185P    286
3.14159265358979,3.14159265358979,3.14159265358979,1.,1.,            185P    287
0.707106781186548,0.707106781186548,1.,1.,0.707106781186548,         185P    288
0.707106781186548,1.,1.,0.707106781186548,0.707106781186548,1.,      185P    289
1.,0.707106781186548,0.707106781186548,1.,1.,-41.3977370137813,      185P    290
-5.,-12.5,-46.3977370137813,-5.,-12.5,-41.3977370137813,-5.,         185P    291
-7.5,-46.3977370137813,-5.,-7.5,-41.3977370137813,0.,-7.5,           185P    292
-46.3977370137813,0.,-7.5,-41.3977370137813,5.,-7.5,                 185P    293
-46.3977370137813,5.,-7.5,-41.3977370137813,5.,-12.5,                185P    294
-46.3977370137813,5.,-12.5,-41.3977370137813,5.,-17.5,               185P    295
-46.3977370137813,5.,-17.5,-41.3977370137813,0.,-17.5,               185P    296
-46.3977370137813,0.,-17.5,-41.3977370137813,-5.,-17.5,              185P    297
-46.3977370137813,-5.,-17.5,-41.3977370137813,-5.,-12.5,             185P    298
-46.3977370137813,-5.,-12.5,15.2795474027563,16.2795474027563,       185P    299
-3.14159265358979,3.14159265358979;                                  185P    300
128,1,1,1,1,0,0,1,0,0,-0.001,-0.001,0.501,0.501,-0.001,-0.001,       187P    301
0.751,0.751,1.,1.,1.,1.,29.99,7.5,-4.99,35.01,7.5,-4.99,29.99,       187P    302
7.5,-12.51,35.01,7.5,-12.51,-0.001,0.501,-0.001,0.751;               187P    303
128,1,1,1,1,0,0,1,0,0,-0.001,-0.001,0.501,0.501,-0.001,-0.001,       189P    304
0.751,0.751,1.,1.,1.,1.,-46.4077370137813,7.50000000000001,          189P    305
-4.99,-41.3877370137813,7.50000000000001,-4.99,                      189P    306
-46.4077370137813,7.50000000000001,-12.51,-41.3877370137813,         189P    307
7.50000000000001,-12.51,-0.001,0.501,-0.001,0.751;                   189P    308
128,1,1,1,1,0,0,1,0,0,-0.00100000000000078,-0.00100000000000078,     191P    309
1.501,1.501,-0.001,-0.001,1.501,1.501,1.,1.,1.,1.,                   191P    310
-46.3977370137813,-7.51,-4.99,-46.3977370137813,                     191P    311
7.51000000000001,-4.99,-46.3977370137813,-7.51,-20.01,               191P    312
-46.3977370137813,7.51000000000001,-20.01,-0.00100000000000078,      191P    313
1.501,-0.001,1.501;                                                  191P    314
128,1,1,1,1,0,0,1,0,0,-0.001,-0.001,1.501,1.501,-0.001,-0.001,       193P    315
1.501,1.501,1.,1.,1.,1.,30.,-7.51,-4.99,30.,7.51,-4.99,30.,          193P    316
-7.51,-20.01,30.,7.51,-20.01,-0.001,1.501,-0.001,1.501;              193P    317
128,1,1,1,1,0,0,1,0,0,-0.001,-0.001,0.501,0.501,-0.001,-0.001,       195P    318
0.751,0.751,1.,1.,1.,1.,-41.3877370137813,-7.49999999999999,         195P    319
-4.99,-46.4077370137813,-7.49999999999999,-4.99,                     195P    320
-41.3877370137813,-7.49999999999999,-12.51,-46.4077370137813,        195P    321
-7.49999999999999,-12.51,-0.001,0.501,-0.001,0.751;                  195P    322
128,1,1,1,1,0,0,1,0,0,-0.001,-0.001,1.501,1.501,-0.001,-0.001,       197P    323
1.501,1.501,1.,1.,1.,1.,-41.3977370137813,7.51000000000001,          197P    324
-4.99,-41.3977370137813,-7.51,-4.99,-41.3977370137813,               197P    325
7.51000000000001,-20.01,-41.3977370137813,-7.51,-20.01,-0.001,       197P    326
1.501,-0.001,1.501;                                                  197P    327
128,1,1,1,1,0,0,1,0,0,-4.64077370137813,-4.64077370137813,4.701,     199P    328
4.701,-5.033127285106,-5.033127285106,5.033127285106,                199P    329
5.033127285106,1.,1.,1.,1.,47.01,-50.33127285106,-5.,                199P    330
-46.4077370137813,-50.33127285106,-5.,47.01,50.33127285106,-5.,      199P    331
-46.4077370137813,50.33127285106,-5.,-4.64077370137813,4.701,        199P    332
-5.033127285106,5.033127285106;                                      199P    333
128,1,1,1,1,0,0,1,0,0,-4.76200806240588,-4.76200806240588,           201P    334
-4.63877370137812,-4.63877370137812,-0.750999999999999,              201P    335
-0.750999999999999,0.751000000000001,0.751000000000001,1.,1.,1.,     201P    336
1.,-46.3877370137812,-7.50999999999999,-5.,-47.6200806240588,        201P    337
-7.50999999999999,-5.,-46.3877370137812,7.51000000000001,-5.,        201P    338
-47.6200806240588,7.51000000000001,-5.,-4.76200806240588,            201P    339
-4.63877370137812,-0.750999999999999,0.751000000000001;              201P    340
128,1,1,1,1,0,0,1,0,0,-0.001,-0.001,0.501,0.501,-0.001,-0.001,       203P    341
0.751,0.751,1.,1.,1.,1.,35.01,-7.5,-4.99,29.99,-7.5,-4.99,35.01,     203P    342
-7.5,-12.51,29.99,-7.5,-12.51,-0.001,0.501,-0.001,0.751;             203P    343
128,1,1,1,1,0,0,1,0,0,-0.001,-0.001,1.501,1.501,-0.001,-0.001,       205P    344
1.501,1.501,1.,1.,1.,1.,35.,7.51,-4.99,35.,-7.51,-4.99,35.,7.51,     205P    345
-20.01,35.,-7.51,-20.01,-0.001,1.501,-0.001,1.501;                   205P    346
128,1,1,1,1,0,0,1,0,0,-4.501,-4.501,4.501,4.501,-4.501,-4.501,       207P    347
4.501,4.501,1.,1.,1.,1.,-45.01,-45.01,0.,45.01,-45.01,0.,-45.01,     207P    348
45.01,0.,45.01,45.01,0.,-4.501,4.501,-4.501,4.501;                   207P    349
128,1,8,1,2,0,1,0,0,1,0.,0.,0.12987012987013,0.12987012987013,       209P    350
-3.14159265358979,-3.14159265358979,-3.14159265358979,               209P    351
-1.5707963267949,-1.5707963267949,0.,0.,1.5707963267949,             209P    352
1.5707963267949,3.14159265358979,3.14159265358979,                   209P    353
3.14159265358979,1.,1.,0.707106781186548,0.707106781186548,1.,       209P    354
1.,0.707106781186548,0.707106781186548,1.,1.,0.707106781186548,      209P    355
0.707106781186548,1.,1.,0.707106781186548,0.707106781186548,1.,      209P    356
1.,-28.488,0.,0.,-28.488,0.,-5.,-28.488,28.488,0.,-28.488,           209P    357
28.488,-5.,0.,28.488,0.,0.,28.488,-5.,28.488,28.488,0.,28.488,       209P    358
28.488,-5.,28.488,0.,0.,28.488,0.,-5.,28.488,-28.488,0.,28.488,      209P    359
-28.488,-5.,0.,-28.488,0.,0.,-28.488,-5.,-28.488,-28.488,0.,         209P    360
-28.488,-28.488,-5.,-28.488,0.,0.,-28.488,0.,-5.,0.,                 209P    361
0.12987012987013,-3.14159265358979,3.14159265358979;                 209P    362
128,1,8,1,2,0,1,0,0,1,0.,0.,0.222222222222222,0.222222222222222,     211P    363
-3.14159265358979,-3.14159265358979,-3.14159265358979,               211P    364
-1.5707963267949,-1.5707963267949,0.,0.,1.5707963267949,             211P    365
1.5707963267949,3.14159265358979,3.14159265358979,                   211P    366
3.14159265358979,1.,1.,0.707106781186548,0.707106781186548,1.,       211P    367
1.,0.707106781186548,0.707106781186548,1.,1.,0.707106781186548,      211P    368
0.707106781186548,1.,1.,0.707106781186548,0.707106781186548,1.,      211P    369
1.,-45.,0.,0.,-45.,0.,10.,-45.,-45.,0.,-45.,-45.,10.,0.,-45.,0.,     211P    370
0.,-45.,10.,45.,-45.,0.,45.,-45.,10.,45.,0.,0.,45.,0.,10.,45.,       211P    371
45.,0.,45.,45.,10.,0.,45.,0.,0.,45.,10.,-45.,45.,0.,-45.,45.,        211P    372
10.,-45.,0.,0.,-45.,0.,10.,0.,0.222222222222222,                     211P    373
-3.14159265358979,3.14159265358979;                                  211P    374
128,1,8,1,2,0,1,0,0,1,-0.106382978723404,-0.106382978723404,         213P    375
0.212765957446809,0.212765957446809,-3.14159265358979,               213P    376
-3.14159265358979,-3.14159265358979,-1.5707963267949,                213P    377
-1.5707963267949,0.,0.,1.5707963267949,1.5707963267949,              213P    378
3.14159265358979,3.14159265358979,3.14159265358979,1.,1.,            213P    379
0.707106781186548,0.707106781186548,1.,1.,0.707106781186548,         213P    380
0.707106781186548,1.,1.,0.707106781186548,0.707106781186548,1.,      213P    381
1.,0.707106781186548,0.707106781186548,1.,1.,-47.,0.,10.,-47.,       213P    382
0.,-5.,-47.,-47.,10.,-47.,-47.,-5.,0.,-47.,10.,0.,-47.,-5.,47.,      213P    383
-47.,10.,47.,-47.,-5.,47.,0.,10.,47.,0.,-5.,47.,47.,10.,47.,47.,     213P    384
-5.,0.,47.,10.,0.,47.,-5.,-47.,47.,10.,-47.,47.,-5.,-47.,0.,10.,     213P    385
-47.,0.,-5.,-0.106382978723404,0.212765957446809,                    213P    386
-3.14159265358979,3.14159265358979;                                  213P    387
128,1,1,1,1,0,0,1,0,0,-4.701,-4.701,4.701,4.701,-4.701,-4.701,       215P    388
4.701,4.701,1.,1.,1.,1.,-47.01,-47.01,10.,47.01,-47.01,10.,          215P    389
-47.01,47.01,10.,47.01,47.01,10.,-4.701,4.701,-4.701,4.701;          215P    390
502,26,-41.3977370137813,-7.49999999999999,-12.5,                    217P    391
-41.3977370137813,7.5,-12.5,-46.3977370137813,-7.49999999999999,     217P    392
-12.5,-46.3977370137813,7.5,-12.5,30.,7.5,-12.5,30.,                 217P    393
-7.49999999999997,-12.5,35.,7.5,-12.5,35.,-7.5,-12.5,35.,-5.,        217P    394
-12.5,30.,-5.,-12.5,-41.3977370137813,-5.,-12.5,                     217P    395
-46.3977370137813,-5.,-12.5,30.,7.5,-5.,35.,7.5,-5.,                 217P    396
-46.3977370137813,7.50000000000001,-5.,-41.3977370137813,            217P    397
7.50000000000001,-5.,-46.3977370137813,-7.49999999999999,-5.,        217P    398
30.,-7.5,-5.,-41.3977370137813,-7.49999999999999,-5.,35.,-7.5,       217P    399
-5.,-28.488,-3.48877380141098D-15,-5.,-47.,0.,-5.,-45.,              217P    400
-5.51091059616309D-15,0.,-28.488,-3.48877380141098D-15,0.,-45.,      217P    401
-5.51091059616309D-15,10.,-47.,-5.75583995599256D-15,10.;            217P    402
504,41,97,217,1,217,2,99,217,3,217,1,101,217,4,217,3,103,217,4,      219P    403
217,2,105,217,5,217,6,107,217,5,217,7,109,217,8,217,7,111,217,6,     219P    404
217,8,113,217,9,217,9,115,217,9,217,10,117,217,10,217,10,119,        219P    405
217,11,217,11,121,217,11,217,12,123,217,12,217,12,125,217,13,        219P    406
217,5,127,217,14,217,13,129,217,14,217,7,131,217,15,217,4,133,       219P    407
217,16,217,15,135,217,16,217,2,137,217,17,217,3,139,217,15,217,      219P    408
17,141,217,18,217,6,143,217,13,217,18,145,217,19,217,1,147,217,      219P    409
17,217,19,149,217,19,217,16,151,217,15,217,17,153,217,18,217,20,     219P    410
155,217,20,217,14,157,217,21,217,21,159,217,17,217,22,161,217,       219P    411
22,217,15,163,217,20,217,8,165,217,23,217,23,167,217,24,217,24,      219P    412
169,217,21,217,24,171,217,25,217,25,173,217,25,217,23,175,217,       219P    413
26,217,26,177,217,26,217,22;                                         219P    414
406,1,5HBody1;                                                       221P    415
314,62.7450980392157,62.7450980392157,62.7450980392157,13HSteel      223P    416
- Satin;                                                             223P    417
S      1G      3D    224P    417                                        T      1
