                                                                        S      1
,,17HBluetooth Chip v1,17HBluetooth Chip v1,7Hunknown,7Hunknown,32,38,7,G      1
99,15,,1.,2,2HMM,1,0.08,15H20210504.162756,0.01,10000.,7Hunknown,7HunknoG      2
wn,11,0,15H20200416.123105;                                             G      3
     186       1                                                00000000D      1
     186             -71       1       0                               0D      2
     514       2                                                00010000D      3
     514                       1       1                               0D      4
     510       3                                                00010000D      5
     510             -71       1       1                               0D      6
     510       4                                                00010000D      7
     510             -71       1       1                               0D      8
     510       5                                                00010000D      9
     510             -71       1       1                               0D     10
     510       6                                                00010000D     11
     510             -71       1       1                               0D     12
     510       7                                                00010000D     13
     510             -71       1       1                               0D     14
     510       8                                                00010000D     15
     510             -71       1       1                               0D     16
     508       9                                                00010000D     17
     508                       1       1                               0D     18
     508      10                                                00010000D     19
     508                       1       1                               0D     20
     508      11                                                00010000D     21
     508                       1       1                               0D     22
     508      12                                                00010000D     23
     508                       1       1                               0D     24
     508      13                                                00010000D     25
     508                       1       1                               0D     26
     508      14                                                00010000D     27
     508                       1       1                               0D     28
     126      15                                                00010000D     29
     126       0               2       0                               0D     30
     126      17                                                00010000D     31
     126       0               2       0                               0D     32
     126      19                                                00010000D     33
     126       0               2       0                               0D     34
     126      21                                                00010000D     35
     126       0               2       0                               0D     36
     126      23                                                00010000D     37
     126       0               2       0                               0D     38
     126      25                                                00010000D     39
     126       0               2       0                               0D     40
     126      27                                                00010000D     41
     126       0               2       0                               0D     42
     126      29                                                00010000D     43
     126       0               2       0                               0D     44
     126      31                                                00010000D     45
     126       0               2       0                               0D     46
     126      33                                                00010000D     47
     126       0               2       0                               0D     48
     126      35                                                00010000D     49
     126       0               2       0                               0D     50
     126      37                                                00010000D     51
     126       0               2       0                               0D     52
     128      39                                                00010000D     53
     128       0     -71       4       0                               0D     54
     128      43                                                00010000D     55
     128       0     -71       3       0                               0D     56
     128      46                                                00010000D     57
     128       0     -71       3       0                               0D     58
     128      49                                                00010000D     59
     128       0     -71       4       0                               0D     60
     128      53                                                00010000D     61
     128       0     -71       4       0                               0D     62
     128      57                                                00010000D     63
     128       0     -71       4       0                               0D     64
     502      61                                                00010000D     65
     502                       2       1                               0D     66
     504      63                                                00010001D     67
     504                       3       1                               0D     68
     406      66                                                00000000D     69
     406                       1      15                               0D     70
     314      67                                                00000200D     71
     314                       2       0                               0D     72
     314      69                                                00000200D     73
     314                       2       0                               0D     74
186,3,1,0,0,1,69;                                                      1P      1
514,6,5,1,7,1,9,1,11,1,13,1,15,1;                                      3P      2
510,53,1,1,17;                                                         5P      3
510,55,1,1,19;                                                         7P      4
510,57,1,1,21;                                                         9P      5
510,59,1,1,23;                                                        11P      6
510,61,1,1,25;                                                        13P      7
510,63,1,1,27;                                                        15P      8
508,4,0,67,1,1,0,0,67,2,1,0,0,67,3,0,0,0,67,4,0,0;                    17P      9
508,4,0,67,5,1,0,0,67,4,1,0,0,67,6,0,0,0,67,7,0,0;                    19P     10
508,4,0,67,8,1,0,0,67,7,1,0,0,67,9,0,0,0,67,10,0,0;                   21P     11
508,4,0,67,11,1,0,0,67,10,1,0,0,67,12,0,0,0,67,2,0,0;                 23P     12
508,4,0,67,12,1,0,0,67,9,1,0,0,67,6,1,0,0,67,3,1,0;                   25P     13
508,4,0,67,11,0,0,0,67,1,0,0,0,67,5,0,0,0,67,8,0,0;                   27P     14
126,1,1,0,0,1,0,0.,0.,3.8,3.8,1.,1.,38.,16.,0.,0.,16.,0.,0.,3.8,      29P     15
0.,0.,0.;                                                             29P     16
126,1,1,0,0,1,0,0.,0.,0.35,0.35,1.,1.,0.,16.,0.,0.,16.,3.5,0.,        31P     17
0.35,0.,0.,0.;                                                        31P     18
126,1,1,0,0,1,0,0.,0.,3.8,3.8,1.,1.,38.,16.,3.5,0.,16.,3.5,0.,        33P     19
3.8,0.,0.,0.;                                                         33P     20
126,1,1,0,0,1,0,0.,0.,0.35,0.35,1.,1.,38.,16.,0.,38.,16.,3.5,0.,      35P     21
0.35,0.,0.,0.;                                                        35P     22
126,1,1,0,0,1,0,0.,0.,1.6,1.6,1.,1.,38.,0.,0.,38.,16.,0.,0.,1.6,      37P     23
0.,0.,0.;                                                             37P     24
126,1,1,0,0,1,0,0.,0.,1.6,1.6,1.,1.,38.,0.,3.5,38.,16.,3.5,0.,        39P     25
1.6,0.,0.,0.;                                                         39P     26
126,1,1,0,0,1,0,0.,0.,0.35,0.35,1.,1.,38.,0.,0.,38.,0.,3.5,0.,        41P     27
0.35,0.,0.,0.;                                                        41P     28
126,1,1,0,0,1,0,0.,0.,3.8,3.8,1.,1.,0.,0.,0.,38.,0.,0.,0.,3.8,        43P     29
0.,0.,0.;                                                             43P     30
126,1,1,0,0,1,0,0.,0.,3.8,3.8,1.,1.,0.,0.,3.5,38.,0.,3.5,0.,3.8,      45P     31
0.,0.,0.;                                                             45P     32
126,1,1,0,0,1,0,0.,0.,0.35,0.35,1.,1.,0.,0.,0.,0.,0.,3.5,0.,          47P     33
0.35,0.,0.,0.;                                                        47P     34
126,1,1,0,0,1,0,0.,0.,1.6,1.6,1.,1.,0.,16.,0.,0.,0.,0.,0.,1.6,        49P     35
0.,0.,0.;                                                             49P     36
126,1,1,0,0,1,0,0.,0.,1.6,1.6,1.,1.,0.,16.,3.5,0.,0.,3.5,0.,1.6,      51P     37
0.,0.,0.;                                                             51P     38
128,1,1,1,1,0,0,1,0,0,-0.001,-0.001,3.801,3.801,-0.001,-0.001,        53P     39
0.351,0.351,1.,1.,1.,1.,38.01,16.,-0.01,-0.0099999999999989,16.,      53P     40
-0.01,38.01,16.,3.51,-0.0099999999999989,16.,3.51,-0.001,3.801,       53P     41
-0.001,0.351;                                                         53P     42
128,1,1,1,1,0,0,1,0,0,-0.001,-0.001,1.601,1.601,-0.001,-0.001,        55P     43
0.351,0.351,1.,1.,1.,1.,38.,-0.01,-0.01,38.,16.01,-0.01,38.,          55P     44
-0.01,3.51,38.,16.01,3.51,-0.001,1.601,-0.001,0.351;                  55P     45
128,1,1,1,1,0,0,1,0,0,-0.001,-0.001,3.801,3.801,-0.001,-0.001,        57P     46
0.351,0.351,1.,1.,1.,1.,-0.01,0.,-0.01,38.01,0.,-0.01,-0.01,0.,       57P     47
3.51,38.01,0.,3.51,-0.001,3.801,-0.001,0.351;                         57P     48
128,1,1,1,1,0,0,1,0,0,-0.001,-0.001,1.601,1.601,-0.001,-0.001,        59P     49
0.351,0.351,1.,1.,1.,1.,0.,16.01,-0.01,0.,-0.0099999999999989,        59P     50
-0.01,0.,16.01,3.51,0.,-0.0099999999999989,3.51,-0.001,1.601,         59P     51
-0.001,0.351;                                                         59P     52
128,1,1,1,1,0,0,1,0,0,-1.901,-1.901,1.901,1.901,-0.801,-0.801,        61P     53
0.801,0.801,1.,1.,1.,1.,-0.0099999999999989,-0.01,3.5,38.01,          61P     54
-0.01,3.5,-0.0099999999999989,16.01,3.5,38.01,16.01,3.5,-1.901,       61P     55
1.901,-0.801,0.801;                                                   61P     56
128,1,1,1,1,0,0,1,0,0,-1.901,-1.901,1.901,1.901,-0.801,-0.801,        63P     57
0.801,0.801,1.,1.,1.,1.,38.01,-0.01,0.,-0.0099999999999989,           63P     58
-0.01,0.,38.01,16.01,0.,-0.0099999999999989,16.01,0.,-1.901,          63P     59
1.901,-0.801,0.801;                                                   63P     60
502,8,38.,16.,0.,0.,16.,0.,0.,16.,3.5,38.,16.,3.5,38.,0.,0.,38.,      65P     61
0.,3.5,0.,0.,0.,0.,0.,3.5;                                            65P     62
504,12,29,65,1,65,2,31,65,2,65,3,33,65,4,65,3,35,65,1,65,4,37,        67P     63
65,5,65,1,39,65,6,65,4,41,65,5,65,6,43,65,7,65,5,45,65,8,65,6,        67P     64
47,65,7,65,8,49,65,2,65,7,51,65,3,65,8;                               67P     65
406,1,5HBody1;                                                        69P     66
314,18.8235294117647,23.1372549019608,58.8235294117647,35HPlasti      71P     67
c - Translucent Glossy (Blue);                                        71P     68
314,62.7450980392157,62.7450980392157,62.7450980392157,13HSteel       73P     69
- Satin;                                                              73P     70
S      1G      3D     74P     70                                        T      1
