                                                                        S      1
,,10H3in PVC v1,10H3in PVC v1,7Hunknown,7Hunknown,32,38,7,99,15,,1.,2,2HG      1
MM,1,0.08,15H20210504.162621,0.01,10000.,7Hunknown,7Hunknown,11,0,15H202G      2
00814.163342;                                                           G      3
     186       1                                                00000000D      1
     186             -51       1       0                               0D      2
     514       2                                                00010000D      3
     514                       1       1                               0D      4
     510       3                                                00010000D      5
     510             -51       1       1                               0D      6
     510       4                                                00010000D      7
     510             -51       1       1                               0D      8
     510       5                                                00010000D      9
     510             -51       1       1                               0D     10
     510       6                                                00010000D     11
     510             -51       1       1                               0D     12
     508       7                                                00010000D     13
     508                       1       1                               0D     14
     508       8                                                00010000D     15
     508                       1       1                               0D     16
     508       9                                                00010000D     17
     508                       1       1                               0D     18
     508      10                                                00010000D     19
     508                       1       1                               0D     20
     508      11                                                00010000D     21
     508                       1       1                               0D     22
     508      12                                                00010000D     23
     508                       1       1                               0D     24
     126      13                                                00010000D     25
     126       0              10       0                               0D     26
     126      23                                                00010000D     27
     126       0               2       0                               0D     28
     126      25                                                00010000D     29
     126       0              10       0                               0D     30
     126      35                                                00010000D     31
     126       0              10       0                               0D     32
     126      45                                                00010000D     33
     126       0               2       0                               0D     34
     126      47                                                00010000D     35
     126       0              10       0                               0D     36
     128      57                                                00010000D     37
     128       0     -51      14       0                               0D     38
     128      71                                                00010000D     39
     128       0     -51      13       0                               0D     40
     128      84                                                00010000D     41
     128       0     -51       3       0                               0D     42
     128      87                                                00010000D     43
     128       0     -51       3       0                               0D     44
     502      90                                                00010000D     45
     502                       3       1                               0D     46
     504      93                                                00010001D     47
     504                       2       1                               0D     48
     406      95                                                00000000D     49
     406                       1      15                               0D     50
     314      96                                                00000200D     51
     314                       2       0                               0D     52
186,3,1,0,0,1,49;                                                      1P      1
514,4,5,1,7,1,9,1,11,1;                                                3P      2
510,37,1,1,13;                                                         5P      3
510,39,1,1,15;                                                         7P      4
510,41,2,1,17,19;                                                      9P      5
510,43,2,1,21,23;                                                     11P      6
508,4,0,47,1,0,0,0,47,2,1,0,0,47,3,1,0,0,47,2,0,0;                    13P      7
508,4,0,47,4,0,0,0,47,5,1,0,0,47,6,1,0,0,47,5,0,0;                    15P      8
508,1,0,47,4,1,0;                                                     17P      9
508,1,0,47,1,1,0;                                                     19P     10
508,1,0,47,6,0,0;                                                     21P     11
508,1,0,47,3,0,0;                                                     23P     12
126,8,2,0,1,0,0,-3.14159265358979,-3.14159265358979,                  25P     13
-3.14159265358979,-1.5707963267949,-1.5707963267949,0.,0.,            25P     14
1.5707963267949,1.5707963267949,3.14159265358979,                     25P     15
3.14159265358979,3.14159265358979,1.,0.707106781186548,1.,            25P     16
0.707106781186548,1.,0.707106781186548,1.,0.707106781186548,1.,       25P     17
-38.6334,4.73122696501794D-15,150.,-38.6334,38.6334,150.,             25P     18
2.36561348250897D-15,38.6334,150.,38.6334,38.6334,150.,38.6334,       25P     19
0.,150.,38.6334,-38.6334,150.,2.36561348250897D-15,-38.6334,          25P     20
150.,-38.6334,-38.6334,150.,-38.6334,-4.73122696501794D-15,150.,      25P     21
-3.14159265358979,3.14159265358979,0.,0.,0.;                          25P     22
126,1,1,0,0,1,0,-3.88265076332914,-3.88265076332914,0.,0.,1.,1.,      27P     23
-38.6334,0.,150.,-38.6334,0.,0.,-3.88265076332914,0.,0.,0.,0.;        27P     24
126,8,2,0,1,0,0,-3.14159265358979,-3.14159265358979,                  29P     25
-3.14159265358979,-1.5707963267949,-1.5707963267949,0.,0.,            29P     26
1.5707963267949,1.5707963267949,3.14159265358979,                     29P     27
3.14159265358979,3.14159265358979,1.,0.707106781186548,1.,            29P     28
0.707106781186548,1.,0.707106781186548,1.,0.707106781186548,1.,       29P     29
-38.6334,4.73122696501794D-15,0.,-38.6334,38.6334,0.,                 29P     30
2.36561348250897D-15,38.6334,0.,38.6334,38.6334,0.,38.6334,0.,        29P     31
0.,38.6334,-38.6334,0.,2.36561348250897D-15,-38.6334,0.,              29P     32
-38.6334,-38.6334,0.,-38.6334,-4.73122696501794D-15,0.,               29P     33
-3.14159265358979,3.14159265358979,0.,0.,0.;                          29P     34
126,8,2,0,1,0,0,-3.14159265358979,-3.14159265358979,                  31P     35
-3.14159265358979,-1.5707963267949,-1.5707963267949,0.,0.,            31P     36
1.5707963267949,1.5707963267949,3.14159265358979,                     31P     37
3.14159265358979,3.14159265358979,1.,0.707106781186548,1.,            31P     38
0.707106781186548,1.,0.707106781186548,1.,0.707106781186548,1.,       31P     39
-44.45,-5.44355502220998D-15,150.,-44.45,-44.45,150.,                 31P     40
2.72177751110499D-15,-44.45,150.,44.45,-44.45,150.,44.45,0.,          31P     41
150.,44.45,44.45,150.,2.72177751110499D-15,44.45,150.,-44.45,         31P     42
44.45,150.,-44.45,5.44355502220998D-15,150.,-3.14159265358979,        31P     43
3.14159265358979,0.,0.,0.;                                            31P     44
126,1,1,0,0,1,0,-3.37457817772778,-3.37457817772778,0.,0.,1.,1.,      33P     45
-44.45,0.,150.,-44.45,0.,0.,-3.37457817772778,0.,0.,0.,0.;            33P     46
126,8,2,0,1,0,0,-3.14159265358979,-3.14159265358979,                  35P     47
-3.14159265358979,-1.5707963267949,-1.5707963267949,0.,0.,            35P     48
1.5707963267949,1.5707963267949,3.14159265358979,                     35P     49
3.14159265358979,3.14159265358979,1.,0.707106781186548,1.,            35P     50
0.707106781186548,1.,0.707106781186548,1.,0.707106781186548,1.,       35P     51
-44.45,-5.44355502220998D-15,0.,-44.45,-44.45,0.,                     35P     52
2.72177751110499D-15,-44.45,0.,44.45,-44.45,0.,44.45,0.,0.,           35P     53
44.45,44.45,0.,2.72177751110499D-15,44.45,0.,-44.45,44.45,0.,         35P     54
-44.45,5.44355502220998D-15,0.,-3.14159265358979,                     35P     55
3.14159265358979,0.,0.,0.;                                            35P     56
128,1,8,1,2,0,1,0,0,1,0.,0.,3.88265076332914,3.88265076332914,        37P     57
-3.14159265358979,-3.14159265358979,-3.14159265358979,                37P     58
-1.5707963267949,-1.5707963267949,0.,0.,1.5707963267949,              37P     59
1.5707963267949,3.14159265358979,3.14159265358979,                    37P     60
3.14159265358979,1.,1.,0.707106781186548,0.707106781186548,1.,        37P     61
1.,0.707106781186548,0.707106781186548,1.,1.,0.707106781186548,       37P     62
0.707106781186548,1.,1.,0.707106781186548,0.707106781186548,1.,       37P     63
1.,-38.6334,0.,0.,-38.6334,0.,150.,-38.6334,-38.6334,0.,              37P     64
-38.6334,-38.6334,150.,0.,-38.6334,0.,0.,-38.6334,150.,38.6334,       37P     65
-38.6334,0.,38.6334,-38.6334,150.,38.6334,0.,0.,38.6334,0.,150.,      37P     66
38.6334,38.6334,0.,38.6334,38.6334,150.,0.,38.6334,0.,0.,             37P     67
38.6334,150.,-38.6334,38.6334,0.,-38.6334,38.6334,150.,-38.6334,      37P     68
0.,0.,-38.6334,0.,150.,0.,3.88265076332914,-3.14159265358979,         37P     69
3.14159265358979;                                                     37P     70
128,1,8,1,2,0,1,0,0,1,0.,0.,3.37457817772778,3.37457817772778,        39P     71
-3.14159265358979,-3.14159265358979,-3.14159265358979,                39P     72
-1.5707963267949,-1.5707963267949,0.,0.,1.5707963267949,              39P     73
1.5707963267949,3.14159265358979,3.14159265358979,                    39P     74
3.14159265358979,1.,1.,0.707106781186548,0.707106781186548,1.,        39P     75
1.,0.707106781186548,0.707106781186548,1.,1.,0.707106781186548,       39P     76
0.707106781186548,1.,1.,0.707106781186548,0.707106781186548,1.,       39P     77
1.,-44.45,0.,150.,-44.45,0.,0.,-44.45,-44.45,150.,-44.45,-44.45,      39P     78
0.,0.,-44.45,150.,0.,-44.45,0.,44.45,-44.45,150.,44.45,-44.45,        39P     79
0.,44.45,0.,150.,44.45,0.,0.,44.45,44.45,150.,44.45,44.45,0.,0.,      39P     80
44.45,150.,0.,44.45,0.,-44.45,44.45,150.,-44.45,44.45,0.,-44.45,      39P     81
0.,150.,-44.45,0.,0.,0.,3.37457817772778,-3.14159265358979,           39P     82
3.14159265358979;                                                     39P     83
128,1,1,1,1,0,0,1,0,0,-4.446,-4.446,4.446,4.446,-4.446,-4.446,        41P     84
4.446,4.446,1.,1.,1.,1.,-44.46,-44.46,150.,44.46,-44.46,150.,         41P     85
-44.46,44.46,150.,44.46,44.46,150.,-4.446,4.446,-4.446,4.446;         41P     86
128,1,1,1,1,0,0,1,0,0,-4.446,-4.446,4.446,4.446,-4.446,-4.446,        43P     87
4.446,4.446,1.,1.,1.,1.,44.46,-44.46,0.,-44.46,-44.46,0.,44.46,       43P     88
44.46,0.,-44.46,44.46,0.,-4.446,4.446,-4.446,4.446;                   43P     89
502,4,-38.6334,-4.73122696501794D-15,150.,-38.6334,                   45P     90
-4.73122696501794D-15,0.,-44.45,-5.44355502220998D-15,150.,           45P     91
-44.45,-5.44355502220998D-15,0.;                                      45P     92
504,6,25,45,1,45,1,27,45,1,45,2,29,45,2,45,2,31,45,3,45,3,33,45,      47P     93
3,45,4,35,45,4,45,4;                                                  47P     94
406,1,5HBody1;                                                        49P     95
314,62.7450980392157,62.7450980392157,62.7450980392157,13HSteel       51P     96
- Satin;                                                              51P     97
S      1G      3D     52P     97                                        T      1
