0
SECTION
2
HEADER
9
$INSUNITS
70
4
9
$ACADVER
1
AC1014
9
$HANDSEED
5
FFFF
0
ENDSEC
0
SECTION
2
TABLES
0
TABLE
2
VPORT
5
8
100
AcDbSymbolTable
0
ENDTAB
0
TABLE
2
LTYPE
5
5
100
AcDbSymbolTable
0
LTYPE
5
14
100
AcDbSymbolTableRecord
100
AcDbLinetypeTableRecord
2
BYBLOCK
70
0
0
LTYPE
5
15
100
AcDbSymbolTableRecord
100
AcDbLinetypeTableRecord
2
BYLAYER
70
0
0
ENDTAB
0
TABLE
2
LAYER
5
2
100
AcDbSymbolTable
70
2
0
LAYER
5
50
100
AcDbSymbolTableRecord
100
AcDbLayerTableRecord
2
0
70
0
6
CONTINUOUS
0
ENDTAB
0
TABLE
2
STYLE
5
3
100
AcDbSymbolTable
70
1
0
STYLE
5
11
100
AcDbSymbolTableRecord
100
AcDbTextStyleTableRecord
2
STANDARD
70
0
0
ENDTAB
0
TABLE
2
VIEW
5
6
100
AcDbSymbolTable
70
0
0
ENDTAB
0
TABLE
2
UCS
5
7
100
AcDbSymbolTable
70
0
0
ENDTAB
0
TABLE
2
APPID
5
9
100
AcDbSymbolTable
70
2
0
APPID
5
12
100
AcDbSymbolTableRecord
100
AcDbRegAppTableRecord
2
ACAD
70
0
0
ENDTAB
0
TABLE
2
DIMSTYLE
5
A
100
AcDbSymbolTable
70
1
0
ENDTAB
0
TABLE
2
BLOCK_RECORD
5
1
100
AcDbSymbolTable
70
1
0
BLOCK_RECORD
5
1F
100
AcDbSymbolTableRecord
100
AcDbBlockTableRecord
2
*MODEL_SPACE
0
BLOCK_RECORD
5
1B
100
AcDbSymbolTableRecord
100
AcDbBlockTableRecord
2
*PAPER_SPACE
0
ENDTAB
0
ENDSEC
0
SECTION
2
BLOCKS
0
BLOCK
5
20
100
AcDbEntity
100
AcDbBlockBegin
2
*MODEL_SPACE
0
ENDBLK
5
21
100
AcDbEntity
100
AcDbBlockEnd
0
BLOCK
5
1C
100
AcDbEntity
100
AcDbBlockBegin
2
*PAPER_SPACE
0
ENDBLK
5
1D
100
AcDbEntity
100
AcDbBlockEnd
0
ENDSEC
0
SECTION
2
ENTITIES
0
CIRCLE
5
100
100
AcDbEntity
8
0
100
AcDbCircle
10
0
20
0
30
0
40
38.100000000000001
210
0
220
0
230
1
0
CIRCLE
5
101
100
AcDbEntity
8
0
100
AcDbCircle
10
0
20
0
30
0
40
37.100000000000001
210
0
220
0
230
1
0
LINE
5
102
100
AcDbEntity
8
0
100
AcDbLine
10
24.903011866038206
20
-27.5
30
0
11
24.903011866038206
21
27.5
31
0
0
LINE
5
103
100
AcDbEntity
8
0
100
AcDbLine
10
26.903011866038206
20
-25.546779690126268
30
0
11
26.903011866038206
21
25.546779690126268
31
0
0
LWPOLYLINE
5
104
100
AcDbEntity
8
0
100
AcDbPolyline
90
4
70
1
43
0.0
10
28.903011866038209
20
12.5
10
26.903011866038206
20
12.5
10
26.903011866038206
20
-12.5
10
28.903011866038209
20
-12.5
0
LINE
5
105
100
AcDbEntity
8
0
100
AcDbLine
10
26.903011866038206
20
14.5
30
0
11
30.903011866038209
21
14.5
31
0
0
LINE
5
106
100
AcDbEntity
8
0
100
AcDbLine
10
30.903011866038209
20
14.5
30
0
11
30.903011866038209
21
9.4999999999999964
31
0
0
LINE
5
107
100
AcDbEntity
8
0
100
AcDbLine
10
30.903011866038209
20
9.4999999999999964
30
0
11
28.903011866038209
21
9.4999999999999964
31
0
0
LINE
5
108
100
AcDbEntity
8
0
100
AcDbLine
10
26.903011866038206
20
-14.500000000000002
30
0
11
30.903011866038209
21
-14.500000000000004
31
0
0
LINE
5
109
100
AcDbEntity
8
0
100
AcDbLine
10
30.903011866038209
20
-14.500000000000004
30
0
11
30.903011866038206
21
-9.5
31
0
0
LINE
5
110
100
AcDbEntity
8
0
100
AcDbLine
10
30.903011866038206
20
-9.5
30
0
11
28.903011866038209
21
-9.5
31
0
0
LINE
5
111
100
AcDbEntity
8
0
100
AcDbLine
10
1.75
20
0
30
0
11
22.5
21
0
31
0
0
LWPOLYLINE
5
112
100
AcDbEntity
8
0
100
AcDbPolyline
90
4
70
1
43
0.0
10
22.903011866038202
20
26.750000000000004
10
24.903011866038206
20
26.750000000000004
10
24.903011866038206
20
-26.750000000000004
10
22.903011866038202
20
-26.750000000000004
0
LWPOLYLINE
5
113
100
AcDbEntity
8
0
100
AcDbPolyline
90
4
70
1
43
0.0
10
11.9030118660382
20
18.080000000000002
10
22.903011866038202
20
18.080000000000002
10
22.903011866038202
20
5.5800000000000027
10
11.9030118660382
20
5.5800000000000027
0
LWPOLYLINE
5
114
100
AcDbEntity
8
0
100
AcDbPolyline
90
4
70
1
43
0.0
10
11.9030118660382
20
-13.25
10
22.903011866038202
20
-13.25
10
22.903011866038202
20
-22.5
10
11.9030118660382
20
-22.5
0
LINE
5
115
100
AcDbEntity
8
0
100
AcDbLine
10
30.903011866038206
20
-9.5
30
0
11
30.903011866038209
21
9.4999999999999964
31
0
0
LINE
5
116
100
AcDbEntity
8
0
100
AcDbLine
10
0
20
-38.100000000000001
30
0
11
0
21
38.100000000000001
31
0
0
LINE
5
117
100
AcDbEntity
8
0
100
AcDbLine
10
-38.100000000000001
20
2.3592239273284576e-15
30
0
11
38.100000000000001
21
-2.3592239273284576e-15
31
0
0
LINE
5
118
100
AcDbEntity
8
0
100
AcDbLine
10
26.940768363207461
20
-26.940768363207461
30
0
11
-26.940768363207454
21
26.940768363207454
31
0
0
LINE
5
119
100
AcDbEntity
8
0
100
AcDbLine
10
26.940768363207464
20
26.940768363207464
30
0
11
-26.940768363207464
21
-26.940768363207464
31
0
0
LINE
5
120
100
AcDbEntity
8
0
100
AcDbLine
10
0
20
37.100000000000001
30
0
11
0
21
38.100000000000001
31
0
0
LINE
5
121
100
AcDbEntity
8
0
100
AcDbLine
10
-26.233661582020915
20
26.233661582020915
30
0
11
-26.940768363207454
21
26.940768363207454
31
0
0
LINE
5
122
100
AcDbEntity
8
0
100
AcDbLine
10
-37.100000000000001
20
2.2973020394720676e-15
30
0
11
-38.100000000000001
21
2.3592239273284576e-15
31
0
0
LINE
5
123
100
AcDbEntity
8
0
100
AcDbLine
10
-26.940768363207464
20
-26.940768363207464
30
0
11
-26.233661582020915
21
-26.233661582020915
31
0
0
LINE
5
124
100
AcDbEntity
8
0
100
AcDbLine
10
0
20
-38.100000000000001
30
0
11
0
21
-37.09999917075038
31
0
0
LINE
5
125
100
AcDbEntity
8
0
100
AcDbLine
10
26.940768363207461
20
-26.940768363207461
30
0
11
26.233661582020915
21
-26.233661582020915
31
0
0
LINE
5
126
100
AcDbEntity
8
0
100
AcDbLine
10
38.100000000000001
20
-2.3592239273284576e-15
30
0
11
37.100000000000001
21
-2.2973020394720676e-15
31
0
0
LINE
5
127
100
AcDbEntity
8
0
100
AcDbLine
10
26.940768363207464
20
26.940768363207464
30
0
11
26.233661582020915
21
26.233661582020915
31
0
0
LINE
5
128
100
AcDbEntity
8
0
100
AcDbLine
10
20.903011866038202
20
30.650841667534454
30
0
11
20.903011866038202
21
20.080000000000005
31
0
0
LINE
5
129
100
AcDbEntity
8
0
100
AcDbLine
10
20.903011866038202
20
20.080000000000005
30
0
11
9.9030118660382005
21
20.080000000000005
31
0
0
LINE
5
130
100
AcDbEntity
8
0
100
AcDbLine
10
9.9030118660382005
20
20.080000000000005
30
0
11
9.9030118660382005
21
3.5800000000000027
31
0
0
LINE
5
131
100
AcDbEntity
8
0
100
AcDbLine
10
9.9030118660382005
20
3.5800000000000027
30
0
11
22.903011866038202
21
3.5800000000000027
31
0
0
ENDSEC
0
SECTION
2
OBJECTS
0
DICTIONARY
5
C
100
AcDbDictionary
3
ACAD_GROUP
350
D
3
ACAD_MLINESTYLE
350
17
0
DICTIONARY
5
D
100
AcDbDictionary
0
DICTIONARY
5
1A
330
C
100
AcDbDictionary
0
DICTIONARY
5
17
100
AcDbDictionary
0
ENDSEC
0
EOF
