                                                                        S      1
,,19HDHECouletadapter v1,19HDHECouletadapter v1,7Hunknown,7Hunknown,32, G      1
38,7,99,15,,1.,2,2HMM,1,0.08,15H20210504.162917,0.01,10000.,7Hunknown,7HG      2
unknown,11,0,15H20200827.012953;                                        G      3
     186       1                                                00000000D      1
     186            -107       1       0                               0D      2
     514       2                                                00010000D      3
     514                       1       1                               0D      4
     510       3                                                00010000D      5
     510            -107       1       1                               0D      6
     510       4                                                00010000D      7
     510            -107       1       1                               0D      8
     510       5                                                00010000D      9
     510            -107       1       1                               0D     10
     510       6                                                00010000D     11
     510            -107       1       1                               0D     12
     510       7                                                00010000D     13
     510            -107       1       1                               0D     14
     510       8                                                00010000D     15
     510            -107       1       1                               0D     16
     510       9                                                00010000D     17
     510            -107       1       1                               0D     18
     510      10                                                00010000D     19
     510            -107       1       1                               0D     20
     508      11                                                00010000D     21
     508                       1       1                               0D     22
     508      12                                                00010000D     23
     508                       1       1                               0D     24
     508      13                                                00010000D     25
     508                       2       1                               0D     26
     508      15                                                00010000D     27
     508                       1       1                               0D     28
     508      16                                                00010000D     29
     508                       1       1                               0D     30
     508      17                                                00010000D     31
     508                       2       1                               0D     32
     508      19                                                00010000D     33
     508                       1       1                               0D     34
     508      20                                                00010000D     35
     508                       1       1                               0D     36
     508      21                                                00010000D     37
     508                       2       1                               0D     38
     508      23                                                00010000D     39
     508                       1       1                               0D     40
     508      24                                                00010000D     41
     508                       1       1                               0D     42
     508      25                                                00010000D     43
     508                       2       1                               0D     44
     126      27                                                00010000D     45
     126       0               5       0                               0D     46
     126      32                                                00010000D     47
     126       0               7       0                               0D     48
     126      39                                                00010000D     49
     126       0               5       0                               0D     50
     126      44                                                00010000D     51
     126       0               7       0                               0D     52
     126      51                                                00010000D     53
     126       0               5       0                               0D     54
     126      56                                                00010000D     55
     126       0               7       0                               0D     56
     126      63                                                00010000D     57
     126       0               3       0                               0D     58
     126      66                                                00010000D     59
     126       0               5       0                               0D     60
     126      71                                                00010000D     61
     126       0               7       0                               0D     62
     126      78                                                00010000D     63
     126       0               3       0                               0D     64
     126      81                                                00010000D     65
     126       0               5       0                               0D     66
     126      86                                                00010000D     67
     126       0               7       0                               0D     68
     126      93                                                00010000D     69
     126       0               5       0                               0D     70
     126      98                                                00010000D     71
     126       0               7       0                               0D     72
     126     105                                                00010000D     73
     126       0               3       0                               0D     74
     126     108                                                00010000D     75
     126       0               5       0                               0D     76
     126     113                                                00010000D     77
     126       0               7       0                               0D     78
     126     120                                                00010000D     79
     126       0               5       0                               0D     80
     126     125                                                00010000D     81
     126       0               7       0                               0D     82
     126     132                                                00010000D     83
     126       0               3       0                               0D     84
     128     135                                                00010000D     85
     128       0    -107       3       0                               0D     86
     128     138                                                00010000D     87
     128       0    -107      13       0                               0D     88
     128     151                                                00010000D     89
     128       0    -107       4       0                               0D     90
     128     155                                                00010000D     91
     128       0    -107      13       0                               0D     92
     128     168                                                00010000D     93
     128       0    -107       3       0                               0D     94
     128     171                                                00010000D     95
     128       0    -107      13       0                               0D     96
     128     184                                                00010000D     97
     128       0    -107       3       0                               0D     98
     128     187                                                00010000D     99
     128       0    -107      13       0                               0D    100
     502     200                                                00010000D    101
     502                       4       1                               0D    102
     504     204                                                00010001D    103
     504                       6       1                               0D    104
     406     210                                                00000000D    105
     406                       1      15                               0D    106
     314     211                                                00000200D    107
     314                       2       0                               0D    108
186,3,1,0,0,1,105;                                                     1P      1
514,8,5,1,7,1,9,1,11,1,13,1,15,1,17,1,19,1;                            3P      2
510,85,2,1,21,23;                                                      5P      3
510,87,1,1,25;                                                         7P      4
510,89,2,1,27,29;                                                      9P      5
510,91,1,1,31;                                                        11P      6
510,93,2,1,33,35;                                                     13P      7
510,95,1,1,37;                                                        15P      8
510,97,2,1,39,41;                                                     17P      9
510,99,1,1,43;                                                        19P     10
508,2,0,103,1,0,0,0,103,2,0,0;                                        21P     11
508,2,0,103,3,1,0,0,103,4,1,0;                                        23P     12
508,6,0,103,5,0,0,0,103,6,0,0,0,103,7,1,0,0,103,2,1,0,0,103,1,1,      25P     13
0,0,103,7,0,0;                                                        25P     14
508,2,0,103,5,1,0,0,103,6,1,0;                                        27P     15
508,2,0,103,8,0,0,0,103,9,0,0;                                        29P     16
508,6,0,103,8,1,0,0,103,10,1,0,0,103,11,0,0,0,103,12,0,0,0,103,       31P     17
10,0,0,0,103,9,1,0;                                                   31P     18
508,2,0,103,11,1,0,0,103,12,1,0;                                      33P     19
508,2,0,103,13,0,0,0,103,14,0,0;                                      35P     20
508,6,0,103,13,1,0,0,103,15,1,0,0,103,16,0,0,0,103,17,0,0,0,103,      37P     21
15,0,0,0,103,14,1,0;                                                  37P     22
508,2,0,103,18,0,0,0,103,19,0,0;                                      39P     23
508,2,0,103,16,1,0,0,103,17,1,0;                                      41P     24
508,6,0,103,18,1,0,0,103,20,1,0,0,103,3,0,0,0,103,4,0,0,0,103,        43P     25
20,0,0,0,103,19,1,0;                                                  43P     26
126,4,2,0,0,0,0,0.,0.,0.,1.5707963267949,1.5707963267949,             45P     27
3.14159265358979,3.14159265358979,3.14159265358979,1.,                45P     28
0.707106781186548,1.,0.707106781186548,1.,47.,0.,0.,47.,47.,0.,       45P     29
2.87791997799628D-15,47.,0.,-47.,47.,0.,-47.,                         45P     30
5.75583995599256D-15,0.,0.,3.14159265358979,0.,0.,0.;                 45P     31
126,4,2,0,0,0,0,3.14159265358979,3.14159265358979,                    47P     32
3.14159265358979,4.71238898038469,4.71238898038469,                   47P     33
6.28318530717959,6.28318530717959,6.28318530717959,1.,                47P     34
0.707106781186548,1.,0.707106781186547,1.,-47.,                       47P     35
5.75583995599256D-15,0.,-47.,-47.,0.,-8.63375993398884D-15,-47.,      47P     36
0.,47.,-47.,0.,47.,-1.15116799119851D-14,0.,3.14159265358979,         47P     37
6.28318530717959,0.,0.,0.;                                            47P     38
126,4,2,0,0,0,0,0.,0.,0.,1.5707963267949,1.5707963267949,             49P     39
3.14159265358979,3.14159265358979,3.14159265358979,1.,                49P     40
0.707106781186548,1.,0.707106781186548,1.,45.,0.,0.,45.,45.,0.,       49P     41
2.75545529808154D-15,45.,0.,-45.,45.,0.,-45.,                         49P     42
5.51091059616309D-15,0.,0.,3.14159265358979,0.,0.,0.;                 49P     43
126,4,2,0,0,0,0,3.14159265358979,3.14159265358979,                    51P     44
3.14159265358979,4.71238898038469,4.71238898038469,                   51P     45
6.28318530717959,6.28318530717959,6.28318530717959,1.,                51P     46
0.707106781186548,1.,0.707106781186547,1.,-45.,                       51P     47
5.51091059616309D-15,0.,-45.,-45.,0.,-8.26636589424463D-15,-45.,      51P     48
0.,45.,-45.,0.,45.,-1.10218211923262D-14,0.,3.14159265358979,         51P     49
6.28318530717959,0.,0.,0.;                                            51P     50
126,4,2,0,0,0,0,0.,0.,0.,1.5707963267949,1.5707963267949,             53P     51
3.14159265358979,3.14159265358979,3.14159265358979,1.,                53P     52
0.707106781186548,1.,0.707106781186548,1.,47.,0.,22.,47.,47.,         53P     53
22.,2.87791997799628D-15,47.,22.,-47.,47.,22.,-47.,                   53P     54
5.75583995599256D-15,22.,0.,3.14159265358979,0.,0.,0.;                53P     55
126,4,2,0,0,0,0,3.14159265358979,3.14159265358979,                    55P     56
3.14159265358979,4.71238898038469,4.71238898038469,                   55P     57
6.28318530717959,6.28318530717959,6.28318530717959,1.,                55P     58
0.707106781186548,1.,0.707106781186547,1.,-47.,                       55P     59
5.75583995599256D-15,22.,-47.,-47.,22.,-8.63375993398884D-15,         55P     60
-47.,22.,47.,-47.,22.,47.,-1.15116799119851D-14,22.,                  55P     61
3.14159265358979,6.28318530717959,0.,0.,0.;                           55P     62
126,1,1,0,0,1,0,-0.234042553191489,-0.234042553191489,                57P     63
0.234042553191489,0.234042553191489,1.,1.,-47.,0.,22.,-47.,0.,        57P     64
0.,-0.234042553191489,0.234042553191489,0.,0.,0.;                     57P     65
126,4,2,0,0,0,0,0.,0.,0.,1.5707963267949,1.5707963267949,             59P     66
3.14159265358979,3.14159265358979,3.14159265358979,1.,                59P     67
0.707106781186548,1.,0.707106781186548,1.,45.,0.,22.,45.,45.,         59P     68
22.,2.75545529808154D-15,45.,22.,-45.,45.,22.,-45.,                   59P     69
5.51091059616309D-15,22.,0.,3.14159265358979,0.,0.,0.;                59P     70
126,4,2,0,0,0,0,3.14159265358979,3.14159265358979,                    61P     71
3.14159265358979,4.71238898038469,4.71238898038469,                   61P     72
6.28318530717959,6.28318530717959,6.28318530717959,1.,                61P     73
0.707106781186548,1.,0.707106781186547,1.,-45.,                       61P     74
5.51091059616309D-15,22.,-45.,-45.,22.,-8.26636589424463D-15,         61P     75
-45.,22.,45.,-45.,22.,45.,-1.10218211923262D-14,22.,                  61P     76
3.14159265358979,6.28318530717959,0.,0.,0.;                           61P     77
126,1,1,0,0,1,0,-0.111111111111111,-0.111111111111111,                63P     78
0.111111111111111,0.111111111111111,1.,1.,-45.,0.,22.,-45.,0.,        63P     79
12.,-0.111111111111111,0.111111111111111,0.,0.,0.;                    63P     80
126,4,2,0,0,0,0,0.,0.,0.,1.5707963267949,1.5707963267949,             65P     81
3.14159265358979,3.14159265358979,3.14159265358979,1.,                65P     82
0.707106781186548,1.,0.707106781186548,1.,45.,0.,12.,45.,45.,         65P     83
12.,2.75545529808154D-15,45.,12.,-45.,45.,12.,-45.,                   65P     84
5.51091059616309D-15,12.,0.,3.14159265358979,0.,0.,0.;                65P     85
126,4,2,0,0,0,0,3.14159265358979,3.14159265358979,                    67P     86
3.14159265358979,4.71238898038469,4.71238898038469,                   67P     87
6.28318530717959,6.28318530717959,6.28318530717959,1.,                67P     88
0.707106781186548,1.,0.707106781186547,1.,-45.,                       67P     89
5.51091059616309D-15,12.,-45.,-45.,12.,-8.26636589424463D-15,         67P     90
-45.,12.,45.,-45.,12.,45.,-1.10218211923262D-14,12.,                  67P     91
3.14159265358979,6.28318530717959,0.,0.,0.;                           67P     92
126,4,2,0,0,0,0,0.,0.,0.,1.5707963267949,1.5707963267949,             69P     93
3.14159265358979,3.14159265358979,3.14159265358979,1.,                69P     94
0.707106781186547,1.,0.707106781186547,1.,35.,0.,12.,35.,35.,         69P     95
12.,2.14313189850787D-15,35.,12.,-35.,35.,12.,-35.,                   69P     96
4.28626379701574D-15,12.,0.,3.14159265358979,0.,0.,0.;                69P     97
126,4,2,0,0,0,0,3.14159265358979,3.14159265358979,                    71P     98
3.14159265358979,4.71238898038469,4.71238898038469,                   71P     99
6.28318530717959,6.28318530717959,6.28318530717959,1.,                71P    100
0.707106781186547,1.,0.707106781186548,1.,-35.,                       71P    101
4.28626379701574D-15,12.,-35.,-35.,12.,-6.4293956955236D-15,          71P    102
-35.,12.,35.,-35.,12.,35.,-8.57252759403147D-15,12.,                  71P    103
3.14159265358979,6.28318530717959,0.,0.,0.;                           71P    104
126,1,1,0,0,1,0,-0.0285714285714285,-0.0285714285714285,              73P    105
0.0285714285714286,0.0285714285714286,1.,1.,-35.,0.,12.,-35.,0.,      73P    106
10.,-0.0285714285714285,0.0285714285714286,0.,0.,0.;                  73P    107
126,4,2,0,0,0,0,0.,0.,0.,1.5707963267949,1.5707963267949,             75P    108
3.14159265358979,3.14159265358979,3.14159265358979,1.,                75P    109
0.707106781186547,1.,0.707106781186547,1.,35.,0.,10.,35.,35.,         75P    110
10.,2.14313189850787D-15,35.,10.,-35.,35.,10.,-35.,                   75P    111
4.28626379701574D-15,10.,0.,3.14159265358979,0.,0.,0.;                75P    112
126,4,2,0,0,0,0,3.14159265358979,3.14159265358979,                    77P    113
3.14159265358979,4.71238898038469,4.71238898038469,                   77P    114
6.28318530717959,6.28318530717959,6.28318530717959,1.,                77P    115
0.707106781186547,1.,0.707106781186548,1.,-35.,                       77P    116
4.28626379701574D-15,10.,-35.,-35.,10.,-6.4293956955236D-15,          77P    117
-35.,10.,35.,-35.,10.,35.,-8.57252759403147D-15,10.,                  77P    118
3.14159265358979,6.28318530717959,0.,0.,0.;                           77P    119
126,4,2,0,0,0,0,0.,0.,0.,1.5707963267949,1.5707963267949,             79P    120
3.14159265358979,3.14159265358979,3.14159265358979,1.,                79P    121
0.707106781186548,1.,0.707106781186548,1.,45.,0.,10.,45.,45.,         79P    122
10.,2.75545529808154D-15,45.,10.,-45.,45.,10.,-45.,                   79P    123
5.51091059616309D-15,10.,0.,3.14159265358979,0.,0.,0.;                79P    124
126,4,2,0,0,0,0,3.14159265358979,3.14159265358979,                    81P    125
3.14159265358979,4.71238898038469,4.71238898038469,                   81P    126
6.28318530717959,6.28318530717959,6.28318530717959,1.,                81P    127
0.707106781186548,1.,0.707106781186547,1.,-45.,                       81P    128
5.51091059616309D-15,10.,-45.,-45.,10.,-8.26636589424463D-15,         81P    129
-45.,10.,45.,-45.,10.,45.,-1.10218211923262D-14,10.,                  81P    130
3.14159265358979,6.28318530717959,0.,0.,0.;                           81P    131
126,1,1,0,0,1,0,-0.111111111111111,-0.111111111111111,                83P    132
0.111111111111111,0.111111111111111,1.,1.,-45.,0.,10.,-45.,0.,        83P    133
0.,-0.111111111111111,0.111111111111111,0.,0.,0.;                     83P    134
128,1,1,1,1,0,0,1,0,0,-0.001,-0.001,9.401,9.401,-4.701,-4.701,        85P    135
4.701,4.701,1.,1.,1.,1.,47.01,-47.01,0.,-47.01,-47.01,0.,47.01,       85P    136
47.01,0.,-47.01,47.01,0.,-0.001,9.401,-4.701,4.701;                   85P    137
128,1,8,1,2,0,1,0,0,1,-0.234042553191489,-0.234042553191489,          87P    138
0.234042553191489,0.234042553191489,-3.14159265358979,                87P    139
-3.14159265358979,-3.14159265358979,-1.5707963267949,                 87P    140
-1.5707963267949,0.,0.,1.5707963267949,1.5707963267949,               87P    141
3.14159265358979,3.14159265358979,3.14159265358979,1.,1.,             87P    142
0.707106781186548,0.707106781186548,1.,1.,0.707106781186548,          87P    143
0.707106781186548,1.,1.,0.707106781186548,0.707106781186548,1.,       87P    144
1.,0.707106781186548,0.707106781186548,1.,1.,-47.,0.,22.,-47.,        87P    145
0.,0.,-47.,-47.,22.,-47.,-47.,0.,0.,-47.,22.,0.,-47.,0.,47.,          87P    146
-47.,22.,47.,-47.,0.,47.,0.,22.,47.,0.,0.,47.,47.,22.,47.,47.,        87P    147
0.,0.,47.,22.,0.,47.,0.,-47.,47.,22.,-47.,47.,0.,-47.,0.,22.,         87P    148
-47.,0.,0.,-0.234042553191489,0.234042553191489,                      87P    149
-3.14159265358979,3.14159265358979;                                   87P    150
128,1,1,1,1,0,0,1,0,0,-9.201,-9.201,0.201000000000001,                89P    151
0.201000000000001,-4.701,-4.701,4.701,4.701,1.,1.,1.,1.,-47.01,       89P    152
-47.01,22.,47.01,-47.01,22.,-47.01,47.01,22.,47.01,47.01,22.,         89P    153
-9.201,0.201000000000001,-4.701,4.701;                                89P    154
128,1,8,1,2,0,1,0,0,1,-0.111111111111111,-0.111111111111111,          91P    155
0.111111111111111,0.111111111111111,-3.14159265358979,                91P    156
-3.14159265358979,-3.14159265358979,-1.5707963267949,                 91P    157
-1.5707963267949,0.,0.,1.5707963267949,1.5707963267949,               91P    158
3.14159265358979,3.14159265358979,3.14159265358979,1.,1.,             91P    159
0.707106781186548,0.707106781186548,1.,1.,0.707106781186548,          91P    160
0.707106781186548,1.,1.,0.707106781186548,0.707106781186548,1.,       91P    161
1.,0.707106781186548,0.707106781186548,1.,1.,-45.,0.,12.,-45.,        91P    162
0.,22.,-45.,-45.,12.,-45.,-45.,22.,0.,-45.,12.,0.,-45.,22.,45.,       91P    163
-45.,12.,45.,-45.,22.,45.,0.,12.,45.,0.,22.,45.,45.,12.,45.,45.,      91P    164
22.,0.,45.,12.,0.,45.,22.,-45.,45.,12.,-45.,45.,22.,-45.,0.,12.,      91P    165
-45.,0.,22.,-0.111111111111111,0.111111111111111,                     91P    166
-3.14159265358979,3.14159265358979;                                   91P    167
128,1,1,1,1,0,0,1,0,0,-8.001,-8.001,1.001,1.001,-4.501,-4.501,        93P    168
4.501,4.501,1.,1.,1.,1.,-45.01,-45.01,12.,45.01,-45.01,12.,           93P    169
-45.01,45.01,12.,45.01,45.01,12.,-8.001,1.001,-4.501,4.501;           93P    170
128,1,8,1,2,0,1,0,0,1,-0.0285714285714286,-0.0285714285714286,        95P    171
0.0285714285714285,0.0285714285714285,-3.14159265358979,              95P    172
-3.14159265358979,-3.14159265358979,-1.5707963267949,                 95P    173
-1.5707963267949,0.,0.,1.5707963267949,1.5707963267949,               95P    174
3.14159265358979,3.14159265358979,3.14159265358979,1.,1.,             95P    175
0.707106781186548,0.707106781186548,1.,1.,0.707106781186548,          95P    176
0.707106781186548,1.,1.,0.707106781186548,0.707106781186548,1.,       95P    177
1.,0.707106781186548,0.707106781186548,1.,1.,-35.,0.,10.,-35.,        95P    178
0.,12.,-35.,-35.,10.,-35.,-35.,12.,0.,-35.,10.,0.,-35.,12.,35.,       95P    179
-35.,10.,35.,-35.,12.,35.,0.,10.,35.,0.,12.,35.,35.,10.,35.,35.,      95P    180
12.,0.,35.,10.,0.,35.,12.,-35.,35.,10.,-35.,35.,12.,-35.,0.,10.,      95P    181
-35.,0.,12.,-0.0285714285714286,0.0285714285714285,                   95P    182
-3.14159265358979,3.14159265358979;                                   95P    183
128,1,1,1,1,0,0,1,0,0,-0.001,-0.001,9.001,9.001,-4.501,-4.501,        97P    184
4.501,4.501,1.,1.,1.,1.,45.01,-45.01,10.,-45.01,-45.01,10.,           97P    185
45.01,45.01,10.,-45.01,45.01,10.,-0.001,9.001,-4.501,4.501;           97P    186
128,1,8,1,2,0,1,0,0,1,-0.111111111111111,-0.111111111111111,          99P    187
0.111111111111111,0.111111111111111,-3.14159265358979,                99P    188
-3.14159265358979,-3.14159265358979,-1.5707963267949,                 99P    189
-1.5707963267949,0.,0.,1.5707963267949,1.5707963267949,               99P    190
3.14159265358979,3.14159265358979,3.14159265358979,1.,1.,             99P    191
0.707106781186548,0.707106781186548,1.,1.,0.707106781186548,          99P    192
0.707106781186548,1.,1.,0.707106781186548,0.707106781186548,1.,       99P    193
1.,0.707106781186548,0.707106781186548,1.,1.,-45.,0.,0.,-45.,0.,      99P    194
10.,-45.,-45.,0.,-45.,-45.,10.,0.,-45.,0.,0.,-45.,10.,45.,-45.,       99P    195
0.,45.,-45.,10.,45.,0.,0.,45.,0.,10.,45.,45.,0.,45.,45.,10.,0.,       99P    196
45.,0.,0.,45.,10.,-45.,45.,0.,-45.,45.,10.,-45.,0.,0.,-45.,0.,        99P    197
10.,-0.111111111111111,0.111111111111111,-3.14159265358979,           99P    198
3.14159265358979;                                                     99P    199
502,16,47.,0.,0.,-47.,0.,0.,45.,0.,0.,-45.,0.,0.,47.,0.,22.,         101P    200
-47.,0.,22.,45.,0.,22.,-45.,0.,22.,-45.,0.,12.,45.,0.,12.,35.,       101P    201
0.,12.,-35.,0.,12.,-35.,0.,10.,35.,0.,10.,45.,0.,10.,-45.,0.,        101P    202
10.;                                                                 101P    203
504,20,45,101,1,101,2,47,101,2,101,1,49,101,3,101,4,51,101,4,        103P    204
101,3,53,101,5,101,6,55,101,6,101,5,57,101,6,101,2,59,101,7,101,     103P    205
8,61,101,8,101,7,63,101,8,101,9,65,101,10,101,9,67,101,9,101,10,     103P    206
69,101,11,101,12,71,101,12,101,11,73,101,12,101,13,75,101,14,        103P    207
101,13,77,101,13,101,14,79,101,15,101,16,81,101,16,101,15,83,        103P    208
101,16,101,4;                                                        103P    209
406,1,5HBody1;                                                       105P    210
314,62.7450980392157,62.7450980392157,62.7450980392157,13HSteel      107P    211
- Satin;                                                             107P    212
S      1G      3D    108P    212                                        T      1
