<?xml version="1.0" encoding="UTF-8"?>
<svg width="137px" height="50px" viewBox="0 0 137 50" version="1.1" xmlns="http://www.w3.org/2000/svg" xmlns:xlink="http://www.w3.org/1999/xlink">
    <!-- Generator: Sketch 47.1 (45422) - http://www.bohemiancoding.com/sketch -->
    <title>logo-dhec</title>
    <desc>Created with Sketch.</desc>
    <defs>
        <path d="M5.21,3.16 C1.82,5.59 0.5,9.89 0,12 L0.5,11.47 C0.76,11.21 1.03,10.94 1.33,10.67 C1.63,10.4 1.93,10.14 2.27,9.87 L2.76,9.48 L3.29,9.11 C3.63,8.86 3.99,8.63 4.35,8.41 C4.71,8.19 5.07,8 5.41,7.81 C5.75,7.62 6.11,7.47 6.41,7.31 L6.89,7.09 L7.35,6.92 C7.65,6.81 7.91,6.7 8.15,6.62 L8.79,6.43 L9.32,6.27 C9.38351275,6.24790861 9.45290861,6.28148726 9.47499999,6.345 C9.49709138,6.40851275 9.46351274,6.47790861 9.4,6.5 L9.4,6.5 L8.87,6.72 L8.27,6.97 C8.04,7.07 7.79,7.21 7.52,7.34 L7.09,7.56 C6.94,7.63 6.8,7.73 6.65,7.82 C6.5,7.91 6.03,8.17 5.72,8.4 C5.41,8.63 5.07,8.83 4.72,9.09 C4.37,9.35 4.08,9.58 3.79,9.86 L3.34,10.26 L3,10.65 C2.71,10.92 2.47,11.22 2.2,11.5 C1.93,11.78 1.72,12.07 1.5,12.33 C1.28,12.59 1.09,12.86 0.92,13.11 L0.75,13.36 C2.75,13.61 7.49,13.89 11.02,11.36 C14.55,8.83 15.93,4 16.29,2.1 C16.331315,1.89974194 16.291281,1.69127435 16.1787257,1.52056547 C16.0661704,1.34985658 15.8903378,1.23092652 15.69,1.19 L15.69,1.19 C14.7986997,1.06554582 13.8999449,1.00206499 13,1 C10.240281,0.905334459 7.51790427,1.65922339 5.2,3.16" id="path-1"></path>
        <linearGradient x1="49.9547401%" y1="89.8506998%" x2="49.9547401%" y2="4.20995334%" id="linearGradient-3">
            <stop stop-color="#99C45C" offset="0%"></stop>
            <stop stop-color="#8BC04D" offset="26%"></stop>
            <stop stop-color="#83BD44" offset="57%"></stop>
            <stop stop-color="#80BC41" offset="100%"></stop>
        </linearGradient>
        <path d="M4.57,0.71 C4.29,1.17 3.95,1.77 3.57,2.43 C3.19,3.09 2.88,3.91 2.51,4.8 C2.34,5.24 2.18,5.71 2.01,6.2 L1.78,6.95 C1.7,7.2 1.62,7.48 1.55,7.72 L1.35,8.52 C1.28,8.79 1.22,9.05 1.15,9.35 C1.01,9.88 0.91,10.48 0.79,11.06 C0.73,11.35 0.69,11.65 0.64,11.94 C0.59,12.23 0.54,12.53 0.51,12.83 C0.44,13.43 0.36,14.04 0.33,14.66 C0.33,14.97 0.28,15.27 0.27,15.59 C0.26,15.91 0.27,16.21 0.27,16.52 L0.27,18.38 L0.33,19.38 L0.41,20.32 C0.41,20.94 0.53,21.58 0.6,22.2 C0.75,23.45 0.92,24.67 1.13,25.85 C1.34,27.03 1.56,28.15 1.81,29.21 L2,30 L2.2,30.75 C2.32,31.25 2.46,31.75 2.59,32.17 C2.85,33.08 3.12,33.9 3.38,34.61 C3.64,35.32 3.87,35.94 4.08,36.44 L4.17,36.66 L21.15,24 C21.6181517,23.6546096 21.9675592,23.1724273 22.15,22.62 C23.1474034,19.5869009 25.2309659,17.0296395 28,15.44 L28.57,15.11 C28.9469274,14.8985515 29.203026,14.5227306 29.2619459,14.0945797 C29.3208657,13.6664288 29.1758012,13.235402 28.87,12.93 L17.72,0.85 C17.5695296,0.700517963 17.3614853,0.623870065 17.15,0.64 L4.64,0.64 L4.58,0.73" id="path-4"></path>
        <linearGradient x1="51.0729202%" y1="-0.310555556%" x2="51.0729202%" y2="100.948889%" id="linearGradient-6">
            <stop stop-color="#08B4D3" offset="0%"></stop>
            <stop stop-color="#03ABD0" offset="46%"></stop>
            <stop stop-color="#00A6CE" offset="100%"></stop>
        </linearGradient>
        <path d="M18.58,11.82 C18.58,9.85386629 20.1738663,8.26 22.14,8.26 C24.1061337,8.26 25.7,9.85386629 25.7,11.82 C25.7,13.7861337 24.1061337,15.38 22.14,15.38 C20.1738663,15.38 18.58,13.7861337 18.58,11.82 L18.58,11.82 M10.78,0.82 L1.61,6.09 C1.27562375,6.27128429 1.04699084,6.60035752 0.993752389,6.97697023 C0.940513942,7.35358295 1.06897464,7.73313538 1.34,8 L2.52,9.2 L2.93,9.2 C3.4614096,9.20480127 3.9921763,9.23818282 4.52,9.3 C5.35632457,9.39077462 6.18509911,9.5411571 7,9.75 C8.02526439,10.0272887 9.02811758,10.3816302 10,10.81 C12.4385682,11.8887763 14.7166992,13.2987273 16.77,15 C17.9310391,15.9592604 19.0268044,16.9948922 20.05,18.1 C21.1299656,19.2708638 22.1163301,20.524717 23,21.85 C23.4492683,22.5178278 23.8631711,23.2087785 24.24,23.92 L24.38,24.2 L24.51,24.45 L24.77,24.98 C24.93,25.32 25.11,25.66 25.27,25.98 C25.43,26.3 25.47,26.4 25.56,26.61 L25.56,23.41 C25.5512059,23.0758801 25.5679211,22.7415762 25.61,22.41 L25.7,21.41 C25.7222607,21.0742645 25.7656802,20.7402678 25.83,20.41 C25.91,19.75 26.04,19.1 26.15,18.41 C26.21,18.09 26.29,17.77 26.36,17.46 C26.43,17.15 26.49,16.84 26.58,16.53 C26.74,15.92 26.89,15.32 27.08,14.74 C27.17,14.45 27.25,14.16 27.34,13.88 L27.63,13.05 C27.72,12.77 27.82,12.52 27.93,12.25 L28.26,11.51 C28.47,11.01 28.68,10.51 28.88,10.07 C29.31,9.16 29.73,8.33 30.15,7.62 C30.57,6.91 30.97,6.31 31.31,5.82 L31.46,5.61 L30.08,2.36 C29.8084346,1.55576516 29.0587814,1.01056279 28.21,1 L11.56,0.57 C11.2860092,0.569830016 11.0168695,0.64229072 10.78,0.78" id="path-7"></path>
        <linearGradient x1="50.4516971%" y1="0.753356348%" x2="50.4516971%" y2="161.095129%" id="linearGradient-9">
            <stop stop-color="#317AA7" offset="0%"></stop>
            <stop stop-color="#1B709F" offset="33%"></stop>
            <stop stop-color="#076697" offset="73%"></stop>
            <stop stop-color="#006394" offset="100%"></stop>
        </linearGradient>
        <path d="M0.15,0.83 L3.41,4.17 C3.69,4.45 5.95,7.79 6.15,8.17 L21.85,32.6 C21.8364873,32.2450765 21.8031017,31.8911887 21.75,31.54 C21.66,30.67 21.52,29.69 21.35,28.62 C21.18,27.55 20.94,26.39 20.65,25.17 C20.36,23.95 20.03,22.67 19.65,21.35 C19.27,20.03 18.81,18.7 18.3,17.35 C18.18,17.01 18.04,16.67 17.91,16.35 L17.71,15.85 L17.6,15.59 L17.5,15.36 C17.199407,14.7229471 16.8656154,14.1020947 16.5,13.5 C15.7752626,12.2716092 14.9561282,11.1014173 14.05,10 C13.1690851,8.92090967 12.2169587,7.90196744 11.2,6.95 C9.40695608,5.25069415 7.38789552,3.80706585 5.2,2.66 C4.32698232,2.21161389 3.42101837,1.83050729 2.49,1.52 C1.7741722,1.28174237 1.04233251,1.09460528 0.3,0.96 L0.15,0.83 Z" id="path-10"></path>
        <linearGradient x1="-72628%" y1="206267%" x2="-72575%" y2="206267%" id="linearGradient-12">
            <stop stop-color="#317AA7" offset="0%"></stop>
            <stop stop-color="#1B709F" offset="33%"></stop>
            <stop stop-color="#076697" offset="73%"></stop>
            <stop stop-color="#006394" offset="100%"></stop>
        </linearGradient>
    </defs>
    <g id="Page-1" stroke="none" stroke-width="1" fill="none" fill-rule="evenodd">
        <g id="Homepage" transform="translate(-1139.000000, -22.000000)">
            <g id="Header" transform="translate(-12.000000, -72.000000)">
                <g id="logo-dhec" transform="translate(1150.000000, 93.000000)">
                    <g id="Clipped" transform="translate(33.000000, 0.000000)">
                        <mask id="mask-2" fill="white">
                            <use xlink:href="#path-1"></use>
                        </mask>
                        <g id="Shape"></g>
                        <rect id="Rectangle-path" fill="url(#linearGradient-3)" fill-rule="nonzero" mask="url(#mask-2)" x="0.23" y="1" width="16.35" height="12.86"></rect>
                    </g>
                    <g id="Clipped" transform="translate(28.000000, 14.000000)">
                        <mask id="mask-5" fill="white">
                            <use xlink:href="#path-4"></use>
                        </mask>
                        <g id="Shape"></g>
                        <rect id="Rectangle-path" fill="url(#linearGradient-6)" fill-rule="nonzero" mask="url(#mask-5)" x="0.48" y="0.62" width="29.21" height="36"></rect>
                    </g>
                    <g id="Clipped" transform="translate(0.000000, 8.000000)">
                        <mask id="mask-8" fill="white">
                            <use xlink:href="#path-7"></use>
                        </mask>
                        <g id="Shape"></g>
                        <rect id="Rectangle-path" fill="url(#linearGradient-9)" fill-rule="nonzero" mask="url(#mask-8)" x="1" y="0.56" width="30.64" height="26.07"></rect>
                    </g>
                    <g id="Clipped" transform="translate(4.000000, 18.000000)">
                        <mask id="mask-11" fill="white">
                            <use xlink:href="#path-10"></use>
                        </mask>
                        <g id="Shape"></g>
                        <rect id="Rectangle-path" fill="url(#linearGradient-12)" fill-rule="nonzero" mask="url(#mask-11)" x="0.34" y="0.83" width="21.71" height="31.72"></rect>
                    </g>
                    <path d="M74.42,50.56 L70.09,50.56 L70.09,47.13 C68.5845937,49.514386 65.905529,50.8960179 63.09,50.74 C57.33,50.74 53.49,46.56 53.49,40.46 C53.49,34.36 57.37,30.33 63.02,30.33 C65.8646981,30.1950604 68.5633071,31.5958942 70.09,34 L70.09,22.62 L74.42,22.62 L74.42,50.56 Z M70.09,40.61 C70.09,36.73 67.57,34.02 63.95,34.02 C60.33,34.02 57.81,36.77 57.77,40.61 C57.73,44.45 60.27,47.13 63.94,47.13 C67.61,47.13 70.08,44.42 70.08,40.61 L70.09,40.61 Z" id="Shape" fill="#006394" fill-rule="nonzero"></path>
                    <path d="M95.88,38.09 L95.88,50.56 L91.55,50.56 L91.55,39.3 C91.55,36.3 89.75,34.44 86.73,34.44 C83.15,34.44 81,37.15 81,40.69 L81,50.56 L76.68,50.56 L76.68,22.62 L81.01,22.62 L81.01,34.44 C82.44,31.61 85.01,30.38 88.42,30.38 C93.09,30.38 95.88,33.32 95.88,38.1" id="Shape" fill="#006394" fill-rule="nonzero"></path>
                    <path d="M117.12,42.2 L101.98,42.2 C102.523755,45.1759819 105.166532,47.3038218 108.19,47.2 C110.31209,47.225377 112.352675,46.3838615 113.84,44.87 L116.14,47.32 C113.993071,49.5839667 110.978191,50.8183195 107.86,50.71 C101.68,50.71 97.62,46.6 97.62,40.58 C97.4916536,37.8497547 98.5152155,35.1910046 100.441256,33.2516546 C102.367297,31.3123045 105.018936,30.2704579 107.75,30.38 C114.75,30.38 117.65,34.97 117.13,42.2 L117.12,42.2 Z M113.36,39 C113.375817,37.5478102 112.78012,36.1559303 111.718616,35.1648126 C110.657112,34.173695 109.227695,33.674743 107.78,33.79 C104.750574,33.6830077 102.169156,35.9697832 101.91,38.99 L113.36,39 Z" id="Shape" fill="#006394" fill-rule="nonzero"></path>
                    <path d="M136.97,33.65 L134.6,36.47 C133.096686,34.9385257 131.013999,34.1170822 128.87,34.21 C125.4,34.21 122.92,36.81 122.92,40.61 C122.92,44.41 125.41,47.01 128.87,47.01 C131.101064,47.1296395 133.268801,46.2456725 134.78,44.6 L137.19,47 C135.39,49.37 132.48,50.7 128.68,50.7 C122.73,50.7 118.59,46.6 118.59,40.57 C118.59,34.54 122.73,30.36 128.69,30.36 C132.3,30.36 135.13,31.53 136.97,33.64" id="Shape" fill="#006394" fill-rule="nonzero"></path>
                </g>
            </g>
        </g>
    </g>
</svg>