0
SECTION
2
HEADER
9
$INSUNITS
70
4
9
$ACADVER
1
AC1014
9
$HANDSEED
5
FFFF
0
ENDSEC
0
SECTION
2
TABLES
0
TABLE
2
VPORT
5
8
100
AcDbSymbolTable
0
ENDTAB
0
TABLE
2
LTYPE
5
5
100
AcDbSymbolTable
0
LTYPE
5
14
100
AcDbSymbolTableRecord
100
AcDbLinetypeTableRecord
2
BYBLOCK
70
0
0
LTYPE
5
15
100
AcDbSymbolTableRecord
100
AcDbLinetypeTableRecord
2
BYLAYER
70
0
0
ENDTAB
0
TABLE
2
LAYER
5
2
100
AcDbSymbolTable
70
2
0
LAYER
5
50
100
AcDbSymbolTableRecord
100
AcDbLayerTableRecord
2
0
70
0
6
CONTINUOUS
0
ENDTAB
0
TABLE
2
STYLE
5
3
100
AcDbSymbolTable
70
1
0
STYLE
5
11
100
AcDbSymbolTableRecord
100
AcDbTextStyleTableRecord
2
STANDARD
70
0
0
ENDTAB
0
TABLE
2
VIEW
5
6
100
AcDbSymbolTable
70
0
0
ENDTAB
0
TABLE
2
UCS
5
7
100
AcDbSymbolTable
70
0
0
ENDTAB
0
TABLE
2
APPID
5
9
100
AcDbSymbolTable
70
2
0
APPID
5
12
100
AcDbSymbolTableRecord
100
AcDbRegAppTableRecord
2
ACAD
70
0
0
ENDTAB
0
TABLE
2
DIMSTYLE
5
A
100
AcDbSymbolTable
70
1
0
ENDTAB
0
TABLE
2
BLOCK_RECORD
5
1
100
AcDbSymbolTable
70
1
0
BLOCK_RECORD
5
1F
100
AcDbSymbolTableRecord
100
AcDbBlockTableRecord
2
*MODEL_SPACE
0
BLOCK_RECORD
5
1B
100
AcDbSymbolTableRecord
100
AcDbBlockTableRecord
2
*PAPER_SPACE
0
ENDTAB
0
ENDSEC
0
SECTION
2
BLOCKS
0
BLOCK
5
20
100
AcDbEntity
100
AcDbBlockBegin
2
*MODEL_SPACE
0
ENDBLK
5
21
100
AcDbEntity
100
AcDbBlockEnd
0
BLOCK
5
1C
100
AcDbEntity
100
AcDbBlockBegin
2
*PAPER_SPACE
0
ENDBLK
5
1D
100
AcDbEntity
100
AcDbBlockEnd
0
ENDSEC
0
SECTION
2
ENTITIES
0
LINE
5
100
100
AcDbEntity
8
0
100
AcDbLine
10
121.00000000000001
20
-5.0000000745058335
30
0
11
121.00000000000001
21
2.9999999552964889
31
0
0
LINE
5
101
100
AcDbEntity
8
0
100
AcDbLine
10
121.00000000000001
20
2.9999999552964889
30
0
11
133
21
2.9999999552964898
31
0
0
LINE
5
102
100
AcDbEntity
8
0
100
AcDbLine
10
133
20
2.9999999552964898
30
0
11
133
21
-3.0000000447035111
31
0
0
LINE
5
103
100
AcDbEntity
8
0
100
AcDbLine
10
133
20
-3.0000000447035111
30
0
11
127.00000000000001
21
-3.0000000447035111
31
0
0
LINE
5
104
100
AcDbEntity
8
0
100
AcDbLine
10
127.00000000000001
20
-3.0000000447035111
30
0
11
127.00000000000001
21
-5.0000000745058335
31
0
0
LINE
5
105
100
AcDbEntity
8
0
100
AcDbLine
10
-14.020815280171366
20
-3.5355339059328497
30
0
11
-15.73223304703359
21
-5.2469516727951104
31
0
0
LINE
5
106
100
AcDbEntity
8
0
100
AcDbLine
10
-20
20
32.897568299191775
30
0
11
-20
21
-3.4791847198287673
31
0
0
ARC
5
107
100
AcDbEntity
8
0
100
AcDbCircle
10
-2.00000000000079
20
3.7880809600210341e-12
30
0
40
37.499999999996149
210
0
220
0
230
1
100
AcDbArc
50
95.409932890291032
51
118.68540201412078
0
SPLINE
5
108
100
AcDbEntity
8
0
100
AcDbSpline
70
0
71
3
72
10
73
6
74
0
42
0.000000001
43
0.0000000001
44
0.0000000001
40
0.37717142026406225
40
0.37717142026406225
40
0.37717142026406225
40
0.37717142026406225
40
0.56575508675114672
40
0.56575508675114672
40
0.75433875323823107
40
0.75433875323823107
40
0.75433875323823107
40
0.75433875323823107
10
-5.5355339059327964
20
37.332961307670182
30
0
10
-5.0920312295992449
20
37.374962228428295
30
0
10
-4.7073515379528716
20
37.419618620104323
30
0
10
-4.1968492280440239
20
37.482580549451022
30
0
10
-4.071067811865535
20
37.5
30
0
10
-4.071067811865535
20
37.5
30
0
0
ARC
5
109
100
AcDbEntity
8
0
100
AcDbCircle
10
-2.00000000000079
20
3.7880809600210341e-12
30
0
40
37.499999999996149
210
0
220
0
230
1
100
AcDbArc
50
95.409932890291032
51
108.23164491193087
0
LINE
5
110
100
AcDbEntity
8
0
100
AcDbLine
10
-18
20
36.51223331493523
30
0
11
-18
21
36.151893663544044
31
0
0
ARC
5
111
100
AcDbEntity
8
0
100
AcDbCircle
10
-10.485281374513448
20
1.837205942933906e-09
30
0
40
37.499999998145078
210
0
220
0
230
1
100
AcDbArc
50
95.409932890138535
51
100.42022234445361
0
SPLINE
5
112
100
AcDbEntity
8
0
100
AcDbSpline
70
0
71
3
72
10
73
6
74
0
42
0.000000001
43
0.0000000001
44
0.0000000001
40
1.8858489267405247
40
1.8858489267405247
40
1.8858489267405247
40
1.8858489267405247
40
2.0744325932276095
40
2.0744325932276095
40
2.2630162597146941
40
2.2630162597146941
40
2.2630162597146941
40
2.2630162597146941
10
-14.02081528017141
20
37.33296130767021
30
0
10
-13.577312603837859
20
37.374962228428323
30
0
10
-13.192632912191481
20
37.419618620104345
30
0
10
-12.682130602282635
20
37.482580549451036
30
0
10
-12.556349186104146
20
37.5
30
0
10
-12.556349186104146
20
37.5
30
0
0
ARC
5
113
100
AcDbEntity
8
0
100
AcDbCircle
10
-10.485281374238602
20
0
30
0
40
37.500000000000014
210
0
220
0
230
1
100
AcDbArc
50
95.409932890291955
51
98.043142448096901
0
LINE
5
114
100
AcDbEntity
8
0
100
AcDbLine
10
-20
20
37.5
30
0
11
-20
21
18.00000000000032
31
0
0
LINE
5
115
100
AcDbEntity
8
0
100
AcDbLine
10
-5.5355339059327688
20
3.5355339059328355
30
0
11
-20
21
18.00000000000032
31
0
0
SPLINE
5
116
100
AcDbEntity
8
0
100
AcDbSpline
70
0
71
3
72
14
73
10
74
0
42
0.000000001
43
0.0000000001
44
0.0000000001
40
0.37717142026406214
40
0.37717142026406214
40
0.37717142026406214
40
0.37717142026406214
40
0.5657550867511465
40
0.5657550867511465
40
0.75433875323823096
40
0.75433875323823096
40
0.94292241972531521
40
0.94292241972531521
40
1.1315060862123996
40
1.1315060862123996
40
1.1315060862123996
40
1.1315060862123996
10
-5.5355339059327964
20
3.5355339059328639
30
0
10
-5.0920312295992449
20
3.0920312295993115
30
0
10
-4.7073515379528716
20
2.5302947065871848
30
0
10
-4.1968492280440239
20
1.2986163088664016
30
0
10
-4.071067811865535
20
0.6286122216237412
30
0
10
-4.071067811865535
20
-0.62861222162348784
30
0
10
-4.1968492280440239
20
-1.2986163088661478
30
0
10
-4.7073515379528716
20
-2.5302947065869312
30
0
10
-5.0920312295992449
20
-3.0920312295990584
30
0
10
-5.5355339059327964
20
-3.5355339059326103
30
0
0
LINE
5
117
100
AcDbEntity
8
0
100
AcDbLine
10
-13.732233047033677
20
-11.732233047033054
30
0
11
-5.5355339059327981
21
-3.5355339059326107
31
0
0
LINE
5
118
100
AcDbEntity
8
0
100
AcDbLine
10
-18
20
-8.5502525316936797
30
0
11
-18
21
-9.9644660940666441
31
0
0
LINE
5
119
100
AcDbEntity
8
0
100
AcDbLine
10
-14.020815280171366
20
-3.5355339059328497
30
0
11
-17.26776695296633
21
-6.7824855787272709
31
0
0
SPLINE
5
120
100
AcDbEntity
8
0
100
AcDbSpline
70
0
71
3
72
14
73
10
74
0
42
0.000000001
43
0.0000000001
44
0.0000000001
40
1.8858489267405247
40
1.8858489267405247
40
1.8858489267405247
40
1.8858489267405247
40
2.0744325932276095
40
2.0744325932276095
40
2.2630162597146941
40
2.2630162597146941
40
2.4515999262017782
40
2.4515999262017782
40
2.6401835926888628
40
2.6401835926888628
40
2.6401835926888628
40
2.6401835926888628
10
-14.02081528017141
20
-3.535533905932593
30
0
10
-13.577312603837859
20
-3.0920312295990398
30
0
10
-13.192632912191479
20
-2.5302947065869121
30
0
10
-12.682130602282633
20
-1.298616308866126
30
0
10
-12.556349186104146
20
-0.62861222162346597
30
0
10
-12.556349186104146
20
0.6286122216237634
30
0
10
-12.682130602282637
20
1.2986163088664235
30
0
10
-13.192632912191486
20
2.5302947065872083
30
0
10
-13.577312603837859
20
3.0920312295993355
30
0
10
-14.02081528017141
20
3.5355339059328883
30
0
0
LINE
5
121
100
AcDbEntity
8
0
100
AcDbLine
10
-15.732233047033588
20
5.2469516727951051
30
0
11
-14.020815280171409
21
3.5355339059328887
31
0
0
LINE
5
122
100
AcDbEntity
8
0
100
AcDbLine
10
-20
20
3.4791847198287762
30
0
11
-20
21
-32.897568299191796
31
0
0
ARC
5
123
100
AcDbEntity
8
0
100
AcDbCircle
10
-2.00000000000079
20
3.7880809600210341e-12
30
0
40
37.5000000000028
210
0
220
0
230
1
100
AcDbArc
50
241.31459798588477
51
264.59006710971005
0
SPLINE
5
124
100
AcDbEntity
8
0
100
AcDbSpline
70
0
71
3
72
10
73
6
74
0
42
0.000000001
43
0.0000000001
44
0.0000000001
40
0.37717142026406225
40
0.37717142026406225
40
0.37717142026406225
40
0.37717142026406225
40
0.56575508675114672
40
0.56575508675114672
40
0.75433875323823107
40
0.75433875323823107
40
0.75433875323823107
40
0.75433875323823107
10
-5.5355339059327964
20
-37.332961307670182
30
0
10
-5.0920312295992449
20
-37.374962228428295
30
0
10
-4.7073515379528716
20
-37.419618620104323
30
0
10
-4.1968492280440239
20
-37.482580549451022
30
0
10
-4.071067811865535
20
-37.5
30
0
10
-4.071067811865535
20
-37.5
30
0
0
ARC
5
125
100
AcDbEntity
8
0
100
AcDbCircle
10
-2.00000000000079
20
3.7880809600210341e-12
30
0
40
37.500000000003546
210
0
220
0
230
1
100
AcDbArc
50
251.76835508807275
51
264.59006710971005
0
LINE
5
126
100
AcDbEntity
8
0
100
AcDbLine
10
-18
20
-36.151893663544051
30
0
11
-18
21
-36.51223331493523
31
0
0
ARC
5
127
100
AcDbEntity
8
0
100
AcDbCircle
10
-10.485281374238602
20
0
30
0
40
37.500000000000078
210
0
220
0
230
1
100
AcDbArc
50
259.57977765564107
51
264.59006710970806
0
SPLINE
5
128
100
AcDbEntity
8
0
100
AcDbSpline
70
0
71
3
72
10
73
6
74
0
42
0.000000001
43
0.0000000001
44
0.0000000001
40
1.8858489267405247
40
1.8858489267405247
40
1.8858489267405247
40
1.8858489267405247
40
2.0744325932276095
40
2.0744325932276095
40
2.2630162597146941
40
2.2630162597146941
40
2.2630162597146941
40
2.2630162597146941
10
-14.02081528017141
20
-37.33296130767021
30
0
10
-13.577312603837859
20
-37.374962228428323
30
0
10
-13.192632912191481
20
-37.419618620104345
30
0
10
-12.682130602282635
20
-37.482580549451036
30
0
10
-12.556349186104146
20
-37.5
30
0
10
-12.556349186104146
20
-37.5
30
0
0
ARC
5
129
100
AcDbEntity
8
0
100
AcDbCircle
10
-10.485281374238602
20
0
30
0
40
37.499999999999986
210
0
220
0
230
1
100
AcDbArc
50
261.95685755190317
51
264.59006710970806
0
LINE
5
130
100
AcDbEntity
8
0
100
AcDbLine
10
-20
20
-18.000000000000341
30
0
11
-20
21
-37.5
31
0
0
LINE
5
131
100
AcDbEntity
8
0
100
AcDbLine
10
-20
20
-18.000000000000341
30
0
11
-5.5355339059327981
21
-3.5355339059326107
31
0
0
SPLINE
5
132
100
AcDbEntity
8
0
100
AcDbSpline
70
0
71
3
72
14
73
10
74
0
42
0.000000001
43
0.0000000001
44
0.0000000001
40
0.37717142026406214
40
0.37717142026406214
40
0.37717142026406214
40
0.37717142026406214
40
0.5657550867511465
40
0.5657550867511465
40
0.75433875323823096
40
0.75433875323823096
40
0.94292241972531521
40
0.94292241972531521
40
1.1315060862123996
40
1.1315060862123996
40
1.1315060862123996
40
1.1315060862123996
10
-5.5355339059327964
20
-3.5355339059328683
30
0
10
-5.0920312295992449
20
-3.092031229599316
30
0
10
-4.7073515379528716
20
-2.5302947065871892
30
0
10
-4.1968492280440239
20
-1.298616308866406
30
0
10
-4.071067811865535
20
-0.62861222162374564
30
0
10
-4.071067811865535
20
0.6286122216234834
30
0
10
-4.1968492280440239
20
1.2986163088661433
30
0
10
-4.7073515379528716
20
2.5302947065869268
30
0
10
-5.0920312295992449
20
3.092031229599054
30
0
10
-5.5355339059327964
20
3.5355339059326059
30
0
0
LINE
5
133
100
AcDbEntity
8
0
100
AcDbLine
10
-5.5355339059327688
20
3.5355339059328355
30
0
11
-13.73223304703366
21
11.732233047033034
31
0
0
LINE
5
134
100
AcDbEntity
8
0
100
AcDbLine
10
-18
20
9.9644660940666405
30
0
11
-18
21
8.5502525316936744
31
0
0
LINE
5
135
100
AcDbEntity
8
0
100
AcDbLine
10
-17.267766952966301
20
6.7824855787272389
30
0
11
-14.020815280171409
21
3.5355339059328887
31
0
0
SPLINE
5
136
100
AcDbEntity
8
0
100
AcDbSpline
70
0
71
3
72
14
73
10
74
0
42
0.000000001
43
0.0000000001
44
0.0000000001
40
1.8858489267405247
40
1.8858489267405247
40
1.8858489267405247
40
1.8858489267405247
40
2.0744325932276095
40
2.0744325932276095
40
2.2630162597146941
40
2.2630162597146941
40
2.4515999262017782
40
2.4515999262017782
40
2.6401835926888628
40
2.6401835926888628
40
2.6401835926888628
40
2.6401835926888628
10
-14.02081528017141
20
3.5355339059325885
30
0
10
-13.577312603837859
20
3.0920312295990353
30
0
10
-13.192632912191479
20
2.5302947065869077
30
0
10
-12.682130602282633
20
1.2986163088661216
30
0
10
-12.556349186104146
20
0.62861222162346153
30
0
10
-12.556349186104146
20
-0.62861222162376784
30
0
10
-12.682130602282637
20
-1.298616308866428
30
0
10
-13.192632912191486
20
-2.5302947065872128
30
0
10
-13.577312603837859
20
-3.09203122959934
30
0
10
-14.02081528017141
20
-3.5355339059328927
30
0
0
LINE
5
137
100
AcDbEntity
8
0
100
AcDbLine
10
0
20
2.2962127484012876e-15
30
0
11
0
21
37.5
31
0
0
LINE
5
138
100
AcDbEntity
8
0
100
AcDbLine
10
0
20
2.2962127484012876e-15
30
0
11
120
21
0
31
0
0
LINE
5
139
100
AcDbEntity
8
0
100
AcDbLine
10
120
20
0
30
0
11
120
21
5.0000000000000364
31
0
0
LINE
5
140
100
AcDbEntity
8
0
100
AcDbLine
10
120
20
5.0000000000000364
30
0
11
135
21
4.9999999999999956
31
0
0
LINE
5
141
100
AcDbEntity
8
0
100
AcDbLine
10
135
20
-5.0000000000000053
30
0
11
135
21
4.9999999999999956
31
0
0
LINE
5
142
100
AcDbEntity
8
0
100
AcDbLine
10
135
20
-5.0000000000000053
30
0
11
120
21
-5.0000000000000044
31
0
0
LINE
5
143
100
AcDbEntity
8
0
100
AcDbLine
10
120
20
-30.691742076555066
30
0
11
120
21
-5.0000000000000044
31
0
0
LINE
5
144
100
AcDbEntity
8
0
100
AcDbLine
10
120
20
-30.691742076555066
30
0
11
220
21
-30.691742076555055
31
0
0
LINE
5
145
100
AcDbEntity
8
0
100
AcDbLine
10
220
20
-37.500000000000007
30
0
11
220
21
-30.691742076555055
31
0
0
LINE
5
146
100
AcDbEntity
8
0
100
AcDbLine
10
220
20
-30.691742076555055
30
0
11
120
21
-30.691742076555066
31
0
0
LINE
5
147
100
AcDbEntity
8
0
100
AcDbLine
10
120
20
-30.691742076555066
30
0
11
120
21
-5.0000000000000044
31
0
0
LINE
5
148
100
AcDbEntity
8
0
100
AcDbLine
10
120
20
-5.0000000000000044
30
0
11
135
21
-5.0000000000000053
31
0
0
LINE
5
149
100
AcDbEntity
8
0
100
AcDbLine
10
135
20
-5.0000000000000053
30
0
11
135
21
4.9999999999999956
31
0
0
LINE
5
150
100
AcDbEntity
8
0
100
AcDbLine
10
135
20
4.9999999999999956
30
0
11
120
21
5.0000000000000364
31
0
0
LINE
5
151
100
AcDbEntity
8
0
100
AcDbLine
10
120
20
0
30
0
11
120
21
5.0000000000000364
31
0
0
LINE
5
152
100
AcDbEntity
8
0
100
AcDbLine
10
120
20
0
30
0
11
0
21
2.2962127484012876e-15
31
0
0
SPLINE
5
153
100
AcDbEntity
8
0
100
AcDbSpline
70
0
71
3
72
20
73
16
74
0
42
0.000000001
43
0.0000000001
44
0.0000000001
40
0.37712173439850871
40
0.37712173439850871
40
0.37712173439850871
40
0.37712173439850871
40
0.47198415687894418
40
0.47198415687894418
40
0.56684657935937965
40
0.56684657935937965
40
0.6610514202686133
40
0.6610514202686133
40
0.75525626117784705
40
0.75525626117784705
40
0.84946110208708081
40
0.84946110208708081
40
0.94366594299631457
40
0.94366594299631457
40
0.9440337675500089
40
0.9440337675500089
40
0.9440337675500089
40
0.9440337675500089
10
-20
20
37.338254829133483
30
0
10
-20
20
37.308917594397492
30
0
10
-19.936931762335494
20
37.273237631885415
30
0
10
-19.680920184680822
20
37.19974572874743
30
0
10
-19.48798901826672
20
37.162155725990957
30
0
10
-19.04390821282967
20
37.099555271561954
30
0
10
-18.763573566164368
20
37.070336169810034
30
0
10
-18.148640789490816
20
37.030566499510066
30
0
10
-17.814016136364113
20
37.020255943012685
30
0
10
-17.185983863635887
20
37.020255943012685
30
0
10
-16.851359210509184
20
37.030566499510066
30
0
10
-16.236426433835632
20
37.070336169810034
30
0
10
-15.956091787170328
20
37.099555271561954
30
0
10
-15.733959702016339
20
37.130868422915604
30
0
10
-15.733096167521479
20
37.130990299953666
30
0
10
-15.732233047033613
20
37.131112266445143
30
0
0
SPLINE
5
154
100
AcDbEntity
8
0
100
AcDbSpline
70
0
71
3
72
20
73
16
74
0
42
0.000000001
43
0.0000000001
44
0.0000000001
40
0.38229388956215038
40
0.38229388956215038
40
0.38229388956215038
40
0.38229388956215038
40
0.48094505393583764
40
0.48094505393583764
40
0.5795962183095249
40
0.5795962183095249
40
0.67371142387985872
40
0.67371142387985872
40
0.76782662945019253
40
0.76782662945019253
40
0.86194183502052635
40
0.86194183502052635
40
0.95605704059086016
40
0.95605704059086016
40
0.95838505784634487
40
0.95838505784634487
40
0.95838505784634487
40
0.95838505784634487
10
-18
20
36.151893663544044
30
0
10
-18
20
36.064515336206995
30
0
10
-17.936188470589638
20
35.966566739556526
30
0
10
-17.676304149818918
20
35.777331604813256
30
0
10
-17.480232699233284
20
35.686262679301507
30
0
10
-17.033546064508322
20
35.541557355906811
30
0
10
-16.75674934578775
20
35.47717232265834
30
0
10
-16.14688264398054
20
35.390176186005625
30
0
10
-15.813717351901113
20
35.367882110607965
30
0
10
-15.186282648098889
20
35.367882110607965
30
0
10
-14.853117356019464
20
35.390176186005625
30
0
10
-14.243250654212252
20
35.47717232265834
30
0
10
-13.966453935491678
20
35.541557355906811
30
0
10
-13.742971495797427
20
35.613955086653569
30
0
10
-13.737595026822017
20
35.615712150935096
30
0
10
-13.732233047033676
20
35.617477559901758
30
0
0
SPLINE
5
155
100
AcDbEntity
8
0
100
AcDbSpline
70
0
71
3
72
10
73
6
74
0
42
0.000000001
43
0.0000000001
44
0.0000000001
40
0.18895467415266773
40
0.18895467415266773
40
0.18895467415266773
40
0.18895467415266773
40
0.28431905416460834
40
0.28431905416460834
40
0.38061125949471514
40
0.38061125949471514
40
0.38061125949471514
40
0.38061125949471514
10
-17.267766952966298
20
36.881538598252064
30
0
10
-17.490894969902623
20
36.840484610210851
30
0
10
-17.682649521959622
20
36.786531715121086
30
0
10
-17.937794909371267
20
36.659200822279892
30
0
10
-18
20
36.58541755248244
30
0
10
-18
20
36.51223331493523
30
0
0
SPLINE
5
156
100
AcDbEntity
8
0
100
AcDbSpline
70
0
71
3
72
20
73
16
74
0
42
0.000000001
43
0.0000000001
44
0.0000000001
40
0.37712173439850877
40
0.37712173439850877
40
0.37712173439850877
40
0.37712173439850877
40
0.47198415687894424
40
0.47198415687894424
40
0.56684657935937977
40
0.56684657935937977
40
0.66105142026861352
40
0.66105142026861352
40
0.75525626117784728
40
0.75525626117784728
40
0.84946110208708103
40
0.84946110208708103
40
0.94366594299631479
40
0.94366594299631479
40
0.94403376755000912
40
0.94403376755000912
40
0.94403376755000912
40
0.94403376755000912
10
-20
20
-3.4791847198287815
30
0
10
-20
20
-3.7940289246539747
30
0
10
-19.936931762335494
20
-4.1294277606356831
30
0
10
-19.680920184680822
20
-4.7460862733176787
30
0
10
-19.48798901826672
20
-5.0273774335918686
30
0
10
-19.04390821282967
20
-5.4701595220450727
30
0
10
-18.763573566164368
20
-5.6618696103162272
30
0
10
-18.148640789490816
20
-5.9163955270845481
30
0
10
-17.814016136364113
20
-5.9791847198287806
30
0
10
-17.185983863635887
20
-5.9791847198287806
30
0
10
-16.851359210509184
20
-5.9163955270845481
30
0
10
-16.236426433835632
20
-5.6618696103162272
30
0
10
-15.956091787170328
20
-5.4701595220450727
30
0
10
-15.733959702016339
20
-5.2486770635088398
30
0
10
-15.733096167521481
20
-5.2478147932829975
30
0
10
-15.732233047033613
20
-5.2469516727951309
30
0
0
SPLINE
5
157
100
AcDbEntity
8
0
100
AcDbSpline
70
0
71
3
72
20
73
16
74
0
42
0.000000001
43
0.0000000001
44
0.0000000001
40
0.38229388956215038
40
0.38229388956215038
40
0.38229388956215038
40
0.38229388956215038
40
0.48094505393583764
40
0.48094505393583764
40
0.5795962183095249
40
0.5795962183095249
40
0.67371142387985872
40
0.67371142387985872
40
0.76782662945019264
40
0.76782662945019264
40
0.86194183502052635
40
0.86194183502052635
40
0.95605704059086016
40
0.95605704059086016
40
0.95838505784634487
40
0.95838505784634487
40
0.95838505784634487
40
0.95838505784634487
10
-18
20
-9.9644660940666423
30
0
10
-18
20
-10.281481774441961
30
0
10
-17.936188470589638
20
-10.618920334419112
30
0
10
-17.676304149818918
20
-11.240014917617591
30
0
10
-17.480232699233284
20
-11.52373778321255
30
0
10
-17.033546064508322
20
-11.962380907681304
30
0
10
-16.75674934578775
20
-12.150633696237275
30
0
10
-16.146882643980543
20
-12.401737174038438
30
0
10
-15.813717351901113
20
-12.464466094066641
30
0
10
-15.186282648098889
20
-12.464466094066641
30
0
10
-14.853117356019457
20
-12.401737174038438
30
0
10
-14.243250654212247
20
-12.15063369623727
30
0
10
-13.966453935491678
20
-11.962380907681304
30
0
10
-13.742971495797427
20
-11.742922728298467
30
0
10
-13.737595026822017
20
-11.737592295468978
30
0
10
-13.732233047033676
20
-11.732233047033054
30
0
0
SPLINE
5
158
100
AcDbEntity
8
0
100
AcDbSpline
70
0
71
3
72
10
73
6
74
0
42
0.000000001
43
0.0000000001
44
0.0000000001
40
0.18895467415266784
40
0.18895467415266784
40
0.18895467415266784
40
0.18895467415266784
40
0.28431905416460834
40
0.28431905416460834
40
0.38061125949471519
40
0.38061125949471519
40
0.38061125949471519
40
0.38061125949471519
10
-17.267766952966298
20
-6.7824855787272451
30
0
10
-17.490894969902623
20
-7.005711533464507
30
0
10
-17.682649521959625
20
-7.2869051357924439
30
0
10
-17.937794909371267
20
-7.9027091223775612
30
0
10
-18
20
-8.2377331123672359
30
0
10
-18
20
-8.5502525316936797
30
0
0
SPLINE
5
159
100
AcDbEntity
8
0
100
AcDbSpline
70
0
71
3
72
20
73
16
74
0
42
0.000000001
43
0.0000000001
44
0.0000000001
40
0.37712173439850877
40
0.37712173439850877
40
0.37712173439850877
40
0.37712173439850877
40
0.47198415687894424
40
0.47198415687894424
40
0.56684657935937977
40
0.56684657935937977
40
0.66105142026861352
40
0.66105142026861352
40
0.75525626117784728
40
0.75525626117784728
40
0.84946110208708103
40
0.84946110208708103
40
0.94366594299631479
40
0.94366594299631479
40
0.94403376755000912
40
0.94403376755000912
40
0.94403376755000912
40
0.94403376755000912
10
-20
20
3.4791847198287771
30
0
10
-20
20
3.7940289246539702
30
0
10
-19.936931762335494
20
4.1294277606356786
30
0
10
-19.680920184680822
20
4.7460862733176743
30
0
10
-19.48798901826672
20
5.0273774335918642
30
0
10
-19.04390821282967
20
5.4701595220450683
30
0
10
-18.763573566164368
20
5.6618696103162227
30
0
10
-18.148640789490816
20
5.9163955270845436
30
0
10
-17.814016136364113
20
5.9791847198287762
30
0
10
-17.185983863635887
20
5.9791847198287762
30
0
10
-16.851359210509184
20
5.9163955270845436
30
0
10
-16.236426433835632
20
5.6618696103162227
30
0
10
-15.956091787170328
20
5.4701595220450683
30
0
10
-15.733959702016339
20
5.2486770635088353
30
0
10
-15.733096167521481
20
5.2478147932829931
30
0
10
-15.732233047033613
20
5.2469516727951255
30
0
0
SPLINE
5
160
100
AcDbEntity
8
0
100
AcDbSpline
70
0
71
3
72
20
73
16
74
0
42
0.000000001
43
0.0000000001
44
0.0000000001
40
0.38229388956215032
40
0.38229388956215032
40
0.38229388956215032
40
0.38229388956215032
40
0.48094505393583764
40
0.48094505393583764
40
0.5795962183095249
40
0.5795962183095249
40
0.67371142387985872
40
0.67371142387985872
40
0.76782662945019253
40
0.76782662945019253
40
0.86194183502052635
40
0.86194183502052635
40
0.95605704059086016
40
0.95605704059086016
40
0.95838505784634487
40
0.95838505784634487
40
0.95838505784634487
40
0.95838505784634487
10
-18
20
-36.151893663544044
30
0
10
-18
20
-36.064515336206995
30
0
10
-17.936188470589641
20
-35.966566739556541
30
0
10
-17.676304149818922
20
-35.77733160481327
30
0
10
-17.480232699233284
20
-35.686262679301507
30
0
10
-17.033546064508322
20
-35.541557355906811
30
0
10
-16.75674934578775
20
-35.47717232265834
30
0
10
-16.14688264398054
20
-35.390176186005625
30
0
10
-15.813717351901113
20
-35.367882110607965
30
0
10
-15.186282648098889
20
-35.367882110607965
30
0
10
-14.853117356019464
20
-35.390176186005633
30
0
10
-14.243250654212252
20
-35.477172322658348
30
0
10
-13.966453935491678
20
-35.541557355906811
30
0
10
-13.742971495797427
20
-35.613955086653569
30
0
10
-13.737595026822017
20
-35.615712150935096
30
0
10
-13.732233047033676
20
-35.617477559901765
30
0
0
SPLINE
5
161
100
AcDbEntity
8
0
100
AcDbSpline
70
0
71
3
72
10
73
6
74
0
42
0.000000001
43
0.0000000001
44
0.0000000001
40
0.18895467415266781
40
0.18895467415266781
40
0.18895467415266781
40
0.18895467415266781
40
0.28431905416460834
40
0.28431905416460834
40
0.38061125949471514
40
0.38061125949471514
40
0.38061125949471514
40
0.38061125949471514
10
-17.267766952966301
20
-36.881538598252064
30
0
10
-17.490894969902623
20
-36.840484610210858
30
0
10
-17.682649521959622
20
-36.786531715121093
30
0
10
-17.937794909371263
20
-36.6592008222799
30
0
10
-18
20
-36.58541755248244
30
0
10
-18
20
-36.51223331493523
30
0
0
SPLINE
5
162
100
AcDbEntity
8
0
100
AcDbSpline
70
0
71
3
72
20
73
16
74
0
42
0.000000001
43
0.0000000001
44
0.0000000001
40
0.37712173439850871
40
0.37712173439850871
40
0.37712173439850871
40
0.37712173439850871
40
0.47198415687894418
40
0.47198415687894418
40
0.56684657935937965
40
0.56684657935937965
40
0.6610514202686133
40
0.6610514202686133
40
0.75525626117784705
40
0.75525626117784705
40
0.84946110208708081
40
0.84946110208708081
40
0.94366594299631457
40
0.94366594299631457
40
0.9440337675500089
40
0.9440337675500089
40
0.9440337675500089
40
0.9440337675500089
10
-20
20
-37.338254829133483
30
0
10
-20
20
-37.308917594397492
30
0
10
-19.936931762335494
20
-37.273237631885415
30
0
10
-19.680920184680822
20
-37.19974572874743
30
0
10
-19.48798901826672
20
-37.162155725990957
30
0
10
-19.04390821282967
20
-37.099555271561954
30
0
10
-18.763573566164368
20
-37.070336169810034
30
0
10
-18.148640789490816
20
-37.030566499510066
30
0
10
-17.814016136364113
20
-37.020255943012685
30
0
10
-17.185983863635887
20
-37.020255943012685
30
0
10
-16.851359210509184
20
-37.030566499510066
30
0
10
-16.236426433835632
20
-37.070336169810034
30
0
10
-15.956091787170328
20
-37.099555271561954
30
0
10
-15.733959702016339
20
-37.130868422915604
30
0
10
-15.733096167521479
20
-37.130990299953666
30
0
10
-15.732233047033613
20
-37.131112266445143
30
0
0
SPLINE
5
163
100
AcDbEntity
8
0
100
AcDbSpline
70
0
71
3
72
20
73
16
74
0
42
0.000000001
43
0.0000000001
44
0.0000000001
40
0.38229388956215044
40
0.38229388956215044
40
0.38229388956215044
40
0.38229388956215044
40
0.48094505393583775
40
0.48094505393583775
40
0.57959621830952512
40
0.57959621830952512
40
0.67371142387985883
40
0.67371142387985883
40
0.76782662945019253
40
0.76782662945019253
40
0.86194183502052646
40
0.86194183502052646
40
0.95605704059086039
40
0.95605704059086039
40
0.95838505784634487
40
0.95838505784634487
40
0.95838505784634487
40
0.95838505784634487
10
-18.000000000000004
20
9.964466094066637
30
0
10
-18.000000000000004
20
10.281481774441957
30
0
10
-17.936188470589641
20
10.618920334419105
30
0
10
-17.676304149818918
20
11.240014917617584
30
0
10
-17.480232699233284
20
11.523737783212544
30
0
10
-17.033546064508318
20
11.9623809076813
30
0
10
-16.75674934578775
20
12.15063369623727
30
0
10
-16.14688264398054
20
12.401737174038434
30
0
10
-15.813717351901113
20
12.464466094066637
30
0
10
-15.186282648098889
20
12.464466094066637
30
0
10
-14.853117356019464
20
12.401737174038436
30
0
10
-14.243250654212252
20
12.150633696237268
30
0
10
-13.966453935491678
20
11.9623809076813
30
0
10
-13.742971495797427
20
11.742922728298462
30
0
10
-13.737595026822017
20
11.737592295468973
30
0
10
-13.732233047033677
20
11.732233047033048
30
0
0
SPLINE
5
164
100
AcDbEntity
8
0
100
AcDbSpline
70
0
71
3
72
10
73
6
74
0
42
0.000000001
43
0.0000000001
44
0.0000000001
40
0.18895467415266784
40
0.18895467415266784
40
0.18895467415266784
40
0.18895467415266784
40
0.28431905416460834
40
0.28431905416460834
40
0.38061125949471519
40
0.38061125949471519
40
0.38061125949471519
40
0.38061125949471519
10
-17.267766952966301
20
6.7824855787272416
30
0
10
-17.490894969902623
20
7.0057115334645026
30
0
10
-17.682649521959622
20
7.2869051357924377
30
0
10
-17.937794909371263
20
7.902709122377555
30
0
10
-18
20
8.2377331123672306
30
0
10
-18
20
8.5502525316936762
30
0
0
ENDSEC
0
SECTION
2
OBJECTS
0
DICTIONARY
5
C
100
AcDbDictionary
3
ACAD_GROUP
350
D
3
ACAD_MLINESTYLE
350
17
0
DICTIONARY
5
D
100
AcDbDictionary
0
DICTIONARY
5
1A
330
C
100
AcDbDictionary
0
DICTIONARY
5
17
100
AcDbDictionary
0
ENDSEC
0
EOF
