0
SECTION
2
HEADER
9
$INSUNITS
70
4
9
$ACADVER
1
AC1014
9
$HANDSEED
5
FFFF
0
ENDSEC
0
SECTION
2
TABLES
0
TABLE
2
VPORT
5
8
100
AcDbSymbolTable
0
ENDTAB
0
TABLE
2
LTYPE
5
5
100
AcDbSymbolTable
0
LTYPE
5
14
100
AcDbSymbolTableRecord
100
AcDbLinetypeTableRecord
2
BYBLOCK
70
0
0
LTYPE
5
15
100
AcDbSymbolTableRecord
100
AcDbLinetypeTableRecord
2
BYLAYER
70
0
0
ENDTAB
0
TABLE
2
LAYER
5
2
100
AcDbSymbolTable
70
2
0
LAYER
5
50
100
AcDbSymbolTableRecord
100
AcDbLayerTableRecord
2
0
70
0
6
CONTINUOUS
0
ENDTAB
0
TABLE
2
STYLE
5
3
100
AcDbSymbolTable
70
1
0
STYLE
5
11
100
AcDbSymbolTableRecord
100
AcDbTextStyleTableRecord
2
STANDARD
70
0
0
ENDTAB
0
TABLE
2
VIEW
5
6
100
AcDbSymbolTable
70
0
0
ENDTAB
0
TABLE
2
UCS
5
7
100
AcDbSymbolTable
70
0
0
ENDTAB
0
TABLE
2
APPID
5
9
100
AcDbSymbolTable
70
2
0
APPID
5
12
100
AcDbSymbolTableRecord
100
AcDbRegAppTableRecord
2
ACAD
70
0
0
ENDTAB
0
TABLE
2
DIMSTYLE
5
A
100
AcDbSymbolTable
70
1
0
ENDTAB
0
TABLE
2
BLOCK_RECORD
5
1
100
AcDbSymbolTable
70
1
0
BLOCK_RECORD
5
1F
100
AcDbSymbolTableRecord
100
AcDbBlockTableRecord
2
*MODEL_SPACE
0
BLOCK_RECORD
5
1B
100
AcDbSymbolTableRecord
100
AcDbBlockTableRecord
2
*PAPER_SPACE
0
ENDTAB
0
ENDSEC
0
SECTION
2
BLOCKS
0
BLOCK
5
20
100
AcDbEntity
100
AcDbBlockBegin
2
*MODEL_SPACE
0
ENDBLK
5
21
100
AcDbEntity
100
AcDbBlockEnd
0
BLOCK
5
1C
100
AcDbEntity
100
AcDbBlockBegin
2
*PAPER_SPACE
0
ENDBLK
5
1D
100
AcDbEntity
100
AcDbBlockEnd
0
ENDSEC
0
SECTION
2
ENTITIES
0
LWPOLYLINE
5
100
100
AcDbEntity
8
0
100
AcDbPolyline
90
4
70
1
43
0.0
10
0
20
27.5
10
0
20
-27.499999999999993
10
-120
20
-27.499999999999993
10
-120
20
27.5
0
LINE
5
101
100
AcDbEntity
8
0
100
AcDbLine
10
-120
20
17.5
30
0
11
-102.38732090539854
21
17.5
31
0
0
LINE
5
102
100
AcDbEntity
8
0
100
AcDbLine
10
-99.571067811865476
20
7.5
30
0
11
-120
21
7.5
31
0
0
LWPOLYLINE
5
103
100
AcDbEntity
8
0
100
AcDbPolyline
90
4
70
1
43
0.0
10
-82.32233047033634
20
17.677669529663731
10
-100
20
0
10
-82.322330470331877
20
-17.677669529662197
10
-64.644660940668103
20
1.5232259897857148e-12
0
LWPOLYLINE
5
104
100
AcDbEntity
8
0
100
AcDbPolyline
90
4
70
1
43
0.0
10
-37.677669529663774
20
17.677669529663689
10
-55.355339059327591
20
0
10
-37.677669529663902
20
-17.677669529663785
10
-19.999999999999996
20
0
0
LINE
5
105
100
AcDbEntity
8
0
100
AcDbLine
10
-1.75
20
0
30
0
11
-22.5
21
0
31
0
0
LWPOLYLINE
5
106
100
AcDbEntity
8
0
100
AcDbPolyline
90
3
70
1
43
0.0
10
-60.000000000000114
20
2.4264068711929543
10
-85.073593128807119
20
27.5
10
-34.926406871201607
20
27.500000000000004
0
LINE
5
107
100
AcDbEntity
8
0
100
AcDbLine
10
-99.571067811865476
20
7.5
30
0
11
-89.571067811865518
21
17.499999999999986
31
0
0
LINE
5
108
100
AcDbEntity
8
0
100
AcDbLine
10
-89.571067811865518
20
17.499999999999986
30
0
11
-102.38732090539854
21
17.5
31
0
0
LINE
5
109
100
AcDbEntity
8
0
100
AcDbLine
10
-60.000000000000114
20
2.4264068711929552
30
0
11
-60.00000000000437
21
27.5
31
0
0
LINE
5
110
100
AcDbEntity
8
0
100
AcDbLine
10
-5.3468340865947539e-12
20
17.500000000020361
30
0
11
-17.612679094606811
21
17.500000000014385
31
0
0
LINE
5
111
100
AcDbEntity
8
0
100
AcDbLine
10
-30.428932188139832
20
17.500000000010022
30
0
11
-17.612679094606811
21
17.500000000014385
31
0
0
LINE
5
112
100
AcDbEntity
8
0
100
AcDbLine
10
-20.428932188136475
20
7.5000000000134284
30
0
11
-30.428932188139832
21
17.500000000010022
31
0
0
LINE
5
113
100
AcDbEntity
8
0
100
AcDbLine
10
-20.428932188136475
20
7.5000000000134284
30
0
11
-1.9539925233402755e-12
21
7.5000000000203615
31
0
0
LINE
5
114
100
AcDbEntity
8
0
100
AcDbLine
10
-99.571067811865476
20
-7.5
30
0
11
-120
21
-7.5
31
0
0
LINE
5
115
100
AcDbEntity
8
0
100
AcDbLine
10
-99.571067811865476
20
-7.5
30
0
11
-89.571067811865518
21
-17.499999999999986
31
0
0
LINE
5
116
100
AcDbEntity
8
0
100
AcDbLine
10
-89.571067811865518
20
-17.499999999999986
30
0
11
-102.38732090539854
21
-17.5
31
0
0
LWPOLYLINE
5
117
100
AcDbEntity
8
0
100
AcDbPolyline
90
3
70
1
43
0.0
10
-60.000000000000114
20
-2.4264068711929543
10
-85.073593128807119
20
-27.5
10
-34.926406871201607
20
-27.500000000000004
0
LINE
5
118
100
AcDbEntity
8
0
100
AcDbLine
10
-5.3468340865947539e-12
20
-17.500000000020361
30
0
11
-17.612679094606811
21
-17.500000000014385
31
0
0
LINE
5
119
100
AcDbEntity
8
0
100
AcDbLine
10
-30.428932188139832
20
-17.500000000010022
30
0
11
-17.612679094606811
21
-17.500000000014385
31
0
0
LINE
5
120
100
AcDbEntity
8
0
100
AcDbLine
10
-20.428932188136475
20
-7.5000000000134284
30
0
11
-30.428932188139832
21
-17.500000000010022
31
0
0
LINE
5
121
100
AcDbEntity
8
0
100
AcDbLine
10
-20.428932188136475
20
-7.5000000000134284
30
0
11
-1.9539925233402755e-12
21
-7.5000000000203615
31
0
0
LINE
5
122
100
AcDbEntity
8
0
100
AcDbLine
10
-102.38732090539854
20
-17.5
30
0
11
-120
21
-17.5
31
0
0
ENDSEC
0
SECTION
2
OBJECTS
0
DICTIONARY
5
C
100
AcDbDictionary
3
ACAD_GROUP
350
D
3
ACAD_MLINESTYLE
350
17
0
DICTIONARY
5
D
100
AcDbDictionary
0
DICTIONARY
5
1A
330
C
100
AcDbDictionary
0
DICTIONARY
5
17
100
AcDbDictionary
0
ENDSEC
0
EOF
