0
SECTION
2
HEADER
9
$INSUNITS
70
4
9
$ACADVER
1
AC1014
9
$HANDSEED
5
FFFF
0
ENDSEC
0
SECTION
2
TABLES
0
TABLE
2
VPORT
5
8
100
AcDbSymbolTable
0
ENDTAB
0
TABLE
2
LTYPE
5
5
100
AcDbSymbolTable
0
LTYPE
5
14
100
AcDbSymbolTableRecord
100
AcDbLinetypeTableRecord
2
BYBLOCK
70
0
0
LTYPE
5
15
100
AcDbSymbolTableRecord
100
AcDbLinetypeTableRecord
2
BYLAYER
70
0
0
ENDTAB
0
TABLE
2
LAYER
5
2
100
AcDbSymbolTable
70
2
0
LAYER
5
50
100
AcDbSymbolTableRecord
100
AcDbLayerTableRecord
2
0
70
0
6
CONTINUOUS
0
ENDTAB
0
TABLE
2
STYLE
5
3
100
AcDbSymbolTable
70
1
0
STYLE
5
11
100
AcDbSymbolTableRecord
100
AcDbTextStyleTableRecord
2
STANDARD
70
0
0
ENDTAB
0
TABLE
2
VIEW
5
6
100
AcDbSymbolTable
70
0
0
ENDTAB
0
TABLE
2
UCS
5
7
100
AcDbSymbolTable
70
0
0
ENDTAB
0
TABLE
2
APPID
5
9
100
AcDbSymbolTable
70
2
0
APPID
5
12
100
AcDbSymbolTableRecord
100
AcDbRegAppTableRecord
2
ACAD
70
0
0
ENDTAB
0
TABLE
2
DIMSTYLE
5
A
100
AcDbSymbolTable
70
1
0
ENDTAB
0
TABLE
2
BLOCK_RECORD
5
1
100
AcDbSymbolTable
70
1
0
BLOCK_RECORD
5
1F
100
AcDbSymbolTableRecord
100
AcDbBlockTableRecord
2
*MODEL_SPACE
0
BLOCK_RECORD
5
1B
100
AcDbSymbolTableRecord
100
AcDbBlockTableRecord
2
*PAPER_SPACE
0
ENDTAB
0
ENDSEC
0
SECTION
2
BLOCKS
0
BLOCK
5
20
100
AcDbEntity
100
AcDbBlockBegin
2
*MODEL_SPACE
0
ENDBLK
5
21
100
AcDbEntity
100
AcDbBlockEnd
0
BLOCK
5
1C
100
AcDbEntity
100
AcDbBlockBegin
2
*PAPER_SPACE
0
ENDBLK
5
1D
100
AcDbEntity
100
AcDbBlockEnd
0
ENDSEC
0
SECTION
2
ENTITIES
0
LWPOLYLINE
5
100
100
AcDbEntity
8
0
100
AcDbPolyline
90
4
70
1
43
0.0
10
-120
20
12.499999999999996
10
-120
20
-12.500000000000004
10
-220
20
-12.500000000000004
10
-220
20
12.499999999999996
0
LWPOLYLINE
5
101
100
AcDbEntity
8
0
100
AcDbPolyline
90
4
70
1
43
0.0
10
-197.50000000000298
20
12.500000000000213
10
-210.00000000000318
20
-2.886579864025407e-14
10
-197.50000000000301
20
-12.500000000000238
10
-185.00000000000279
20
0
0
LINE
5
102
100
AcDbEntity
8
0
100
AcDbLine
10
-180.00000000000043
20
-3.2997632714438204e-14
30
0
11
-167.50000000000023
21
12.500000000000197
31
0
0
LINE
5
103
100
AcDbEntity
8
0
100
AcDbLine
10
-167.50000000000023
20
12.500000000000197
30
0
11
-155
21
0
31
0
0
LINE
5
104
100
AcDbEntity
8
0
100
AcDbLine
10
-155
20
0
30
0
11
-167.50000000000017
21
-12.50000000000022
31
0
0
LINE
5
105
100
AcDbEntity
8
0
100
AcDbLine
10
-167.50000000000017
20
-12.50000000000022
30
0
11
-180.00000000000043
21
-3.2997632714438204e-14
31
0
0
LWPOLYLINE
5
106
100
AcDbEntity
8
0
100
AcDbPolyline
90
4
70
1
43
0.0
10
-137.5
20
12.499999999999968
10
-150
20
0
10
-137.49999999999994
20
-12.500000000000032
10
-125
20
0
0
LINE
5
107
100
AcDbEntity
8
0
100
AcDbLine
10
-1.75
20
0
30
0
11
-22.5
21
0
31
0
0
LINE
5
108
100
AcDbEntity
8
0
100
AcDbLine
10
-193.25735931288349
20
12.499999999999996
30
0
11
-182.50000000000153
21
1.7426406871181115
31
0
0
LINE
5
109
100
AcDbEntity
8
0
100
AcDbLine
10
-182.50000000000153
20
1.7426406871181115
30
0
11
-171.74264068711977
21
12.499999999999996
31
0
0
LINE
5
110
100
AcDbEntity
8
0
100
AcDbLine
10
-220
20
5
30
0
11
-209.2426406871225
21
4.9999999999999707
31
0
0
LINE
5
111
100
AcDbEntity
8
0
100
AcDbLine
10
-209.2426406871225
20
4.9999999999999707
30
0
11
-201.74264068712245
21
12.499999999999996
31
0
0
LINE
5
112
100
AcDbEntity
8
0
100
AcDbLine
10
-220
20
5
30
0
11
-220
21
12.499999999999996
31
0
0
LINE
5
113
100
AcDbEntity
8
0
100
AcDbLine
10
-220
20
12.499999999999996
30
0
11
-120
21
12.499999999999996
31
0
0
LINE
5
114
100
AcDbEntity
8
0
100
AcDbLine
10
-167.50000000000023
20
12.500000000000197
30
0
11
-167.50000000000017
21
-12.50000000000022
31
0
0
LINE
5
115
100
AcDbEntity
8
0
100
AcDbLine
10
-152.49999999999883
20
1.7426406871181541
30
0
11
-163.25735931288062
21
12.500000000000009
31
0
0
LINE
5
116
100
AcDbEntity
8
0
100
AcDbLine
10
-141.7426406871169
20
12.500000000000071
30
0
11
-152.49999999999883
21
1.7426406871181541
31
0
0
LINE
5
117
100
AcDbEntity
8
0
100
AcDbLine
10
-2.5
20
-8.8817841970012602e-16
30
0
11
-20
21
-7.1054273576010034e-15
31
-2.2088105346188333e-30
0
LINE
5
118
100
AcDbEntity
8
0
100
AcDbLine
10
-220
20
-5.0000000000001581
30
0
11
-209.2426406871225
21
-5.0000000000001492
31
0
0
LINE
5
119
100
AcDbEntity
8
0
100
AcDbLine
10
-209.2426406871225
20
-5.0000000000001492
30
0
11
-201.74264068712245
21
-12.500000000000139
31
0
0
LINE
5
120
100
AcDbEntity
8
0
100
AcDbLine
10
-220
20
-5.0000000000001581
30
0
11
-220
21
-12.500000000000151
31
0
0
LINE
5
121
100
AcDbEntity
8
0
100
AcDbLine
10
-220
20
-12.500000000000151
30
0
11
-119.99999999999999
21
-12.50000000000008
31
0
0
LINE
5
122
100
AcDbEntity
8
0
100
AcDbLine
10
-193.25735931288349
20
-12.500000000000133
30
0
11
-182.50000000000153
21
-1.7426406871182416
31
0
0
LINE
5
123
100
AcDbEntity
8
0
100
AcDbLine
10
-182.50000000000153
20
-1.7426406871182416
30
0
11
-171.74264068711977
21
-12.500000000000115
31
0
0
LINE
5
124
100
AcDbEntity
8
0
100
AcDbLine
10
-152.49999999999883
20
-1.7426406871182643
30
0
11
-163.25735931288062
21
-12.500000000000124
31
0
0
LINE
5
125
100
AcDbEntity
8
0
100
AcDbLine
10
-141.7426406871169
20
-12.500000000000174
30
0
11
-152.49999999999883
21
-1.7426406871182643
31
0
0
ENDSEC
0
SECTION
2
OBJECTS
0
DICTIONARY
5
C
100
AcDbDictionary
3
ACAD_GROUP
350
D
3
ACAD_MLINESTYLE
350
17
0
DICTIONARY
5
D
100
AcDbDictionary
0
DICTIONARY
5
1A
330
C
100
AcDbDictionary
0
DICTIONARY
5
17
100
AcDbDictionary
0
ENDSEC
0
EOF
