                                                                        S      1
,,16HDHECsensorlid v2,16HDHECsensorlid v2,7Hunknown,7Hunknown,32,38,7,  G      1
99,15,,1.,2,2HMM,1,0.08,15H20210504.162933,0.01,10000.,7Hunknown,7HunknoG      2
wn,11,0,15H20200827.012243;                                             G      3
     186       1                                                00000000D      1
     186            -215       1       0                               0D      2
     514       2                                                00010000D      3
     514                       2       1                               0D      4
     510       4                                                00010000D      5
     510            -215       1       1                               0D      6
     510       5                                                00010000D      7
     510            -215       1       1                               0D      8
     510       6                                                00010000D      9
     510            -215       1       1                               0D     10
     510       7                                                00010000D     11
     510            -215       1       1                               0D     12
     510       8                                                00010000D     13
     510            -215       1       1                               0D     14
     510       9                                                00010000D     15
     510            -215       1       1                               0D     16
     510      10                                                00010000D     17
     510            -215       1       1                               0D     18
     510      11                                                00010000D     19
     510            -215       1       1                               0D     20
     510      12                                                00010000D     21
     510            -215       1       1                               0D     22
     510      13                                                00010000D     23
     510            -215       1       1                               0D     24
     510      14                                                00010000D     25
     510            -215       1       1                               0D     26
     510      15                                                00010000D     27
     510            -215       1       1                               0D     28
     510      16                                                00010000D     29
     510            -215       1       1                               0D     30
     510      17                                                00010000D     31
     510            -215       1       1                               0D     32
     510      18                                                00010000D     33
     510            -215       1       1                               0D     34
     510      19                                                00010000D     35
     510            -215       1       1                               0D     36
     510      20                                                00010000D     37
     510            -215       1       1                               0D     38
     508      21                                                00010000D     39
     508                       1       1                               0D     40
     508      22                                                00010000D     41
     508                       1       1                               0D     42
     508      23                                                00010000D     43
     508                       1       1                               0D     44
     508      24                                                00010000D     45
     508                       1       1                               0D     46
     508      25                                                00010000D     47
     508                       1       1                               0D     48
     508      26                                                00010000D     49
     508                       1       1                               0D     50
     508      27                                                00010000D     51
     508                       1       1                               0D     52
     508      28                                                00010000D     53
     508                       1       1                               0D     54
     508      29                                                00010000D     55
     508                       1       1                               0D     56
     508      30                                                00010000D     57
     508                       1       1                               0D     58
     508      31                                                00010000D     59
     508                       1       1                               0D     60
     508      32                                                00010000D     61
     508                       1       1                               0D     62
     508      33                                                00010000D     63
     508                       1       1                               0D     64
     508      34                                                00010000D     65
     508                       1       1                               0D     66
     508      35                                                00010000D     67
     508                       1       1                               0D     68
     508      36                                                00010000D     69
     508                       1       1                               0D     70
     508      37                                                00010000D     71
     508                       1       1                               0D     72
     508      38                                                00010000D     73
     508                       2       1                               0D     74
     508      40                                                00010000D     75
     508                       1       1                               0D     76
     508      41                                                00010000D     77
     508                       1       1                               0D     78
     508      42                                                00010000D     79
     508                       1       1                               0D     80
     508      43                                                00010000D     81
     508                       2       1                               0D     82
     508      45                                                00010000D     83
     508                       3       1                               0D     84
     126      48                                                00010000D     85
     126       0               8       0                               0D     86
     126      56                                                00010000D     87
     126       0               2       0                               0D     88
     126      58                                                00010000D     89
     126       0               8       0                               0D     90
     126      66                                                00010000D     91
     126       0              11       0                               0D     92
     126      77                                                00010000D     93
     126       0               3       0                               0D     94
     126      80                                                00010000D     95
     126       0              11       0                               0D     96
     126      91                                                00010000D     97
     126       0               8       0                               0D     98
     126      99                                                00010000D     99
     126       0               2       0                               0D    100
     126     101                                                00010000D    101
     126       0               8       0                               0D    102
     126     109                                                00010000D    103
     126       0               2       0                               0D    104
     126     111                                                00010000D    105
     126       0               2       0                               0D    106
     126     113                                                00010000D    107
     126       0               2       0                               0D    108
     126     115                                                00010000D    109
     126       0               2       0                               0D    110
     126     117                                                00010000D    111
     126       0               2       0                               0D    112
     126     119                                                00010000D    113
     126       0               2       0                               0D    114
     126     121                                                00010000D    115
     126       0               2       0                               0D    116
     126     123                                                00010000D    117
     126       0               2       0                               0D    118
     126     125                                                00010000D    119
     126       0               2       0                               0D    120
     126     127                                                00010000D    121
     126       0               2       0                               0D    122
     126     129                                                00010000D    123
     126       0               2       0                               0D    124
     126     131                                                00010000D    125
     126       0               2       0                               0D    126
     126     133                                                00010000D    127
     126       0               2       0                               0D    128
     126     135                                                00010000D    129
     126       0               2       0                               0D    130
     126     137                                                00010000D    131
     126       0               2       0                               0D    132
     126     139                                                00010000D    133
     126       0               2       0                               0D    134
     126     141                                                00010000D    135
     126       0               2       0                               0D    136
     126     143                                                00010000D    137
     126       0               2       0                               0D    138
     126     145                                                00010000D    139
     126       0               2       0                               0D    140
     126     147                                                00010000D    141
     126       0               2       0                               0D    142
     126     149                                                00010000D    143
     126       0               2       0                               0D    144
     126     151                                                00010000D    145
     126       0               2       0                               0D    146
     126     153                                                00010000D    147
     126       0               2       0                               0D    148
     126     155                                                00010000D    149
     126       0               2       0                               0D    150
     126     157                                                00010000D    151
     126       0               2       0                               0D    152
     126     159                                                00010000D    153
     126       0               2       0                               0D    154
     126     161                                                00010000D    155
     126       0               2       0                               0D    156
     126     163                                                00010000D    157
     126       0               2       0                               0D    158
     126     165                                                00010000D    159
     126       0               2       0                               0D    160
     126     167                                                00010000D    161
     126       0               2       0                               0D    162
     126     169                                                00010000D    163
     126       0               2       0                               0D    164
     126     171                                                00010000D    165
     126       0               2       0                               0D    166
     126     173                                                00010000D    167
     126       0               2       0                               0D    168
     126     175                                                00010000D    169
     126       0               2       0                               0D    170
     126     177                                                00010000D    171
     126       0               2       0                               0D    172
     126     179                                                00010000D    173
     126       0               2       0                               0D    174
     128     181                                                00010000D    175
     128       0    -215      13       0                               0D    176
     128     194                                                00010000D    177
     128       0    -215      17       0                               0D    178
     128     211                                                00010000D    179
     128       0    -215      13       0                               0D    180
     128     224                                                00010000D    181
     128       0    -215       3       0                               0D    182
     128     227                                                00010000D    183
     128       0    -215       4       0                               0D    184
     128     231                                                00010000D    185
     128       0    -215       4       0                               0D    186
     128     235                                                00010000D    187
     128       0    -215       4       0                               0D    188
     128     239                                                00010000D    189
     128       0    -215       4       0                               0D    190
     128     243                                                00010000D    191
     128       0    -215       4       0                               0D    192
     128     247                                                00010000D    193
     128       0    -215       3       0                               0D    194
     128     250                                                00010000D    195
     128       0    -215       3       0                               0D    196
     128     253                                                00010000D    197
     128       0    -215       5       0                               0D    198
     128     258                                                00010000D    199
     128       0    -215       3       0                               0D    200
     128     261                                                00010000D    201
     128       0    -215       4       0                               0D    202
     128     265                                                00010000D    203
     128       0    -215       4       0                               0D    204
     128     269                                                00010000D    205
     128       0    -215       3       0                               0D    206
     128     272                                                00010000D    207
     128       0    -215       4       0                               0D    208
     502     276                                                00010000D    209
     502                       8       1                               0D    210
     504     284                                                00010001D    211
     504                      13       1                               0D    212
     406     297                                                00000000D    213
     406                       1      15                               0D    214
     314     298                                                00000200D    215
     314                       2       0                               0D    216
186,3,1,0,0,1,213;                                                     1P      1
514,17,5,1,7,1,9,1,11,1,13,1,15,1,17,1,19,1,21,1,23,1,25,1,27,1,       3P      2
29,1,31,1,33,1,35,1,37,1;                                              3P      3
510,175,1,1,39;                                                        5P      4
510,177,1,1,41;                                                        7P      5
510,179,1,1,43;                                                        9P      6
510,181,1,1,45;                                                       11P      7
510,183,1,1,47;                                                       13P      8
510,185,1,1,49;                                                       15P      9
510,187,1,1,51;                                                       17P     10
510,189,1,1,53;                                                       19P     11
510,191,1,1,55;                                                       21P     12
510,193,1,1,57;                                                       23P     13
510,195,4,1,59,61,63,65;                                              25P     14
510,197,1,1,67;                                                       27P     15
510,199,1,1,69;                                                       29P     16
510,201,1,1,71;                                                       31P     17
510,203,4,1,73,75,77,79;                                              33P     18
510,205,1,1,81;                                                       35P     19
510,207,1,1,83;                                                       37P     20
508,4,0,211,1,0,0,0,211,2,1,0,0,211,3,0,0,0,211,2,0,0;                39P     21
508,4,0,211,4,0,0,0,211,5,1,0,0,211,6,0,0,0,211,5,0,0;                41P     22
508,4,0,211,7,0,0,0,211,8,1,0,0,211,9,0,0,0,211,8,0,0;                43P     23
508,4,0,211,10,0,0,0,211,11,0,0,0,211,12,0,0,0,211,13,0,0;            45P     24
508,4,0,211,14,0,0,0,211,13,1,0,0,211,15,0,0,0,211,16,0,0;            47P     25
508,4,0,211,17,0,0,0,211,16,1,0,0,211,18,0,0,0,211,19,0,0;            49P     26
508,4,0,211,20,0,0,0,211,18,1,0,0,211,15,1,0,0,211,12,1,0;            51P     27
508,4,0,211,21,1,0,0,211,22,1,0,0,211,23,0,0,0,211,24,0,0;            53P     28
508,4,0,211,25,1,0,0,211,24,1,0,0,211,26,0,0,0,211,27,0,0;            55P     29
508,4,0,211,28,1,0,0,211,27,1,0,0,211,29,0,0,0,211,30,0,0;            57P     30
508,4,0,211,31,1,0,0,211,30,1,0,0,211,32,0,0,0,211,33,0,0;            59P     31
508,1,0,211,1,1,0;                                                    61P     32
508,1,0,211,4,1,0;                                                    63P     33
508,1,0,211,7,1,0;                                                    65P     34
508,4,0,211,34,1,0,0,211,33,1,0,0,211,35,0,0,0,211,36,0,0;            67P     35
508,4,0,211,37,1,0,0,211,36,1,0,0,211,38,0,0,0,211,39,0,0;            69P     36
508,4,0,211,40,1,0,0,211,39,1,0,0,211,41,0,0,0,211,42,0,0;            71P     37
508,8,0,211,11,1,0,0,211,43,1,0,0,211,42,1,0,0,211,44,0,0,0,211,      73P     38
22,0,0,0,211,45,1,0,0,211,19,1,0,0,211,20,1,0;                        73P     39
508,1,0,211,3,1,0;                                                    75P     40
508,1,0,211,6,1,0;                                                    77P     41
508,1,0,211,9,1,0;                                                    79P     42
508,8,0,211,44,1,0,0,211,41,1,0,0,211,38,1,0,0,211,35,1,0,0,211,      81P     43
32,1,0,0,211,29,1,0,0,211,26,1,0,0,211,23,1,0;                        81P     44
508,12,0,211,45,0,0,0,211,21,0,0,0,211,25,0,0,0,211,28,0,0,0,         83P     45
211,31,0,0,0,211,34,0,0,0,211,37,0,0,0,211,40,0,0,0,211,43,0,0,       83P     46
0,211,10,1,0,0,211,14,1,0,0,211,17,1,0;                               83P     47
126,8,2,0,1,0,0,-3.14159265358979,-3.14159265358979,                  85P     48
-3.14159265358979,-1.5707963267949,-1.5707963267949,0.,0.,            85P     49
1.5707963267949,1.5707963267949,3.14159265358979,                     85P     50
3.14159265358979,3.14159265358979,1.,0.707106781186548,1.,            85P     51
0.707106781186548,1.,0.707106781186546,1.,0.707106781186546,1.,       85P     52
32.5,37.75,21.,32.5,29.5,21.,24.25,29.5,21.,16.,29.5,21.,16.,         85P     53
37.75,21.,16.,46.,21.,24.25,46.,21.,32.5,46.,21.,32.5,37.75,21.,      85P     54
-3.14159265358979,3.14159265358979,0.,0.,0.;                          85P     55
126,1,1,0,0,1,0,0.,0.,0.242424242424242,0.242424242424242,1.,1.,      87P     56
32.5,37.75,21.,32.5,37.75,19.,0.,0.242424242424242,0.,0.,0.;          87P     57
126,8,2,0,1,0,0,-3.14159265358979,-3.14159265358979,                  89P     58
-3.14159265358979,-1.5707963267949,-1.5707963267949,0.,0.,            89P     59
1.5707963267949,1.5707963267949,3.14159265358979,                     89P     60
3.14159265358979,3.14159265358979,1.,0.707106781186546,1.,            89P     61
0.707106781186546,1.,0.707106781186548,1.,0.707106781186548,1.,       89P     62
32.5,37.75,19.,32.5,46.,19.,24.25,46.,19.,16.,46.,19.,16.,37.75,      89P     63
19.,16.,29.5,19.,24.25,29.5,19.,32.5,29.5,19.,32.5,37.75,19.,         89P     64
-3.14159265358979,3.14159265358979,0.,0.,0.;                          89P     65
126,8,2,0,1,0,0,-3.14159265358979,-3.14159265358979,                  91P     66
-3.14159265358979,-1.5707963267949,-1.5707963267949,0.,0.,            91P     67
1.5707963267949,1.5707963267949,3.14159265358979,                     91P     68
3.14159265358979,3.14159265358979,1.,0.707106781186546,1.,            91P     69
0.707106781186547,1.,0.707106781186551,1.,0.70710678118655,1.,        91P     70
8.75000007450581,37.75,21.,8.75000007450581,34.,21.,                  91P     71
5.00000007450581,34.,21.,1.25000007450581,34.,21.,                    91P     72
1.25000007450581,37.75,21.,1.25000007450581,41.5,21.,                 91P     73
5.00000007450581,41.5,21.,8.75000007450581,41.5,21.,                  91P     74
8.75000007450581,37.75,21.,-3.14159265358979,3.14159265358979,        91P     75
0.,0.,0.;                                                             91P     76
126,1,1,0,0,1,0,0.,0.,0.533333333333333,0.533333333333333,1.,1.,      93P     77
8.75000007450581,37.75,21.,8.75000007450581,37.75,19.,0.,             93P     78
0.533333333333333,0.,0.,0.;                                           93P     79
126,8,2,0,1,0,0,-3.14159265358979,-3.14159265358979,                  95P     80
-3.14159265358979,-1.5707963267949,-1.5707963267949,0.,0.,            95P     81
1.5707963267949,1.5707963267949,3.14159265358979,                     95P     82
3.14159265358979,3.14159265358979,1.,0.70710678118655,1.,             95P     83
0.707106781186551,1.,0.707106781186547,1.,0.707106781186546,1.,       95P     84
8.75000007450581,37.75,19.,8.75000007450581,41.5,19.,                 95P     85
5.00000007450581,41.5,19.,1.25000007450581,41.5,19.,                  95P     86
1.25000007450581,37.75,19.,1.25000007450581,34.,19.,                  95P     87
5.00000007450581,34.,19.,8.75000007450581,34.,19.,                    95P     88
8.75000007450581,37.75,19.,-3.14159265358979,3.14159265358979,        95P     89
0.,0.,0.;                                                             95P     90
126,8,2,0,1,0,0,-3.14159265358979,-3.14159265358979,                  97P     91
-3.14159265358979,-1.5707963267949,-1.5707963267949,0.,0.,            97P     92
1.5707963267949,1.5707963267949,3.14159265358979,                     97P     93
3.14159265358979,3.14159265358979,1.,0.707106781186548,1.,            97P     94
0.707106781186548,1.,0.707106781186548,1.,0.707106781186548,1.,       97P     95
32.5,12.25,21.,32.5,4.,21.,24.25,4.,21.,16.,4.,21.,16.,12.25,         97P     96
21.,16.,20.5,21.,24.25,20.5,21.,32.5,20.5,21.,32.5,12.25,21.,         97P     97
-3.14159265358979,3.14159265358979,0.,0.,0.;                          97P     98
126,1,1,0,0,1,0,0.,0.,0.242424242424242,0.242424242424242,1.,1.,      99P     99
32.5,12.25,21.,32.5,12.25,19.,0.,0.242424242424242,0.,0.,0.;          99P    100
126,8,2,0,1,0,0,-3.14159265358979,-3.14159265358979,                 101P    101
-3.14159265358979,-1.5707963267949,-1.5707963267949,0.,0.,           101P    102
1.5707963267949,1.5707963267949,3.14159265358979,                    101P    103
3.14159265358979,3.14159265358979,1.,0.707106781186548,1.,           101P    104
0.707106781186548,1.,0.707106781186548,1.,0.707106781186548,1.,      101P    105
32.5,12.25,19.,32.5,20.5,19.,24.25,20.5,19.,16.,20.5,19.,16.,        101P    106
12.25,19.,16.,4.,19.,24.25,4.,19.,32.5,4.,19.,32.5,12.25,19.,        101P    107
-3.14159265358979,3.14159265358979,0.,0.,0.;                         101P    108
126,1,1,0,0,1,0,0.,0.,1.9,1.9,1.,1.,0.,0.,19.,0.,0.,0.,0.,1.9,       103P    109
0.,0.,0.;                                                            103P    110
126,1,1,0,0,1,0,-0.2,-0.2,0.,0.,1.,1.,0.,2.,19.,0.,0.,19.,-0.2,      105P    111
0.,0.,0.,0.;                                                         105P    112
126,1,1,0,0,1,0,-1.9,-1.9,0.,0.,1.,1.,0.,2.,0.,0.,2.,19.,-1.9,       107P    113
0.,0.,0.,0.;                                                         107P    114
126,1,1,0,0,1,0,0.,0.,0.2,0.2,1.,1.,0.,0.,0.,0.,2.,0.,0.,0.2,0.,     109P    115
0.,0.;                                                               109P    116
126,1,1,0,0,1,0,0.,0.,3.5,3.5,1.,1.,0.,0.,0.,35.,0.,0.,0.,3.5,       111P    117
0.,0.,0.;                                                            111P    118
126,1,1,0,0,1,0,-3.5,-3.5,0.,0.,1.,1.,35.,2.,0.,0.,2.,0.,-3.5,       113P    119
0.,0.,0.,0.;                                                         113P    120
126,1,1,0,0,1,0,0.,0.,0.2,0.2,1.,1.,35.,0.,0.,35.,2.,0.,0.,0.2,      115P    121
0.,0.,0.;                                                            115P    122
126,1,1,0,0,1,0,0.,0.,1.9,1.9,1.,1.,35.,0.,0.,35.,0.,19.,0.,1.9,     117P    123
0.,0.,0.;                                                            117P    124
126,1,1,0,0,1,0,-1.9,-1.9,0.,0.,1.,1.,35.,2.,19.,35.,2.,0.,-1.9,     119P    125
0.,0.,0.,0.;                                                         119P    126
126,1,1,0,0,1,0,0.,0.,0.2,0.2,1.,1.,35.,0.,19.,35.,2.,19.,0.,        121P    127
0.2,0.,0.,0.;                                                        121P    128
126,1,1,0,0,1,0,-0.83,-0.83,2.67,2.67,1.,1.,35.,2.,19.,0.,2.,        123P    129
19.,-0.83,2.67,0.,0.,0.;                                             123P    130
126,1,1,0,0,1,0,0.,0.,0.0900000000000001,0.0900000000000001,1.,      125P    131
1.,35.9,0.,19.9,35.9,0.,19.,0.,0.0900000000000001,0.,0.,0.;          125P    132
126,1,1,0,0,1,0,0.,0.,4.8,4.8,1.,1.,35.9,0.,19.,35.9,48.,19.,0.,     127P    133
4.8,0.,0.,0.;                                                        127P    134
126,1,1,0,0,1,0,0.,0.,0.0900000000000001,0.0900000000000001,1.,      129P    135
1.,35.9,48.,19.9,35.9,48.,19.,0.,0.0900000000000001,0.,0.,0.;        129P    136
126,1,1,0,0,1,0,0.,0.,4.8,4.8,1.,1.,35.9,0.,19.9,35.9,48.,19.9,      131P    137
0.,4.8,0.,0.,0.;                                                     131P    138
126,1,1,0,0,1,0,0.,0.,0.0899999999999999,0.0899999999999999,1.,      133P    139
1.,35.,0.,19.9,35.9,0.,19.9,0.,0.0899999999999999,0.,0.,0.;          133P    140
126,1,1,0,0,1,0,0.,0.,0.0899999999999999,0.0899999999999999,1.,      135P    141
1.,35.,48.,19.9,35.9,48.,19.9,0.,0.0899999999999999,0.,0.,0.;        135P    142
126,1,1,0,0,1,0,0.,0.,4.8,4.8,1.,1.,35.,0.,19.9,35.,48.,19.9,0.,     137P    143
4.8,0.,0.,0.;                                                        137P    144
126,1,1,0,0,1,0,0.,0.,0.11,0.11,1.,1.,35.,0.,21.,35.,0.,19.9,0.,     139P    145
0.11,0.,0.,0.;                                                       139P    146
126,1,1,0,0,1,0,0.,0.,0.11,0.11,1.,1.,35.,48.,21.,35.,48.,19.9,      141P    147
0.,0.11,0.,0.,0.;                                                    141P    148
126,1,1,0,0,1,0,0.,0.,4.8,4.8,1.,1.,35.,0.,21.,35.,48.,21.,0.,       143P    149
4.8,0.,0.,0.;                                                        143P    150
126,1,1,0,0,1,0,0.,0.,3.5,3.5,1.,1.,1.84889274661174D-31,0.,21.,     145P    151
35.,0.,21.,0.,3.5,0.,0.,0.;                                          145P    152
126,1,1,0,0,1,0,0.,0.,3.5,3.5,1.,1.,1.84889274661174D-31,48.,        147P    153
21.,35.,48.,21.,0.,3.5,0.,0.,0.;                                     147P    154
126,1,1,0,0,1,0,0.,0.,4.8,4.8,1.,1.,1.84889274661174D-31,0.,21.,     149P    155
1.84889274661174D-31,48.,21.,0.,4.8,0.,0.,0.;                        149P    156
126,1,1,0,0,1,0,0.,0.,0.11,0.11,1.,1.,-9.24446373305873D-32,0.,      151P    157
19.9,1.84889274661174D-31,0.,21.,0.,0.11,0.,0.,0.;                   151P    158
126,1,1,0,0,1,0,0.,0.,0.11,0.11,1.,1.,-9.24446373305873D-32,48.,     153P    159
19.9,1.84889274661174D-31,48.,21.,0.,0.11,0.,0.,0.;                  153P    160
126,1,1,0,0,1,0,0.,0.,4.8,4.8,1.,1.,-9.24446373305873D-32,0.,        155P    161
19.9,-9.24446373305873D-32,48.,19.9,0.,4.8,0.,0.,0.;                 155P    162
126,1,1,0,0,1,0,0.,0.,0.09,0.09,1.,1.,-0.9,0.,19.9,0.,0.,19.9,       157P    163
0.,0.09,0.,0.,0.;                                                    157P    164
126,1,1,0,0,1,0,0.,0.,0.09,0.09,1.,1.,-0.9,48.,19.9,0.,48.,19.9,     159P    165
0.,0.09,0.,0.,0.;                                                    159P    166
126,1,1,0,0,1,0,0.,0.,4.8,4.8,1.,1.,-0.9,0.,19.9,-0.9,48.,19.9,      161P    167
0.,4.8,0.,0.,0.;                                                     161P    168
126,1,1,0,0,1,0,0.,0.,0.0900000000000001,0.0900000000000001,1.,      163P    169
1.,-0.9,0.,19.,-0.9,0.,19.9,0.,0.0900000000000001,0.,0.,0.;          163P    170
126,1,1,0,0,1,0,0.,0.,0.0900000000000001,0.0900000000000001,1.,      165P    171
1.,-0.9,48.,19.,-0.9,48.,19.9,0.,0.0900000000000001,0.,0.,0.;        165P    172
126,1,1,0,0,1,0,0.,0.,4.8,4.8,1.,1.,-0.9,0.,19.,-0.9,48.,19.,0.,     167P    173
4.8,0.,0.,0.;                                                        167P    174
126,1,1,0,0,1,0,3.59,3.59,3.68,3.68,1.,1.,0.,0.,19.,                 169P    175
-0.899999999999999,0.,19.,3.59,3.68,0.,0.,0.;                        169P    176
126,1,1,0,0,1,0,0.,0.,3.68,3.68,1.,1.,35.9,48.,19.,                  171P    177
-0.899999999999999,48.,19.,0.,3.68,0.,0.,0.;                         171P    178
126,1,1,0,0,1,0,0.,0.,0.0899999999999999,0.0899999999999999,1.,      173P    179
1.,35.9,0.,19.,35.,0.,19.,0.,0.0899999999999999,0.,0.,0.;            173P    180
128,1,8,1,2,0,1,0,0,1,0.,0.,0.242424242424242,0.242424242424242,     175P    181
-3.14159265358979,-3.14159265358979,-3.14159265358979,               175P    182
-1.5707963267949,-1.5707963267949,0.,0.,1.5707963267949,             175P    183
1.5707963267949,3.14159265358979,3.14159265358979,                   175P    184
3.14159265358979,1.,1.,0.707106781186548,0.707106781186548,1.,       175P    185
1.,0.707106781186548,0.707106781186548,1.,1.,0.707106781186548,      175P    186
0.707106781186548,1.,1.,0.707106781186548,0.707106781186548,1.,      175P    187
1.,32.5,37.75,21.,32.5,37.75,19.,32.5,29.5,21.,32.5,29.5,19.,        175P    188
24.25,29.5,21.,24.25,29.5,19.,16.,29.5,21.,16.,29.5,19.,16.,         175P    189
37.75,21.,16.,37.75,19.,16.,46.,21.,16.,46.,19.,24.25,46.,21.,       175P    190
24.25,46.,19.,32.5,46.,21.,32.5,46.,19.,32.5,37.75,21.,32.5,         175P    191
37.75,19.,0.,0.242424242424242,-3.14159265358979,                    175P    192
3.14159265358979;                                                    175P    193
128,1,8,1,2,0,1,0,0,1,0.,0.,0.533333333333333,0.533333333333333,     177P    194
-3.14159265358979,-3.14159265358979,-3.14159265358979,               177P    195
-1.5707963267949,-1.5707963267949,0.,0.,1.5707963267949,             177P    196
1.5707963267949,3.14159265358979,3.14159265358979,                   177P    197
3.14159265358979,1.,1.,0.707106781186548,0.707106781186548,1.,       177P    198
1.,0.707106781186548,0.707106781186548,1.,1.,0.707106781186548,      177P    199
0.707106781186548,1.,1.,0.707106781186548,0.707106781186548,1.,      177P    200
1.,8.75000007450581,37.75,21.,8.75000007450581,37.75,19.,            177P    201
8.75000007450581,34.,21.,8.75000007450581,34.,19.,                   177P    202
5.00000007450581,34.,21.,5.00000007450581,34.,19.,                   177P    203
1.25000007450581,34.,21.,1.25000007450581,34.,19.,                   177P    204
1.25000007450581,37.75,21.,1.25000007450581,37.75,19.,               177P    205
1.25000007450581,41.5,21.,1.25000007450581,41.5,19.,                 177P    206
5.00000007450581,41.5,21.,5.00000007450581,41.5,19.,                 177P    207
8.75000007450581,41.5,21.,8.75000007450581,41.5,19.,                 177P    208
8.75000007450581,37.75,21.,8.75000007450581,37.75,19.,0.,            177P    209
0.533333333333333,-3.14159265358979,3.14159265358979;                177P    210
128,1,8,1,2,0,1,0,0,1,0.,0.,0.242424242424242,0.242424242424242,     179P    211
-3.14159265358979,-3.14159265358979,-3.14159265358979,               179P    212
-1.5707963267949,-1.5707963267949,0.,0.,1.5707963267949,             179P    213
1.5707963267949,3.14159265358979,3.14159265358979,                   179P    214
3.14159265358979,1.,1.,0.707106781186548,0.707106781186548,1.,       179P    215
1.,0.707106781186548,0.707106781186548,1.,1.,0.707106781186548,      179P    216
0.707106781186548,1.,1.,0.707106781186548,0.707106781186548,1.,      179P    217
1.,32.5,12.25,21.,32.5,12.25,19.,32.5,4.00000000000001,21.,32.5,     179P    218
4.00000000000001,19.,24.25,4.,21.,24.25,4.,19.,16.,                  179P    219
4.00000000000001,21.,16.,4.00000000000001,19.,16.,12.25,21.,16.,     179P    220
12.25,19.,16.,20.5,21.,16.,20.5,19.,24.25,20.5,21.,24.25,20.5,       179P    221
19.,32.5,20.5,21.,32.5,20.5,19.,32.5,12.25,21.,32.5,12.25,19.,       179P    222
0.,0.242424242424242,-3.14159265358979,3.14159265358979;             179P    223
128,1,1,1,1,0,0,1,0,0,-0.001,-0.001,1.901,1.901,-0.001,-0.001,       181P    224
0.201,0.201,1.,1.,1.,1.,0.,-0.01,-0.01,0.,-0.01,19.01,0.,2.01,       181P    225
-0.01,0.,2.01,19.01,-0.001,1.901,-0.001,0.201;                       181P    226
128,1,1,1,1,0,0,1,0,0,-0.001,-0.001,3.501,3.501,-0.001,-0.001,       183P    227
0.201,0.201,1.,1.,1.,1.,35.01,-0.01,0.,-0.0099999999999989,          183P    228
-0.01,0.,35.01,2.01,0.,-0.0099999999999989,2.01,0.,-0.001,3.501,     183P    229
-0.001,0.201;                                                        183P    230
128,1,1,1,1,0,0,1,0,0,-0.001,-0.001,1.901,1.901,-0.001,-0.001,       185P    231
0.201,0.201,1.,1.,1.,1.,35.,-0.01,19.01,35.,-0.01,                   185P    232
-0.0099999999999989,35.,2.01,19.01,35.,2.01,-0.0099999999999989,     185P    233
-0.001,1.901,-0.001,0.201;                                           185P    234
128,1,1,1,1,0,0,1,0,0,-0.951,-0.951,0.951,0.951,-1.751,-1.751,       187P    235
1.751,1.751,1.,1.,1.,1.,-0.0099999999999989,2.,-0.01,                187P    236
-0.0099999999999989,2.,19.01,35.01,2.,-0.01,35.01,2.,19.01,          187P    237
-0.951,0.951,-1.751,1.751;                                           187P    238
128,1,1,1,1,0,0,1,0,0,-0.001,-0.001,0.0910000000000001,              189P    239
0.0910000000000001,-0.001,-0.001,4.801,4.801,1.,1.,1.,1.,35.9,       189P    240
-0.01,19.91,35.9,-0.01,18.99,35.9,48.01,19.91,35.9,48.01,18.99,      189P    241
-0.001,0.0910000000000001,-0.001,4.801;                              189P    242
128,1,1,1,1,0,0,1,0,0,-0.001,-0.001,0.0909999999999999,              191P    243
0.0909999999999999,-0.001,-0.001,4.801,4.801,1.,1.,1.,1.,34.99,      191P    244
-0.01,19.9,35.91,-0.01,19.9,34.99,48.01,19.9,35.91,48.01,19.9,       191P    245
-0.001,0.0909999999999999,-0.001,4.801;                              191P    246
128,1,1,1,1,0,0,1,0,0,-0.001,-0.001,0.111,0.111,-0.001,-0.001,       193P    247
4.801,4.801,1.,1.,1.,1.,35.,-0.01,21.01,35.,-0.01,19.89,35.,         193P    248
48.01,21.01,35.,48.01,19.89,-0.001,0.111,-0.001,4.801;               193P    249
128,1,1,1,1,0,0,1,0,0,-0.001,-0.001,3.501,3.501,-0.001,-0.001,       195P    250
4.801,4.801,1.,1.,1.,1.,-0.01,-0.01,21.,35.01,-0.01,21.,-0.01,       195P    251
48.01,21.,35.01,48.01,21.,-0.001,3.501,-0.001,4.801;                 195P    252
128,1,1,1,1,0,0,1,0,0,-0.001,-0.001,0.111,0.111,-0.001,-0.001,       197P    253
4.801,4.801,1.,1.,1.,1.,-9.49658547123306D-32,-0.01,19.89,           197P    254
1.87410492042918D-31,-0.01,21.01,-9.49658547123306D-32,48.01,        197P    255
19.89,1.87410492042918D-31,48.01,21.01,-0.001,0.111,-0.001,          197P    256
4.801;                                                               197P    257
128,1,1,1,1,0,0,1,0,0,-0.001,-0.001,0.091,0.091,-0.001,-0.001,       199P    258
4.801,4.801,1.,1.,1.,1.,-0.91,-0.01,19.9,0.01,-0.01,19.9,-0.91,      199P    259
48.01,19.9,0.01,48.01,19.9,-0.001,0.091,-0.001,4.801;                199P    260
128,1,1,1,1,0,0,1,0,0,-0.001,-0.001,0.0910000000000001,              201P    261
0.0910000000000001,-0.001,-0.001,4.801,4.801,1.,1.,1.,1.,-0.9,       201P    262
-0.01,18.99,-0.9,-0.01,19.91,-0.9,48.01,18.99,-0.9,48.01,19.91,      201P    263
-0.001,0.0910000000000001,-0.001,4.801;                              201P    264
128,1,1,1,1,0,0,1,0,0,-0.001,-0.001,3.681,3.681,-0.001,-0.001,       203P    265
4.801,4.801,1.,1.,1.,1.,35.91,-0.01,19.,-0.909999999999997,          203P    266
-0.01,19.,35.91,48.01,19.,-0.909999999999997,48.01,19.,-0.001,       203P    267
3.681,-0.001,4.801;                                                  203P    268
128,1,1,1,1,0,0,1,0,0,-0.101,-0.101,0.101,0.101,-1.841,-1.841,       205P    269
1.841,1.841,1.,1.,1.,1.,-0.91,48.,18.99,-0.91,48.,21.01,35.91,       205P    270
48.,18.99,35.91,48.,21.01,-0.101,0.101,-1.841,1.841;                 205P    271
128,1,1,1,1,0,0,1,0,0,-1.841,-1.841,1.841,1.841,-0.101,-0.101,       207P    272
2.001,2.001,1.,1.,1.,1.,35.91,0.,21.01,-0.91,0.,21.01,35.91,0.,      207P    273
-0.0099999999999989,-0.91,0.,-0.0099999999999989,-1.841,1.841,       207P    274
-0.101,2.001;                                                        207P    275
502,30,32.5,37.75,21.,32.5,37.75,19.,8.75000007450581,37.75,21.,     209P    276
8.75000007450581,37.75,19.,32.5,12.25,21.,32.5,12.25,19.,0.,0.,      209P    277
19.,0.,0.,0.,0.,2.,19.,0.,2.,0.,35.,0.,0.,35.,2.,0.,35.,0.,19.,      209P    278
35.,2.,19.,35.9,0.,19.9,35.9,0.,19.,35.9,48.,19.,35.9,48.,19.9,      209P    279
35.,0.,19.9,35.,48.,19.9,35.,0.,21.,35.,48.,21.,                     209P    280
1.84889274661174D-31,0.,21.,0.,48.,21.,-9.24446373305873D-32,0.,     209P    281
19.9,0.,48.,19.9,-0.9,0.,19.9,-0.899999999999999,48.,19.9,-0.9,      209P    282
0.,19.,-0.899999999999999,48.,19.;                                   209P    283
504,45,85,209,1,209,1,87,209,1,209,2,89,209,2,209,2,91,209,3,        211P    284
209,3,93,209,3,209,4,95,209,4,209,4,97,209,5,209,5,99,209,5,209,     211P    285
6,101,209,6,209,6,103,209,7,209,8,105,209,9,209,7,107,209,10,        211P    286
209,9,109,209,8,209,10,111,209,8,209,11,113,209,12,209,10,115,       211P    287
209,11,209,12,117,209,11,209,13,119,209,14,209,12,121,209,13,        211P    288
209,14,123,209,14,209,9,125,209,15,209,16,127,209,16,209,17,129,     211P    289
209,18,209,17,131,209,15,209,18,133,209,19,209,15,135,209,20,        211P    290
209,18,137,209,19,209,20,139,209,21,209,19,141,209,22,209,20,        211P    291
143,209,21,209,22,145,209,23,209,21,147,209,24,209,22,149,209,       211P    292
23,209,24,151,209,25,209,23,153,209,26,209,24,155,209,25,209,26,     211P    293
157,209,27,209,25,159,209,28,209,26,161,209,27,209,28,163,209,       211P    294
29,209,27,165,209,30,209,28,167,209,29,209,30,169,209,7,209,29,      211P    295
171,209,17,209,30,173,209,16,209,13;                                 211P    296
406,1,5HBody1;                                                       213P    297
314,62.7450980392157,62.7450980392157,62.7450980392157,13HSteel      215P    298
- Satin;                                                             215P    299
S      1G      3D    216P    299                                        T      1
