                                                                        S      1
,,17HDHEClockingcap v3,17HDHEClockingcap v3,7Hunknown,7Hunknown,32,38,7,G      1
99,15,,1.,2,2HMM,1,0.08,15H20210504.162909,0.01,10000.,7Hunknown,7HunknoG      2
wn,11,0,15H20200918.153305;                                             G      3
     186       1                                                00000000D      1
     186            -123       1       0                               0D      2
     514       2                                                00010000D      3
     514                       1       1                               0D      4
     510       3                                                00010000D      5
     510            -123       1       1                               0D      6
     510       4                                                00010000D      7
     510            -123       1       1                               0D      8
     510       5                                                00010000D      9
     510            -123       1       1                               0D     10
     510       6                                                00010000D     11
     510            -123       1       1                               0D     12
     510       7                                                00010000D     13
     510            -123       1       1                               0D     14
     510       8                                                00010000D     15
     510            -123       1       1                               0D     16
     510       9                                                00010000D     17
     510            -123       1       1                               0D     18
     510      10                                                00010000D     19
     510            -123       1       1                               0D     20
     510      11                                                00010000D     21
     510            -123       1       1                               0D     22
     510      12                                                00010000D     23
     510            -123       1       1                               0D     24
     508      13                                                00010000D     25
     508                       1       1                               0D     26
     508      14                                                00010000D     27
     508                       1       1                               0D     28
     508      15                                                00010000D     29
     508                       1       1                               0D     30
     508      16                                                00010000D     31
     508                       1       1                               0D     32
     508      17                                                00010000D     33
     508                       1       1                               0D     34
     508      18                                                00010000D     35
     508                       1       1                               0D     36
     508      19                                                00010000D     37
     508                       1       1                               0D     38
     508      20                                                00010000D     39
     508                       1       1                               0D     40
     508      21                                                00010000D     41
     508                       1       1                               0D     42
     508      22                                                00010000D     43
     508                       1       1                               0D     44
     508      23                                                00010000D     45
     508                       1       1                               0D     46
     508      24                                                00010000D     47
     508                       1       1                               0D     48
     508      25                                                00010000D     49
     508                       1       1                               0D     50
     508      26                                                00010000D     51
     508                       1       1                               0D     52
     508      27                                                00010000D     53
     508                       1       1                               0D     54
     126      28                                                00010000D     55
     126       0               5       0                               0D     56
     126      33                                                00010000D     57
     126       0               2       0                               0D     58
     126      35                                                00010000D     59
     126       0               5       0                               0D     60
     126      40                                                00010000D     61
     126       0               2       0                               0D     62
     126      42                                                00010000D     63
     126       0               9       0                               0D     64
     126      51                                                00010000D     65
     126       0               2       0                               0D     66
     126      53                                                00010000D     67
     126       0               9       0                               0D     68
     126      62                                                00010000D     69
     126       0               2       0                               0D     70
     126      64                                                00010000D     71
     126       0               2       0                               0D     72
     126      66                                                00010000D     73
     126       0               2       0                               0D     74
     126      68                                                00010000D     75
     126       0               2       0                               0D     76
     126      70                                                00010000D     77
     126       0               2       0                               0D     78
     126      72                                                00010000D     79
     126       0               2       0                               0D     80
     126      74                                                00010000D     81
     126       0               2       0                               0D     82
     126      76                                                00010000D     83
     126       0               2       0                               0D     84
     126      78                                                00010000D     85
     126       0               9       0                               0D     86
     126      87                                                00010000D     87
     126       0               2       0                               0D     88
     126      89                                                00010000D     89
     126       0               9       0                               0D     90
     126      98                                                00010000D     91
     126       0              10       0                               0D     92
     126     108                                                00010000D     93
     126       0               3       0                               0D     94
     126     111                                                00010000D     95
     126       0              10       0                               0D     96
     128     121                                                00010000D     97
     128       0    -123       7       0                               0D     98
     128     128                                                00010000D     99
     128       0    -123      11       0                               0D    100
     128     139                                                00010000D    101
     128       0    -123       3       0                               0D    102
     128     142                                                00010000D    103
     128       0    -123       3       0                               0D    104
     128     145                                                00010000D    105
     128       0    -123       3       0                               0D    106
     128     148                                                00010000D    107
     128       0    -123       3       0                               0D    108
     128     151                                                00010000D    109
     128       0    -123      11       0                               0D    110
     128     162                                                00010000D    111
     128       0    -123      13       0                               0D    112
     128     175                                                00010000D    113
     128       0    -123       4       0                               0D    114
     128     179                                                00010000D    115
     128       0    -123       4       0                               0D    116
     502     183                                                00010000D    117
     502                       5       1                               0D    118
     504     188                                                00010001D    119
     504                       6       1                               0D    120
     406     194                                                00000000D    121
     406                       1      15                               0D    122
     314     195                                                00000200D    123
     314                       2       0                               0D    124
186,3,1,0,0,1,121;                                                     1P      1
514,10,5,1,7,1,9,1,11,1,13,1,15,1,17,1,19,1,21,1,23,1;                 3P      2
510,97,1,1,25;                                                         5P      3
510,99,1,1,27;                                                         7P      4
510,101,1,1,29;                                                        9P      5
510,103,2,1,31,33;                                                    11P      6
510,105,1,1,35;                                                       13P      7
510,107,2,1,37,39;                                                    15P      8
510,109,1,1,41;                                                       17P      9
510,111,1,1,43;                                                       19P     10
510,113,2,1,45,47;                                                    21P     11
510,115,3,1,49,51,53;                                                 23P     12
508,4,0,119,1,0,0,0,119,2,1,0,0,119,3,0,0,0,119,4,0,0;                25P     13
508,4,0,119,5,0,0,0,119,6,1,0,0,119,7,0,0,0,119,6,0,0;                27P     14
508,4,0,119,2,0,0,0,119,8,0,0,0,119,9,0,0,0,119,10,1,0;               29P     15
508,4,0,119,1,1,0,0,119,11,0,0,0,119,12,0,0,0,119,8,1,0;              31P     16
508,1,0,119,7,1,0;                                                    33P     17
508,4,0,119,4,1,0,0,119,13,0,0,0,119,14,0,0,0,119,11,1,0;             35P     18
508,4,0,119,3,1,0,0,119,10,0,0,0,119,15,0,0,0,119,13,1,0;             37P     19
508,1,0,119,5,1,0;                                                    39P     20
508,4,0,119,16,0,0,0,119,17,1,0,0,119,18,1,0,0,119,17,0,0;            41P     21
508,4,0,119,19,0,0,0,119,20,1,0,0,119,21,1,0,0,119,20,0,0;            43P     22
508,1,0,119,19,1,0;                                                   45P     23
508,1,0,119,16,1,0;                                                   47P     24
508,1,0,119,21,0,0;                                                   49P     25
508,4,0,119,12,1,0,0,119,14,1,0,0,119,15,1,0,0,119,9,1,0;             51P     26
508,1,0,119,18,0,0;                                                   53P     27
126,4,2,0,0,0,0,0.,0.,0.,1.5707963267949,1.5707963267949,             55P     28
3.14159265358979,3.14159265358979,3.14159265358979,1.,                55P     29
0.707106781186548,1.,0.707106781186548,1.,25.,7.5,-7.5,25.,7.5,       55P     30
-15.,25.,4.59242549680257D-16,-15.,25.,-7.5,-15.,25.,-7.5,-7.5,       55P     31
0.,3.14159265358979,0.,0.,0.;                                         55P     32
126,1,1,0,0,1,0,-0.3,-0.3,0.,0.,1.,1.,25.,7.5,-7.5,28.,7.5,-7.5,      57P     33
-0.3,0.,0.,0.,0.;                                                     57P     34
126,4,2,0,0,0,0,-3.14159265358979,-3.14159265358979,                  59P     35
-3.14159265358979,-1.5707963267949,-1.5707963267949,0.,0.,0.,1.,      59P     36
0.707106781186548,1.,0.707106781186548,1.,28.,-7.5,-7.5,28.,          59P     37
-7.5,-15.,28.,4.59242549680257D-16,-15.,28.,7.5,-15.,28.,7.5,         59P     38
-7.5,-3.14159265358979,0.,0.,0.,0.;                                   59P     39
126,1,1,0,0,1,0,-0.3,-0.3,0.,0.,1.,1.,25.,-7.5,-7.5,28.,-7.5,         61P     40
-7.5,-0.3,0.,0.,0.,0.;                                                61P     41
126,8,2,0,1,0,0,-3.14159265358979,-3.14159265358979,                  63P     42
-3.14159265358979,-1.5707963267949,-1.5707963267949,0.,0.,            63P     43
1.5707963267949,1.5707963267949,3.14159265358979,                     63P     44
3.14159265358979,3.14159265358979,1.,0.707106781186547,1.,            63P     45
0.707106781186548,1.,0.707106781186547,1.,0.707106781186547,1.,       63P     46
28.,-5.,-7.5,28.,-5.,-2.5,28.,3.06161699786838D-16,-2.5,28.,5.,       63P     47
-2.5,28.,5.,-7.5,28.,5.,-12.5,28.,3.06161699786838D-16,-12.5,         63P     48
28.,-5.,-12.5,28.,-5.,-7.5,-3.14159265358979,3.14159265358979,        63P     49
0.,0.,0.;                                                             63P     50
126,1,1,0,0,1,0,0.,0.,0.6,0.6,1.,1.,28.,-5.,-7.5,25.,-5.,-7.5,        65P     51
0.,0.6,0.,0.,0.;                                                      65P     52
126,8,2,0,1,0,0,-3.14159265358979,-3.14159265358979,                  67P     53
-3.14159265358979,-1.5707963267949,-1.5707963267949,0.,0.,            67P     54
1.5707963267949,1.5707963267949,3.14159265358979,                     67P     55
3.14159265358979,3.14159265358979,1.,0.707106781186547,1.,            67P     56
0.707106781186547,1.,0.707106781186548,1.,0.707106781186547,1.,       67P     57
25.,-5.,-7.5,25.,-5.,-12.5,25.,3.06161699786838D-16,-12.5,25.,        67P     58
5.,-12.5,25.,5.,-7.5,25.,5.,-2.5,25.,3.06161699786838D-16,-2.5,       67P     59
25.,-5.,-2.5,25.,-5.,-7.5,-3.14159265358979,3.14159265358979,0.,      67P     60
0.,0.;                                                                67P     61
126,1,1,0,0,1,0,0.,0.,0.75,0.75,1.,1.,25.,7.5,0.,25.,7.5,-7.5,        69P     62
0.,0.75,0.,0.,0.;                                                     69P     63
126,1,1,0,0,1,0,-1.55,-1.55,-1.25,-1.25,1.,1.,28.,7.5,0.,25.,         71P     64
7.5,0.,-1.55,-1.25,0.,0.,0.;                                          71P     65
126,1,1,0,0,1,0,0.,0.,0.75,0.75,1.,1.,28.,7.5,0.,28.,7.5,-7.5,        73P     66
0.,0.75,0.,0.,0.;                                                     73P     67
126,1,1,0,0,1,0,0.,0.,0.75,0.75,1.,1.,25.,-7.5,0.,25.,-7.5,-7.5,      75P     68
0.,0.75,0.,0.,0.;                                                     75P     69
126,1,1,0,0,1,0,-1.125,-1.125,0.375,0.375,1.,1.,25.,7.5,0.,25.,       77P     70
-7.5,0.,-1.125,0.375,0.,0.,0.;                                        77P     71
126,1,1,0,0,1,0,0.,0.,0.75,0.75,1.,1.,28.,-7.5,0.,28.,-7.5,-7.5,      79P     72
0.,0.75,0.,0.,0.;                                                     79P     73
126,1,1,0,0,1,0,1.1,1.1,1.4,1.4,1.,1.,25.,-7.5,0.,28.,-7.5,0.,        81P     74
1.1,1.4,0.,0.,0.;                                                     81P     75
126,1,1,0,0,1,0,-1.125,-1.125,0.375,0.375,1.,1.,28.,-7.5,0.,28.,      83P     76
7.5,0.,-1.125,0.375,0.,0.,0.;                                         83P     77
126,8,2,0,1,0,0,-3.14159265358979,-3.14159265358979,                  85P     78
-3.14159265358979,-1.5707963267949,-1.5707963267949,0.,0.,            85P     79
1.5707963267949,1.5707963267949,3.14159265358979,                     85P     80
3.14159265358979,3.14159265358979,1.,0.707106781186548,1.,            85P     81
0.707106781186548,1.,0.707106781186548,1.,0.707106781186548,1.,       85P     82
-5.,6.12323399573677D-16,5.,-5.,5.,5.,3.06161699786838D-16,5.,        85P     83
5.,5.,5.,5.,5.,0.,5.,5.,-5.,5.,3.06161699786838D-16,-5.,5.,-5.,       85P     84
-5.,5.,-5.,-6.12323399573677D-16,5.,-3.14159265358979,                85P     85
3.14159265358979,0.,0.,0.;                                            85P     86
126,1,1,0,0,1,0,-1.,-1.,0.,0.,1.,1.,-5.,0.,5.,-5.,0.,0.,-1.,0.,       87P     87
0.,0.,0.;                                                             87P     88
126,8,2,0,1,0,0,-3.14159265358979,-3.14159265358979,                  89P     89
-3.14159265358979,-1.5707963267949,-1.5707963267949,0.,0.,            89P     90
1.5707963267949,1.5707963267949,3.14159265358979,                     89P     91
3.14159265358979,3.14159265358979,1.,0.707106781186548,1.,            89P     92
0.707106781186548,1.,0.707106781186548,1.,0.707106781186548,1.,       89P     93
-5.,6.12323399573677D-16,0.,-5.,5.,0.,3.06161699786838D-16,5.,        89P     94
0.,5.,5.,0.,5.,0.,0.,5.,-5.,0.,3.06161699786838D-16,-5.,0.,-5.,       89P     95
-5.,0.,-5.,-6.12323399573677D-16,0.,-3.14159265358979,                89P     96
3.14159265358979,0.,0.,0.;                                            89P     97
126,8,2,0,1,0,0,-3.14159265358979,-3.14159265358979,                  91P     98
-3.14159265358979,-1.5707963267949,-1.5707963267949,0.,0.,            91P     99
1.5707963267949,1.5707963267949,3.14159265358979,                     91P    100
3.14159265358979,3.14159265358979,1.,0.707106781186548,1.,            91P    101
0.707106781186548,1.,0.707106781186548,1.,0.707106781186548,1.,       91P    102
-29.717,-3.63928289302619D-15,5.,-29.717,-29.717,5.,                  91P    103
1.8196414465131D-15,-29.717,5.,29.717,-29.717,5.,29.717,0.,5.,        91P    104
29.717,29.717,5.,1.8196414465131D-15,29.717,5.,-29.717,29.717,        91P    105
5.,-29.717,3.63928289302619D-15,5.,-3.14159265358979,                 91P    106
3.14159265358979,0.,0.,0.;                                            91P    107
126,1,1,0,0,1,0,-0.0833333333333333,-0.0833333333333333,0.,0.,        93P    108
1.,1.,-29.717,0.,5.,-29.717,0.,0.,-0.0833333333333333,0.,0.,0.,       93P    109
0.;                                                                   93P    110
126,8,2,0,1,0,0,-3.14159265358979,-3.14159265358979,                  95P    111
-3.14159265358979,-1.5707963267949,-1.5707963267949,0.,0.,            95P    112
1.5707963267949,1.5707963267949,3.14159265358979,                     95P    113
3.14159265358979,3.14159265358979,1.,0.707106781186548,1.,            95P    114
0.707106781186548,1.,0.707106781186548,1.,0.707106781186548,1.,       95P    115
-29.717,-3.63928289302619D-15,0.,-29.717,-29.717,0.,                  95P    116
1.8196414465131D-15,-29.717,0.,29.717,-29.717,0.,29.717,0.,0.,        95P    117
29.717,29.717,0.,1.8196414465131D-15,29.717,0.,-29.717,29.717,        95P    118
0.,-29.717,3.63928289302619D-15,0.,-3.14159265358979,                 95P    119
3.14159265358979,0.,0.,0.;                                            95P    120
128,1,4,1,2,0,0,0,0,0,0.,0.,0.4,0.4,0.,0.,0.,1.5707963267949,         97P    121
1.5707963267949,3.14159265358979,3.14159265358979,                    97P    122
3.14159265358979,1.,1.,0.707106781186548,0.707106781186548,1.,        97P    123
1.,0.707106781186548,0.707106781186548,1.,1.,25.,7.5,-7.5,28.,        97P    124
7.5,-7.5,25.,7.5,-15.,28.,7.5,-15.,25.,0.,-15.,28.,0.,-15.,25.,       97P    125
-7.5,-15.,28.,-7.5,-15.,25.,-7.5,-7.5,28.,-7.5,-7.5,0.,0.4,0.,        97P    126
3.14159265358979;                                                     97P    127
128,1,8,1,2,0,1,0,0,1,0.,0.,0.6,0.6,-3.14159265358979,                99P    128
-3.14159265358979,-3.14159265358979,-1.5707963267949,                 99P    129
-1.5707963267949,0.,0.,1.5707963267949,1.5707963267949,               99P    130
3.14159265358979,3.14159265358979,3.14159265358979,1.,1.,             99P    131
0.707106781186548,0.707106781186548,1.,1.,0.707106781186548,          99P    132
0.707106781186548,1.,1.,0.707106781186548,0.707106781186548,1.,       99P    133
1.,0.707106781186548,0.707106781186548,1.,1.,28.,-5.,-7.5,25.,        99P    134
-5.,-7.5,28.,-5.,-2.5,25.,-5.,-2.5,28.,0.,-2.5,25.,0.,-2.5,28.,       99P    135
5.,-2.5,25.,5.,-2.5,28.,5.,-7.5,25.,5.,-7.5,28.,5.,-12.5,25.,5.,      99P    136
-12.5,28.,0.,-12.5,25.,0.,-12.5,28.,-5.,-12.5,25.,-5.,-12.5,28.,      99P    137
-5.,-7.5,25.,-5.,-7.5,0.,0.6,-3.14159265358979,3.14159265358979;      99P    138
128,1,1,1,1,0,0,1,0,0,-0.001,-0.001,0.301,0.301,-0.001,-0.001,       101P    139
0.751,0.751,1.,1.,1.,1.,24.99,7.5,0.01,28.01,7.5,0.01,24.99,7.5,     101P    140
-7.51,28.01,7.5,-7.51,-0.001,0.301,-0.001,0.751;                     101P    141
128,1,1,1,1,0,0,1,0,0,-0.001,-0.001,1.501,1.501,-0.001,-0.001,       103P    142
1.501,1.501,1.,1.,1.,1.,25.,-7.51,0.01,25.,7.51,0.01,25.,-7.51,      103P    143
-15.01,25.,7.51,-15.01,-0.001,1.501,-0.001,1.501;                    103P    144
128,1,1,1,1,0,0,1,0,0,-0.001,-0.001,0.301,0.301,-0.001,-0.001,       105P    145
0.751,0.751,1.,1.,1.,1.,28.01,-7.5,0.01,24.99,-7.5,0.01,28.01,       105P    146
-7.5,-7.51,24.99,-7.5,-7.51,-0.001,0.301,-0.001,0.751;               105P    147
128,1,1,1,1,0,0,1,0,0,-0.001,-0.001,1.501,1.501,-0.001,-0.001,       107P    148
1.501,1.501,1.,1.,1.,1.,28.,7.51,0.01,28.,-7.51,0.01,28.,7.51,       107P    149
-15.01,28.,-7.51,-15.01,-0.001,1.501,-0.001,1.501;                   107P    150
128,1,8,1,2,0,1,0,0,1,0.,0.,1.,1.,-3.14159265358979,                 109P    151
-3.14159265358979,-3.14159265358979,-1.5707963267949,                109P    152
-1.5707963267949,0.,0.,1.5707963267949,1.5707963267949,              109P    153
3.14159265358979,3.14159265358979,3.14159265358979,1.,1.,            109P    154
0.707106781186548,0.707106781186548,1.,1.,0.707106781186548,         109P    155
0.707106781186548,1.,1.,0.707106781186548,0.707106781186548,1.,      109P    156
1.,0.707106781186548,0.707106781186548,1.,1.,-5.,0.,0.,-5.,0.,       109P    157
5.,-5.,-5.,0.,-5.,-5.,5.,0.,-5.,0.,0.,-5.,5.,5.,-5.,0.,5.,-5.,       109P    158
5.,5.,0.,0.,5.,0.,5.,5.,5.,0.,5.,5.,5.,0.,5.,0.,0.,5.,5.,-5.,5.,     109P    159
0.,-5.,5.,5.,-5.,0.,0.,-5.,0.,5.,0.,1.,-3.14159265358979,            109P    160
3.14159265358979;                                                    109P    161
128,1,8,1,2,0,1,0,0,1,0.,0.,0.0833333333333333,                      111P    162
0.0833333333333333,-3.14159265358979,-3.14159265358979,              111P    163
-3.14159265358979,-1.5707963267949,-1.5707963267949,0.,0.,           111P    164
1.5707963267949,1.5707963267949,3.14159265358979,                    111P    165
3.14159265358979,3.14159265358979,1.,1.,0.707106781186548,           111P    166
0.707106781186548,1.,1.,0.707106781186548,0.707106781186548,1.,      111P    167
1.,0.707106781186548,0.707106781186548,1.,1.,0.707106781186548,      111P    168
0.707106781186548,1.,1.,-29.717,0.,5.,-29.717,0.,0.,-29.717,         111P    169
-29.717,5.,-29.717,-29.717,0.,0.,-29.717,5.,0.,-29.717,0.,           111P    170
29.717,-29.717,5.,29.717,-29.717,0.,29.717,0.,5.,29.717,0.,0.,       111P    171
29.717,29.717,5.,29.717,29.717,0.,0.,29.717,5.,0.,29.717,0.,         111P    172
-29.717,29.717,5.,-29.717,29.717,0.,-29.717,0.,5.,-29.717,0.,0.,     111P    173
0.,0.0833333333333333,-3.14159265358979,3.14159265358979;            111P    174
128,1,1,1,1,0,0,1,0,0,-2.9727,-2.9727,2.9727,2.9727,-2.9727,         113P    175
-2.9727,2.9727,2.9727,1.,1.,1.,1.,-29.727,-29.727,5.,29.727,         113P    176
-29.727,5.,-29.727,29.727,5.,29.727,29.727,5.,-2.9727,2.9727,        113P    177
-2.9727,2.9727;                                                      113P    178
128,1,1,1,1,0,0,1,0,0,-2.9727,-2.9727,2.9727,2.9727,-2.9727,         115P    179
-2.9727,2.9727,2.9727,1.,1.,1.,1.,29.727,-29.727,0.,-29.727,         115P    180
-29.727,0.,29.727,29.727,0.,-29.727,29.727,0.,-2.9727,2.9727,        115P    181
-2.9727,2.9727;                                                      115P    182
502,14,25.,7.5,-7.5,25.,-7.5,-7.5,28.,7.5,-7.5,28.,-7.5,-7.5,        117P    183
28.,-5.,-7.5,25.,-5.,-7.5,25.,7.5,0.,28.,7.5,0.,25.,-7.5,0.,28.,     117P    184
-7.5,0.,-5.,-6.12323399573677D-16,5.,-5.,-6.12323399573677D-16,      117P    185
0.,-29.717,3.63928289302619D-15,5.,-29.717,3.63928289302619D-15,     117P    186
0.;                                                                  117P    187
504,21,55,117,1,117,2,57,117,1,117,3,59,117,4,117,3,61,117,2,        119P    188
117,4,63,117,5,117,5,65,117,5,117,6,67,117,6,117,6,69,117,7,117,     119P    189
1,71,117,8,117,7,73,117,8,117,3,75,117,9,117,2,77,117,7,117,9,       119P    190
79,117,10,117,4,81,117,9,117,10,83,117,10,117,8,85,117,11,117,       119P    191
11,87,117,11,117,12,89,117,12,117,12,91,117,13,117,13,93,117,13,     119P    192
117,14,95,117,14,117,14;                                             119P    193
406,1,5HBody1;                                                       121P    194
314,62.7450980392157,62.7450980392157,62.7450980392157,13HSteel      123P    195
- Satin;                                                             123P    196
S      1G      3D    124P    196                                        T      1
