0
SECTION
2
HEADER
9
$INSUNITS
70
4
9
$ACADVER
1
AC1014
9
$HANDSEED
5
FFFF
0
ENDSEC
0
SECTION
2
TABLES
0
TABLE
2
VPORT
5
8
100
AcDbSymbolTable
0
ENDTAB
0
TABLE
2
LTYPE
5
5
100
AcDbSymbolTable
0
LTYPE
5
14
100
AcDbSymbolTableRecord
100
AcDbLinetypeTableRecord
2
BYBLOCK
70
0
0
LTYPE
5
15
100
AcDbSymbolTableRecord
100
AcDbLinetypeTableRecord
2
BYLAYER
70
0
0
ENDTAB
0
TABLE
2
LAYER
5
2
100
AcDbSymbolTable
70
2
0
LAYER
5
50
100
AcDbSymbolTableRecord
100
AcDbLayerTableRecord
2
0
70
0
6
CONTINUOUS
0
ENDTAB
0
TABLE
2
STYLE
5
3
100
AcDbSymbolTable
70
1
0
STYLE
5
11
100
AcDbSymbolTableRecord
100
AcDbTextStyleTableRecord
2
STANDARD
70
0
0
ENDTAB
0
TABLE
2
VIEW
5
6
100
AcDbSymbolTable
70
0
0
ENDTAB
0
TABLE
2
UCS
5
7
100
AcDbSymbolTable
70
0
0
ENDTAB
0
TABLE
2
APPID
5
9
100
AcDbSymbolTable
70
2
0
APPID
5
12
100
AcDbSymbolTableRecord
100
AcDbRegAppTableRecord
2
ACAD
70
0
0
ENDTAB
0
TABLE
2
DIMSTYLE
5
A
100
AcDbSymbolTable
70
1
0
ENDTAB
0
TABLE
2
BLOCK_RECORD
5
1
100
AcDbSymbolTable
70
1
0
BLOCK_RECORD
5
1F
100
AcDbSymbolTableRecord
100
AcDbBlockTableRecord
2
*MODEL_SPACE
0
BLOCK_RECORD
5
1B
100
AcDbSymbolTableRecord
100
AcDbBlockTableRecord
2
*PAPER_SPACE
0
ENDTAB
0
ENDSEC
0
SECTION
2
BLOCKS
0
BLOCK
5
20
100
AcDbEntity
100
AcDbBlockBegin
2
*MODEL_SPACE
0
ENDBLK
5
21
100
AcDbEntity
100
AcDbBlockEnd
0
BLOCK
5
1C
100
AcDbEntity
100
AcDbBlockBegin
2
*PAPER_SPACE
0
ENDBLK
5
1D
100
AcDbEntity
100
AcDbBlockEnd
0
ENDSEC
0
SECTION
2
ENTITIES
0
CIRCLE
5
100
100
AcDbEntity
8
0
100
AcDbCircle
10
0
20
0
30
0
40
38.100000000000001
210
0
220
0
230
1
0
CIRCLE
5
101
100
AcDbEntity
8
0
100
AcDbCircle
10
0
20
0
30
0
40
36.100000000000001
210
0
220
0
230
1
0
LINE
5
102
100
AcDbEntity
8
0
100
AcDbLine
10
23.387175973170443
20
-27.5
30
0
11
23.387175973170443
21
27.5
31
0
0
LINE
5
103
100
AcDbEntity
8
0
100
AcDbLine
10
25.387175973170443
20
-25.665176720749834
30
0
11
25.387175973170443
21
25.665176720749834
31
0
0
LWPOLYLINE
5
104
100
AcDbEntity
8
0
100
AcDbPolyline
90
4
70
1
43
0.0
10
27.387175973170446
20
12.5
10
25.387175973170443
20
12.5
10
25.387175973170443
20
-12.5
10
27.387175973170446
20
-12.5
0
LINE
5
105
100
AcDbEntity
8
0
100
AcDbLine
10
25.387175973170443
20
14.5
30
0
11
29.387175973170436
21
14.5
31
0
0
LINE
5
106
100
AcDbEntity
8
0
100
AcDbLine
10
29.387175973170436
20
14.5
30
0
11
29.387175973170436
21
9.5
31
0
0
LINE
5
107
100
AcDbEntity
8
0
100
AcDbLine
10
29.387175973170436
20
9.5
30
0
11
27.387175973170446
21
9.5
31
0
0
LINE
5
108
100
AcDbEntity
8
0
100
AcDbLine
10
25.387175973170443
20
-14.499999999999996
30
0
11
29.387175973170436
21
-14.5
31
0
0
LINE
5
109
100
AcDbEntity
8
0
100
AcDbLine
10
29.387175973170436
20
-14.5
30
0
11
29.387175973170436
21
-9.5
31
0
0
LINE
5
110
100
AcDbEntity
8
0
100
AcDbLine
10
29.387175973170436
20
-9.5
30
0
11
27.387175973170446
21
-9.5
31
0
0
LINE
5
111
100
AcDbEntity
8
0
100
AcDbLine
10
1.75
20
0
30
0
11
22.5
21
0
31
0
0
LWPOLYLINE
5
112
100
AcDbEntity
8
0
100
AcDbPolyline
90
4
70
1
43
0.0
10
20.887175973170443
20
26.750000000000004
10
23.387175973170443
20
26.750000000000004
10
23.387175973170443
20
-26.750000000000004
10
20.887175973170443
20
-26.750000000000004
0
LWPOLYLINE
5
113
100
AcDbEntity
8
0
100
AcDbPolyline
90
4
70
1
43
0.0
10
8.8871759731704358
20
18.080000000000002
10
20.887175973170443
20
18.080000000000002
10
20.887175973170443
20
5.0800000000000018
10
8.8871759731704323
20
5.0800000000000018
0
LWPOLYLINE
5
114
100
AcDbEntity
8
0
100
AcDbPolyline
90
4
70
1
43
0.0
10
8.8871759731704394
20
-12.499999999999998
10
20.887175973170443
20
-12.499999999999998
10
20.887175973170443
20
-22.5
10
8.8871759731704394
20
-22.5
0
LINE
5
115
100
AcDbEntity
8
0
100
AcDbLine
10
29.387175973170436
20
-9.5
30
0
11
29.387175973170436
21
9.5
31
0
0
LINE
5
116
100
AcDbEntity
8
0
100
AcDbLine
10
0
20
-38.100000000000001
30
0
11
0
21
38.100000000000001
31
0
0
LINE
5
117
100
AcDbEntity
8
0
100
AcDbLine
10
-38.100000000000001
20
2.3592239273284576e-15
30
0
11
38.100000000000001
21
-2.3592239273284576e-15
31
0
0
LINE
5
118
100
AcDbEntity
8
0
100
AcDbLine
10
26.940768363207461
20
-26.940768363207461
30
0
11
-26.940768363207454
21
26.940768363207454
31
0
0
LINE
5
119
100
AcDbEntity
8
0
100
AcDbLine
10
26.940768363207464
20
26.940768363207464
30
0
11
-26.940768363207464
21
-26.940768363207464
31
0
0
LINE
5
120
100
AcDbEntity
8
0
100
AcDbLine
10
0
20
36.099999999999994
30
0
11
0
21
38.100000000000001
31
0
0
LINE
5
121
100
AcDbEntity
8
0
100
AcDbLine
10
-25.526554800834358
20
25.526554800834358
30
0
11
-26.940768363207454
21
26.940768363207454
31
0
0
LINE
5
122
100
AcDbEntity
8
0
100
AcDbLine
10
-36.099999999999994
20
4.4458676240766488e-15
30
0
11
-38.100000000000001
21
2.3592239273284576e-15
31
0
0
LINE
5
123
100
AcDbEntity
8
0
100
AcDbLine
10
-26.940768363207464
20
-26.940768363207464
30
0
11
-25.526554800834358
21
-25.526554800834358
31
0
0
LINE
5
124
100
AcDbEntity
8
0
100
AcDbLine
10
0
20
-38.100000000000001
30
0
11
0
21
-36.099999999999994
31
0
0
LINE
5
125
100
AcDbEntity
8
0
100
AcDbLine
10
26.940768363207461
20
-26.940768363207461
30
0
11
25.526554800834358
21
-25.526554800834358
31
0
0
LINE
5
126
100
AcDbEntity
8
0
100
AcDbLine
10
38.100000000000001
20
-2.3592239273284576e-15
30
0
11
36.099999999999994
21
-4.4458676240766488e-15
31
0
0
LINE
5
127
100
AcDbEntity
8
0
100
AcDbLine
10
26.940768363207464
20
26.940768363207464
30
0
11
25.526554800834358
21
25.526554800834358
31
0
0
LINE
5
128
100
AcDbEntity
8
0
100
AcDbLine
10
18.887175973170443
20
30.764989578391461
30
0
11
18.887175973170443
21
20.080000000000005
31
0
0
LINE
5
129
100
AcDbEntity
8
0
100
AcDbLine
10
18.887175973170443
20
20.080000000000005
30
0
11
6.8871759731704358
21
20.080000000000005
31
0
0
LINE
5
130
100
AcDbEntity
8
0
100
AcDbLine
10
6.8871759731704358
20
20.080000000000005
30
0
11
6.8871759731704341
21
3.0800000000000027
31
0
0
LINE
5
131
100
AcDbEntity
8
0
100
AcDbLine
10
6.8871759731704341
20
3.0800000000000027
30
0
11
20.887175973170443
21
3.0800000000000023
31
0
0
LWPOLYLINE
5
132
100
AcDbEntity
8
0
100
AcDbPolyline
90
4
70
1
43
0.0
10
-35.770491097531462
20
5.0000000000000018
10
-37.770491127333784
20
5.0000000000000018
10
-37.770491127333784
20
-4.9999999999999982
10
-35.770491097531462
20
-4.9999999999999982
0
LWPOLYLINE
5
133
100
AcDbEntity
8
0
100
AcDbPolyline
90
4
70
1
43
0.0
10
-10.770491097531458
20
4.9999999999999938
10
-12.77049109753146
20
5.0000000000000018
10
-12.77049109753146
20
-4.9999999999999982
10
-10.770491097531458
20
-5.0000000000000071
0
LWPOLYLINE
5
134
100
AcDbEntity
8
0
100
AcDbPolyline
90
4
70
1
43
0.0
10
-19.270491097531462
20
24.000000000000007
10
-29.270491097531462
20
23.999999970197688
10
-29.270491097531462
20
22.000000000000007
10
-19.270491097531462
20
22.000000000000007
0
LWPOLYLINE
5
135
100
AcDbEntity
8
0
100
AcDbPolyline
90
4
70
1
43
0.0
10
-19.270491097531462
20
-22
10
-29.270491097531469
20
-22
10
-29.270491097531462
20
-24.000000000000004
10
-19.270491097531462
20
-24.000000000000004
0
LWPOLYLINE
5
136
100
AcDbEntity
8
0
100
AcDbPolyline
90
4
70
1
43
0.0
10
-17.770491097531465
20
16.500000000000007
10
-25.770491097531462
20
16.500000000000007
10
-25.770491097531462
20
0.50000000000000488
10
-17.770491097531465
20
0.50000000000000488
0
ENDSEC
0
SECTION
2
OBJECTS
0
DICTIONARY
5
C
100
AcDbDictionary
3
ACAD_GROUP
350
D
3
ACAD_MLINESTYLE
350
17
0
DICTIONARY
5
D
100
AcDbDictionary
0
DICTIONARY
5
1A
330
C
100
AcDbDictionary
0
DICTIONARY
5
17
100
AcDbDictionary
0
ENDSEC
0
EOF
