                                                                        S      1
,,17H9 Volt battery v3,17H9 Volt battery v3,7Hunknown,7Hunknown,32,38,7,G      1
99,15,,1.,2,2HMM,1,0.08,15H20210504.162626,0.01,10000.,7Hunknown,7HunknoG      2
wn,11,0,15H20200417.180929;                                             G      3
     186       1                                                00000000D      1
     186            -171       1       0                               0D      2
     514       2                                                00010000D      3
     514                       2       1                               0D      4
     510       4                                                00010000D      5
     510            -171       1       1                               0D      6
     510       5                                                00010000D      7
     510            -171       1       1                               0D      8
     510       6                                                00010000D      9
     510            -171       1       1                               0D     10
     510       7                                                00010000D     11
     510            -171       1       1                               0D     12
     510       8                                                00010000D     13
     510            -171       1       1                               0D     14
     510       9                                                00010000D     15
     510            -171       1       1                               0D     16
     510      10                                                00010000D     17
     510            -171       1       1                               0D     18
     510      11                                                00010000D     19
     510            -171       1       1                               0D     20
     510      12                                                00010000D     21
     510            -171       1       1                               0D     22
     510      13                                                00010000D     23
     510            -171       1       1                               0D     24
     510      14                                                00010000D     25
     510            -171       1       1                               0D     26
     510      15                                                00010000D     27
     510            -171       1       1                               0D     28
     510      16                                                00010000D     29
     510            -171       1       1                               0D     30
     510      17                                                00010000D     31
     510            -171       1       1                               0D     32
     510      18                                                00010000D     33
     510            -171       1       1                               0D     34
     508      19                                                00010000D     35
     508                       1       1                               0D     36
     508      20                                                00010000D     37
     508                       1       1                               0D     38
     508      21                                                00010000D     39
     508                       1       1                               0D     40
     508      22                                                00010000D     41
     508                       1       1                               0D     42
     508      23                                                00010000D     43
     508                       1       1                               0D     44
     508      24                                                00010000D     45
     508                       1       1                               0D     46
     508      25                                                00010000D     47
     508                       1       1                               0D     48
     508      26                                                00010000D     49
     508                       1       1                               0D     50
     508      27                                                00010000D     51
     508                       2       1                               0D     52
     508      29                                                00010000D     53
     508                       1       1                               0D     54
     508      30                                                00010000D     55
     508                       1       1                               0D     56
     508      31                                                00010000D     57
     508                       1       1                               0D     58
     508      32                                                00010000D     59
     508                       1       1                               0D     60
     508      33                                                00010000D     61
     508                       1       1                               0D     62
     508      34                                                00010000D     63
     508                       1       1                               0D     64
     508      35                                                00010000D     65
     508                       1       1                               0D     66
     508      36                                                00010000D     67
     508                       2       1                               0D     68
     126      38                                                00010000D     69
     126       0              10       0                               0D     70
     126      48                                                00010000D     71
     126       0               3       0                               0D     72
     126      51                                                00010000D     73
     126       0               9       0                               0D     74
     126      60                                                00010000D     75
     126       0               4       0                               0D     76
     126      64                                                00010000D     77
     126       0               2       0                               0D     78
     126      66                                                00010000D     79
     126       0               3       0                               0D     80
     126      69                                                00010000D     81
     126       0               2       0                               0D     82
     126      71                                                00010000D     83
     126       0               4       0                               0D     84
     126      75                                                00010000D     85
     126       0               3       0                               0D     86
     126      78                                                00010000D     87
     126       0               2       0                               0D     88
     126      80                                                00010000D     89
     126       0               4       0                               0D     90
     126      84                                                00010000D     91
     126       0               3       0                               0D     92
     126      87                                                00010000D     93
     126       0               2       0                               0D     94
     126      89                                                00010000D     95
     126       0               4       0                               0D     96
     126      93                                                00010000D     97
     126       0               3       0                               0D     98
     126      96                                                00010000D     99
     126       0               2       0                               0D    100
     126      98                                                00010000D    101
     126       0               4       0                               0D    102
     126     102                                                00010000D    103
     126       0               3       0                               0D    104
     126     105                                                00010000D    105
     126       0               2       0                               0D    106
     126     107                                                00010000D    107
     126       0               4       0                               0D    108
     126     111                                                00010000D    109
     126       0               3       0                               0D    110
     126     114                                                00010000D    111
     126       0               2       0                               0D    112
     126     116                                                00010000D    113
     126       0               2       0                               0D    114
     126     118                                                00010000D    115
     126       0               2       0                               0D    116
     126     120                                                00010000D    117
     126       0               2       0                               0D    118
     126     122                                                00010000D    119
     126       0               2       0                               0D    120
     126     124                                                00010000D    121
     126       0               2       0                               0D    122
     126     126                                                00010000D    123
     126       0               2       0                               0D    124
     126     128                                                00010000D    125
     126       0               2       0                               0D    126
     126     130                                                00010000D    127
     126       0               2       0                               0D    128
     126     132                                                00010000D    129
     126       0               2       0                               0D    130
     126     134                                                00010000D    131
     126       0               2       0                               0D    132
     126     136                                                00010000D    133
     126       0               2       0                               0D    134
     128     138                                                00010000D    135
     128       0    -171      15       0                               0D    136
     128     153                                                00010000D    137
     128       0    -171       4       0                               0D    138
     128     157                                                00010000D    139
     128       0    -171       7       0                               0D    140
     128     164                                                00010000D    141
     128       0    -171       7       0                               0D    142
     128     171                                                00010000D    143
     128       0    -171       6       0                               0D    144
     128     177                                                00010000D    145
     128       0    -171       7       0                               0D    146
     128     184                                                00010000D    147
     128       0    -171       6       0                               0D    148
     128     190                                                00010000D    149
     128       0    -171       5       0                               0D    150
     128     195                                                00010000D    151
     128       0    -171       6       0                               0D    152
     128     201                                                00010000D    153
     128       0    -171       4       0                               0D    154
     128     205                                                00010000D    155
     128       0    -171       4       0                               0D    156
     128     209                                                00010000D    157
     128       0    -171       4       0                               0D    158
     128     213                                                00010000D    159
     128       0    -171       3       0                               0D    160
     128     216                                                00010000D    161
     128       0    -171       4       0                               0D    162
     128     220                                                00010000D    163
     128       0    -171       4       0                               0D    164
     502     224                                                00010000D    165
     502                      10       1                               0D    166
     504     234                                                00010001D    167
     504                       9       1                               0D    168
     406     243                                                00000000D    169
     406                       1      15                               0D    170
     314     244                                                00000200D    171
     314                       2       0                               0D    172
186,3,1,0,0,1,169;                                                     1P      1
514,15,5,1,7,1,9,1,11,1,13,1,15,1,17,1,19,1,21,1,23,1,25,1,27,1,       3P      2
29,1,31,1,33,1;                                                        3P      3
510,135,1,1,35;                                                        5P      4
510,137,1,1,37;                                                        7P      5
510,139,1,1,39;                                                        9P      6
510,141,1,1,41;                                                       11P      7
510,143,1,1,43;                                                       13P      8
510,145,1,1,45;                                                       15P      9
510,147,1,1,47;                                                       17P     10
510,149,1,1,49;                                                       19P     11
510,151,1,1,51;                                                       21P     12
510,153,1,1,53;                                                       23P     13
510,155,1,1,55;                                                       25P     14
510,157,1,1,57;                                                       27P     15
510,159,1,1,59;                                                       29P     16
510,161,1,1,61;                                                       31P     17
510,163,3,1,63,65,67;                                                 33P     18
508,4,0,167,1,0,0,0,167,2,1,0,0,167,3,0,0,0,167,2,0,0;                35P     19
508,1,0,167,1,1,0;                                                    37P     20
508,4,0,167,4,0,0,0,167,5,1,0,0,167,6,0,0,0,167,7,0,0;                39P     21
508,4,0,167,8,0,0,0,167,7,1,0,0,167,9,0,0,0,167,10,0,0;               41P     22
508,4,0,167,11,0,0,0,167,10,1,0,0,167,12,0,0,0,167,13,0,0;            43P     23
508,4,0,167,14,0,0,0,167,13,1,0,0,167,15,0,0,0,167,16,0,0;            45P     24
508,4,0,167,17,0,0,0,167,16,1,0,0,167,18,0,0,0,167,19,0,0;            47P     25
508,4,0,167,20,0,0,0,167,19,1,0,0,167,21,0,0,0,167,5,0,0;             49P     26
508,6,0,167,21,1,0,0,167,18,1,0,0,167,15,1,0,0,167,12,1,0,0,167,      51P     27
9,1,0,0,167,6,1,0;                                                    51P     28
508,4,0,167,22,0,0,0,167,23,1,0,0,167,24,0,0,0,167,25,0,0;            53P     29
508,4,0,167,26,0,0,0,167,25,1,0,0,167,27,0,0,0,167,28,0,0;            55P     30
508,4,0,167,29,0,0,0,167,28,1,0,0,167,30,0,0,0,167,31,0,0;            57P     31
508,4,0,167,32,0,0,0,167,31,1,0,0,167,33,0,0,0,167,23,0,0;            59P     32
508,4,0,167,33,1,0,0,167,30,1,0,0,167,27,1,0,0,167,24,1,0;            61P     33
508,4,0,167,32,1,0,0,167,22,1,0,0,167,26,1,0,0,167,29,1,0;            63P     34
508,1,0,167,3,1,0;                                                    65P     35
508,6,0,167,4,1,0,0,167,8,1,0,0,167,11,1,0,0,167,14,1,0,0,167,        67P     36
17,1,0,0,167,20,1,0;                                                  67P     37
126,8,2,0,1,0,0,-3.14159265358979,-3.14159265358979,                  69P     38
-3.14159265358979,-1.5707963267949,-1.5707963267949,0.,0.,            69P     39
1.5707963267949,1.5707963267949,3.14159265358979,                     69P     40
3.14159265358979,3.14159265358979,1.,0.707106781186547,1.,            69P     41
0.707106781186549,1.,0.70710678118655,1.,0.707106781186548,1.,        69P     42
34.,-79.,9.99999999999999,34.,-79.,6.49999999999999,37.5,-79.,        69P     43
6.49999999999999,41.,-79.,6.49999999999999,41.,-79.,                  69P     44
9.99999999999999,41.,-79.,13.5,37.5,-79.,13.5,34.,-79.,13.5,34.,      69P     45
-79.,9.99999999999999,-3.14159265358979,3.14159265358979,0.,0.,       69P     46
0.;                                                                   69P     47
126,1,1,0,0,1,0,-0.857142857142856,-0.857142857142856,0.,0.,1.,       71P     48
1.,34.,-79.,9.99999999999999,34.,-76.,9.99999999999999,               71P     49
-0.857142857142856,0.,0.,0.,0.;                                       71P     50
126,8,2,0,1,0,0,-3.14159265358979,-3.14159265358979,                  73P     51
-3.14159265358979,-1.5707963267949,-1.5707963267949,0.,0.,            73P     52
1.5707963267949,1.5707963267949,3.14159265358979,                     73P     53
3.14159265358979,3.14159265358979,1.,0.707106781186547,1.,            73P     54
0.70710678118655,1.,0.707106781186549,1.,0.707106781186547,1.,        73P     55
34.,-76.,9.99999999999999,34.,-76.,13.5,37.5,-76.,13.5,41.,-76.,      73P     56
13.5,41.,-76.,9.99999999999999,41.,-76.,6.49999999999999,37.5,        73P     57
-76.,6.49999999999999,34.,-76.,6.49999999999999,34.,-76.,             73P     58
9.99999999999999,-3.14159265358979,3.14159265358979,0.,0.,0.;         73P     59
126,1,1,0,0,1,0,-0.562916512459885,-0.562916512459885,                75P     60
-0.158771324027147,-0.158771324027147,1.,1.,39.5207259421637,         75P     61
-76.,26.,41.5414518843274,-76.,22.5,-0.562916512459885,               75P     62
-0.158771324027147,0.,0.,0.;                                          75P     63
126,1,1,0,0,1,0,0.,0.,0.3,0.3,1.,1.,39.5207259421637,-76.,26.,        77P     64
39.5207259421637,-79.,26.,0.,0.3,0.,0.,0.;                            77P     65
126,1,1,0,0,1,0,0.,0.,0.404145188432738,0.404145188432738,1.,1.,      79P     66
41.5414518843274,-79.,22.5,39.5207259421637,-79.,26.,0.,              79P     67
0.404145188432738,0.,0.,0.;                                           79P     68
126,1,1,0,0,1,0,0.,0.,0.3,0.3,1.,1.,41.5414518843274,-76.,22.5,       81P     69
41.5414518843274,-79.,22.5,0.,0.3,0.,0.,0.;                           81P     70
126,1,1,0,0,1,0,-0.562916512459885,-0.562916512459885,                83P     71
-0.158771324027147,-0.158771324027147,1.,1.,41.5414518843274,         83P     72
-76.,22.5,39.5207259421637,-76.,19.,-0.562916512459885,               83P     73
-0.158771324027147,0.,0.,0.;                                          83P     74
126,1,1,0,0,1,0,0.,0.,0.404145188432738,0.404145188432738,1.,1.,      85P     75
39.5207259421637,-79.,19.,41.5414518843274,-79.,22.5,0.,              85P     76
0.404145188432738,0.,0.,0.;                                           85P     77
126,1,1,0,0,1,0,0.,0.,0.3,0.3,1.,1.,39.5207259421637,-76.,19.,        87P     78
39.5207259421637,-79.,19.,0.,0.3,0.,0.,0.;                            87P     79
126,1,1,0,0,1,0,-0.303108891324554,-0.303108891324554,                89P     80
0.101036297108184,0.101036297108184,1.,1.,39.5207259421637,-76.,      89P     81
19.,35.4792740578363,-76.,19.,-0.303108891324554,                     89P     82
0.101036297108184,0.,0.,0.;                                           89P     83
126,1,1,0,0,1,0,0.,0.,0.404145188432738,0.404145188432738,1.,1.,      91P     84
35.4792740578363,-79.,19.,39.5207259421637,-79.,19.,0.,               91P     85
0.404145188432738,0.,0.,0.;                                           91P     86
126,1,1,0,0,1,0,0.,0.,0.3,0.3,1.,1.,35.4792740578363,-76.,19.,        93P     87
35.4792740578363,-79.,19.,0.,0.3,0.,0.,0.;                            93P     88
126,1,1,0,0,1,0,-0.0433012701892218,-0.0433012701892218,              95P     89
0.360843918243516,0.360843918243516,1.,1.,35.4792740578363,-76.,      95P     90
19.,33.4585481156726,-76.,22.5,-0.0433012701892218,                   95P     91
0.360843918243516,0.,0.,0.;                                           95P     92
126,1,1,0,0,1,0,0.,0.,0.404145188432738,0.404145188432738,1.,1.,      97P     93
33.4585481156726,-79.,22.5,35.4792740578363,-79.,19.,0.,              97P     94
0.404145188432738,0.,0.,0.;                                           97P     95
126,1,1,0,0,1,0,0.,0.,0.3,0.3,1.,1.,33.4585481156726,-76.,22.5,       99P     96
33.4585481156726,-79.,22.5,0.,0.3,0.,0.,0.;                           99P     97
126,1,1,0,0,1,0,-0.0433012701892212,-0.0433012701892212,             101P     98
0.360843918243517,0.360843918243517,1.,1.,33.4585481156726,-76.,     101P     99
22.5,35.4792740578363,-76.,26.,-0.0433012701892212,                  101P    100
0.360843918243517,0.,0.,0.;                                          101P    101
126,1,1,0,0,1,0,0.,0.,0.404145188432738,0.404145188432738,1.,1.,     103P    102
35.4792740578363,-79.,26.,33.4585481156726,-79.,22.5,0.,             103P    103
0.404145188432738,0.,0.,0.;                                          103P    104
126,1,1,0,0,1,0,0.,0.,0.3,0.3,1.,1.,35.4792740578363,-76.,26.,       105P    105
35.4792740578363,-79.,26.,0.,0.3,0.,0.,0.;                           105P    106
126,1,1,0,0,1,0,-0.303108891324554,-0.303108891324554,               107P    107
0.101036297108185,0.101036297108185,1.,1.,35.4792740578363,-76.,     107P    108
26.,39.5207259421637,-76.,26.,-0.303108891324554,                    107P    109
0.101036297108185,0.,0.,0.;                                          107P    110
126,1,1,0,0,1,0,0.,0.,0.404145188432739,0.404145188432739,1.,1.,     109P    111
39.5207259421637,-79.,26.,35.4792740578363,-79.,26.,0.,              109P    112
0.404145188432739,0.,0.,0.;                                          109P    113
126,1,1,0,0,1,0,0.,0.,2.5,2.5,1.,1.,30.,-76.,29.,30.,-76.,           111P    114
3.99999999999999,0.,2.5,0.,0.,0.;                                    111P    115
126,1,1,0,0,1,0,0.,0.,4.8,4.8,1.,1.,30.,-76.,29.,30.,-28.,29.,       113P    116
0.,4.8,0.,0.,0.;                                                     113P    117
126,1,1,0,0,1,0,-2.5,-2.5,0.,0.,1.,1.,30.,-28.,3.99999999999999,     115P    118
30.,-28.,29.,-2.5,0.,0.,0.,0.;                                       115P    119
126,1,1,0,0,1,0,0.,0.,4.8,4.8,1.,1.,30.,-76.,3.99999999999999,       117P    120
30.,-28.,3.99999999999999,0.,4.8,0.,0.,0.;                           117P    121
126,1,1,0,0,1,0,0.,0.,1.5,1.5,1.,1.,30.,-76.,3.99999999999999,       119P    122
45.,-76.,3.99999999999999,0.,1.5,0.,0.,0.;                           119P    123
126,1,1,0,0,1,0,-1.5,-1.5,0.,0.,1.,1.,45.,-28.,3.99999999999999,     121P    124
30.,-28.,3.99999999999999,-1.5,0.,0.,0.,0.;                          121P    125
126,1,1,0,0,1,0,0.,0.,4.8,4.8,1.,1.,45.,-76.,3.99999999999999,       123P    126
45.,-28.,3.99999999999999,0.,4.8,0.,0.,0.;                           123P    127
126,1,1,0,0,1,0,0.,0.,2.5,2.5,1.,1.,45.,-76.,3.99999999999999,       125P    128
45.,-76.,29.,0.,2.5,0.,0.,0.;                                        125P    129
126,1,1,0,0,1,0,-2.5,-2.5,0.,0.,1.,1.,45.,-28.,29.,45.,-28.,         127P    130
3.99999999999999,-2.5,0.,0.,0.,0.;                                   127P    131
126,1,1,0,0,1,0,0.,0.,4.8,4.8,1.,1.,45.,-76.,29.,45.,-28.,29.,       129P    132
0.,4.8,0.,0.,0.;                                                     129P    133
126,1,1,0,0,1,0,0.,0.,1.5,1.5,1.,1.,45.,-76.,29.,30.,-76.,29.,       131P    134
0.,1.5,0.,0.,0.;                                                     131P    135
126,1,1,0,0,1,0,-1.5,-1.5,0.,0.,1.,1.,30.,-28.,29.,45.,-28.,29.,     133P    136
-1.5,0.,0.,0.,0.;                                                    133P    137
128,1,8,1,2,0,1,0,0,1,0.,0.,0.857142857142856,0.857142857142856,     135P    138
-3.14159265358979,-3.14159265358979,-3.14159265358979,               135P    139
-1.5707963267949,-1.5707963267949,0.,0.,1.5707963267949,             135P    140
1.5707963267949,3.14159265358979,3.14159265358979,                   135P    141
3.14159265358979,1.,1.,0.707106781186548,0.707106781186548,1.,       135P    142
1.,0.707106781186548,0.707106781186548,1.,1.,0.707106781186548,      135P    143
0.707106781186548,1.,1.,0.707106781186548,0.707106781186548,1.,      135P    144
1.,34.,-79.,9.99999999999999,34.,-76.,9.99999999999999,34.,-79.,     135P    145
6.49999999999999,34.,-76.,6.49999999999999,37.5,-79.,                135P    146
6.49999999999999,37.5,-76.,6.49999999999999,41.,-79.,                135P    147
6.49999999999999,41.,-76.,6.49999999999999,41.,-79.,                 135P    148
9.99999999999999,41.,-76.,9.99999999999999,41.,-79.,13.5,41.,        135P    149
-76.,13.5,37.5,-79.,13.5,37.5,-76.,13.5,34.,-79.,13.5,34.,-76.,      135P    150
13.5,34.,-79.,9.99999999999999,34.,-76.,9.99999999999999,0.,         135P    151
0.857142857142856,-3.14159265358979,3.14159265358979;                135P    152
128,1,1,1,1,0,0,1,0,0,-0.351,-0.351,0.351,0.351,-0.351,-0.351,       137P    153
0.351,0.351,1.,1.,1.,1.,33.99,-79.,6.48999999999999,41.01,-79.,      137P    154
6.48999999999999,33.99,-79.,13.51,41.01,-79.,13.51,-0.351,0.351,     137P    155
-0.351,0.351;                                                        137P    156
128,1,1,1,1,0,0,1,0,0,-0.001,-0.001,0.405145188432739,               139P    157
0.405145188432739,-0.001,-0.001,0.301000000000001,                   139P    158
0.301000000000001,1.,1.,1.,1.,41.5464518843274,-75.99,               139P    159
22.4913397459621,39.5157259421637,-75.99,26.0086602540378,           139P    160
41.5464518843274,-79.01,22.4913397459621,39.5157259421637,           139P    161
-79.01,26.0086602540378,-0.001,0.405145188432739,-0.001,             139P    162
0.301000000000001;                                                   139P    163
128,1,1,1,1,0,0,1,0,0,-0.001,-0.001,0.405145188432739,               141P    164
0.405145188432739,-0.001,-0.001,0.301000000000001,                   141P    165
0.301000000000001,1.,1.,1.,1.,39.5157259421637,-75.99,               141P    166
18.9913397459621,41.5464518843274,-75.99,22.5086602540378,           141P    167
39.5157259421637,-79.01,18.9913397459621,41.5464518843274,           141P    168
-79.01,22.5086602540378,-0.001,0.405145188432739,-0.001,             141P    169
0.301000000000001;                                                   141P    170
128,1,1,1,1,0,0,1,0,0,-0.001,-0.001,0.405145188432738,               143P    171
0.405145188432738,-0.001,-0.001,0.301000000000001,                   143P    172
0.301000000000001,1.,1.,1.,1.,35.4692740578363,-75.99,19.,           143P    173
39.5307259421637,-75.99,19.,35.4692740578363,-79.01,19.,             143P    174
39.5307259421637,-79.01,19.,-0.001,0.405145188432738,-0.001,         143P    175
0.301000000000001;                                                   143P    176
128,1,1,1,1,0,0,1,0,0,-0.001,-0.001,0.405145188432738,               145P    177
0.405145188432738,-0.001,-0.001,0.301000000000001,                   145P    178
0.301000000000001,1.,1.,1.,1.,33.4535481156726,-75.99,               145P    179
22.5086602540378,35.4842740578363,-75.99,18.9913397459621,           145P    180
33.4535481156726,-79.01,22.5086602540378,35.4842740578363,           145P    181
-79.01,18.9913397459621,-0.001,0.405145188432738,-0.001,             145P    182
0.301000000000001;                                                   145P    183
128,1,1,1,1,0,0,1,0,0,-0.001,-0.001,0.405145188432738,               147P    184
0.405145188432738,-0.001,-0.001,0.301,0.301,1.,1.,1.,1.,             147P    185
35.4842740578363,-75.99,26.0086602540378,33.4535481156726,           147P    186
-75.99,22.4913397459621,35.4842740578363,-79.01,                     147P    187
26.0086602540378,33.4535481156726,-79.01,22.4913397459621,           147P    188
-0.001,0.405145188432738,-0.001,0.301;                               147P    189
128,1,1,1,1,0,0,1,0,0,-0.00100000000000044,-0.00100000000000044,     149P    190
0.405145188432738,0.405145188432738,-0.001,-0.001,0.301,0.301,       149P    191
1.,1.,1.,1.,39.5307259421637,-75.99,26.,35.4692740578363,-75.99,     149P    192
26.,39.5307259421637,-79.01,26.,35.4692740578363,-79.01,26.,         149P    193
-0.00100000000000044,0.405145188432738,-0.001,0.301;                 149P    194
128,1,1,1,1,0,0,1,0,0,-0.351,-0.351,0.351,0.351,                     151P    195
-0.405145188432738,-0.405145188432738,0.405145188432738,             151P    196
0.405145188432738,1.,1.,1.,1.,33.4485481156726,-79.,26.01,           151P    197
33.4485481156726,-79.,18.99,41.5514518843274,-79.,26.01,             151P    198
41.5514518843274,-79.,18.99,-0.351,0.351,-0.405145188432738,         151P    199
0.405145188432738;                                                   151P    200
128,1,1,1,1,0,0,1,0,0,-0.00100000000000011,-0.00100000000000011,     153P    201
2.501,2.501,-0.001,-0.001,4.801,4.801,1.,1.,1.,1.,30.,-76.01,        153P    202
3.98999999999999,30.,-76.01,29.01,30.,-27.99,3.98999999999999,       153P    203
30.,-27.99,29.01,-0.00100000000000011,2.501,-0.001,4.801;            153P    204
128,1,1,1,1,0,0,1,0,0,-0.001,-0.001,1.501,1.501,-0.001,-0.001,       155P    205
4.801,4.801,1.,1.,1.,1.,45.01,-76.01,3.99999999999999,29.99,         155P    206
-76.01,3.99999999999999,45.01,-27.99,3.99999999999999,29.99,         155P    207
-27.99,3.99999999999999,-0.001,1.501,-0.001,4.801;                   155P    208
128,1,1,1,1,0,0,1,0,0,-0.001,-0.001,2.501,2.501,-0.001,-0.001,       157P    209
4.801,4.801,1.,1.,1.,1.,45.,-76.01,29.01,45.,-76.01,                 157P    210
3.98999999999999,45.,-27.99,29.01,45.,-27.99,3.98999999999999,       157P    211
-0.001,2.501,-0.001,4.801;                                           157P    212
128,1,1,1,1,0,0,1,0,0,-0.001,-0.001,1.501,1.501,-0.001,-0.001,       159P    213
4.801,4.801,1.,1.,1.,1.,29.99,-76.01,29.,45.01,-76.01,29.,29.99,     159P    214
-27.99,29.,45.01,-27.99,29.,-0.001,1.501,-0.001,4.801;               159P    215
128,1,1,1,1,0,0,1,0,0,-1.251,-1.251,1.251,1.251,-0.751,-0.751,       161P    216
0.751,0.751,1.,1.,1.,1.,29.99,-28.,3.98999999999999,29.99,-28.,      161P    217
29.01,45.01,-28.,3.98999999999999,45.01,-28.,29.01,-1.251,1.251,     161P    218
-0.751,0.751;                                                        161P    219
128,1,1,1,1,0,0,1,0,0,-0.751,-0.751,0.751,0.751,-1.251,-1.251,       163P    220
1.251,1.251,1.,1.,1.,1.,45.01,-76.,29.01,29.99,-76.,29.01,45.01,     163P    221
-76.,3.98999999999999,29.99,-76.,3.98999999999999,-0.751,0.751,      163P    222
-1.251,1.251;                                                        163P    223
502,22,34.,-79.,9.99999999999999,34.,-76.,9.99999999999999,          165P    224
39.5207259421637,-76.,26.,41.5414518843274,-76.,22.5,                165P    225
39.5207259421637,-79.,26.,41.5414518843274,-79.,22.5,                165P    226
39.5207259421637,-76.,19.,39.5207259421637,-79.,19.,                 165P    227
35.4792740578363,-76.,19.,35.4792740578363,-79.,19.,                 165P    228
33.4585481156726,-76.,22.5,33.4585481156726,-79.,22.5,               165P    229
35.4792740578363,-76.,26.,35.4792740578363,-79.,26.,30.,-76.,        165P    230
29.,30.,-76.,3.99999999999999,30.,-28.,29.,30.,-28.,                 165P    231
3.99999999999999,45.,-76.,3.99999999999999,45.,-28.,                 165P    232
3.99999999999999,45.,-76.,29.,45.,-28.,29.;                          165P    233
504,33,69,165,1,165,1,71,165,1,165,2,73,165,2,165,2,75,165,3,        167P    234
165,4,77,165,3,165,5,79,165,6,165,5,81,165,4,165,6,83,165,4,165,     167P    235
7,85,165,8,165,6,87,165,7,165,8,89,165,7,165,9,91,165,10,165,8,      167P    236
93,165,9,165,10,95,165,9,165,11,97,165,12,165,10,99,165,11,165,      167P    237
12,101,165,11,165,13,103,165,14,165,12,105,165,13,165,14,107,        167P    238
165,13,165,3,109,165,5,165,14,111,165,15,165,16,113,165,15,165,      167P    239
17,115,165,18,165,17,117,165,16,165,18,119,165,16,165,19,121,        167P    240
165,20,165,18,123,165,19,165,20,125,165,19,165,21,127,165,22,        167P    241
165,20,129,165,21,165,22,131,165,21,165,15,133,165,17,165,22;        167P    242
406,1,5HBody1;                                                       169P    243
314,62.7450980392157,62.7450980392157,62.7450980392157,13HSteel      171P    244
- Satin;                                                             171P    245
S      1G      3D    172P    245                                        T      1
