                                                                        S      1
,,24HDHECPVCdowelconnector v6,24HDHECPVCdowelconnector v6,7Hunknown,7HunG      1
known,32,38,7,99,15,,1.,2,2HMM,1,0.08,15H20210504.162922,0.01,10000.,7HuG      2
nknown,7Hunknown,11,0,15H20210330.043645;                               G      3
     186       1                                                00000000D      1
     186            -171       1       0                               0D      2
     514       2                                                00010000D      3
     514                       2       1                               0D      4
     510       4                                                00010000D      5
     510            -171       1       1                               0D      6
     510       5                                                00010000D      7
     510            -171       1       1                               0D      8
     510       6                                                00010000D      9
     510            -171       1       1                               0D     10
     510       7                                                00010000D     11
     510            -171       1       1                               0D     12
     510       8                                                00010000D     13
     510            -171       1       1                               0D     14
     510       9                                                00010000D     15
     510            -171       1       1                               0D     16
     510      10                                                00010000D     17
     510            -171       1       1                               0D     18
     510      11                                                00010000D     19
     510            -171       1       1                               0D     20
     510      12                                                00010000D     21
     510            -171       1       1                               0D     22
     510      13                                                00010000D     23
     510            -171       1       1                               0D     24
     510      14                                                00010000D     25
     510            -171       1       1                               0D     26
     510      15                                                00010000D     27
     510            -171       1       1                               0D     28
     510      16                                                00010000D     29
     510            -171       1       1                               0D     30
     508      17                                                00010000D     31
     508                       1       1                               0D     32
     508      18                                                00010000D     33
     508                       1       1                               0D     34
     508      19                                                00010000D     35
     508                       1       1                               0D     36
     508      20                                                00010000D     37
     508                       1       1                               0D     38
     508      21                                                00010000D     39
     508                       1       1                               0D     40
     508      22                                                00010000D     41
     508                       2       1                               0D     42
     508      24                                                00010000D     43
     508                       1       1                               0D     44
     508      25                                                00010000D     45
     508                       1       1                               0D     46
     508      26                                                00010000D     47
     508                       1       1                               0D     48
     508      27                                                00010000D     49
     508                       1       1                               0D     50
     508      28                                                00010000D     51
     508                       1       1                               0D     52
     508      29                                                00010000D     53
     508                       1       1                               0D     54
     508      30                                                00010000D     55
     508                       1       1                               0D     56
     508      31                                                00010000D     57
     508                       1       1                               0D     58
     508      32                                                00010000D     59
     508                       1       1                               0D     60
     508      33                                                00010000D     61
     508                       2       1                               0D     62
     508      35                                                00010000D     63
     508                       1       1                               0D     64
     508      36                                                00010000D     65
     508                       2       1                               0D     66
     508      38                                                00010000D     67
     508                       1       1                               0D     68
     126      39                                                00010000D     69
     126       0               2       0                               0D     70
     126      41                                                00010000D     71
     126       0               2       0                               0D     72
     126      43                                                00010000D     73
     126       0               2       0                               0D     74
     126      45                                                00010000D     75
     126       0               5       0                               0D     76
     126      50                                                00010000D     77
     126       0               8       0                               0D     78
     126      58                                                00010000D     79
     126       0               2       0                               0D     80
     126      60                                                00010000D     81
     126       0               2       0                               0D     82
     126      62                                                00010000D     83
     126       0               2       0                               0D     84
     126      64                                                00010000D     85
     126       0               2       0                               0D     86
     126      66                                                00010000D     87
     126       0               6       0                               0D     88
     126      72                                                00010000D     89
     126       0               2       0                               0D     90
     126      74                                                00010000D     91
     126       0               9       0                               0D     92
     126      83                                                00010000D     93
     126       0               2       0                               0D     94
     126      85                                                00010000D     95
     126       0               3       0                               0D     96
     126      88                                                00010000D     97
     126       0              12       0                               0D     98
     126     100                                                00010000D     99
     126       0               3       0                               0D    100
     126     103                                                00010000D    101
     126       0               2       0                               0D    102
     126     105                                                00010000D    103
     126       0               9       0                               0D    104
     126     114                                                00010000D    105
     126       0               6       0                               0D    106
     126     120                                                00010000D    107
     126       0               3       0                               0D    108
     126     123                                                00010000D    109
     126       0               6       0                               0D    110
     126     129                                                00010000D    111
     126       0               9       0                               0D    112
     126     138                                                00010000D    113
     126       0               3       0                               0D    114
     126     141                                                00010000D    115
     126       0               2       0                               0D    116
     126     143                                                00010000D    117
     126       0               3       0                               0D    118
     126     146                                                00010000D    119
     126       0               2       0                               0D    120
     126     148                                                00010000D    121
     126       0               3       0                               0D    122
     126     151                                                00010000D    123
     126       0               6       0                               0D    124
     126     157                                                00010000D    125
     126       0               8       0                               0D    126
     126     165                                                00010000D    127
     126       0               3       0                               0D    128
     126     168                                                00010000D    129
     126       0               2       0                               0D    130
     126     170                                                00010000D    131
     126       0              12       0                               0D    132
     126     182                                                00010000D    133
     126       0              10       0                               0D    134
     126     192                                                00010000D    135
     126       0               8       0                               0D    136
     126     200                                                00010000D    137
     126       0               2       0                               0D    138
     128     202                                                00010000D    139
     128       0    -171       4       0                               0D    140
     128     206                                                00010000D    141
     128       0    -171       4       0                               0D    142
     128     210                                                00010000D    143
     128       0    -171       4       0                               0D    144
     128     214                                                00010000D    145
     128       0    -171       5       0                               0D    146
     128     219                                                00010000D    147
     128       0    -171       8       0                               0D    148
     128     227                                                00010000D    149
     128       0    -171      15       0                               0D    150
     128     242                                                00010000D    151
     128       0    -171       4       0                               0D    152
     128     246                                                00010000D    153
     128       0    -171       4       0                               0D    154
     128     250                                                00010000D    155
     128       0    -171      15       0                               0D    156
     128     265                                                00010000D    157
     128       0    -171       8       0                               0D    158
     128     273                                                00010000D    159
     128       0    -171       5       0                               0D    160
     128     278                                                00010000D    161
     128       0    -171      12       0                               0D    162
     128     290                                                00010000D    163
     128       0    -171      19       0                               0D    164
     502     309                                                00010000D    165
     502                       8       1                               0D    166
     504     317                                                00010001D    167
     504                      10       1                               0D    168
     406     327                                                00000000D    169
     406                       1      15                               0D    170
     314     328                                                00000200D    171
     314                       2       0                               0D    172
186,3,1,0,0,1,169;                                                     1P      1
514,13,5,1,7,1,9,1,11,1,13,1,15,1,17,1,19,1,21,1,23,1,25,1,27,1,       3P      2
29,1;                                                                  3P      3
510,139,2,1,31,33;                                                     5P      4
510,141,1,1,35;                                                        7P      5
510,143,2,1,37,39;                                                     9P      6
510,145,2,1,41,43;                                                    11P      7
510,147,1,1,45;                                                       13P      8
510,149,1,1,47;                                                       15P      9
510,151,2,1,49,51;                                                    17P     10
510,153,2,1,53,55;                                                    19P     11
510,155,1,1,57;                                                       21P     12
510,157,1,1,59;                                                       23P     13
510,159,2,1,61,63;                                                    25P     14
510,161,1,1,65;                                                       27P     15
510,163,1,1,67;                                                       29P     16
508,4,0,167,1,0,0,0,167,2,0,0,0,167,3,0,0,0,167,4,0,0;                31P     17
508,1,0,167,5,0,0;                                                    33P     18
508,4,0,167,6,0,0,0,167,7,0,0,0,167,8,0,0,0,167,2,1,0;                35P     19
508,4,0,167,9,0,0,0,167,10,0,0,0,167,11,0,0,0,167,7,1,0;              37P     20
508,1,0,167,12,0,0;                                                   39P     21
508,8,0,167,3,1,0,0,167,8,1,0,0,167,11,1,0,0,167,13,0,0,0,167,        41P     22
14,0,0,0,167,15,1,0,0,167,16,0,0,0,167,17,0,0;                        41P     23
508,2,0,167,18,1,0,0,167,19,1,0;                                      43P     24
508,4,0,167,10,1,0,0,167,20,0,0,0,167,21,0,0,0,167,13,1,0;            45P     25
508,4,0,167,22,0,0,0,167,23,1,0,0,167,12,1,0,0,167,23,0,0;            47P     26
508,4,0,167,24,0,0,0,167,14,1,0,0,167,21,1,0,0,167,25,1,0;            49P     27
508,1,0,167,22,1,0;                                                   51P     28
508,4,0,167,26,0,0,0,167,27,1,0,0,167,28,1,0,0,167,16,1,0;            53P     29
508,1,0,167,29,1,0;                                                   55P     30
508,4,0,167,5,1,0,0,167,30,1,0,0,167,29,0,0,0,167,30,0,0;             57P     31
508,4,0,167,4,1,0,0,167,17,1,0,0,167,28,0,0,0,167,31,0,0;             59P     32
508,8,0,167,1,1,0,0,167,31,1,0,0,167,27,0,0,0,167,32,0,0,0,167,       61P     33
25,0,0,0,167,20,1,0,0,167,9,1,0,0,167,6,1,0;                          61P     34
508,2,0,167,33,0,0,0,167,34,0,0;                                      63P     35
508,6,0,167,18,0,0,0,167,19,0,0,0,167,35,1,0,0,167,34,1,0,0,167,      65P     36
33,1,0,0,167,35,0,0;                                                  65P     37
508,4,0,167,24,1,0,0,167,32,1,0,0,167,26,1,0,0,167,15,0,0;            67P     38
126,1,1,0,0,1,0,1.75,1.75,2.25,2.25,1.,1.,5.,50.,0.,5.,55.,0.,        69P     39
1.75,2.25,0.,0.,0.;                                                   69P     40
126,1,1,0,0,1,0,0.,0.,1.6,1.6,1.,1.,5.,50.,16.,5.,50.,0.,0.,1.6,      71P     41
0.,0.,0.;                                                             71P     42
126,1,1,0,0,1,0,-2.25,-2.25,-1.75,-1.75,1.,1.,5.,55.,16.,5.,50.,      73P     43
16.,-2.25,-1.75,0.,0.,0.;                                             73P     44
126,4,2,0,0,0,0,-1.5707963267949,-1.5707963267949,                    75P     45
-1.5707963267949,0.,0.,1.5707963267949,1.5707963267949,               75P     46
1.5707963267949,1.,0.707106781186547,1.,0.707106781186547,1.,5.,      75P     47
55.,4.44089209850063D-15,5.,63.,4.6858214583301D-15,5.,63.,8.,        75P     48
5.,63.,16.,5.,55.,16.,-1.5707963267949,1.5707963267949,0.,0.,0.;      75P     49
126,8,2,0,1,0,0,-3.14159265358979,-3.14159265358979,                  77P     50
-3.14159265358979,-1.5707963267949,-1.5707963267949,0.,0.,            77P     51
1.5707963267949,1.5707963267949,3.14159265358979,                     77P     52
3.14159265358979,3.14159265358979,1.,0.707106781186546,1.,            77P     53
0.707106781186546,1.,0.707106781186547,1.,0.707106781186547,1.,       77P     54
5.,50.125,8.,5.,50.125,12.875,5.,55.,12.875,5.,59.875,12.875,5.,      77P     55
59.875,8.,5.,59.875,3.125,5.,55.,3.125,5.,50.125,3.125,5.,            77P     56
50.125,8.,-3.14159265358979,3.14159265358979,0.,0.,0.;                77P     57
126,1,1,0,0,1,0,-0.75,-0.75,0.25,0.25,1.,1.,-5.,50.,0.,5.,50.,        79P     58
0.,-0.75,0.25,0.,0.,0.;                                               79P     59
126,1,1,0,0,1,0,0.,0.,1.6,1.6,1.,1.,-5.,50.,16.,-5.,50.,0.,0.,        81P     60
1.6,0.,0.,0.;                                                         81P     61
126,1,1,0,0,1,0,-0.25,-0.25,0.75,0.75,1.,1.,5.,50.,16.,-5.,50.,       83P     62
16.,-0.25,0.75,0.,0.,0.;                                              83P     63
126,1,1,0,0,1,0,-3.,-3.,-2.5,-2.5,1.,1.,-5.,55.,0.,-5.,50.,0.,        85P     64
-3.,-2.5,0.,0.,0.;                                                    85P     65
126,4,2,0,0,0,0,-1.5707963267949,-1.5707963267949,                    87P     66
-1.5707963267949,0.,0.,1.5707963267949,1.5707963267949,               87P     67
1.5707963267949,1.,0.707106781186547,1.,0.707106781186547,1.,         87P     68
-5.,55.,16.,-5.,63.,16.,-5.,63.,8.,-5.,63.,4.6858214583301D-15,       87P     69
-5.,55.,4.44089209850063D-15,-1.5707963267949,1.5707963267949,        87P     70
0.,0.,0.;                                                             87P     71
126,1,1,0,0,1,0,2.5,2.5,3.,3.,1.,1.,-5.,50.,16.,-5.,55.,16.,2.5,      89P     72
3.,0.,0.,0.;                                                          89P     73
126,8,2,0,1,0,0,-3.14159265358979,-3.14159265358979,                  91P     74
-3.14159265358979,-1.5707963267949,-1.5707963267949,0.,0.,            91P     75
1.5707963267949,1.5707963267949,3.14159265358979,                     91P     76
3.14159265358979,3.14159265358979,1.,0.707106781186547,1.,            91P     77
0.707106781186547,1.,0.707106781186546,1.,0.707106781186546,1.,       91P     78
-5.,50.125,8.,-5.,50.125,3.125,-5.,55.,3.125,-5.,59.875,3.125,        91P     79
-5.,59.875,8.,-5.,59.875,12.875,-5.,55.,12.875,-5.,50.125,            91P     80
12.875,-5.,50.125,8.,-3.14159265358979,3.14159265358979,0.,0.,        91P     81
0.;                                                                   91P     82
126,1,1,0,0,1,0,-2.,-2.,-0.5,-0.5,1.,1.,-20.,55.,16.,-5.,55.,         93P     83
16.,-2.,-0.5,0.,0.,0.;                                                93P     84
126,1,1,0,0,1,0,-0.446765936372652,-0.446765936372652,0.8,0.8,        95P     85
1.,1.,-20.,42.5323406362735,16.,-20.,55.,16.,-0.446765936372652,      95P     86
0.8,0.,0.,0.;                                                         95P     87
126,8,2,0,0,0,0,-4.27283938793651,-4.27283938793651,                  97P     88
-4.27283938793651,-2.9218178573657,-2.9218178573657,                  97P     89
-1.5707963267949,-1.5707963267949,-0.219774796224088,                 97P     90
-0.219774796224088,1.13124673434672,1.13124673434672,                 97P     91
1.13124673434672,1.,0.780387673454127,1.,0.780387673454126,1.,        97P     92
0.780387673454126,1.,0.780387673454126,1.,-20.,42.5323406362735,      97P     93
16.,-54.0796031078581,26.5070748747209,16.,-45.8694888237533,         97P     94
-10.2464625626395,16.,-37.6593745396484,-47.,16.,                     97P     95
1.33140164094728D-14,-47.,16.,37.6593745396484,-47.,16.,              97P     96
45.8694888237533,-10.2464625626395,16.,54.0796031078581,              97P     97
26.507074874721,16.,20.,42.5323406362735,16.,-4.27283938793651,       97P     98
1.13124673434672,0.,0.,0.;                                            97P     99
126,1,1,0,0,1,0,-0.8,-0.8,0.446765936372652,0.446765936372652,        99P    100
1.,1.,20.,55.,16.,20.,42.5323406362735,16.,-0.8,                      99P    101
0.446765936372652,0.,0.,0.;                                           99P    102
126,1,1,0,0,1,0,0.5,0.5,2.,2.,1.,1.,5.,55.,16.,20.,55.,16.,0.5,      101P    103
2.,0.,0.,0.;                                                         101P    104
126,6,2,0,0,0,0,-4.34518095982685,-4.34518095982685,                 103P    105
-4.34518095982685,-2.89678730655124,-2.89678730655124,               103P    106
-1.44839365327562,-1.44839365327562,0.,0.,0.,1.,                     103P    107
0.749031793208195,1.,0.749031793208194,1.,0.749031793208195,1.,      103P    108
16.1554944214035,42.,16.,53.3053597836149,27.7101323186881,16.,      103P    109
43.6583034405059,-10.9065366041063,16.,34.0112470973969,             103P    110
-49.5232055269007,16.,-5.49437645130156,-44.6633163503493,16.,       103P    111
-45.,-39.803427173798,16.,-45.,0.,16.,-4.34518095982685,0.,0.,       103P    112
0.,0.;                                                               103P    113
126,4,2,0,0,0,0,0.,0.,0.,0.969002173676367,0.969002173676367,        105P    114
1.93800434735273,1.93800434735273,1.93800434735273,1.,               105P    115
0.884907436481418,1.,0.884907436481417,1.,-45.,0.,16.,-45.,          105P    116
23.6855413142399,16.,-25.4755054026102,37.0944554412324,16.,         105P    117
-5.95101080522038,50.503369568225,16.,16.1554944214035,42.,16.,      105P    118
0.,1.93800434735273,0.,0.,0.;                                        105P    119
126,1,1,0,0,1,0,-2.,-2.,-0.5,-0.5,1.,1.,-20.,55.,                    107P    120
2.01984528408274D-15,-5.,55.,2.01984528408274D-15,-2.,-0.5,0.,       107P    121
0.,0.;                                                               107P    122
126,4,2,0,0,0,0,-1.5707963267949,-1.5707963267949,                   109P    123
-1.5707963267949,0.,0.,1.5707963267949,1.5707963267949,              109P    124
1.5707963267949,1.,0.707106781186547,1.,0.707106781186547,1.,        109P    125
-20.,55.,16.,-20.,63.,16.,-20.,63.,8.,-20.,63.,                      109P    126
4.6858214583301D-15,-20.,55.,4.44089209850063D-15,                   109P    127
-1.5707963267949,1.5707963267949,0.,0.,0.;                           109P    128
126,8,2,0,1,0,0,-3.14159265358979,-3.14159265358979,                 111P    129
-3.14159265358979,-1.5707963267949,-1.5707963267949,0.,0.,           111P    130
1.5707963267949,1.5707963267949,3.14159265358979,                    111P    131
3.14159265358979,3.14159265358979,1.,0.707106781186547,1.,           111P    132
0.707106781186547,1.,0.707106781186546,1.,0.707106781186546,1.,      111P    133
-20.,50.125,8.,-20.,50.125,3.125,-20.,55.,3.125,-20.,59.875,         111P    134
3.125,-20.,59.875,8.,-20.,59.875,12.875,-20.,55.,12.875,-20.,        111P    135
50.125,12.875,-20.,50.125,8.,-3.14159265358979,3.14159265358979,     111P    136
0.,0.,0.;                                                            111P    137
126,1,1,0,0,1,0,-4.1025641025641,-4.1025641025641,                   113P    138
-1.02564102564103,-1.02564102564103,1.,1.,-20.,50.125,8.,-5.,        113P    139
50.125,8.,-4.1025641025641,-1.02564102564103,0.,0.,0.;               113P    140
126,1,1,0,0,1,0,-1.6,-1.6,0.,0.,1.,1.,-20.,42.5323406362735,16.,     115P    141
-20.,42.5323406362735,0.,-1.6,0.,0.,0.,0.;                           115P    142
126,1,1,0,0,1,0,-1.3,-1.3,-0.0532340636273476,                       117P    143
-0.0532340636273476,1.,1.,-20.,55.,0.,-20.,42.5323406362735,0.,      117P    144
-1.3,-0.0532340636273476,0.,0.,0.;                                   117P    145
126,1,1,0,0,1,0,0.,0.,1.6,1.6,1.,1.,20.,42.5323406362735,0.,20.,     119P    146
42.5323406362735,16.,0.,1.6,0.,0.,0.;                                119P    147
126,1,1,0,0,1,0,0.0532340636273476,0.0532340636273476,1.3,1.3,       121P    148
1.,1.,20.,42.5323406362735,0.,20.,55.,0.,0.0532340636273476,1.3,     121P    149
0.,0.,0.;                                                            121P    150
126,4,2,0,0,0,0,-1.5707963267949,-1.5707963267949,                   123P    151
-1.5707963267949,0.,0.,1.5707963267949,1.5707963267949,              123P    152
1.5707963267949,1.,0.707106781186547,1.,0.707106781186547,1.,        123P    153
20.,55.,4.44089209850063D-15,20.,63.,4.6858214583301D-15,20.,        123P    154
63.,8.,20.,63.,16.,20.,55.,16.,-1.5707963267949,1.5707963267949,     123P    155
0.,0.,0.;                                                            123P    156
126,8,2,0,1,0,0,-3.14159265358979,-3.14159265358979,                 125P    157
-3.14159265358979,-1.5707963267949,-1.5707963267949,0.,0.,           125P    158
1.5707963267949,1.5707963267949,3.14159265358979,                    125P    159
3.14159265358979,3.14159265358979,1.,0.707106781186546,1.,           125P    160
0.707106781186546,1.,0.707106781186547,1.,0.707106781186547,1.,      125P    161
20.,50.125,8.,20.,50.125,12.875,20.,55.,12.875,20.,59.875,           125P    162
12.875,20.,59.875,8.,20.,59.875,3.125,20.,55.,3.125,20.,50.125,      125P    163
3.125,20.,50.125,8.,-3.14159265358979,3.14159265358979,0.,0.,0.;     125P    164
126,1,1,0,0,1,0,1.02564102564103,1.02564102564103,                   127P    165
4.1025641025641,4.1025641025641,1.,1.,5.,50.125,8.,20.,50.125,       127P    166
8.,1.02564102564103,4.1025641025641,0.,0.,0.;                        127P    167
126,1,1,0,0,1,0,0.5,0.5,2.,2.,1.,1.,5.,55.,2.01984528408274D-15,     129P    168
20.,55.,2.01984528408274D-15,0.5,2.,0.,0.,0.;                        129P    169
126,8,2,0,0,0,0,-4.27283938793651,-4.27283938793651,                 131P    170
-4.27283938793651,-2.9218178573657,-2.9218178573657,                 131P    171
-1.5707963267949,-1.5707963267949,-0.219774796224088,                131P    172
-0.219774796224088,1.13124673434672,1.13124673434672,                131P    173
1.13124673434672,1.,0.780387673454127,1.,0.780387673454126,1.,       131P    174
0.780387673454126,1.,0.780387673454126,1.,-20.,42.5323406362735,     131P    175
0.,-54.0796031078581,26.5070748747209,0.,-45.8694888237533,          131P    176
-10.2464625626395,0.,-37.6593745396484,-47.,0.,                      131P    177
1.33140164094728D-14,-47.,0.,37.6593745396484,-47.,0.,               131P    178
45.8694888237533,-10.2464625626395,0.,54.0796031078581,              131P    179
26.507074874721,0.,20.,42.5323406362735,0.,-4.27283938793651,        131P    180
1.13124673434672,0.,0.,0.;                                           131P    181
126,6,2,0,0,0,0,-7.48677361341665,-7.48677361341665,                 133P    182
-7.48677361341665,-6.03837996014103,-6.03837996014103,               133P    183
-4.58998630686541,-4.58998630686541,-3.14159265358979,               133P    184
-3.14159265358979,-3.14159265358979,1.,0.749031793208196,1.,         133P    185
0.749031793208194,1.,0.749031793208196,1.,16.1554944214035,42.,      133P    186
0.,53.3053597836149,27.7101323186881,0.,43.6583034405059,            133P    187
-10.9065366041063,0.,34.0112470973969,-49.5232055269008,0.,          133P    188
-5.4943764513016,-44.6633163503493,0.,-45.,-39.8034271737979,0.,     133P    189
-45.,5.51091059616309D-15,0.,-7.48677361341665,                      133P    190
-3.14159265358979,0.,0.,0.;                                          133P    191
126,4,2,0,0,0,0,-3.14159265358979,-3.14159265358979,                 135P    192
-3.14159265358979,-2.17259047991343,-2.17259047991343,               135P    193
-1.20358830623706,-1.20358830623706,-1.20358830623706,1.,            135P    194
0.884907436481417,1.,0.884907436481418,1.,-45.,                      135P    195
5.51091059616309D-15,0.,-45.,23.6855413142399,0.,                    135P    196
-25.4755054026102,37.0944554412324,0.,-5.95101080522038,             135P    197
50.503369568225,0.,16.1554944214035,42.,0.,-3.14159265358979,        135P    198
-1.20358830623706,0.,0.,0.;                                          135P    199
126,1,1,0,0,1,0,-0.355555555555556,-0.355555555555556,0.,0.,1.,      137P    200
1.,-45.,0.,16.,-45.,0.,0.,-0.355555555555556,0.,0.,0.,0.;            137P    201
128,1,1,1,1,0,0,1,0,0,0.199,0.199,1.501,1.501,-0.001,-0.001,         139P    202
1.601,1.601,1.,1.,1.,1.,5.,49.99,16.01,5.,63.01,16.01,5.,49.99,      139P    203
-0.0099999999999989,5.,63.01,-0.0099999999999989,0.199,1.501,        139P    204
-0.001,1.601;                                                        139P    205
128,1,1,1,1,0,0,1,0,0,-0.001,-0.001,1.001,1.001,-0.001,-0.001,       141P    206
1.601,1.601,1.,1.,1.,1.,-5.01,50.,16.01,5.01,50.,16.01,-5.01,        141P    207
50.,-0.0099999999999989,5.01,50.,-0.0099999999999989,-0.001,         141P    208
1.001,-0.001,1.601;                                                  141P    209
128,1,1,1,1,0,0,1,0,0,-0.001,-0.001,1.301,1.301,-0.001,-0.001,       143P    210
1.601,1.601,1.,1.,1.,1.,-5.,63.01,16.01,-5.,49.99,16.01,-5.,         143P    211
63.01,-0.0099999999999989,-5.,49.99,-0.0099999999999989,-0.001,      143P    212
1.301,-0.001,1.601;                                                  143P    213
128,1,1,1,1,0,0,1,0,0,-5.40896031078581,-5.40896031078581,           145P    214
5.40896031078581,5.40896031078581,-4.701,-4.701,5.501,5.501,1.,      145P    215
1.,1.,1.,-54.0896031078581,-47.01,16.,54.0896031078581,-47.01,       145P    216
16.,-54.0896031078581,55.01,16.,54.0896031078581,55.01,16.,          145P    217
-5.40896031078581,5.40896031078581,-4.701,5.501;                     145P    218
128,1,4,1,2,0,0,0,0,0,0.625,0.625,2.5,2.5,-1.5707963267949,          147P    219
-1.5707963267949,-1.5707963267949,0.,0.,1.5707963267949,             147P    220
1.5707963267949,1.5707963267949,1.,1.,0.707106781186548,             147P    221
0.707106781186548,1.,1.,0.707106781186548,0.707106781186548,1.,      147P    222
1.,-20.,55.,16.,-5.,55.,16.,-20.,63.,16.,-5.,63.,16.,-20.,63.,       147P    223
8.,-5.,63.,8.,-20.,63.,6.66133814775094D-15,-5.,63.,                 147P    224
6.66133814775094D-15,-20.,55.,4.44089209850063D-15,-5.,55.,          147P    225
4.44089209850063D-15,0.625,2.5,-1.5707963267949,1.5707963267949;     147P    226
128,1,8,1,2,0,1,0,0,1,1.02564102564103,1.02564102564103,             149P    227
4.1025641025641,4.1025641025641,-3.14159265358979,                   149P    228
-3.14159265358979,-3.14159265358979,-1.5707963267949,                149P    229
-1.5707963267949,0.,0.,1.5707963267949,1.5707963267949,              149P    230
3.14159265358979,3.14159265358979,3.14159265358979,1.,1.,            149P    231
0.707106781186548,0.707106781186548,1.,1.,0.707106781186548,         149P    232
0.707106781186548,1.,1.,0.707106781186548,0.707106781186548,1.,      149P    233
1.,0.707106781186548,0.707106781186548,1.,1.,-5.,50.125,8.,-20.,     149P    234
50.125,8.,-5.,50.125,12.875,-20.,50.125,12.875,-5.,55.,12.875,       149P    235
-20.,55.,12.875,-5.,59.875,12.875,-20.,59.875,12.875,-5.,59.875,     149P    236
8.,-20.,59.875,8.,-5.,59.875,3.12500000000001,-20.,59.875,           149P    237
3.12500000000001,-5.,55.,3.125,-20.,55.,3.125,-5.,50.125,            149P    238
3.12500000000001,-20.,50.125,3.12500000000001,-5.,50.125,8.,         149P    239
-20.,50.125,8.,1.02564102564103,4.1025641025641,                     149P    240
-3.14159265358979,3.14159265358979;                                  149P    241
128,1,1,1,1,0,0,1,0,0,-0.997765936372652,-0.997765936372652,         151P    242
1.051,1.051,-0.801,-0.801,0.801,0.801,1.,1.,1.,1.,-20.,63.01,        151P    243
-0.01,-20.,42.5223406362735,-0.01,-20.,63.01,16.01,-20.,             151P    244
42.5223406362735,16.01,-0.997765936372652,1.051,-0.801,0.801;        151P    245
128,1,1,1,1,0,0,1,0,0,-0.997765936372652,-0.997765936372652,         153P    246
1.051,1.051,-0.801,-0.801,0.801,0.801,1.,1.,1.,1.,20.,               153P    247
42.5223406362735,-0.01,20.,63.01,-0.01,20.,42.5223406362735,         153P    248
16.01,20.,63.01,16.01,-0.997765936372652,1.051,-0.801,0.801;         153P    249
128,1,8,1,2,0,1,0,0,1,-4.1025641025641,-4.1025641025641,             155P    250
-1.02564102564103,-1.02564102564103,-3.14159265358979,               155P    251
-3.14159265358979,-3.14159265358979,-1.5707963267949,                155P    252
-1.5707963267949,0.,0.,1.5707963267949,1.5707963267949,              155P    253
3.14159265358979,3.14159265358979,3.14159265358979,1.,1.,            155P    254
0.707106781186548,0.707106781186548,1.,1.,0.707106781186548,         155P    255
0.707106781186548,1.,1.,0.707106781186548,0.707106781186548,1.,      155P    256
1.,0.707106781186548,0.707106781186548,1.,1.,20.,50.125,8.,5.,       155P    257
50.125,8.,20.,50.125,12.875,5.,50.125,12.875,20.,55.,12.875,5.,      155P    258
55.,12.875,20.,59.875,12.875,5.,59.875,12.875,20.,59.875,8.,5.,      155P    259
59.875,8.,20.,59.875,3.12500000000001,5.,59.875,                     155P    260
3.12500000000001,20.,55.,3.125,5.,55.,3.125,20.,50.125,              155P    261
3.12500000000001,5.,50.125,3.12500000000001,20.,50.125,8.,5.,        155P    262
50.125,8.,-4.1025641025641,-1.02564102564103,-3.14159265358979,      155P    263
3.14159265358979;                                                    155P    264
128,1,4,1,2,0,0,0,0,0,-2.5,-2.5,-0.625,-0.625,-1.5707963267949,      157P    265
-1.5707963267949,-1.5707963267949,0.,0.,1.5707963267949,             157P    266
1.5707963267949,1.5707963267949,1.,1.,0.707106781186548,             157P    267
0.707106781186548,1.,1.,0.707106781186548,0.707106781186548,1.,      157P    268
1.,5.,55.,16.,20.,55.,16.,5.,63.,16.,20.,63.,16.,5.,63.,8.,20.,      157P    269
63.,8.,5.,63.,6.66133814775094D-15,20.,63.,6.66133814775094D-15,     157P    270
5.,55.,4.44089209850063D-15,20.,55.,4.44089209850063D-15,-2.5,       157P    271
-0.625,-1.5707963267949,1.5707963267949;                             157P    272
128,1,1,1,1,0,0,1,0,0,-5.40896031078581,-5.40896031078581,           159P    273
5.40896031078581,5.40896031078581,-4.701,-4.701,5.501,5.501,1.,      159P    274
1.,1.,1.,54.0896031078581,-47.01,0.,-54.0896031078581,-47.01,0.,     159P    275
54.0896031078581,55.01,0.,-54.0896031078581,55.01,0.,                159P    276
-5.40896031078581,5.40896031078581,-4.701,5.501;                     159P    277
128,1,8,1,2,0,1,0,0,1,0.,0.,0.355555555555556,0.355555555555556,     161P    278
-3.14159265358979,-3.14159265358979,-3.14159265358979,               161P    279
-1.5707963267949,-1.5707963267949,0.,0.,1.5707963267949,             161P    280
1.5707963267949,3.14159265358979,3.14159265358979,                   161P    281
3.14159265358979,1.,1.,0.707106781186548,0.707106781186548,1.,       161P    282
1.,0.707106781186548,0.707106781186548,1.,1.,0.707106781186548,      161P    283
0.707106781186548,1.,1.,0.707106781186548,0.707106781186548,1.,      161P    284
1.,-45.,0.,0.,-45.,0.,16.,-45.,-45.,0.,-45.,-45.,16.,0.,-45.,0.,     161P    285
0.,-45.,16.,45.,-45.,0.,45.,-45.,16.,45.,0.,0.,45.,0.,16.,45.,       161P    286
45.,0.,45.,45.,16.,0.,45.,0.,0.,45.,16.,-45.,45.,0.,-45.,45.,        161P    287
16.,-45.,0.,0.,-45.,0.,16.,0.,0.355555555555556,                     161P    288
-3.14159265358979,3.14159265358979;                                  161P    289
128,1,8,1,2,0,0,0,0,0,0.,0.,0.340425531914894,0.340425531914894,     163P    290
2.01034591924307,2.01034591924307,2.01034591924307,                  163P    291
3.36136744981388,3.36136744981388,4.71238898038469,                  163P    292
4.71238898038469,6.0634105109555,6.0634105109555,                    163P    293
7.41443204152631,7.41443204152631,7.41443204152631,1.,1.,            163P    294
0.780387673454126,0.780387673454126,1.,1.,0.780387673454126,         163P    295
0.780387673454126,1.,1.,0.780387673454126,0.780387673454126,1.,      163P    296
1.,0.780387673454126,0.780387673454126,1.,1.,-20.,                   163P    297
42.5323406362735,16.,-20.,42.5323406362735,0.,-54.0796031078581,     163P    298
26.507074874721,16.,-54.0796031078581,26.507074874721,0.,            163P    299
-45.8694888237533,-10.2464625626395,16.,-45.8694888237533,           163P    300
-10.2464625626395,0.,-37.6593745396484,-47.,16.,                     163P    301
-37.6593745396484,-47.,0.,0.,-47.,16.,0.,-47.,0.,                    163P    302
37.6593745396484,-47.,16.,37.6593745396484,-47.,0.,                  163P    303
45.8694888237533,-10.2464625626395,16.,45.8694888237533,             163P    304
-10.2464625626395,0.,54.0796031078581,26.5070748747209,16.,          163P    305
54.0796031078581,26.5070748747209,0.,20.,42.5323406362735,16.,       163P    306
20.,42.5323406362735,0.,0.,0.340425531914894,2.01034591924307,       163P    307
7.41443204152631;                                                    163P    308
502,24,5.,50.,0.,5.,55.,2.01984528408274D-15,5.,50.,16.,5.,55.,      165P    309
16.,5.,50.125,8.,-5.,50.,0.,-5.,50.,16.,-5.,55.,                     165P    310
2.01984528408274D-15,-5.,55.,16.,-5.,50.125,8.,-20.,55.,16.,         165P    311
-20.,42.5323406362735,16.,20.,42.5323406362735,16.,20.,55.,16.,      165P    312
16.1554944214035,42.,16.,-45.,0.,16.,-20.,55.,                       165P    313
2.22044604925031D-15,-20.,50.125,8.,-20.,42.5323406362735,0.,        165P    314
20.,42.5323406362735,0.,20.,55.,2.22044604925031D-15,20.,50.125,     165P    315
8.,16.1554944214035,42.,0.,-45.,0.,0.;                               165P    316
504,35,69,165,1,165,2,71,165,3,165,1,73,165,4,165,3,75,165,2,        167P    317
165,4,77,165,5,165,5,79,165,6,165,1,81,165,7,165,6,83,165,3,165,     167P    318
7,85,165,8,165,6,87,165,9,165,8,89,165,7,165,9,91,165,10,165,10,     167P    319
93,165,11,165,9,95,165,12,165,11,97,165,12,165,13,99,165,14,165,     167P    320
13,101,165,4,165,14,103,165,15,165,16,105,165,16,165,15,107,165,     167P    321
17,165,8,109,165,11,165,17,111,165,18,165,18,113,165,18,165,10,      167P    322
115,165,12,165,19,117,165,17,165,19,119,165,20,165,13,121,165,       167P    323
20,165,21,123,165,21,165,14,125,165,22,165,22,127,165,5,165,22,      167P    324
129,165,2,165,21,131,165,19,165,20,133,165,23,165,24,135,165,24,     167P    325
165,23,137,165,16,165,24;                                            167P    326
406,1,5HBody1;                                                       169P    327
314,62.7450980392157,62.7450980392157,62.7450980392157,13HSteel      171P    328
- Satin;                                                             171P    329
S      1G      3D    172P    329                                        T      1
