                                                                        S      1
,,17HDHECsensorcase v4,17HDHECsensorcase v4,7Hunknown,7Hunknown,32,38,7,G      1
99,15,,1.,2,2HMM,1,0.08,15H20210504.162928,0.01,10000.,7Hunknown,7HunknoG      2
wn,11,0,15H20200827.124532;                                             G      3
     186       1                                                00000000D      1
     186            -279       1       0                               0D      2
     514       2                                                00010000D      3
     514                       2       1                               0D      4
     510       4                                                00010000D      5
     510            -279       1       1                               0D      6
     510       5                                                00010000D      7
     510            -279       1       1                               0D      8
     510       6                                                00010000D      9
     510            -279       1       1                               0D     10
     510       7                                                00010000D     11
     510            -279       1       1                               0D     12
     510       8                                                00010000D     13
     510            -279       1       1                               0D     14
     510       9                                                00010000D     15
     510            -279       1       1                               0D     16
     510      10                                                00010000D     17
     510            -279       1       1                               0D     18
     510      11                                                00010000D     19
     510            -279       1       1                               0D     20
     510      12                                                00010000D     21
     510            -279       1       1                               0D     22
     510      13                                                00010000D     23
     510            -279       1       1                               0D     24
     510      14                                                00010000D     25
     510            -279       1       1                               0D     26
     510      15                                                00010000D     27
     510            -279       1       1                               0D     28
     510      16                                                00010000D     29
     510            -279       1       1                               0D     30
     510      17                                                00010000D     31
     510            -279       1       1                               0D     32
     510      18                                                00010000D     33
     510            -279       1       1                               0D     34
     510      19                                                00010000D     35
     510            -279       1       1                               0D     36
     510      20                                                00010000D     37
     510            -279       1       1                               0D     38
     510      21                                                00010000D     39
     510            -279       1       1                               0D     40
     510      22                                                00010000D     41
     510            -279       1       1                               0D     42
     510      23                                                00010000D     43
     510            -279       1       1                               0D     44
     510      24                                                00010000D     45
     510            -279       1       1                               0D     46
     510      25                                                00010000D     47
     510            -279       1       1                               0D     48
     510      26                                                00010000D     49
     510            -279       1       1                               0D     50
     510      27                                                00010000D     51
     510            -279       1       1                               0D     52
     508      28                                                00010000D     53
     508                       1       1                               0D     54
     508      29                                                00010000D     55
     508                       1       1                               0D     56
     508      30                                                00010000D     57
     508                       1       1                               0D     58
     508      31                                                00010000D     59
     508                       1       1                               0D     60
     508      32                                                00010000D     61
     508                       1       1                               0D     62
     508      33                                                00010000D     63
     508                       1       1                               0D     64
     508      34                                                00010000D     65
     508                       1       1                               0D     66
     508      35                                                00010000D     67
     508                       1       1                               0D     68
     508      36                                                00010000D     69
     508                       1       1                               0D     70
     508      37                                                00010000D     71
     508                       1       1                               0D     72
     508      38                                                00010000D     73
     508                       1       1                               0D     74
     508      39                                                00010000D     75
     508                       1       1                               0D     76
     508      40                                                00010000D     77
     508                       1       1                               0D     78
     508      41                                                00010000D     79
     508                       3       1                               0D     80
     508      44                                                00010000D     81
     508                       1       1                               0D     82
     508      45                                                00010000D     83
     508                       2       1                               0D     84
     508      47                                                00010000D     85
     508                       1       1                               0D     86
     508      48                                                00010000D     87
     508                       4       1                               0D     88
     508      52                                                00010000D     89
     508                       2       1                               0D     90
     508      54                                                00010000D     91
     508                       1       1                               0D     92
     508      55                                                00010000D     93
     508                       1       1                               0D     94
     508      56                                                00010000D     95
     508                       1       1                               0D     96
     508      57                                                00010000D     97
     508                       1       1                               0D     98
     508      58                                                00010000D     99
     508                       2       1                               0D    100
     508      60                                                00010000D    101
     508                       1       1                               0D    102
     508      61                                                00010000D    103
     508                       1       1                               0D    104
     126      62                                                00010000D    105
     126       0               9       0                               0D    106
     126      71                                                00010000D    107
     126       0               2       0                               0D    108
     126      73                                                00010000D    109
     126       0               8       0                               0D    110
     126      81                                                00010000D    111
     126       0               9       0                               0D    112
     126      90                                                00010000D    113
     126       0               2       0                               0D    114
     126      92                                                00010000D    115
     126       0               8       0                               0D    116
     126     100                                                00010000D    117
     126       0               2       0                               0D    118
     126     102                                                00010000D    119
     126       0               2       0                               0D    120
     126     104                                                00010000D    121
     126       0               2       0                               0D    122
     126     106                                                00010000D    123
     126       0               2       0                               0D    124
     126     108                                                00010000D    125
     126       0               4       0                               0D    126
     126     112                                                00010000D    127
     126       0               2       0                               0D    128
     126     114                                                00010000D    129
     126       0               4       0                               0D    130
     126     118                                                00010000D    131
     126       0               3       0                               0D    132
     126     121                                                00010000D    133
     126       0               4       0                               0D    134
     126     125                                                00010000D    135
     126       0               3       0                               0D    136
     126     128                                                00010000D    137
     126       0               4       0                               0D    138
     126     132                                                00010000D    139
     126       0               3       0                               0D    140
     126     135                                                00010000D    141
     126       0               4       0                               0D    142
     126     139                                                00010000D    143
     126       0               2       0                               0D    144
     126     141                                                00010000D    145
     126       0               3       0                               0D    146
     126     144                                                00010000D    147
     126       0               2       0                               0D    148
     126     146                                                00010000D    149
     126       0               4       0                               0D    150
     126     150                                                00010000D    151
     126       0               4       0                               0D    152
     126     154                                                00010000D    153
     126       0               2       0                               0D    154
     126     156                                                00010000D    155
     126       0               2       0                               0D    156
     126     158                                                00010000D    157
     126       0               2       0                               0D    158
     126     160                                                00010000D    159
     126       0               2       0                               0D    160
     126     162                                                00010000D    161
     126       0               2       0                               0D    162
     126     164                                                00010000D    163
     126       0               3       0                               0D    164
     126     167                                                00010000D    165
     126       0               2       0                               0D    166
     126     169                                                00010000D    167
     126       0               2       0                               0D    168
     126     171                                                00010000D    169
     126       0               4       0                               0D    170
     126     175                                                00010000D    171
     126       0               4       0                               0D    172
     126     179                                                00010000D    173
     126       0               2       0                               0D    174
     126     181                                                00010000D    175
     126       0               2       0                               0D    176
     126     183                                                00010000D    177
     126       0               2       0                               0D    178
     126     185                                                00010000D    179
     126       0               3       0                               0D    180
     126     188                                                00010000D    181
     126       0               2       0                               0D    182
     126     190                                                00010000D    183
     126       0               2       0                               0D    184
     126     192                                                00010000D    185
     126       0               3       0                               0D    186
     126     195                                                00010000D    187
     126       0               2       0                               0D    188
     126     197                                                00010000D    189
     126       0               2       0                               0D    190
     126     199                                                00010000D    191
     126       0               3       0                               0D    192
     126     202                                                00010000D    193
     126       0               4       0                               0D    194
     126     206                                                00010000D    195
     126       0               2       0                               0D    196
     126     208                                                00010000D    197
     126       0               3       0                               0D    198
     126     211                                                00010000D    199
     126       0               4       0                               0D    200
     126     215                                                00010000D    201
     126       0               2       0                               0D    202
     126     217                                                00010000D    203
     126       0               2       0                               0D    204
     126     219                                                00010000D    205
     126       0               2       0                               0D    206
     126     221                                                00010000D    207
     126       0               2       0                               0D    208
     126     223                                                00010000D    209
     126       0               2       0                               0D    210
     126     225                                                00010000D    211
     126       0               3       0                               0D    212
     126     228                                                00010000D    213
     126       0               2       0                               0D    214
     126     230                                                00010000D    215
     126       0               2       0                               0D    216
     126     232                                                00010000D    217
     126       0               2       0                               0D    218
     126     234                                                00010000D    219
     126       0               2       0                               0D    220
     126     236                                                00010000D    221
     126       0               2       0                               0D    222
     126     238                                                00010000D    223
     126       0               2       0                               0D    224
     128     240                                                00010000D    225
     128       0    -279      13       0                               0D    226
     128     253                                                00010000D    227
     128       0    -279      13       0                               0D    228
     128     266                                                00010000D    229
     128       0    -279       3       0                               0D    230
     128     269                                                00010000D    231
     128       0    -279       4       0                               0D    232
     128     273                                                00010000D    233
     128       0    -279       5       0                               0D    234
     128     278                                                00010000D    235
     128       0    -279       6       0                               0D    236
     128     284                                                00010000D    237
     128       0    -279       4       0                               0D    238
     128     288                                                00010000D    239
     128       0    -279       5       0                               0D    240
     128     293                                                00010000D    241
     128       0    -279       4       0                               0D    242
     128     297                                                00010000D    243
     128       0    -279       5       0                               0D    244
     128     302                                                00010000D    245
     128       0    -279       5       0                               0D    246
     128     307                                                00010000D    247
     128       0    -279       3       0                               0D    248
     128     310                                                00010000D    249
     128       0    -279       4       0                               0D    250
     128     314                                                00010000D    251
     128       0    -279       4       0                               0D    252
     128     318                                                00010000D    253
     128       0    -279       4       0                               0D    254
     128     322                                                00010000D    255
     128       0    -279       3       0                               0D    256
     128     325                                                00010000D    257
     128       0    -279       4       0                               0D    258
     128     329                                                00010000D    259
     128       0    -279       5       0                               0D    260
     128     334                                                00010000D    261
     128       0    -279       4       0                               0D    262
     128     338                                                00010000D    263
     128       0    -279       3       0                               0D    264
     128     341                                                00010000D    265
     128       0    -279       3       0                               0D    266
     128     344                                                00010000D    267
     128       0    -279       4       0                               0D    268
     128     348                                                00010000D    269
     128       0    -279       3       0                               0D    270
     128     351                                                00010000D    271
     128       0    -279       4       0                               0D    272
     502     355                                                00010000D    273
     502                      15       1                               0D    274
     504     370                                                00010001D    275
     504                      17       1                               0D    276
     406     387                                                00000000D    277
     406                       1      15                               0D    278
     314     388                                                00000200D    279
     314                       2       0                               0D    280
186,3,1,0,0,1,277;                                                     1P      1
514,24,5,1,7,1,9,1,11,1,13,1,15,1,17,1,19,1,21,1,23,1,25,1,27,1,       3P      2
29,1,31,1,33,1,35,1,37,1,39,1,41,1,43,1,45,1,47,1,49,1,51,1;           3P      3
510,225,1,1,53;                                                        5P      4
510,227,1,1,55;                                                        7P      5
510,229,2,1,57,59;                                                     9P      6
510,231,2,1,61,63;                                                    11P      7
510,233,1,1,65;                                                       13P      8
510,235,1,1,67;                                                       15P      9
510,237,1,1,69;                                                       17P     10
510,239,1,1,71;                                                       19P     11
510,241,1,1,73;                                                       21P     12
510,243,1,1,75;                                                       23P     13
510,245,1,1,77;                                                       25P     14
510,247,1,1,79;                                                       27P     15
510,249,1,1,81;                                                       29P     16
510,251,1,1,83;                                                       31P     17
510,253,1,1,85;                                                       33P     18
510,255,1,1,87;                                                       35P     19
510,257,1,1,89;                                                       37P     20
510,259,1,1,91;                                                       39P     21
510,261,1,1,93;                                                       41P     22
510,263,1,1,95;                                                       43P     23
510,265,1,1,97;                                                       45P     24
510,267,1,1,99;                                                       47P     25
510,269,1,1,101;                                                      49P     26
510,271,1,1,103;                                                      51P     27
508,4,0,275,1,0,0,0,275,2,1,0,0,275,3,0,0,0,275,2,0,0;                53P     28
508,4,0,275,4,0,0,0,275,5,1,0,0,275,6,0,0,0,275,5,0,0;                55P     29
508,1,0,275,4,1,0;                                                    57P     30
508,1,0,275,1,1,0;                                                    59P     31
508,4,0,275,7,1,0,0,275,8,1,0,0,275,9,0,0,0,275,10,0,0;               61P     32
508,1,0,275,6,1,0;                                                    63P     33
508,4,0,275,11,1,0,0,275,12,0,0,0,275,13,0,0,0,275,14,0,0;            65P     34
508,4,0,275,15,0,0,0,275,16,0,0,0,275,17,0,0,0,275,18,1,0;            67P     35
508,4,0,275,19,1,0,0,275,20,0,0,0,275,21,0,0,0,275,22,1,0;            69P     36
508,4,0,275,23,1,0,0,275,22,0,0,0,275,24,0,0,0,275,25,1,0;            71P     37
508,4,0,275,26,1,0,0,275,25,0,0,0,275,27,0,0,0,275,28,1,0;            73P     38
508,4,0,275,29,1,0,0,275,30,0,0,0,275,31,0,0,0,275,32,1,0;            75P     39
508,4,0,275,33,1,0,0,275,32,0,0,0,275,34,0,0,0,275,12,1,0;            77P     40
508,12,0,275,35,0,0,0,275,36,0,0,0,275,37,1,0,0,275,19,0,0,0,         79P     41
275,23,0,0,0,275,26,0,0,0,275,38,1,0,0,275,39,0,0,0,275,40,0,0,       79P     42
0,275,29,0,0,0,275,33,0,0,0,275,11,0,0;                               79P     43
508,4,0,275,28,0,0,0,275,41,0,0,0,275,42,0,0,0,275,38,0,0;            81P     44
508,6,0,275,37,0,0,0,275,43,0,0,0,275,44,1,0,0,275,18,0,0,0,275,      83P     45
45,0,0,0,275,20,1,0;                                                  83P     46
508,4,0,275,30,1,0,0,275,40,1,0,0,275,46,0,0,0,275,47,0,0;            85P     47
508,16,0,275,41,1,0,0,275,27,1,0,0,275,24,1,0,0,275,21,1,0,0,         87P     48
275,45,1,0,0,275,17,1,0,0,275,48,1,0,0,275,13,1,0,0,275,34,1,0,       87P     49
0,275,31,1,0,0,275,47,1,0,0,275,49,0,0,0,275,50,0,0,0,275,51,1,       87P     50
0,0,275,52,1,0,0,275,53,0,0;                                          87P     51
508,6,0,275,54,0,0,0,275,55,0,0,0,275,35,1,0,0,275,14,1,0,0,275,      89P     52
48,0,0,0,275,16,1,0;                                                  89P     53
508,4,0,275,15,1,0,0,275,44,0,0,0,275,56,0,0,0,275,54,1,0;            91P     54
508,4,0,275,57,1,0,0,275,10,1,0,0,275,58,0,0,0,275,52,0,0;            93P     55
508,4,0,275,59,1,0,0,275,50,1,0,0,275,60,0,0,0,275,8,0,0;             95P     56
508,1,0,275,3,1,0;                                                    97P     57
508,8,0,275,42,1,0,0,275,53,1,0,0,275,58,1,0,0,275,9,1,0,0,275,       99P     58
60,1,0,0,275,49,1,0,0,275,46,1,0,0,275,39,1,0;                        99P     59
508,4,0,275,36,1,0,0,275,55,1,0,0,275,56,1,0,0,275,43,1,0;           101P     60
508,4,0,275,7,0,0,0,275,57,0,0,0,275,51,0,0,0,275,59,0,0;            103P     61
126,8,2,0,1,0,0,-3.14159265358979,-3.14159265358979,                 105P     62
-3.14159265358979,-1.5707963267949,-1.5707963267949,0.,0.,           105P     63
1.5707963267949,1.5707963267949,3.14159265358979,                    105P     64
3.14159265358979,3.14159265358979,1.,0.707106781186548,1.,           105P     65
0.707106781186547,1.,0.707106781186547,1.,0.707106781186548,1.,      105P     66
-15.,24.25,12.5,-15.,24.25,17.25,-15.,19.5,17.25,-15.,14.75,         105P     67
17.25,-15.,14.75,12.5,-15.,14.75,7.75,-15.,19.5,7.75,-15.,24.25,     105P     68
7.75,-15.,24.25,12.5,-3.14159265358979,3.14159265358979,0.,0.,       105P     69
0.;                                                                  105P     70
126,1,1,0,0,1,0,-3.15789473684211,-3.15789473684211,0.,0.,1.,1.,     107P     71
-15.,24.25,12.5,0.,24.25,12.5,-3.15789473684211,0.,0.,0.,0.;         107P     72
126,8,2,0,1,0,0,-3.14159265358979,-3.14159265358979,                 109P     73
-3.14159265358979,-1.5707963267949,-1.5707963267949,0.,0.,           109P     74
1.5707963267949,1.5707963267949,3.14159265358979,                    109P     75
3.14159265358979,3.14159265358979,1.,0.707106781186548,1.,           109P     76
0.707106781186547,1.,0.707106781186547,1.,0.707106781186548,1.,      109P     77
0.,24.25,12.5,0.,24.25,7.75,0.,19.5,7.75,0.,14.75,7.75,0.,14.75,     109P     78
12.5,0.,14.75,17.25,0.,19.5,17.25,0.,24.25,17.25,0.,24.25,12.5,      109P     79
-3.14159265358979,3.14159265358979,0.,0.,0.;                         109P     80
126,8,2,0,1,0,0,-3.14159265358979,-3.14159265358979,                 111P     81
-3.14159265358979,-1.5707963267949,-1.5707963267949,0.,0.,           111P     82
1.5707963267949,1.5707963267949,3.14159265358979,                    111P     83
3.14159265358979,3.14159265358979,1.,0.707106781186548,1.,           111P     84
0.707106781186547,1.,0.707106781186547,1.,0.707106781186547,1.,      111P     85
-15.,26.25,12.5,-15.,26.25,5.75,-15.,19.5,5.75,-15.,12.75,5.75,      111P     86
-15.,12.75,12.5,-15.,12.75,19.25,-15.,19.5,19.25,-15.,26.25,         111P     87
19.25,-15.,26.25,12.5,-3.14159265358979,3.14159265358979,0.,0.,      111P     88
0.;                                                                  111P     89
126,1,1,0,0,1,0,-2.22222222222222,-2.22222222222222,0.,0.,1.,1.,     113P     90
-15.,26.25,12.5,0.,26.25,12.5,-2.22222222222222,0.,0.,0.,0.;         113P     91
126,8,2,0,1,0,0,-3.14159265358979,-3.14159265358979,                 115P     92
-3.14159265358979,-1.5707963267949,-1.5707963267949,0.,0.,           115P     93
1.5707963267949,1.5707963267949,3.14159265358979,                    115P     94
3.14159265358979,3.14159265358979,1.,0.707106781186547,1.,           115P     95
0.707106781186547,1.,0.707106781186547,1.,0.707106781186548,1.,      115P     96
0.,26.25,12.5,0.,26.25,19.25,0.,19.5,19.25,0.,12.75,19.25,0.,        115P     97
12.75,12.5,0.,12.75,5.75,0.,19.5,5.75,0.,26.25,5.75,0.,26.25,        115P     98
12.5,-3.14159265358979,3.14159265358979,0.,0.,0.;                    115P     99
126,1,1,0,0,1,0,0.,0.,3.9,3.9,1.,1.,0.,39.,0.,0.,0.,0.,0.,3.9,       117P    100
0.,0.,0.;                                                            117P    101
126,1,1,0,0,1,0,0.,0.,2.5,2.5,1.,1.,0.,0.,0.,0.,0.,25.,0.,2.5,       119P    102
0.,0.,0.;                                                            119P    103
126,1,1,0,0,1,0,0.,0.,3.9,3.9,1.,1.,0.,39.,25.,0.,0.,25.,0.,3.9,     121P    104
0.,0.,0.;                                                            121P    105
126,1,1,0,0,1,0,0.,0.,2.5,2.5,1.,1.,0.,39.,0.,0.,39.,25.,0.,2.5,     123P    106
0.,0.,0.;                                                            123P    107
126,1,1,0,0,1,0,0.874999998509884,0.874999998509884,                 125P    108
0.975000001490116,0.975000001490116,1.,1.,2.,2.00000002980232,       125P    109
23.0000003427267,2.,1.,23.0000003427267,0.874999998509884,           125P    110
0.975000001490116,0.,0.,0.;                                          125P    111
126,1,1,0,0,1,0,0.,0.,4.8,4.8,1.,1.,50.,1.,23.0000003427267,2.,      127P    112
1.,23.0000003427267,0.,4.8,0.,0.,0.;                                 127P    113
126,1,1,0,0,1,0,-0.100000001490116,-0.100000001490116,               129P    114
1.49011611383365D-9,1.49011611383365D-9,1.,1.,50.,                   129P    115
2.00000002980232,23.0000003427267,50.,1.,23.0000003427267,           129P    116
-0.100000001490116,1.49011611383365D-9,0.,0.,0.;                     129P    117
126,1,1,0,0,1,0,-4.7,-4.7,0.100000000000001,0.100000000000001,       131P    118
1.,1.,2.,2.,23.0000003427267,50.,2.,23.0000003427267,-4.7,           131P    119
0.100000000000001,0.,0.,0.;                                          131P    120
126,1,1,0,0,1,0,-3.50000002458692,-3.50000002458692,                 133P    121
2.75671481198003D-8,2.75671481198003D-8,1.,1.,48.,                   133P    122
2.00000002980232,4.00000034272671,48.,37.000000551343,               133P    123
4.00000034272671,-3.50000002458692,2.75671481198003D-8,0.,0.,0.;     133P    124
126,1,1,0,0,1,0,0.,0.,0.2,0.2,1.,1.,50.,2.00000002980232,            135P    125
4.00000034272671,48.,2.00000002980232,4.00000034272671,0.,0.2,       135P    126
0.,0.,0.;                                                            135P    127
126,1,1,0,0,1,0,-1.85000002756715,-1.85000002756715,                 137P    128
1.65000002458692,1.65000002458692,1.,1.,50.,37.000000551343,         137P    129
4.00000034272671,50.,2.00000002980232,4.00000034272671,              137P    130
-1.85000002756715,1.65000002458692,0.,0.,0.;                         137P    131
126,1,1,0,0,1,0,0.,0.,0.2,0.2,1.,1.,50.,37.000000551343,             139P    132
4.00000034272671,48.,37.000000551343,4.00000034272671,0.,0.2,0.,     139P    133
0.,0.;                                                               139P    134
126,1,1,0,0,1,0,-0.925,-0.925,-0.825000055134296,                    141P    135
-0.825000055134296,1.,1.,2.,38.,23.0000003427267,2.,                 141P    136
37.000000551343,23.0000003427267,-0.925,-0.825000055134296,0.,       141P    137
0.,0.;                                                               141P    138
126,1,1,0,0,1,0,-2.4,-2.4,2.4,2.4,1.,1.,50.,37.,                     143P    139
23.0000003427267,2.,37.,23.0000003427267,-2.4,2.4,0.,0.,0.;          143P    140
126,1,1,0,0,1,0,-1.9,-1.9,-1.8000000551343,-1.8000000551343,1.,      145P    141
1.,50.,38.,23.0000003427267,50.,37.000000551343,                     145P    142
23.0000003427267,-1.9,-1.8000000551343,0.,0.,0.;                     145P    143
126,1,1,0,0,1,0,0.,0.,4.8,4.8,1.,1.,50.,38.,23.0000003427267,2.,     147P    144
38.,23.0000003427267,0.,4.8,0.,0.,0.;                                147P    145
126,1,1,0,0,1,0,-0.475000009313226,-0.475000009313226,               149P    146
-0.37500000782311,-0.37500000782311,1.,1.,2.,38.,                    149P    147
24.0000003576279,2.,38.,23.0000003427267,-0.475000009313226,         149P    148
-0.37500000782311,0.,0.,0.;                                          149P    149
126,1,1,0,0,1,0,-1.20000001788139,-1.20000001788139,                 151P    150
-1.10000001639128,-1.10000001639128,1.,1.,50.,38.,                   151P    151
24.0000003576279,50.,38.,23.0000003427267,-1.20000001788139,         151P    152
-1.10000001639128,0.,0.,0.;                                          151P    153
126,1,1,0,0,1,0,0.,0.,4.8,4.8,1.,1.,50.,38.,24.0000003576279,2.,     153P    154
38.,24.0000003576279,0.,4.8,0.,0.,0.;                                153P    155
126,1,1,0,0,1,0,0.875,0.875,0.975,0.975,1.,1.,2.,37.,                155P    156
24.0000003576279,2.,38.,24.0000003576279,0.875,0.975,0.,0.,0.;       155P    157
126,1,1,0,0,1,0,1.85,1.85,1.95,1.95,1.,1.,50.,37.,                   157P    158
24.0000003576279,50.,38.,24.0000003576279,1.85,1.95,0.,0.,0.;        157P    159
126,1,1,0,0,1,0,0.,0.,4.8,4.8,1.,1.,50.,37.,24.0000003576279,2.,     159P    160
37.,24.0000003576279,0.,4.8,0.,0.,0.;                                159P    161
126,1,1,0,0,1,0,-0.925,-0.925,-0.825,-0.825,1.,1.,2.,1.,             161P    162
24.0000003576279,2.,2.,24.0000003576279,-0.925,-0.825,0.,0.,0.;      161P    163
126,1,1,0,0,1,0,-0.100000000000001,-0.100000000000001,4.7,4.7,       163P    164
1.,1.,50.,2.,24.0000003576279,2.,2.,24.0000003576279,                163P    165
-0.100000000000001,4.7,0.,0.,0.;                                     163P    166
126,1,1,0,0,1,0,0.05,0.05,0.15,0.15,1.,1.,50.,1.,                    165P    167
24.0000003576279,50.,2.,24.0000003576279,0.05,0.15,0.,0.,0.;         165P    168
126,1,1,0,0,1,0,0.,0.,4.8,4.8,1.,1.,50.,1.,24.0000003576279,2.,      167P    169
1.,24.0000003576279,0.,4.8,0.,0.,0.;                                 167P    170
126,1,1,0,0,1,0,0.425000008568168,0.425000008568168,                 169P    171
0.525000010058284,0.525000010058284,1.,1.,2.,1.,                     169P    172
23.0000003427267,2.,1.,24.0000003576279,0.425000008568168,           169P    173
0.525000010058284,0.,0.,0.;                                          169P    174
126,1,1,0,0,1,0,1.15000001713634,1.15000001713634,                   171P    175
1.25000001862645,1.25000001862645,1.,1.,50.,1.,23.0000003427267,     171P    176
50.,1.,24.0000003576279,1.15000001713634,1.25000001862645,0.,0.,     171P    177
0.;                                                                  171P    178
126,1,1,0,0,1,0,0.2,0.2,2.30000003427267,2.30000003427267,1.,1.,     173P    179
2.,2.,2.,2.,2.,23.0000003427267,0.2,2.30000003427267,0.,0.,0.;       173P    180
126,1,1,0,0,1,0,0.,0.,3.5,3.5,1.,1.,2.,37.,2.,2.,2.,2.,0.,3.5,       175P    181
0.,0.,0.;                                                            175P    182
126,1,1,0,0,1,0,0.2,0.2,2.30000003427267,2.30000003427267,1.,1.,     177P    183
2.,37.,2.,2.,37.,23.0000003427267,0.2,2.30000003427267,0.,0.,0.;     177P    184
126,1,1,0,0,1,0,2.40000003576279,2.40000003576279,2.5,2.5,1.,1.,     179P    185
2.,37.,24.0000003576279,2.,37.,25.,2.40000003576279,2.5,0.,0.,       179P    186
0.;                                                                  179P    187
126,1,1,0,0,1,0,-3.5,-3.5,0.,0.,1.,1.,2.,2.,25.,2.,37.,25.,-3.5,     181P    188
0.,0.,0.,0.;                                                         181P    189
126,1,1,0,0,1,0,2.40000003576279,2.40000003576279,2.5,2.5,1.,1.,     183P    190
2.,2.,24.0000003576279,2.,2.,25.,2.40000003576279,2.5,0.,0.,0.;      183P    191
126,1,1,0,0,1,0,-1.25,-1.25,-1.15000003576279,-1.15000003576279,     185P    192
1.,1.,50.,37.,25.,50.,37.,24.0000003576279,-1.25,                    185P    193
-1.15000003576279,0.,0.,0.;                                          185P    194
126,1,1,0,0,1,0,-4.6,-4.6,0.2,0.2,1.,1.,2.,37.,25.,50.,37.,25.,      187P    195
-4.6,0.2,0.,0.,0.;                                                   187P    196
126,1,1,0,0,1,0,0.,0.,4.6,4.6,1.,1.,48.,37.,2.,2.,37.,2.,0.,4.6,     189P    197
0.,0.,0.;                                                            189P    198
126,1,1,0,0,1,0,0.2,0.2,0.400000034272671,0.400000034272671,1.,      191P    199
1.,48.,37.,2.,48.,37.,4.00000034272671,0.2,0.400000034272671,0.,     191P    200
0.,0.;                                                               191P    201
126,1,1,0,0,1,0,-1.15000001713634,-1.15000001713634,                 193P    202
0.749999982863665,0.749999982863665,1.,1.,50.,37.000000551343,       193P    203
23.0000003427267,50.,37.000000551343,4.00000034272671,               193P    204
-1.15000001713634,0.749999982863665,0.,0.,0.;                        193P    205
126,1,1,0,0,1,0,-1.25,-1.25,3.55,3.55,1.,1.,50.,2.,25.,2.,2.,        195P    206
25.,-1.25,3.55,0.,0.,0.;                                             195P    207
126,1,1,0,0,1,0,1.20000001788139,1.20000001788139,                   197P    208
1.29999998211861,1.29999998211861,1.,1.,50.,2.,24.0000003576279,     197P    209
50.,2.,25.,1.20000001788139,1.29999998211861,0.,0.,0.;               197P    210
126,1,1,0,0,1,0,0.200000017136335,0.200000017136335,                 199P    211
2.10000001713634,2.10000001713634,1.,1.,50.,2.00000002980232,        199P    212
4.00000034272671,50.,2.00000002980232,23.0000003427267,              199P    213
0.200000017136335,2.10000001713634,0.,0.,0.;                         199P    214
126,1,1,0,0,1,0,0.,0.,0.2,0.2,1.,1.,50.,0.,25.,50.,2.,25.,0.,        201P    215
0.2,0.,0.,0.;                                                        201P    216
126,1,1,0,0,1,0,0.,0.,2.5,2.5,1.,1.,50.,0.,0.,50.,0.,25.,0.,2.5,     203P    217
0.,0.,0.;                                                            203P    218
126,1,1,0,0,1,0,0.,0.,3.9,3.9,1.,1.,50.,0.,0.,50.,39.,0.,0.,3.9,     205P    219
0.,0.,0.;                                                            205P    220
126,1,1,0,0,1,0,0.,0.,2.5,2.5,1.,1.,50.,39.,0.,50.,39.,25.,0.,       207P    221
2.5,0.,0.,0.;                                                        207P    222
126,1,1,0,0,1,0,3.7,3.7,3.9,3.9,1.,1.,50.,37.,25.,50.,39.,25.,       209P    223
3.7,3.9,0.,0.,0.;                                                    209P    224
126,1,1,0,0,1,0,0.2,0.2,0.400000034272671,0.400000034272671,1.,      211P    225
1.,48.,2.,2.,48.,2.,4.00000034272671,0.2,0.400000034272671,0.,       211P    226
0.,0.;                                                               211P    227
126,1,1,0,0,1,0,0.,0.,4.6,4.6,1.,1.,2.,2.,2.,48.,2.,2.,0.,4.6,       213P    228
0.,0.,0.;                                                            213P    229
126,1,1,0,0,1,0,0.,0.,3.5,3.5,1.,1.,48.,2.,2.,48.,37.,2.,0.,3.5,     215P    230
0.,0.,0.;                                                            215P    231
126,1,1,0,0,1,0,0.,0.,5.,5.,1.,1.,50.,39.,0.,0.,39.,0.,0.,5.,0.,     217P    232
0.,0.;                                                               217P    233
126,1,1,0,0,1,0,0.,0.,5.,5.,1.,1.,50.,39.,25.,0.,39.,25.,0.,5.,      219P    234
0.,0.,0.;                                                            219P    235
126,1,1,0,0,1,0,0.,0.,5.,5.,1.,1.,0.,0.,0.,50.,0.,0.,0.,5.,0.,       221P    236
0.,0.;                                                               221P    237
126,1,1,0,0,1,0,0.,0.,5.,5.,1.,1.,0.,0.,25.,50.,0.,25.,0.,5.,0.,     223P    238
0.,0.;                                                               223P    239
128,1,8,1,2,0,1,0,0,1,0.,0.,3.15789473684211,3.15789473684211,       225P    240
-3.14159265358979,-3.14159265358979,-3.14159265358979,               225P    241
-1.5707963267949,-1.5707963267949,0.,0.,1.5707963267949,             225P    242
1.5707963267949,3.14159265358979,3.14159265358979,                   225P    243
3.14159265358979,1.,1.,0.707106781186548,0.707106781186548,1.,       225P    244
1.,0.707106781186548,0.707106781186548,1.,1.,0.707106781186548,      225P    245
0.707106781186548,1.,1.,0.707106781186548,0.707106781186548,1.,      225P    246
1.,0.,24.25,12.5,-15.,24.25,12.5,0.,24.25,7.75,-15.,24.25,7.75,      225P    247
0.,19.5,7.75,-15.,19.5,7.75,0.,14.75,7.75,-15.,14.75,7.75,0.,        225P    248
14.75,12.5,-15.,14.75,12.5,0.,14.75,17.25,-15.,14.75,17.25,0.,       225P    249
19.5,17.25,-15.,19.5,17.25,0.,24.25,17.25,-15.,24.25,17.25,0.,       225P    250
24.25,12.5,-15.,24.25,12.5,0.,3.15789473684211,                      225P    251
-3.14159265358979,3.14159265358979;                                  225P    252
128,1,8,1,2,0,1,0,0,1,0.,0.,2.22222222222222,2.22222222222222,       227P    253
-3.14159265358979,-3.14159265358979,-3.14159265358979,               227P    254
-1.5707963267949,-1.5707963267949,0.,0.,1.5707963267949,             227P    255
1.5707963267949,3.14159265358979,3.14159265358979,                   227P    256
3.14159265358979,1.,1.,0.707106781186548,0.707106781186548,1.,       227P    257
1.,0.707106781186548,0.707106781186548,1.,1.,0.707106781186548,      227P    258
0.707106781186548,1.,1.,0.707106781186548,0.707106781186548,1.,      227P    259
1.,-15.,26.25,12.5,0.,26.25,12.5,-15.,26.25,5.75,0.,26.25,5.75,      227P    260
-15.,19.5,5.75,0.,19.5,5.75,-15.,12.75,5.75,0.,12.75,5.75,-15.,      227P    261
12.75,12.5,0.,12.75,12.5,-15.,12.75,19.25,0.,12.75,19.25,-15.,       227P    262
19.5,19.25,0.,19.5,19.25,-15.,26.25,19.25,0.,26.25,19.25,-15.,       227P    263
26.25,12.5,0.,26.25,12.5,0.,2.22222222222222,-3.14159265358979,      227P    264
3.14159265358979;                                                    227P    265
128,1,1,1,1,0,0,1,0,0,-0.676,-0.676,0.676,0.676,-0.676,-0.676,       229P    266
0.676,0.676,1.,1.,1.,1.,-15.,26.26,5.74,-15.,12.74,5.74,-15.,        229P    267
26.26,19.26,-15.,12.74,19.26,-0.676,0.676,-0.676,0.676;              229P    268
128,1,1,1,1,0,0,1,0,0,-0.001,-0.001,3.901,3.901,-0.001,-0.001,       231P    269
2.501,2.501,1.,1.,1.,1.,0.,39.01,-0.01,0.,-0.0099999999999989,       231P    270
-0.01,0.,39.01,25.01,0.,-0.0099999999999989,25.01,-0.001,3.901,      231P    271
-0.001,2.501;                                                        231P    272
128,1,1,1,1,0,0,1,0,0,-0.001,-0.001,0.101000002980232,               233P    273
0.101000002980232,-0.001,-0.001,4.801,4.801,1.,1.,1.,1.,50.01,       233P    274
0.99,23.0000003427267,50.01,2.01000002980232,23.0000003427267,       233P    275
1.99,0.99,23.0000003427267,1.99,2.01000002980232,                    233P    276
23.0000003427267,-0.001,0.101000002980232,-0.001,4.801;              233P    277
128,1,1,1,1,0,0,1,0,0,-0.001,-0.001,3.50100005215406,                235P    278
3.50100005215406,-0.001,-0.001,0.201,0.201,1.,1.,1.,1.,50.01,        235P    279
1.99000002980232,4.00000034272671,50.01,37.010000551343,             235P    280
4.00000034272671,47.99,1.99000002980232,4.00000034272671,47.99,      235P    281
37.010000551343,4.00000034272671,-0.001,3.50100005215406,-0.001,     235P    282
0.201;                                                               235P    283
128,1,1,1,1,0,0,1,0,0,-0.001,-0.001,0.101,0.101,-0.001,-0.001,       237P    284
4.801,4.801,1.,1.,1.,1.,50.01,36.99,23.0000003427267,50.01,          237P    285
38.01,23.0000003427267,1.99,36.99,23.0000003427267,1.99,38.01,       237P    286
23.0000003427267,-0.001,0.101,-0.001,4.801;                          237P    287
128,1,1,1,1,0,0,1,0,0,-0.001,-0.001,0.101000001490116,               239P    288
0.101000001490116,-0.001,-0.001,4.801,4.801,1.,1.,1.,1.,50.01,       239P    289
38.,22.9900003427267,50.01,38.,24.0100003576279,1.99,38.,            239P    290
22.9900003427267,1.99,38.,24.0100003576279,-0.001,                   239P    291
0.101000001490116,-0.001,4.801;                                      239P    292
128,1,1,1,1,0,0,1,0,0,-0.001,-0.001,0.101,0.101,-0.001,-0.001,       241P    293
4.801,4.801,1.,1.,1.,1.,50.01,38.01,24.0000003576279,50.01,          241P    294
36.99,24.0000003576279,1.99,38.01,24.0000003576279,1.99,36.99,       241P    295
24.0000003576279,-0.001,0.101,-0.001,4.801;                          241P    296
128,1,1,1,1,0,0,1,0,0,-0.00100000000000003,-0.00100000000000003,     243P    297
0.101,0.101,-0.001,-0.001,4.801,4.801,1.,1.,1.,1.,50.01,2.01,        243P    298
24.0000003576279,50.01,0.99,24.0000003576279,1.99,2.01,              243P    299
24.0000003576279,1.99,0.99,24.0000003576279,                         243P    300
-0.00100000000000003,0.101,-0.001,4.801;                             243P    301
128,1,1,1,1,0,0,1,0,0,-0.001,-0.001,0.101000001490116,               245P    302
0.101000001490116,-0.001,-0.001,4.801,4.801,1.,1.,1.,1.,50.01,       245P    303
1.,24.0100003576279,50.01,1.,22.9900003427267,1.99,1.,               245P    304
24.0100003576279,1.99,1.,22.9900003427267,-0.001,                    245P    305
0.101000001490116,-0.001,4.801;                                      245P    306
128,1,1,1,1,0,0,1,0,0,-0.101,-0.101,3.601,3.601,0.199,0.199,         247P    307
2.501,2.501,1.,1.,1.,1.,2.,0.99,1.99,2.,38.01,1.99,2.,0.99,          247P    308
25.01,2.,38.01,25.01,-0.101,3.601,0.199,2.501;                       247P    309
128,1,1,1,1,0,0,1,0,0,-0.001,-0.001,4.801,4.801,                     249P    310
2.39900003576279,2.39900003576279,2.501,2.501,1.,1.,1.,1.,1.99,      249P    311
37.,23.9900003576279,50.01,37.,23.9900003576279,1.99,37.,25.01,      249P    312
50.01,37.,25.01,-0.001,4.801,2.39900003576279,2.501;                 249P    313
128,1,1,1,1,0,0,1,0,0,-0.001,-0.001,4.801,4.801,0.199,0.199,         251P    314
2.30100003427267,2.30100003427267,1.,1.,1.,1.,1.99,37.,1.99,         251P    315
50.01,37.,1.99,1.99,37.,23.0100003427267,50.01,37.,                  251P    316
23.0100003427267,-0.001,4.801,0.199,2.30100003427267;                251P    317
128,1,1,1,1,0,0,1,0,0,-0.201,-0.201,4.601,4.601,                     253P    318
2.39900003576279,2.39900003576279,2.501,2.501,1.,1.,1.,1.,50.01,     253P    319
2.,23.9900003576279,1.99,2.,23.9900003576279,50.01,2.,25.01,         253P    320
1.99,2.,25.01,-0.201,4.601,2.39900003576279,2.501;                   253P    321
128,1,1,1,1,0,0,1,0,0,-0.001,-0.001,3.901,3.901,-0.001,-0.001,       255P    322
2.501,2.501,1.,1.,1.,1.,50.,-0.01,-0.01,50.,39.01,-0.01,50.,         255P    323
-0.01,25.01,50.,39.01,25.01,-0.001,3.901,-0.001,2.501;               255P    324
128,1,1,1,1,0,0,1,0,0,-0.201,-0.201,4.601,4.601,0.199,0.199,         257P    325
2.30100003427267,2.30100003427267,1.,1.,1.,1.,50.01,2.,1.99,         257P    326
1.99,2.,1.99,50.01,2.,23.0100003427267,1.99,2.,23.0100003427267,     257P    327
-0.201,4.601,0.199,2.30100003427267;                                 257P    328
128,1,1,1,1,0,0,1,0,0,-0.00100005513429624,-0.00100005513429624,     259P    329
3.501,3.501,0.199,0.199,0.401000034272671,0.401000034272671,1.,      259P    330
1.,1.,1.,48.,37.010000551343,1.99,48.,1.99,1.99,48.,                 259P    331
37.010000551343,4.01000034272671,48.,1.99,4.01000034272671,          259P    332
-0.00100005513429624,3.501,0.199,0.401000034272671;                  259P    333
128,1,1,1,1,0,0,1,0,0,-0.001,-0.001,5.001,5.001,-0.001,-0.001,       261P    334
2.501,2.501,1.,1.,1.,1.,50.01,39.,-0.01,-0.0100000000000033,39.,     261P    335
-0.01,50.01,39.,25.01,-0.0100000000000033,39.,25.01,-0.001,          261P    336
5.001,-0.001,2.501;                                                  261P    337
128,1,1,1,1,0,0,1,0,0,-0.001,-0.001,5.001,5.001,-0.001,-0.001,       263P    338
2.501,2.501,1.,1.,1.,1.,-0.01,0.,-0.01,50.01,0.,-0.01,-0.01,0.,      263P    339
25.01,50.01,0.,25.01,-0.001,5.001,-0.001,2.501;                      263P    340
128,1,1,1,1,0,0,1,0,0,1.474,1.474,2.426,2.426,0.774,0.774,1.726,     265P    341
1.726,1.,1.,1.,1.,0.,24.26,7.74,0.,14.74,7.74,0.,24.26,17.26,0.,     265P    342
14.74,17.26,1.474,2.426,0.774,1.726;                                 265P    343
128,1,1,1,1,0,0,1,0,0,-2.501,-2.501,2.501,2.501,-1.951,-1.951,       267P    344
1.951,1.951,1.,1.,1.,1.,-0.0099999999999989,-0.0099999999999989,     267P    345
25.,50.01,-0.0099999999999989,25.,-0.0099999999999989,39.01,25.,     267P    346
50.01,39.01,25.,-2.501,2.501,-1.951,1.951;                           267P    347
128,1,1,1,1,0,0,1,0,0,-2.301,-2.301,2.301,2.301,-1.751,-1.751,       269P    348
1.751,1.751,1.,1.,1.,1.,1.99,1.99,2.,48.01,1.99,2.,1.99,37.01,       269P    349
2.,48.01,37.01,2.,-2.301,2.301,-1.751,1.751;                         269P    350
128,1,1,1,1,0,0,1,0,0,-2.501,-2.501,2.501,2.501,-1.951,-1.951,       271P    351
1.951,1.951,1.,1.,1.,1.,50.01,-0.0099999999999989,0.,                271P    352
-0.0099999999999989,-0.0099999999999989,0.,50.01,39.01,0.,           271P    353
-0.0099999999999989,39.01,0.,-2.501,2.501,-1.951,1.951;              271P    354
502,40,-15.,24.25,12.5,0.,24.25,12.5,-15.,26.25,12.5,0.,26.25,       273P    355
12.5,0.,39.,0.,0.,0.,0.,0.,0.,25.,0.,39.,25.,2.,                     273P    356
2.00000002980232,23.0000003427267,2.,1.,23.0000003427267,50.,1.,     273P    357
23.0000003427267,50.,2.00000002980232,23.0000003427267,48.,          273P    358
2.00000002980232,4.00000034272671,48.,37.000000551343,               273P    359
4.00000034272671,50.,2.00000002980232,4.00000034272671,50.,          273P    360
37.000000551343,4.00000034272671,2.,38.,23.0000003427267,2.,         273P    361
37.000000551343,23.0000003427267,50.,37.000000551343,                273P    362
23.0000003427267,50.,38.,23.0000003427267,2.,38.,                    273P    363
24.0000003576279,50.,38.,24.0000003576279,2.,37.,                    273P    364
24.0000003576279,50.,37.,24.0000003576279,2.,1.,                     273P    365
24.0000003576279,2.,2.,24.0000003576279,50.,2.,24.0000003576279,     273P    366
50.,1.,24.0000003576279,2.,2.,2.,2.,37.,2.,2.,37.,25.,2.,2.,25.,     273P    367
50.,37.,25.,48.,37.,2.,50.,2.,25.,50.,0.,25.,50.,0.,0.,50.,39.,      273P    368
0.,50.,39.,25.,48.,2.,2.;                                            273P    369
504,60,105,273,1,273,1,107,273,1,273,2,109,273,2,273,2,111,273,      275P    370
3,273,3,113,273,3,273,4,115,273,4,273,4,117,273,5,273,6,119,273,     275P    371
6,273,7,121,273,8,273,7,123,273,5,273,8,125,273,9,273,10,127,        275P    372
273,11,273,10,129,273,12,273,11,131,273,9,273,12,133,273,13,273,     275P    373
14,135,273,15,273,13,137,273,16,273,15,139,273,16,273,14,141,        275P    374
273,17,273,18,143,273,19,273,18,145,273,20,273,19,147,273,20,        275P    375
273,17,149,273,21,273,17,151,273,22,273,20,153,273,22,273,21,        275P    376
155,273,23,273,21,157,273,24,273,22,159,273,24,273,23,161,273,       275P    377
25,273,26,163,273,27,273,26,165,273,28,273,27,167,273,28,273,25,     275P    378
169,273,10,273,25,171,273,11,273,28,173,273,29,273,9,175,273,30,     275P    379
273,29,177,273,30,273,18,179,273,23,273,31,181,273,32,273,31,        275P    380
183,273,26,273,32,185,273,33,273,24,187,273,31,273,33,189,273,       275P    381
34,273,30,191,273,34,273,14,193,273,19,273,16,195,273,35,273,32,     275P    382
197,273,27,273,35,199,273,15,273,12,201,273,36,273,35,203,273,       275P    383
37,273,36,205,273,37,273,38,207,273,38,273,39,209,273,33,273,39,     275P    384
211,273,40,273,13,213,273,29,273,40,215,273,40,273,34,217,273,       275P    385
38,273,5,219,273,39,273,8,221,273,6,273,37,223,273,7,273,36;         275P    386
406,1,5HBody1;                                                       277P    387
314,62.7450980392157,62.7450980392157,62.7450980392157,13HSteel      279P    388
- Satin;                                                             279P    389
S      1G      3D    280P    389                                        T      1
