0
SECTION
2
HEADER
9
$INSUNITS
70
1
9
$ACADVER
1
AC1014
9
$HANDSEED
5
FFFF
0
ENDSEC
0
SECTION
2
TABLES
0
TABLE
2
VPORT
5
8
100
AcDbSymbolTable
0
ENDTAB
0
TABLE
2
LTYPE
5
5
100
AcDbSymbolTable
0
LTYPE
5
14
100
AcDbSymbolTableRecord
100
AcDbLinetypeTableRecord
2
BYBLOCK
70
0
0
LTYPE
5
15
100
AcDbSymbolTableRecord
100
AcDbLinetypeTableRecord
2
BYLAYER
70
0
0
ENDTAB
0
TABLE
2
LAYER
5
2
100
AcDbSymbolTable
70
2
0
LAYER
5
50
100
AcDbSymbolTableRecord
100
AcDbLayerTableRecord
2
0
70
0
6
CONTINUOUS
0
ENDTAB
0
TABLE
2
STYLE
5
3
100
AcDbSymbolTable
70
1
0
STYLE
5
11
100
AcDbSymbolTableRecord
100
AcDbTextStyleTableRecord
2
STANDARD
70
0
0
ENDTAB
0
TABLE
2
VIEW
5
6
100
AcDbSymbolTable
70
0
0
ENDTAB
0
TABLE
2
UCS
5
7
100
AcDbSymbolTable
70
0
0
ENDTAB
0
TABLE
2
APPID
5
9
100
AcDbSymbolTable
70
2
0
APPID
5
12
100
AcDbSymbolTableRecord
100
AcDbRegAppTableRecord
2
ACAD
70
0
0
ENDTAB
0
TABLE
2
DIMSTYLE
5
A
100
AcDbSymbolTable
70
1
0
ENDTAB
0
TABLE
2
BLOCK_RECORD
5
1
100
AcDbSymbolTable
70
1
0
BLOCK_RECORD
5
1F
100
AcDbSymbolTableRecord
100
AcDbBlockTableRecord
2
*MODEL_SPACE
0
BLOCK_RECORD
5
1B
100
AcDbSymbolTableRecord
100
AcDbBlockTableRecord
2
*PAPER_SPACE
0
ENDTAB
0
ENDSEC
0
SECTION
2
BLOCKS
0
BLOCK
5
20
100
AcDbEntity
100
AcDbBlockBegin
2
*MODEL_SPACE
0
ENDBLK
5
21
100
AcDbEntity
100
AcDbBlockEnd
0
BLOCK
5
1C
100
AcDbEntity
100
AcDbBlockBegin
2
*PAPER_SPACE
0
ENDBLK
5
1D
100
AcDbEntity
100
AcDbBlockEnd
0
ENDSEC
0
SECTION
2
ENTITIES
0
LWPOLYLINE
5
100
100
AcDbEntity
8
0
100
AcDbPolyline
90
10
70
1
43
0.0
10
0.45000000000000101
20
-5.75
10
0.45000000000000112
20
-9.9999999999999982
10
-0.64999999999999902
20
-9.9999999999999982
10
-0.64999999999999902
20
-5.75
10
-1.55
20
-5.75
10
-1.55
20
-1.75
10
-0.97499999999999998
20
-1.75
10
0
20
-1.75
10
0.57499999999999996
20
-1.75
10
0.57499999999999996
20
-5.75
0
LWPOLYLINE
5
101
100
AcDbEntity
8
0
100
AcDbPolyline
90
4
70
1
43
0.0
10
-0.57499999999999907
20
-9.75
10
0.375000000000001
20
-9.75
10
0.37500000000000105
20
-5.75
10
-0.57499999999999896
20
-5.75
0
LWPOLYLINE
5
102
100
AcDbEntity
8
0
100
AcDbPolyline
90
4
70
1
43
0.0
10
0.45000000000000112
20
-9.9999999999999982
10
-0.64999999999999902
20
-9.9999999999999982
10
-0.64999999999999913
20
-9.8299999999999983
10
0.45000000000000101
20
-9.8299999999999983
0
LINE
5
103
100
AcDbEntity
8
0
100
AcDbLine
10
0.82500000000000007
20
0
30
0.31249999999999961
11
-1.7999999999999998
21
0
31
0.31249999999999928
0
LINE
5
104
100
AcDbEntity
8
0
100
AcDbLine
10
-1.7999999999999998
20
0
30
0.31249999999999928
11
-1.7999999999999998
21
-0.099999999999999992
31
0.31250000000000033
0
LINE
5
105
100
AcDbEntity
8
0
100
AcDbLine
10
-1.7999999999999998
20
-0.099999999999999992
30
0.31250000000000033
11
0.82500000000000007
21
-0.099999999999999992
31
0.31249999999999961
0
LINE
5
106
100
AcDbEntity
8
0
100
AcDbLine
10
0.82500000000000007
20
-0.099999999999999992
30
0.31249999999999961
11
0.82500000000000007
21
0
31
0.31249999999999961
0
LINE
5
107
100
AcDbEntity
8
0
100
AcDbLine
10
0.82500000000000007
20
-0.099999999999999811
30
0.31249999999999961
11
0.82500000000000007
21
-5.75
31
0.31249999999999961
0
LINE
5
108
100
AcDbEntity
8
0
100
AcDbLine
10
-1.7999999999999998
20
-0.099999999999999811
30
0.31250000000000033
11
-1.7999999999999998
21
-5.75
31
0.31250000000000033
0
LWPOLYLINE
5
109
100
AcDbEntity
8
0
100
AcDbPolyline
90
5
70
1
43
0.0
10
0.47657480314960587
20
-5.3032580896888373
10
0.043749999999993759
20
-5.5531496062992121
10
-0.3890748031496179
20
-5.3032580896888355
10
-0.38907480314960619
20
-1.8484251968503937
10
0.47657480314960649
20
-1.8484251968503937
0
LINE
5
110
100
AcDbEntity
8
0
100
AcDbLine
10
0.043749999999993718
20
-5.5531496062992121
30
0
11
0.66809910921391358
21
-5.5531496062992121
31
0
0
LINE
5
111
100
AcDbEntity
8
0
100
AcDbLine
10
-0.48749999999999999
20
-1.75
30
-2.1854783949314103e-17
11
-0.48749999999999999
21
-5.75
31
-2.1854783949314103e-17
0
LWPOLYLINE
5
112
100
AcDbEntity
8
0
100
AcDbPolyline
90
5
70
1
43
0.0
10
-1.4515748031496059
20
-5.3032580896888373
10
-1.0187499999999936
20
-5.5531496062992121
10
-0.58592519685038857
20
-5.3032580896888515
10
-0.58592519685039357
20
-1.8484251968503937
10
-1.4515748031496063
20
-1.8484251968503937
0
LWPOLYLINE
5
113
100
AcDbEntity
8
0
100
AcDbPolyline
90
5
70
1
43
0.0
10
0.25314960629921363
20
-9.4292585860381521
10
0.25314960629921363
20
-5.9468503937007871
10
-0.45314960629921158
20
-5.9468503937007871
10
-0.45314960629921158
20
-9.4292585860381468
10
-0.099999999999999811
20
-9.6331496062992112
0
ENDSEC
0
SECTION
2
OBJECTS
0
DICTIONARY
5
C
100
AcDbDictionary
3
ACAD_GROUP
350
D
3
ACAD_MLINESTYLE
350
17
0
DICTIONARY
5
D
100
AcDbDictionary
0
DICTIONARY
5
1A
330
C
100
AcDbDictionary
0
DICTIONARY
5
17
100
AcDbDictionary
0
ENDSEC
0
EOF
