0
SECTION
2
HEADER
9
$INSUNITS
70
4
9
$ACADVER
1
AC1014
9
$HANDSEED
5
FFFF
0
ENDSEC
0
SECTION
2
TABLES
0
TABLE
2
VPORT
5
8
100
AcDbSymbolTable
0
ENDTAB
0
TABLE
2
LTYPE
5
5
100
AcDbSymbolTable
0
LTYPE
5
14
100
AcDbSymbolTableRecord
100
AcDbLinetypeTableRecord
2
BYBLOCK
70
0
0
LTYPE
5
15
100
AcDbSymbolTableRecord
100
AcDbLinetypeTableRecord
2
BYLAYER
70
0
0
ENDTAB
0
TABLE
2
LAYER
5
2
100
AcDbSymbolTable
70
2
0
LAYER
5
50
100
AcDbSymbolTableRecord
100
AcDbLayerTableRecord
2
0
70
0
6
CONTINUOUS
0
ENDTAB
0
TABLE
2
STYLE
5
3
100
AcDbSymbolTable
70
1
0
STYLE
5
11
100
AcDbSymbolTableRecord
100
AcDbTextStyleTableRecord
2
STANDARD
70
0
0
ENDTAB
0
TABLE
2
VIEW
5
6
100
AcDbSymbolTable
70
0
0
ENDTAB
0
TABLE
2
UCS
5
7
100
AcDbSymbolTable
70
0
0
ENDTAB
0
TABLE
2
APPID
5
9
100
AcDbSymbolTable
70
2
0
APPID
5
12
100
AcDbSymbolTableRecord
100
AcDbRegAppTableRecord
2
ACAD
70
0
0
ENDTAB
0
TABLE
2
DIMSTYLE
5
A
100
AcDbSymbolTable
70
1
0
ENDTAB
0
TABLE
2
BLOCK_RECORD
5
1
100
AcDbSymbolTable
70
1
0
BLOCK_RECORD
5
1F
100
AcDbSymbolTableRecord
100
AcDbBlockTableRecord
2
*MODEL_SPACE
0
BLOCK_RECORD
5
1B
100
AcDbSymbolTableRecord
100
AcDbBlockTableRecord
2
*PAPER_SPACE
0
ENDTAB
0
ENDSEC
0
SECTION
2
BLOCKS
0
BLOCK
5
20
100
AcDbEntity
100
AcDbBlockBegin
2
*MODEL_SPACE
0
ENDBLK
5
21
100
AcDbEntity
100
AcDbBlockEnd
0
BLOCK
5
1C
100
AcDbEntity
100
AcDbBlockBegin
2
*PAPER_SPACE
0
ENDBLK
5
1D
100
AcDbEntity
100
AcDbBlockEnd
0
ENDSEC
0
SECTION
2
ENTITIES
0
LWPOLYLINE
5
100
100
AcDbEntity
8
0
100
AcDbPolyline
90
230
70
1
43
0.0
10
107.20658860185543
20
181.93847384619443
10
107.23490273133392
20
181.89151189416901
10
107.26207869953481
20
181.84348969450542
10
107.28812902420928
20
181.79442420432136
10
107.31306622310922
20
181.74433238073459
10
107.3369028139858
20
181.69323118086308
10
107.35965131459081
20
181.64113756182479
10
107.38132424267549
20
181.58806848073769
10
107.40193411599151
20
181.5340408947192
10
107.42149345229022
20
181.47907176088748
10
107.4400147693232
20
181.42317803636041
10
107.45751058484201
20
181.3663766782557
10
107.47399341659801
20
181.30868464369132
10
107.48947578234292
20
181.25011888978509
10
107.5039701998281
20
181.19069637365502
10
107.51748918680511
20
181.13043405241882
10
107.53004526102529
20
181.06934888319432
10
107.55231874220172
20
180.94477782925182
10
107.5708907853693
20
180.8171188687709
10
107.58586153254001
20
180.68650765869404
10
107.59733112572601
20
180.55307985596431
10
107.6053997069391
20
180.41697111752467
10
107.61016741819159
20
180.27831710031779
10
107.61173440149531
20
180.1372534612868
10
107.61016741819159
20
179.97430534942762
10
107.6053997069391
20
179.81623536787393
10
107.59733112572601
20
179.66306285113086
10
107.58586153254001
20
179.51480713370307
10
107.5708907853693
20
179.37148755009633
10
107.55231874220172
20
179.23312343481467
10
107.53004526102529
20
179.09973412236388
10
107.51748918680511
20
179.03491105923268
10
107.5039701998281
20
178.97133894724871
10
107.48947578234292
20
178.9090202032246
10
107.47399341659801
20
178.84795724397381
10
107.45751058484201
20
178.78815248630954
10
107.4400147693232
20
178.7296083470446
10
107.42149345229022
20
178.6723272429924
10
107.40193411599151
20
178.61631159096615
10
107.38132424267549
20
178.5615638077785
10
107.35965131459081
20
178.50808631024302
10
107.3369028139858
20
178.45588151517268
10
107.31306622310922
20
178.40495183938049
10
107.28812902420928
20
178.35529969967968
10
107.26207869953481
20
178.30692751288342
10
107.23490273133392
20
178.25983769580489
10
107.20658860185543
20
178.21403266525692
10
107.17712379334759
20
178.169514838053
10
107.14649578805901
20
178.12628663100608
10
107.11469206823821
20
178.08435046092933
10
107.0817001161337
20
178.04370874463558
10
107.0475074139938
20
178.00436389893849
10
107.01210144406741
20
177.96631834065093
10
106.9754696886026
20
177.92957448658581
10
106.93759962984811
20
177.89413475355641
10
106.89847875005242
20
177.86000155837601
10
106.87844534046673
20
177.84342566773319
10
106.85809453146379
20
177.82717731785772
10
106.81643445633111
20
177.79566444881459
10
106.77348600690252
20
177.76546536805949
10
106.72923666542673
20
177.73658249240589
10
106.68367391415222
20
177.7090182386668
10
106.63678523532751
20
177.68277502365532
10
106.58855811120091
20
177.65785526418452
10
106.53898002402101
20
177.6342613770677
10
106.48803845603643
20
177.61199577911782
10
106.43572088949551
20
177.59106088714816
10
106.38201480664682
20
177.57145911797164
10
106.3269076897388
20
177.55319288840141
10
106.2703870210203
20
177.53626461525084
10
106.21244028273921
20
177.52067671533294
10
106.15305495714459
20
177.50643160546082
10
106.09221852648453
20
177.49353170244731
10
106.02991847300771
20
177.48197942310608
10
105.96614227896271
20
177.47177718424979
10
105.9008774265976
20
177.4629274026918
10
105.83411139816143
20
177.45543249524513
10
105.7658316759025
20
177.44929487872298
10
105.69602574206922
20
177.44451696993852
10
105.62468107891
20
177.44110118570484
10
105.55178516867372
20
177.43904994283491
10
105.47732549360859
20
177.43836565814209
10
105.4125455447678
20
177.43904994283491
10
105.3488488328594
20
177.44110118570484
10
105.28623333927271
20
177.44451696993852
10
105.22469704539743
20
177.44929487872298
10
105.1642379326227
20
177.45543249524513
10
105.10485398233781
20
177.4629274026918
10
105.04654317593221
20
177.47177718424979
10
104.98930349479539
20
177.48197942310608
10
104.93313292031671
20
177.49353170244731
10
104.8780294338851
20
177.50643160546082
10
104.82399101689042
20
177.52067671533294
10
104.77101565072191
20
177.53626461525084
10
104.71910131676871
20
177.55319288840141
10
104.66824599642059
20
177.57145911797164
10
104.6184476710666
20
177.59106088714816
10
104.56970432209621
20
177.61199577911782
10
104.52201393089879
20
177.6342613770677
10
104.47537447886361
20
177.65785526418452
10
104.4297839473802
20
177.68277502365532
10
104.3852403178378
20
177.7090182386668
10
104.3417415716258
20
177.73658249240589
10
104.2992856901335
20
177.76546536805949
10
104.25787065475042
20
177.79566444881459
10
104.21749444686571
20
177.82717731785772
10
104.1781550478688
20
177.86000155837601
10
104.13985043914931
20
177.89413475355641
10
104.1025786020964
20
177.92957448658581
10
104.06633751809929
20
177.96631834065093
10
104.03112516854749
20
178.00436389893849
10
103.9969395348305
20
178.04370874463558
10
103.9637785983375
20
178.08435046092933
10
103.9316403404579
20
178.12628663100608
10
103.9005227425811
20
178.169514838053
10
103.87042378609641
20
178.21403266525692
10
103.84134145239322
20
178.25983769580489
10
103.81327372286093
20
178.30692751288342
10
103.78621857888881
20
178.35529969967968
10
103.76017400186632
20
178.40495183938049
10
103.7351379731829
20
178.45588151517268
10
103.71110847422761
20
178.50808631024302
10
103.68808348638991
20
178.5615638077785
10
103.66606099105951
20
178.61631159096615
10
103.6450389696254
20
178.6723272429924
10
103.62501540347709
20
178.7296083470446
10
103.60598827400392
20
178.78815248630954
10
103.58795556259521
20
178.84795724397381
10
103.57091525064043
20
178.9090202032246
10
103.554865319529
20
178.97133894724871
10
103.53980375065001
20
179.03491105923268
10
103.52572852539302
20
179.09973412236388
10
103.51263762514711
20
179.16580571982891
10
103.50052903130221
20
179.23312343481467
10
103.47925068837179
20
179.37148755009633
10
103.46187734771652
20
179.51480713370307
10
103.44839286045129
20
179.66306285113086
10
103.43878107769092
20
179.81623536787393
10
103.43302585055042
20
179.97430534942762
10
103.43111103014472
20
180.1372534612868
10
103.43277554283161
20
180.28607663960213
10
103.43781214458572
20
180.43150511410312
10
103.4462854309475
20
180.57345167450168
10
103.45825999745692
20
180.71182911051062
10
103.47380043965501
20
180.84655021184207
10
103.49297135308142
20
180.97752776820852
10
103.51583733327701
20
181.10467456932224
10
103.52867615951959
20
181.16678418344452
10
103.542462975782
20
181.22790340489584
10
103.55720585650673
20
181.28802133238997
10
103.5729128761366
20
181.34712706464131
10
103.5895921091138
20
181.4052097003636
10
103.60725162988111
20
181.46225833827117
10
103.62589951288122
20
181.51826207707802
10
103.6455438325563
20
181.57321001549801
10
103.66619266334901
20
181.62709125224541
10
103.68785407970201
20
181.67989488603405
10
103.71053615605791
20
181.73161001557818
10
103.7342469668589
20
181.78222573959161
10
103.7589945865478
20
181.83173115678852
10
103.7847870895672
20
181.88011536588292
10
103.8116325503595
20
181.9273674655889
10
103.8395390433673
20
181.97347655462062
10
103.86851464303308
20
182.01843173169203
10
103.89856742379949
20
182.062222095517
10
103.92970546010912
20
182.10483674480994
10
103.9619368264041
20
182.14626477828449
10
103.99526959712759
20
182.18649529465492
10
104.02971184672171
20
182.2255173926352
10
104.0652716496293
20
182.26332017093941
10
104.10195708029242
20
182.29989272828166
10
104.13977621315411
20
182.3352241633761
10
104.1787371226566
20
182.36930357493659
10
104.2188478832426
20
182.4021200616771
10
104.26011656935451
20
182.43366272231191
10
104.30255125543522
20
182.4639206555548
10
104.34616001592693
20
182.49288296012
10
104.39095092527241
20
182.52053873472161
10
104.43693205791391
20
182.54687707807349
10
104.484111488294
20
182.57188708888981
10
104.53249729085562
20
182.59555786588462
10
104.58209754004102
20
182.61787850777193
10
104.63292031029282
20
182.63883811326568
10
104.68497367605322
20
182.65842578108018
10
104.73826571176531
20
182.67663060992919
10
104.79280449187142
20
182.69344169852712
10
104.84859809081399
20
182.70884814558752
10
104.90565458303561
20
182.72283904982461
10
104.96398204297901
20
182.73540350995285
10
105.02358854508628
20
182.74653062468585
10
105.08448216380071
20
182.75620949273758
10
105.14667097356391
20
182.76442921282265
10
105.21016304881911
20
182.77117888365441
10
105.27496646400861
20
182.77644760394742
10
105.34108929357501
20
182.7802244724154
10
105.40853961196079
20
182.78249858777261
10
105.47732549360859
20
182.78325904873293
10
105.55178516867372
20
182.78243500153752
10
105.62468107891
20
182.77997416469651
10
105.69602574206922
20
182.77589349532781
10
105.7658316759025
20
182.77020995054923
10
105.83411139816143
20
182.76294048747869
10
105.9008774265976
20
182.75410206323392
10
105.96614227896271
20
182.74371163493282
10
106.02991847300771
20
182.73178615969329
10
106.09221852648453
20
182.71834259463333
10
106.15305495714459
20
182.70339789687057
10
106.21244028273921
20
182.68696902352301
10
106.2703870210203
20
182.66907293170848
10
106.3269076897388
20
182.64972657854483
10
106.38201480664682
20
182.62894692115
10
106.43572088949551
20
182.60675091664169
10
106.48803845603643
20
182.58315552213782
10
106.53898002402101
20
182.55817769475624
10
106.58855811120091
20
182.53183439161484
10
106.63678523532751
20
182.50414256983152
10
106.68367391415222
20
182.47511918652421
10
106.72923666542673
20
182.44478119881057
10
106.77348600690252
20
182.4131455638086
10
106.81643445633111
20
182.38022923863616
10
106.85809453146379
20
182.34604918041111
10
106.89847875005242
20
182.31062234625119
10
106.93759962984811
20
182.2739656932745
10
106.9754696886026
20
182.23609617859861
10
107.01210144406741
20
182.1970307593416
10
107.0475074139938
20
182.15678639262109
10
107.0817001161337
20
182.11538003555532
10
107.11469206823821
20
182.07282864526192
10
107.14649578805901
20
182.0291491788586
10
107.17712379334759
20
181.98435859346344
0
LWPOLYLINE
5
101
100
AcDbEntity
8
0
100
AcDbPolyline
90
257
70
1
43
0.0
10
87.926438402399057
20
177.14293958725162
10
87.987014426373207
20
177.22384891517152
10
88.045497403444202
20
177.30715808727052
10
88.101855035842064
20
177.39288446281139
10
88.156055025796377
20
177.481045401057
10
88.208065075537107
20
177.57165826127044
10
88.257852887293907
20
177.6647404027145
10
88.30538616329693
20
177.76030918465261
10
88.350632605775814
20
177.858381966347
10
88.393559916960371
20
177.9589761070612
10
88.434135799080565
20
178.06210896605802
10
88.472327954365952
20
178.16779790259997
10
88.508104085046412
20
178.2760602759507
10
88.541431893351955
20
178.3869134453727
10
88.572279081512292
20
178.5003747701289
10
88.600613351757374
20
178.6164616094826
10
88.626402406316856
20
178.73519132269632
10
88.64961394742069
20
178.8565812690334
10
88.670215677298771
20
178.98064880775661
10
88.688175298180582
20
179.10741129812885
10
88.70346051229626
20
179.23688609941303
10
88.716039021875531
20
179.36909057087249
10
88.725878529148304
20
179.5040420717697
10
88.73294673634426
20
179.64175796136769
10
88.73721134569324
20
179.78225559892959
10
88.738640059425165
20
179.92555234371832
10
88.738640059425165
20
187.31666019777333
10
86.533606694090963
20
187.31666019777333
10
86.533606694090963
20
180.2959001083826
10
86.531988767152711
20
180.11108267904518
10
86.527070348743109
20
179.93360996450645
10
86.518754482470314
20
179.76338507145596
10
86.506944211941914
20
179.60031110658298
10
86.491542580766009
20
179.4442911765772
10
86.472452632550358
20
179.29522838812812
10
86.449577410902975
20
179.15302584792494
10
86.43669002366984
20
179.08446689175611
10
86.422819959431649
20
179.01758666265732
10
86.407955098639619
20
178.9523730489648
10
86.392083321744408
20
178.88881393901482
10
86.375192509197205
20
178.82689722114333
10
86.357270541448997
20
178.76661078368667
10
86.338305298950672
20
178.707942514981
10
86.318284662153474
20
178.65088030336261
10
86.297196511507991
20
178.59541203716742
10
86.275028727465497
20
178.54152560473193
10
86.251769190476821
20
178.48920889439222
10
86.227405780993195
20
178.43844979448417
10
86.201926379465363
20
178.38923619334435
10
86.175318866344369
20
178.34155597930888
10
86.147571122081231
20
178.29539704071368
10
86.118671027126993
20
178.25074726589551
10
86.088606461932613
20
178.20759454318988
10
86.073133715636231
20
178.18657579148442
10
86.057365306948782
20
178.16592676093342
10
86.041299720926872
20
178.14564593757862
10
86.024935442626884
20
178.1257318074621
10
86.008270957104983
20
178.10618285662594
10
85.99130474941775
20
178.08699757111216
10
85.974035304621367
20
178.06817443696289
10
85.95646110777237
20
178.04971194021991
10
85.93858064392704
20
178.03160856692554
10
85.920392398141772
20
178.01386280312141
10
85.90189485547296
20
177.99647313484991
10
85.883086500976901
20
177.97943804815273
10
85.863965819710074
20
177.96275602907218
10
85.84453129672886
20
177.94642556365017
10
85.824781417089525
20
177.93044513792881
10
85.804714665848451
20
177.91481323795009
10
85.784329528062017
20
177.89952834975591
10
85.763624488786718
20
177.88458895938851
10
85.742598033078806
20
177.86999355288958
10
85.72124864599472
20
177.85574061630149
10
85.699574812590754
20
177.84182863566602
10
85.677575017923346
20
177.82825609702542
10
85.655247747048861
20
177.81502148642141
10
85.632591485023568
20
177.80212328989643
10
85.58628592774653
20
177.77733008325049
10
85.538646226543051
20
177.75386436542419
10
85.489660261864316
20
177.73171402475342
10
85.439315914160957
20
177.71086694957432
10
85.387601063884432
20
177.69131102822342
10
85.334503591485372
20
177.6730341490364
10
85.280011377414908
20
177.65602420035003
10
85.224112302123913
20
177.64026907049998
10
85.166794246063546
20
177.62575664782293
10
85.108045089684765
20
177.61247482065448
10
85.047852713438374
20
177.60041147733119
10
84.986204997775531
20
177.5895545061893
10
84.923089823147279
20
177.57989179556483
10
84.858495070004437
20
177.57141123379384
10
84.792408618798049
20
177.56410070921291
10
84.72481834997906
20
177.55794811015784
10
84.655712143998471
20
177.55294132496499
10
84.512903442356674
20
177.54631674951082
10
84.363885557480558
20
177.54413008953944
10
84.23199864856349
20
177.545864927677
10
84.104250049153848
20
177.55118790930152
10
83.980642944871775
20
177.56027673523033
10
83.920393448909664
20
177.56628887131438
10
83.861180521336905
20
177.57330910628124
10
83.803004560355959
20
177.58135965273289
10
83.745865964169411
20
177.59046272327163
10
83.689765130979609
20
177.60064053049942
10
83.634702458989082
20
177.61191528701889
10
83.580678346400418
20
177.62430920543181
10
83.527693191415779
20
177.6378444983408
10
83.475747392237949
20
177.65254337834784
10
83.424841347069474
20
177.66842805805481
10
83.374975454112473
20
177.68552075006431
10
83.326150111569973
20
177.70384366697851
10
83.278365717644206
20
177.72341902139954
10
83.231622670537377
20
177.74426902592944
10
83.185921368452455
20
177.76641589317057
10
83.141262209591559
20
177.78988183572511
10
83.097645592157278
20
177.8146890661952
10
83.055071914352311
20
177.84085979718299
10
83.03417630224898
20
177.85446341680938
10
83.013541574378905
20
177.86841624129093
10
82.993167780517311
20
177.88272104720281
10
82.973054970439534
20
177.89738061112092
10
82.953203193920913
20
177.91239770961982
10
82.933612500736899
20
177.92777511927508
10
82.914282940662488
20
177.94351561666201
10
82.895214563473274
20
177.95962197835587
10
82.876407418944382
20
177.976096980932
10
82.85786155685129
20
177.99294340096543
10
82.839577026969224
20
178.01016401503159
10
82.821553879073463
20
178.02776159970591
10
82.803792162939217
20
178.04573893156342
10
82.786291928342052
20
178.0640987871794
10
82.769053225057192
20
178.08284394312932
10
82.75207610285976
20
178.1019771759884
10
82.735360611525266
20
178.12150126233192
10
82.718906800829032
20
178.14141897873481
10
82.686784420452227
20
178.18244640802081
10
82.655709359931961
20
178.22508167644881
10
82.625682017470808
20
178.26934699662087
10
82.596702791271127
20
178.3152645811391
10
82.568772079535393
20
178.36285664260583
10
82.541890280466191
20
178.41214539362335
10
82.516057792265869
20
178.46315304679339
10
82.49127501313707
20
178.5159018147186
10
82.467542341282069
20
178.57041391000109
10
82.444860174903624
20
178.62671154524298
10
82.423228912204195
20
178.68481693304662
10
82.402648951386027
20
178.74475228601398
10
82.383120690651808
20
178.80653981674732
10
82.364644528203939
20
178.87020173784884
10
82.347220862244967
20
178.93576026192082
10
82.330850090977492
20
179.00323760156536
10
82.315532612603661
20
179.07265596938453
10
82.301268825326147
20
179.14403757798081
10
82.28805912734768
20
179.21740463995616
10
82.275903916870448
20
179.29277936791291
10
82.26480359209701
20
179.3701839744532
10
82.245769192471471
20
179.53117167369331
10
82.230959114091092
20
179.70054543849383
10
82.22037654257565
20
179.87848296967223
10
82.214024663545047
20
180.06516196804611
10
82.211906662619313
20
180.26076013443313
10
82.211906662619313
20
187.31666019777333
10
79.936248839837504
20
187.31666019777333
10
79.936248839837504
20
179.87267012801962
10
79.937638955526154
20
179.72459989804261
10
79.941788306939102
20
179.57970690600985
10
79.948665400595942
20
179.43796409780799
10
79.958238743017091
20
179.29934441932332
10
79.970476840722313
20
179.16382081644241
10
79.98534820023167
20
179.03136623505119
10
80.002821328065025
20
178.90195362103663
10
80.02286473074264
20
178.77555592028443
10
80.045446914784421
20
178.65214607868143
10
80.070536386710046
20
178.53169704211368
10
80.098101653039976
20
178.41418175646783
10
80.128111220294045
20
178.29957316763
10
80.160533594992089
20
178.1878442214867
10
80.195337283654453
20
178.07896786392402
10
80.232490792800945
20
177.97291704082875
10
80.271962628951655
20
177.86966469808689
10
80.313721298626447
20
177.7691837815851
10
80.35773530834534
20
177.67144723720952
10
80.403973164628283
20
177.57642801084648
10
80.452403373995367
20
177.48409904838252
10
80.50299444296661
20
177.39443329570381
10
80.555714878061963
20
177.3074036986969
10
80.610533185801629
20
177.22298320324811
10
80.6674178727053
20
177.14114475524369
10
80.726337445293211
20
177.06186130056992
10
80.787260410085082
20
176.98510578511349
10
80.850155273601104
20
176.91085115476059
10
80.914990542361366
20
176.83907035539761
10
80.981734722885804
20
176.76973633291058
10
81.050356321694167
20
176.70282203318641
10
81.120823845306859
20
176.6383004021111
10
81.193105800243771
20
176.57614438557118
10
81.267170693024838
20
176.51632692945282
10
81.34298703016988
20
176.45882097964261
10
81.42052331819913
20
176.40359948202669
10
81.499748063632524
20
176.35063538249165
10
81.580629772990164
20
176.29990162692349
10
81.663136952791888
20
176.25137116120922
10
81.747238109557756
20
176.20501693123458
10
81.832901749807775
20
176.16081188288621
10
81.92009638006185
20
176.11872896205011
10
82.008790506840356
20
176.07874111461319
10
82.098952636662958
20
176.04082128646141
10
82.190551276049518
20
176.00494242348159
10
82.283554931520371
20
175.97107747155943
10
82.377932109595449
20
175.93919937658183
10
82.473651316794644
20
175.90928108443461
10
82.570681059637991
20
175.88129554100482
10
82.668989844645466
20
175.85521569217843
10
82.768546178337175
20
175.8310144838417
10
82.869318567232995
20
175.80866486188128
10
82.971275517852959
20
175.78813977218331
10
83.074385536717159
20
175.76941216063432
10
83.178617130345401
20
175.75245497312034
10
83.390319067974602
20
175.7237436537439
10
83.606129382900463
20
175.70178938114466
10
83.825796127283056
20
175.68637572241383
10
84.049067353282368
20
175.67728624464192
10
84.275691113058315
20
175.67430451492001
10
84.508882864109211
20
175.67773860792599
10
84.738611688614355
20
175.6881334696794
10
84.964619204412202
20
175.70562797428408
10
85.186647029341202
20
175.7303609958434
10
85.296087813304666
20
175.74548534863851
10
85.404436781240321
20
175.76247140846118
10
85.511661635378005
20
175.78133653457439
10
85.617730077947968
20
175.80209808624102
10
85.72260981117951
20
175.82477342272401
10
85.826268537302781
20
175.84937990328632
10
85.928673958547506
20
175.87593488719074
10
86.029793777143396
20
175.90445573370059
10
86.129595695320432
20
175.93495980207874
10
86.228047415308424
20
175.96746445158769
10
86.325116639337125
20
176.00198704149091
10
86.420771069636316
20
176.03854493105101
10
86.514978408435823
20
176.07715547953097
10
86.607706357965753
20
176.11783604619418
10
86.698922620455761
20
176.1606039903032
10
86.788594898135685
20
176.205476671121
10
86.876690893235264
20
176.25247144791058
10
86.963178307984194
20
176.30160567993494
10
87.048024844612542
20
176.35289672645681
10
87.13119820535006
20
176.40636194673942
10
87.21266609242663
20
176.46201870004558
10
87.292396208071978
20
176.51988434563819
10
87.370356254516096
20
176.57997624278033
10
87.446513933988626
20
176.64231175073482
10
87.52083694871942
20
176.70690822876469
10
87.593293000938502
20
176.77378303613281
10
87.663849792875482
20
176.84295353210231
10
87.732475026760085
20
176.91443707593589
10
87.799136404822463
20
176.98825102689671
10
87.863801629292084
20
177.06441274424751
0
LWPOLYLINE
5
102
100
AcDbEntity
8
0
100
AcDbPolyline
90
256
70
1
43
0.0
10
105.3884320047173
20
184.54579580383293
10
105.26553879010322
20
184.54175689578602
10
105.14397867068422
20
184.53505745103558
10
105.0237722386541
20
184.52572370757761
10
104.90494008620742
20
184.51378190340768
10
104.7875028055377
20
184.49925827652163
10
104.67148098883922
20
184.4821790649147
10
104.55689522830622
20
184.46257050658301
10
104.44376611613262
20
184.44045883952202
10
104.33211424451201
20
184.41587030172718
10
104.22196020563909
20
184.38883113119462
10
104.1133245917076
20
184.3593675659196
10
104.0062279949116
20
184.32750584389791
10
103.9006910074452
20
184.29327220312553
10
103.79673422150232
20
184.25669288159781
10
103.69437822927722
20
184.21779411731029
10
103.5936436229637
20
184.17660214825889
10
103.49455099475591
20
184.13314321243919
10
103.39712093684781
20
184.0874435478469
10
103.30137404143372
20
184.0395293924777
10
103.2073309007076
20
183.98942698432708
10
103.11501210686323
20
183.93716256139098
10
103.0244382520948
20
183.88276236166502
10
102.9356299285965
20
183.8262526231446
10
102.8486077285622
20
183.76765958382549
10
102.76339224418609
20
183.70700948170369
10
102.68000406766208
20
183.6443285547746
10
102.59846379118429
20
183.57964304103382
10
102.5187920069466
20
183.51297917847717
10
102.4410093071433
20
183.4443632051001
10
102.36513628396851
20
183.37382135889851
10
102.29119352961573
20
183.30137987786782
10
102.21920163627951
20
183.22706500000405
10
102.14918119615379
20
183.15090296330251
10
102.08115280143261
20
183.07292000575924
10
102.01513704431001
20
182.99314236536961
10
101.9511545169798
20
182.9115962801294
10
101.88922581163661
20
182.82830798803417
10
101.8293715204738
20
182.74330372707982
10
101.77161223568591
20
182.65660973526192
10
101.71596854946679
20
182.56825225057594
10
101.66246105401051
20
182.47825751101769
10
101.61111034151102
20
182.38665175458291
10
101.5619370041624
20
182.29346121926721
10
101.51496163415871
20
182.19871214306619
10
101.4702048236942
20
182.10243076397572
10
101.42768716496271
20
182.00464331999129
10
101.38742925015819
20
181.90537604910841
10
101.34945167147499
20
181.80465518932309
10
101.31377502110681
20
181.70250697863082
10
101.28041989124802
20
181.59895765502733
10
101.2494068740925
20
181.49403345650836
10
101.22075656183441
20
181.3877606210693
10
101.19448954666751
20
181.28016538670605
10
101.17062642078609
20
181.1712739914143
10
101.14918777638408
20
181.06111267318951
10
101.13019420565571
20
180.94970767002761
10
101.1136663007949
20
180.83708521992403
10
101.09962465399549
20
180.72327156087451
10
101.08808985745192
20
180.60829293087482
10
101.07908250335799
20
180.49217556792041
10
101.07262318390769
20
180.37494571000732
10
101.06873249129529
20
180.25662959513096
10
101.06743101771471
20
180.1372534612868
10
101.06870709898712
20
180.00501519452689
10
101.07252349923729
20
179.87456939881542
10
101.07886245311431
20
179.74592535503004
10
101.08770619526793
20
179.61909234404823
10
101.09903696034729
20
179.49407964674819
10
101.11283698300191
20
179.37089654400768
10
101.12908849788082
20
179.24955231670464
10
101.14777373963371
20
179.1300562457167
10
101.1688749429098
20
179.01241761192156
10
101.19237434235859
20
178.89664569619723
10
101.21825417262941
20
178.78274977942152
10
101.24649666837151
20
178.670739142472
10
101.2770840642343
20
178.56062306622681
10
101.309998594867
20
178.4524108315635
10
101.3452224949193
20
178.3461117193599
10
101.38273799904053
20
178.2417350104939
10
101.42252734187971
20
178.13928998584331
10
101.46457275808672
20
178.0387859262859
10
101.50885648231031
20
177.9402321126995
10
101.55536074920022
20
177.84363782596191
10
101.6040677934056
20
177.74901234695079
10
101.65495984957622
20
177.65636495654431
10
101.7080191523612
20
177.56570493561992
10
101.76322793640971
20
177.47704156505552
10
101.82056843637129
20
177.39038412572893
10
101.88002288689552
20
177.30574189851802
10
101.94157352263149
20
177.22312416430069
10
102.00520257822859
20
177.14254020395441
10
102.07089228833621
20
177.06399929835732
10
102.13862488760391
20
176.98751072838715
10
102.2083826106807
20
176.91308377492149
10
102.28014769221609
20
176.84072771883845
10
102.35390236685959
20
176.77045184101553
10
102.4296288692603
20
176.70226542233081
10
102.50730943406801
20
176.63617774366199
10
102.58692629593159
20
176.57219808588673
10
102.6684616895008
20
176.51033572988322
10
102.75189784942461
20
176.45059995652869
10
102.8372170103527
20
176.39300004670139
10
102.92440140693429
20
176.33754528127929
10
103.01343327381893
20
176.28424494113983
10
103.10429484565582
20
176.23310830716068
10
103.19696835709422
20
176.18414466022014
10
103.29143604278372
20
176.13736328119569
10
103.38768013737359
20
176.09277345096518
10
103.48568287551322
20
176.05038445040631
10
103.5854264918519
20
176.01020556039711
10
103.6868932210392
20
175.9722460618153
10
103.7900652977244
20
175.93651523553859
10
103.89492495655651
20
175.90302236244511
10
104.00145443218528
20
175.87177672341221
10
104.10963595925992
20
175.84278759931809
10
104.21945177242981
20
175.81606427104032
10
104.33088410634453
20
175.79161601945668
10
104.44391519565322
20
175.76945212544513
10
104.5585272750052
20
175.74958186988343
10
104.67470257905012
20
175.73201453364916
10
104.79242334243692
20
175.71675939762059
10
104.91167179981531
20
175.70382574267535
10
105.0324301858345
20
175.6932228496909
10
105.154680735144
20
175.68495999954519
10
105.278405682393
20
175.67904647311644
10
105.40358726223091
20
175.67549155128208
10
105.53020770930709
20
175.67430451492001
10
105.6600105630752
20
175.67574589622208
10
105.7881226254203
20
175.68004770399182
10
105.91453258896921
20
175.6871764340234
10
106.03922914634809
20
175.69709858211158
10
106.16220099018351
20
175.70978064405102
10
106.28343681310142
20
175.72518911563603
10
106.40292530772851
20
175.74329049266109
10
106.52065516669111
20
175.76405127092133
10
106.63661508261541
20
175.78743794621084
10
106.7507937481281
20
175.81341701432433
10
106.86317985585519
20
175.84195497105617
10
106.97376209842319
20
175.87301831220111
10
107.08252916845842
20
175.90657353355368
10
107.18946975858741
20
175.94258713090852
10
107.29457256143631
20
175.98102560006001
10
107.39782626963141
20
176.02185543680304
10
107.49921957579929
20
176.06504313693191
10
107.59874117256629
20
176.11055519624114
10
107.69637975255861
20
176.15835811052517
10
107.79212400840291
20
176.20841837557913
10
107.8859626327251
20
176.26070248719691
10
107.97788431815179
20
176.3151769411736
10
108.0678777573096
20
176.37180823330351
10
108.1559316428244
20
176.43056285938118
10
108.24203466732291
20
176.49140731520131
10
108.3261755234313
20
176.55430809655832
10
108.408342903776
20
176.61923169924682
10
108.4885255009833
20
176.68614461906159
10
108.56671200767961
20
176.75501335179683
10
108.6428911164913
20
176.82580439324732
10
108.71705152004481
20
176.89848423920751
10
108.78918191096643
20
176.97301938547199
10
108.8592709818824
20
177.04937632783538
10
108.92730742541929
20
177.12752156209231
10
108.9932799342033
20
177.20742158403721
10
109.05717720086091
20
177.28904288946492
10
109.11898791801841
20
177.37235197416962
10
109.1787007783021
20
177.45731533394601
10
109.2363044743383
20
177.54389946458855
10
109.29178769875358
20
177.63207086189192
10
109.3451391441743
20
177.72179602165062
10
109.39634750322659
20
177.81304143965934
10
109.44540146853711
20
177.90577361171262
10
109.49228973273193
20
177.99995903360499
10
109.53700098843751
20
178.0955642011312
10
109.5795239282802
20
178.19255561008544
10
109.61984724488642
20
178.29089975626232
10
109.65795963088249
20
178.3905631354568
10
109.6938497788949
20
178.49151224346298
10
109.7275063815497
20
178.5937135760756
10
109.75891813147359
20
178.69713362908931
10
109.7880737212927
20
178.80173889829871
10
109.81496184363351
20
178.90749587949819
10
109.83957119112232
20
179.01437106848232
10
109.86189045638551
20
179.12233096104569
10
109.88190833204931
20
179.23134205298305
10
109.89961351074022
20
179.34137084008859
10
109.91499468508472
20
179.45238381815722
10
109.928040547709
20
179.56434748298332
10
109.93873979123941
20
179.6772283303616
10
109.9470811083024
20
179.79099285608652
10
109.95305319152429
20
179.90560755595268
10
109.95664473353131
20
180.0210389257546
10
109.9578444269501
20
180.1372534612868
10
109.95665745826929
20
180.26303752280441
10
109.95310301020393
20
180.38735794179217
10
109.94719076971941
20
180.51019816722001
10
109.93893042378141
20
180.63154164805783
10
109.92833165935522
20
180.7513718332751
10
109.91540416340629
20
180.86967217184207
10
109.90015762290029
20
180.98642611272851
10
109.8826017248027
20
181.10161710490391
10
109.86274615607891
20
181.2152285973383
10
109.84060060369451
20
181.32724403900158
10
109.81617475461502
20
181.4376468788636
10
109.78947829580579
20
181.5464205658941
10
109.76052091423242
20
181.65354854906295
10
109.72931229686031
20
181.75901427733959
10
109.69586213065512
20
181.86280119969442
10
109.66018010258202
20
181.96489276509703
10
109.62227589960682
20
182.06527242251735
10
109.58215920869492
20
182.16392362092472
10
109.5398397168118
20
182.2608298092895
10
109.49532711092301
20
182.3559744365815
10
109.44863107799392
20
182.44934095177041
10
109.39976130499019
20
182.54091280382599
10
109.34872747887721
20
182.63067344171799
10
109.29553928662042
20
182.71860631441652
10
109.24020641518541
20
182.80469487089118
10
109.1827385515376
20
182.88892256011181
10
109.12314538264249
20
182.9712728310484
10
109.06143659546571
20
183.05172913267089
10
108.9976218769725
20
183.13027491394871
10
108.9317109141285
20
183.20689362385181
10
108.8637133938994
20
183.2815687113501
10
108.79363900325031
20
183.35428362541319
10
108.72149742914689
20
183.42502181501132
10
108.64729835855471
20
183.49376672911401
10
108.5710514784394
20
183.56050181669116
10
108.492766475766
20
183.62521052671252
10
108.41245303750021
20
183.68787630814802
10
108.33012085060771
20
183.74848260996754
10
108.24577960205401
20
183.80701288114082
10
108.15943897880409
20
183.86345057063761
10
108.07110866782402
20
183.91777912742782
10
107.98079835607901
20
183.9699820004812
10
107.88851773053472
20
184.02004263876773
10
107.79427647815631
20
184.06794449125701
10
107.6980842859098
20
184.11367100691902
10
107.5999508407601
20
184.15720563472374
10
107.49988582967312
20
184.19853182364062
10
107.39789893961421
20
184.23763302263981
10
107.2939998575488
20
184.274492680691
10
107.1881982704425
20
184.30909424676395
10
107.08050386526091
20
184.34142116982881
10
106.97092632896911
20
184.37145689885483
10
106.85947534853291
20
184.39918488281234
10
106.74616061091803
20
184.42458857067092
10
106.63099180308942
20
184.44765141140064
10
106.51397861201282
20
184.46835685397079
10
106.3951307246538
20
184.48668834735179
10
106.27445782797778
20
184.50262934051321
10
106.15196960895031
20
184.5161632824248
10
106.0276757545367
20
184.52727362205661
10
105.9015859517028
20
184.53594380837819
10
105.77370988741372
20
184.54215729035963
10
105.64405724863502
20
184.54589751697051
10
105.51263772233241
20
184.54714793718102
0
LWPOLYLINE
5
103
100
AcDbEntity
8
0
100
AcDbPolyline
90
190
70
1
43
0.0
10
90.942812150888244
20
175.85069340376469
10
93.183157744946229
20
175.85069340376469
10
93.183157744946229
20
181.58367680076904
10
93.236840944293803
20
181.63447722437019
10
93.292003375207059
20
181.68430508767517
10
93.348573976283888
20
181.73311840989084
10
93.406481686121197
20
181.7808752102242
10
93.465655443316805
20
181.82753350788207
10
93.526024186468021
20
181.87305132207143
10
93.587516854172378
20
181.91738667199922
10
93.65006238502724
20
181.96049757687248
10
93.713589717630157
20
182.00234205589808
10
93.778027790578577
20
182.04287812828281
10
93.843305542469921
20
182.08206381323367
10
93.909351911901794
20
182.11985712995769
10
93.976095837471462
20
182.15621609766188
10
94.043466257776458
20
182.19109873555283
10
94.111392111414261
20
182.22446306283783
10
94.17980233698222
20
182.2562670987237
10
94.248625873077927
20
182.28646886241731
10
94.317791658298688
20
182.31502637312553
10
94.387228631242124
20
182.34189765005533
10
94.456865730505712
20
182.36704071241383
10
94.526631894686716
20
182.39041357940772
10
94.596456062382686
20
182.41197427024414
10
94.666267172191283
20
182.43168080412983
10
94.73599416270963
20
182.44949120027169
10
94.805565972535419
20
182.46536347787702
10
94.874911540266126
20
182.4792556561523
10
94.943959804498959
20
182.49112575430485
10
95.01263970383161
20
182.50093179154118
10
95.08088017686147
20
182.50863178706862
10
95.148610162185861
20
182.5141837600938
10
95.215758598402459
20
182.51754572982381
10
95.282254424108601
20
182.51867571546569
10
95.362554555445968
20
182.51772253698573
10
95.441339530256286
20
182.51477260563809
10
95.518541535838594
20
182.50969032756149
10
95.594092759491801
20
182.50234010889483
10
95.63122813662585
20
182.4977721487586
10
95.66792538851486
20
182.49258635577667
10
95.704176038570964
20
182.48676578071661
10
95.739971610206794
20
182.48029347434561
10
95.775303626834585
20
182.47315248743109
10
95.810163611866528
20
182.46532587074054
10
95.844543088715227
20
182.45679667504072
10
95.878433580792958
20
182.44754795109958
10
95.911826611512211
20
182.4375627496843
10
95.944713704285064
20
182.42682412156222
10
95.977086382524135
20
182.41531511750051
10
96.008936169641743
20
182.40301878826659
10
96.04025458905042
20
182.3899181846281
10
96.071033164162159
20
182.37599635735191
10
96.101263418389649
20
182.36123635720571
10
96.130936875144926
20
182.34562123495641
10
96.160045057840762
20
182.32913404137173
10
96.188579489889207
20
182.31175782721888
10
96.21653169470278
20
182.2934756432652
10
96.243893195693886
20
182.27427054027822
10
96.270655516274701
20
182.25412556902481
10
96.296810179857872
20
182.23302378027282
10
96.322348709855632
20
182.21094822478932
10
96.34726262968023
20
182.1878819533415
10
96.371543462744285
20
182.163808016697
10
96.395182732459958
20
182.13870946562304
10
96.418171962239654
20
182.11256935088696
10
96.44050267549585
20
182.08537072325601
10
96.462166395640807
20
182.05709663349774
10
96.483154646086859
20
182.02773013237913
10
96.503458950246426
20
181.99725427066792
10
96.52307083153211
20
181.96565209913109
10
96.54198181335596
20
181.93290666853619
10
96.560183419130453
20
181.89900102965069
10
96.577667172267894
20
181.86391823324158
10
96.594424596180744
20
181.82764133007649
10
96.610447214281294
20
181.7901533709227
10
96.625726549982147
20
181.75143740654738
10
96.64025412669524
20
181.71147648771804
10
96.654021467833303
20
181.67025366520178
10
96.667020096808528
20
181.62775198976641
10
96.679241537033377
20
181.58395451217865
10
96.69067731192014
20
181.5388442832062
10
96.701318944881365
20
181.49240435361631
10
96.711157959329142
20
181.44461777417644
10
96.720185878676048
20
181.3954675956538
10
96.728394226334444
20
181.34493686881581
10
96.735774525716579
20
181.2930086444297
10
96.742318300234729
20
181.23966597326302
10
96.748017073301639
20
181.1848919060827
10
96.756845708730438
20
181.07098178675156
10
96.762192619301928
20
180.95114269257482
10
96.763989992314805
20
180.82523902969132
10
96.763989992314805
20
175.85069340376469
10
99.004335586372804
20
175.85069340376469
10
99.004335586372804
20
181.56610681379414
10
99.003268852502302
20
181.67082558911153
10
99.000091263009296
20
181.77331471435909
10
98.99483673607233
20
181.87359276706314
10
98.98753918986985
20
181.97167832474949
10
98.978232542579931
20
182.0675899649442
10
98.966950712381049
20
182.16134626517314
10
98.953727617451364
20
182.25296580296231
10
98.938597175969321
20
182.34246715583782
10
98.921593306113209
20
182.42986890132582
10
98.902749926061375
20
182.51518961695209
10
98.882100953992222
20
182.59844788024282
10
98.859680308083853
20
182.67966226872372
10
98.835521906514714
20
182.75885135992112
10
98.809659667463166
20
182.83603373136089
10
98.782127509107568
20
182.91122796056899
10
98.752959349626053
20
182.98445262507161
10
98.722189107197096
20
183.05572630239459
10
98.689850699998942
20
183.12506757006412
10
98.655978046209867
20
183.19249500560599
10
98.620605064008359
20
183.25802718654631
10
98.583765671572706
20
183.32168269041102
10
98.545493787081
20
183.38348009472617
10
98.505823328711813
20
183.44343797701794
10
98.464788214643377
20
183.50157491481201
10
98.422422363054025
20
183.5579094856347
10
98.378759692122131
20
183.61246026701167
10
98.333834120025926
20
183.66524583646941
10
98.287679564943801
20
183.7162847715334
10
98.240329945054015
20
183.76559564973002
10
98.191819178534857
20
183.81319704858524
10
98.142181183564844
20
183.85910754562497
10
98.091449878321995
20
183.90334571837491
10
98.039659180984913
20
183.94593014436163
10
97.986843009731714
20
183.986879401111
10
97.933035282740875
20
184.02621206614879
10
97.878269918190625
20
184.0639467170013
10
97.822580834259369
20
184.1001019311943
10
97.766001949125453
20
184.1346962862539
10
97.708567180966838
20
184.16774835970611
10
97.650310447962298
20
184.19927672907701
10
97.591265668289907
20
184.2292999718924
10
97.531466760128097
20
184.25783666567841
10
97.470947641655115
20
184.28490538796123
10
97.409742231049435
20
184.31052471626654
10
97.347884446489417
20
184.33471322812042
10
97.285408206152852
20
184.35748950104909
10
97.222347428218626
20
184.37887211257851
10
97.158736030864929
20
184.39887964023461
10
97.094607932270065
20
184.41753066154331
10
97.029997050612138
20
184.43484375403071
10
96.964937304069736
20
184.45083749522271
10
96.899462610821061
20
184.46553046264552
10
96.833606889044418
20
184.47894123382494
10
96.767404056918295
20
184.49108838628712
10
96.70088803262081
20
184.50199049755798
10
96.63409273433038
20
184.51166614516382
10
96.567052080225295
20
184.52013390663009
10
96.499799988484057
20
184.52741235948341
10
96.364797164805637
20
184.53847564945409
10
96.229355608721789
20
184.5450046352839
10
96.093746665659296
20
184.54714793718102
10
95.997522655982493
20
184.54600449939161
10
95.900740279679212
20
184.54254836462951
10
95.803460883588428
20
184.53674080080293
10
95.705745814549118
20
184.52854307582032
10
95.607656419399859
20
184.51791645758991
10
95.509254044979798
20
184.50482221402044
10
95.410600038127569
20
184.48922161301999
10
95.311755745682163
20
184.47107592249733
10
95.212782514482356
20
184.45034641036059
10
95.113741691367068
20
184.42699434451839
10
95.014694623175046
20
184.4009809928792
10
94.915702656745239
20
184.37226762335141
10
94.816827138916565
20
184.34081550384332
10
94.718129416527731
20
184.30658590226318
10
94.619670836417782
20
184.2695400865199
10
94.521512745425426
20
184.2296393245216
10
94.423716490389552
20
184.18684488417668
10
94.326343418149008
20
184.14111803339367
10
94.229454875542601
20
184.09242004008098
10
94.133112209409319
20
184.04071217214698
10
94.037376766587855
20
183.98595569750032
10
93.942309893917141
20
183.92811188404903
10
93.847972938236126
20
183.86714199970169
10
93.754427246383585
20
183.80300731236699
10
93.661734165198368
20
183.73566908995289
10
93.569955041519279
20
183.66508860036819
10
93.479151222185365
20
183.59122711152122
10
93.389384054035219
20
183.51404589132031
10
93.300714883907943
20
183.43350620767399
10
93.213205058642203
20
183.34956932849067
10
93.126915925076901
20
183.26219652167873
10
93.041908830051057
20
183.17134905514644
10
93.006768856101303
20
184.31787683263761
10
90.942812150888244
20
184.31787683263761
0
LWPOLYLINE
5
104
100
AcDbEntity
8
0
100
AcDbPolyline
90
27
70
1
43
0.0
10
0.99448193727664613
20
211.98861624844363
10
0.74057165541887571
20
211.94629786813357
10
0.50782056371588169
20
211.84050191735969
10
0.29622866216720922
20
211.69238758627586
10
0.12695514092899879
20
211.48079568472758
10
0.042318380309438908
20
211.24804459302459
10
3.4109999999999998e-13
20
210.97297512101161
10
3.4109867708131958e-13
20
159.6830981857207
10
0.042318380309438915
20
159.4291879038627
10
0.12695514092899879
20
159.1964368121597
10
0.29622866216720922
20
158.9848449106106
10
0.50782056371588169
20
158.81557138937262
10
0.74057165541887571
20
158.73093462875261
10
0.99448193727619483
20
158.68861624844368
10
65.001032155617281
20
158.68861624844368
10
65.254942437475037
20
158.73093462875352
10
65.487693529178046
20
158.81557138937262
10
65.699285430726718
20
158.9848449106106
10
65.868558951964928
20
159.1964368121597
10
65.953195712584034
20
159.4291879038627
10
65.995514092893586
20
159.6830981857207
10
65.995514092893586
20
161.22771906702263
10
68.534616911472639
20
163.76682188560159
10
68.534616911472639
20
196.50008905511282
10
65.995514092893586
20
199.03919187369183
10
65.995514092893586
20
210.46515455729647
10
64.47205240174651
20
211.98861624844363
0
ENDSEC
0
SECTION
2
OBJECTS
0
DICTIONARY
5
C
100
AcDbDictionary
3
ACAD_GROUP
350
D
3
ACAD_MLINESTYLE
350
17
0
DICTIONARY
5
D
100
AcDbDictionary
0
DICTIONARY
5
1A
330
C
100
AcDbDictionary
0
DICTIONARY
5
17
100
AcDbDictionary
0
ENDSEC
0
EOF
