0
SECTION
2
HEADER
9
$INSUNITS
70
4
9
$ACADVER
1
AC1014
9
$HANDSEED
5
FFFF
0
ENDSEC
0
SECTION
2
TABLES
0
TABLE
2
VPORT
5
8
100
AcDbSymbolTable
0
ENDTAB
0
TABLE
2
LTYPE
5
5
100
AcDbSymbolTable
0
LTYPE
5
14
100
AcDbSymbolTableRecord
100
AcDbLinetypeTableRecord
2
BYBLOCK
70
0
0
LTYPE
5
15
100
AcDbSymbolTableRecord
100
AcDbLinetypeTableRecord
2
BYLAYER
70
0
0
ENDTAB
0
TABLE
2
LAYER
5
2
100
AcDbSymbolTable
70
2
0
LAYER
5
50
100
AcDbSymbolTableRecord
100
AcDbLayerTableRecord
2
0
70
0
6
CONTINUOUS
0
ENDTAB
0
TABLE
2
STYLE
5
3
100
AcDbSymbolTable
70
1
0
STYLE
5
11
100
AcDbSymbolTableRecord
100
AcDbTextStyleTableRecord
2
STANDARD
70
0
0
ENDTAB
0
TABLE
2
VIEW
5
6
100
AcDbSymbolTable
70
0
0
ENDTAB
0
TABLE
2
UCS
5
7
100
AcDbSymbolTable
70
0
0
ENDTAB
0
TABLE
2
APPID
5
9
100
AcDbSymbolTable
70
2
0
APPID
5
12
100
AcDbSymbolTableRecord
100
AcDbRegAppTableRecord
2
ACAD
70
0
0
ENDTAB
0
TABLE
2
DIMSTYLE
5
A
100
AcDbSymbolTable
70
1
0
ENDTAB
0
TABLE
2
BLOCK_RECORD
5
1
100
AcDbSymbolTable
70
1
0
BLOCK_RECORD
5
1F
100
AcDbSymbolTableRecord
100
AcDbBlockTableRecord
2
*MODEL_SPACE
0
BLOCK_RECORD
5
1B
100
AcDbSymbolTableRecord
100
AcDbBlockTableRecord
2
*PAPER_SPACE
0
ENDTAB
0
ENDSEC
0
SECTION
2
BLOCKS
0
BLOCK
5
20
100
AcDbEntity
100
AcDbBlockBegin
2
*MODEL_SPACE
0
ENDBLK
5
21
100
AcDbEntity
100
AcDbBlockEnd
0
BLOCK
5
1C
100
AcDbEntity
100
AcDbBlockBegin
2
*PAPER_SPACE
0
ENDBLK
5
1D
100
AcDbEntity
100
AcDbBlockEnd
0
ENDSEC
0
SECTION
2
ENTITIES
0
LWPOLYLINE
5
100
100
AcDbEntity
8
0
100
AcDbPolyline
90
181
70
1
43
0.0
10
-66.18083629372461
20
-195.81228093333687
10
-66.125386890807249
20
-195.81774222426449
10
-66.069781575876505
20
-195.82127930412622
10
-66.014087102936969
20
-195.82288792666759
10
-65.958370333027233
20
-195.82256616074301
10
-65.902698153953111
20
-195.82031439263145
10
-65.847137399989492
20
-195.81613532557321
10
-65.791754771645515
20
-195.81003397652535
10
-65.736616755591399
20
-195.80201767013767
10
-65.68178954484074
20
-195.7920960299609
10
-65.627338959286817
20
-195.78028096689258
10
-65.573330366684786
20
-195.76658666487859
10
-65.51982860417958
20
-195.75102956388545
10
-65.466897900467529
20
-195.73362834016282
10
-65.41460179869091
20
-195.71440388382553
10
-65.363003080154613
20
-195.69337927377234
10
-65.312163688956844
20
-195.67057974998062
10
-65.26214465762564
20
-195.6460326832071
10
-65.213006033849979
20
-195.61976754212765
10
-65.164806808392314
20
-195.59181585796071
10
-65.117604844269977
20
-195.56221118661512
10
-65.071456807291611
20
-195.53098906840484
10
-65.026418098029581
20
-195.49818698538414
10
-64.982542785312035
20
-195.46384431634971
10
-64.939883541312611
20
-195.42800228956679
10
-64.898491578318954
20
-195.39070393327569
10
-64.858416587251781
20
-195.35199402403461
10
-64.819706678010789
20
-195.31191903296744
10
-64.782408321719458
20
-195.27052706997392
10
-64.74656629493677
20
-195.2278678259745
10
-64.712223625902197
20
-195.18399251325673
10
-64.6794215428814
20
-195.13895380399487
10
-64.64819942467102
20
-195.0928057670167
10
-64.618594753325397
20
-195.04560380289419
10
-64.590643069158659
20
-194.99740457743661
10
-64.564377928079125
20
-194.94826595366072
10
-64.539830861305632
20
-194.89824692232969
10
-64.517031337514027
20
-194.84740753113189
10
-64.496006727460781
20
-194.7958088125954
10
-64.476782271123284
20
-194.743512710819
10
-64.459381047400939
20
-194.69058200710703
10
-64.443823946407392
20
-194.63708024460169
10
-64.43012964439346
20
-194.58307165199989
10
-64.418314581325149
20
-194.52862106644585
10
-64.408392941148463
20
-194.47379385569502
10
-64.400376634760732
20
-194.41865583964096
10
-64.394275285712752
20
-194.36327321129696
10
-64.390096218654548
20
-194.30771245733331
10
-64.387844450542971
20
-194.25204027825936
10
-64.387522684618489
20
-194.19632350834951
10
-64.389131307159914
20
-194.14062903541003
10
-64.392668387021331
20
-194.08502372047934
10
-64.398129677949328
20
-194.02957431756198
10
-64.405508623681499
20
-193.97434739349069
10
-64.414796365816642
20
-193.91940924801293
10
-64.425981754450049
20
-193.86482583419891
10
-64.439051361557858
20
-193.81066267926371
10
-64.453989497118073
20
-193.75698480590358
10
-64.47077822794644
20
-193.70385665423561
10
-64.489397399224572
20
-193.65134200443748
10
-64.509824658696289
20
-193.59950390018054
10
-64.532035483501204
20
-193.54840457294449
10
-64.55600320961446
20
-193.49810536731002
10
-64.581699063856831
20
-193.44866666731468
10
-64.609092198436429
20
-193.40014782396068
10
-64.638149727982182
20
-193.3526070839666
10
-64.668836769021468
20
-193.30610151984001
10
-64.701116481858776
20
-193.26068696136332
10
-64.734950114801222
20
-193.21641792857051
10
-64.770297050679233
20
-193.17334756629543
10
-64.807114855608347
20
-193.13152758037134
10
-64.845359329930261
20
-193.09100817555901
10
-64.884984561274351
20
-193.05183799527595
10
-64.925942979676165
20
-193.01406406319941
10
-64.968185414683717
20
-192.97773172681545
10
-65.011661154387525
20
-192.94288460297892
10
-65.05631800629989
20
-192.90956452555164
10
-65.102102360011258
20
-192.87781149518082
10
-65.148959251549968
20
-192.84766363127943
10
-65.196832429365941
20
-192.81915712626233
10
-65.245664421860738
20
-192.79232620209859
10
-65.295396606381928
20
-192.76720306922795
10
-65.345969279599331
20
-192.74381788789154
10
-65.397321729179112
20
-192.72219873192631
10
-65.449392306667619
20
-192.7023715550597
10
-65.502118501501641
20
-192.68436015975522
10
-65.555437016051087
20
-192.66818616863591
10
-65.609283841607976
20
-192.65386899852683
10
-65.663594335228709
20
-192.64142583714559
10
-65.71830329733757
20
-192.63087162246759
10
-65.773345049998611
20
-192.6222190247947
10
-65.828653515761857
20
-192.61547843154273
10
-65.88416229698953
20
-192.61065793477252
10
-65.939804755565319
20
-192.60776332147543
10
-65.995514092893586
20
-192.60679806662534
10
-66.051635919237569
20
-192.60777767766061
10
-66.107689369751256
20
-192.61071531539571
10
-66.163606151942645
20
-192.61560740077113
10
-66.219318139828715
20
-192.62244797353489
10
-66.274757456936982
20
-192.63122869950297
10
-66.32985655900211
20
-192.64193888071404
10
-66.384548316258474
20
-192.65456546846264
10
-66.438766095227265
20
-192.66909307919704
10
-66.492443839899352
20
-192.68550401326181
10
-66.545516152213764
20
-192.70377827646331
10
-66.597918371736114
20
-192.7238936044273
10
-66.649586654436462
20
-192.74582548972603
10
-66.700458050473799
20
-192.76954721173709
10
-66.750470580890806
20
-192.79502986919724
10
-66.799563313125873
20
-192.8222424154151
10
-66.847676435249241
20
-192.85115169609622
10
-66.894751328835355
20
-192.88172248973663
10
-66.940730640380139
20
-192.91391755053539
10
-66.985558351177474
20
-192.94769765377117
10
-67.029179845569161
20
-192.98302164359393
10
-67.071541977486049
20
-193.01984648316471
10
-67.112593135197812
20
-193.0581273070911
10
-67.152283304194498
20
-193.09781747608764
10
-67.190564128120741
20
-193.13886863379963
10
-67.227388967691567
20
-193.18123076571652
10
-67.262712957514282
20
-193.22485226010798
10
-67.296493060750322
20
-193.26967997090509
10
-67.328688121548794
20
-193.31565928244999
10
-67.359258915189343
20
-193.36273417603621
10
-67.388168195870662
20
-193.41084729815987
10
-67.415380742088473
20
-193.45994003039462
10
-67.440863399548689
20
-193.5099525608116
10
-67.464585121559594
20
-193.56082395684919
10
-67.486517006858548
20
-193.61249223954928
10
-67.50663233482237
20
-193.66489445907149
10
-67.524906598023676
20
-193.71796677138633
10
-67.541317532088897
20
-193.77164451605807
10
-67.555845142823159
20
-193.82586229502681
10
-67.568471730571673
20
-193.88055405228312
10
-67.579181911782825
20
-193.93565315434853
10
-67.587962637751048
20
-193.9910924714566
10
-67.594803210514669
20
-194.04680445934261
10
-67.599695295890228
20
-194.10272124153403
10
-67.602632933625159
20
-194.15877469204773
10
-67.603612544660791
20
-194.21489651839195
10
-67.602647289810648
20
-194.27060585572011
10
-67.599752676513504
20
-194.32624831429581
10
-67.59493217974341
20
-194.38175709552343
10
-67.588191586491462
20
-194.43706556128703
10
-67.579538988818513
20
-194.49210731394814
10
-67.568984774140631
20
-194.54681627605666
10
-67.556541612759247
20
-194.60112676967739
10
-67.542224442650308
20
-194.65497359523442
10
-67.526050451530978
20
-194.70829210978383
10
-67.508039056226508
20
-194.76101830461795
10
-67.488211879359937
20
-194.81308888210651
10
-67.466592723394569
20
-194.86444133168612
10
-67.443207542058303
20
-194.9150140049035
10
-67.418084409187713
20
-194.96474618942472
10
-67.391253485023981
20
-195.01357818191951
10
-67.362746980007046
20
-195.06145135973568
10
-67.332599116105598
20
-195.10830825127414
10
-67.300846085734861
20
-195.15409260498558
10
-67.267526008307527
20
-195.19874945689804
10
-67.232678884470829
20
-195.24222519660185
10
-67.196346548086922
20
-195.28446763160952
10
-67.15857261601046
20
-195.32542605001117
10
-67.119402435727352
20
-195.36505128135559
10
-67.078883030915108
20
-195.40329575567722
10
-67.037063044990987
20
-195.44011356060633
10
-66.993992682715771
20
-195.47546049648443
10
-66.949723649923044
20
-195.50929412942702
10
-66.904309091446407
20
-195.54157384226411
10
-66.857803527319788
20
-195.57226088330341
10
-66.810262787325541
20
-195.6013184128492
10
-66.761743943971851
20
-195.62871154742882
10
-66.712305243976402
20
-195.65440740167134
10
-66.662006038342042
20
-195.67837512778442
10
-66.61090671110604
20
-195.70058595258962
10
-66.559068606848996
20
-195.72101321206134
10
-66.506553957050983
20
-195.73963238333931
10
-66.453425805383063
20
-195.75642111416761
10
-66.399747932022706
20
-195.77135924972805
10
-66.345584777087538
20
-195.78442885683586
10
-66.291001363273381
20
-195.7956142454691
10
-66.236063217795845
20
-195.80490198760444
0
LWPOLYLINE
5
101
100
AcDbEntity
8
0
100
AcDbPolyline
90
181
70
1
43
0.0
10
-13.134358217682232
20
-162.60463840659011
10
-13.0871562535599
20
-162.57503373524455
10
-13.041008216581639
20
-162.54381161703418
10
-12.995969507319732
20
-162.5110095340134
10
-12.95209419460207
20
-162.4766668649788
10
-12.90943495060276
20
-162.44082483819608
10
-12.86804298760921
20
-162.40352648190503
10
-12.827967996541929
20
-162.36481657266398
10
-12.78925808730094
20
-162.32474158159681
10
-12.751959731009723
20
-162.28334961860321
10
-12.716117704227033
20
-162.24069037460393
10
-12.681775035192462
20
-162.19681506188618
10
-12.648972952171679
20
-162.15177635262432
10
-12.6177508339614
20
-162.10562831564613
10
-12.58814616261577
20
-162.05842635152368
10
-12.560194478449031
20
-162.01022712606598
10
-12.5339293373695
20
-161.96108850229041
10
-12.50938227059601
20
-161.91106947095932
10
-12.486582746804519
20
-161.86023007976144
10
-12.465558136751163
20
-161.80863136122508
10
-12.446333680413773
20
-161.75633525944872
10
-12.42893245669131
20
-161.70340455573668
10
-12.413375355697891
20
-161.64990279323152
10
-12.399681053683819
20
-161.5958942006296
10
-12.387865990615641
20
-161.54144361507548
10
-12.377944350438721
20
-161.48661640432491
10
-12.369928044051221
20
-161.43147838827082
10
-12.36382669500313
20
-161.3760957599269
10
-12.359647627945041
20
-161.32053500596331
10
-12.357395859833332
20
-161.26486282688919
10
-12.35707409390886
20
-161.20914605697945
10
-12.358682716450522
20
-161.15345158404
10
-12.362219796311711
20
-161.0978462691094
10
-12.367681087239699
20
-161.04239686619201
10
-12.37506003297187
20
-160.98716994212083
10
-12.384347775107132
20
-160.93223179664318
10
-12.395533163740422
20
-160.87764838282902
10
-12.408602770848351
20
-160.82348522789391
10
-12.423540906408562
20
-160.76980735453384
10
-12.440329637236911
20
-160.71667920286569
10
-12.458948808514831
20
-160.66416455306768
10
-12.479376067986552
20
-160.61232644881071
10
-12.501586892791581
20
-160.56122712157486
10
-12.525554618904831
20
-160.51092791594041
10
-12.551250473147213
20
-160.46148921594499
10
-12.5786436077268
20
-160.41297037259119
10
-12.607701137272439
20
-160.36542963259711
10
-12.63838817831186
20
-160.31892406847044
10
-12.670667891149153
20
-160.27350950999391
10
-12.70450152409148
20
-160.2292404772011
10
-12.739848459969492
20
-160.18617011492591
10
-12.77666626489861
20
-160.14435012900168
10
-12.814910739220409
20
-160.10383072418949
10
-12.8545359705646
20
-160.06466054390648
10
-12.895494388966311
20
-160.02688661183001
10
-12.937736823973751
20
-159.99055427544613
10
-12.98121256367779
20
-159.9557071516094
10
-13.025869415590021
20
-159.9223870741821
10
-13.07165376930141
20
-159.8906340438115
10
-13.118510660839998
20
-159.86048617990988
10
-13.166383838655861
20
-159.83197967489281
10
-13.21521583115077
20
-159.80514875072919
10
-13.264948015671962
20
-159.78002561785851
10
-13.315520688889361
20
-159.75664043652242
10
-13.36687313846892
20
-159.73502128055691
10
-13.418943715957429
20
-159.71519410369041
10
-13.471669910791551
20
-159.69718270838592
10
-13.524988425340892
20
-159.68100871726659
10
-13.578835250897903
20
-159.6666915471576
10
-13.6331457445184
20
-159.65424838577619
10
-13.68785470662738
20
-159.6436941710983
10
-13.742896459288199
20
-159.63504157342541
10
-13.79820492505166
20
-159.62830098017344
10
-13.853713706279223
20
-159.6234804834032
10
-13.9093561648549
20
-159.62058587010608
10
-13.965065502183172
20
-159.61962061525591
10
-14.02118732852716
20
-159.62060022629132
10
-14.07724077904084
20
-159.62353786402642
10
-14.13315756123222
20
-159.62842994940183
10
-14.188869549118293
20
-159.6352705221656
10
-14.244308866226449
20
-159.64405124813382
10
-14.299407968291691
20
-159.65476142934492
10
-14.35409972554794
20
-159.66738801709351
10
-14.408317504516733
20
-159.68191562782772
10
-14.46199524918859
20
-159.69832656189269
10
-14.515067561503091
20
-159.71660082509419
10
-14.56746978102535
20
-159.73671615305813
10
-14.619138063725591
20
-159.75864803835691
10
-14.67000945976304
20
-159.7823697603678
10
-14.72002199018004
20
-159.807852417828
10
-14.769114722415001
20
-159.83506496404581
10
-14.817227844538369
20
-159.86397424472699
10
-14.864302738124483
20
-159.8945450383676
10
-14.910282049669153
20
-159.92674009916618
10
-14.955109760466483
20
-159.96052020240211
10
-14.998731254858171
20
-159.99584419222469
10
-15.04109338677495
20
-160.03266903179551
10
-15.082144544486821
20
-160.07094985572192
10
-15.121834713483393
20
-160.11064002471852
10
-15.160115537409752
20
-160.15169118243008
10
-15.196940376980592
20
-160.194053314347
10
-15.232264366803289
20
-160.23767480873869
10
-15.266044470039219
20
-160.28250251953591
10
-15.298239530837803
20
-160.32848183108069
10
-15.328810324478351
20
-160.37555672466681
10
-15.357719605159449
20
-160.42366984679009
10
-15.384932151377368
20
-160.47276257902499
10
-15.410414808837572
20
-160.52277510944234
10
-15.434136530848599
20
-160.5736465054795
10
-15.45606841614733
20
-160.62531478817985
10
-15.476183744111269
20
-160.67771700770203
10
-15.49445800731257
20
-160.7307893200165
10
-15.51086894137779
20
-160.78446706468841
10
-15.525396552112172
20
-160.83868484365721
10
-15.538023139860682
20
-160.89337660091354
10
-15.548733321071722
20
-160.9484757029785
10
-15.557514047039941
20
-161.00391502008679
10
-15.56435461980368
20
-161.05962700797281
10
-15.569246705179243
20
-161.11554379016422
10
-15.572184342914168
20
-161.1715972406779
10
-15.573163953949802
20
-161.22771906702181
10
-15.572198699099662
20
-161.28342840435022
10
-15.569304085802402
20
-161.33907086292601
10
-15.564483589032312
20
-161.39457964415354
10
-15.55774299578025
20
-161.44988810991688
10
-15.549090398107301
20
-161.50492986257791
10
-15.53853618342953
20
-161.5596388246868
10
-15.52609302204826
20
-161.61394931830739
10
-15.511775851939092
20
-161.66779614386431
10
-15.495601860819761
20
-161.72111465841368
10
-15.477590465515389
20
-161.77384085324758
10
-15.457763288648948
20
-161.82591143073634
10
-15.436144132683472
20
-161.87726388031592
10
-15.412758951347199
20
-161.92783655353333
10
-15.38763581847661
20
-161.97756873805452
10
-15.360804894312992
20
-162.02640073054934
10
-15.332298389295943
20
-162.07427390836531
10
-15.3021505253945
20
-162.12113079990391
10
-15.270397495023868
20
-162.16691515361529
10
-15.237077417596538
20
-162.21157200552761
10
-15.20223029375984
20
-162.25504774523142
10
-15.165897957375929
20
-162.29729018023909
10
-15.128124025299371
20
-162.33824859864083
10
-15.088953845016363
20
-162.37787382998502
10
-15.048434440204231
20
-162.41611830430668
10
-15.006614454280109
20
-162.45293610923582
10
-14.96354409200489
20
-162.4882830451138
10
-14.919275059212172
20
-162.52211667805622
10
-14.87386050073553
20
-162.55439639089371
10
-14.827354936608913
20
-162.58508343193301
10
-14.779814196614891
20
-162.61414096147854
10
-14.731295353261089
20
-162.64153409605831
10
-14.68185665326564
20
-162.66722995030062
10
-14.63155744763128
20
-162.69119767641394
10
-14.58045812039529
20
-162.71340850121891
10
-14.528620016138349
20
-162.73383576069062
10
-14.476105366340331
20
-162.75245493196871
10
-14.422977214672301
20
-162.76924366279698
10
-14.369299341312169
20
-162.78418179835734
10
-14.315136186377002
20
-162.79725140546509
10
-14.260552772562852
20
-162.80843679409853
10
-14.205614627085312
20
-162.81772453623381
10
-14.150387703014083
20
-162.82510348196581
10
-14.094938300096828
20
-162.83056477289381
10
-14.039332985166082
20
-162.83410185275523
10
-13.983638512226662
20
-162.83571047529682
10
-13.927921742316812
20
-162.83538870937218
10
-13.8722495632428
20
-162.83313694126068
10
-13.81668880927907
20
-162.8289578742025
10
-13.761306180935211
20
-162.82285652515441
10
-13.70616816488109
20
-162.8148402187669
10
-13.651340954130553
20
-162.80491857859008
10
-13.59689036857651
20
-162.79310351552181
10
-13.542881775974591
20
-162.77940921350785
10
-13.489380013469372
20
-162.7638521125144
10
-13.436449309757341
20
-162.746450888792
10
-13.384153207980942
20
-162.72722643245459
10
-13.33255448944465
20
-162.70620182240134
10
-13.281715098246652
20
-162.68340229860982
10
-13.231696066915671
20
-162.65885523183641
10
-13.182557443140013
20
-162.63259009075682
0
LWPOLYLINE
5
102
100
AcDbEntity
8
0
100
AcDbPolyline
90
181
70
1
43
0.0
10
-67.190564128120286
20
-165.22989681958845
10
-67.227388967691013
20
-165.27225895150508
10
-67.262712957513713
20
-165.31588044589682
10
-67.29649306074964
20
-165.36070815669419
10
-67.328688121548225
20
-165.40668746823894
10
-67.359258915188661
20
-165.45376236182508
10
-67.388168195869866
20
-165.50187548394831
10
-67.415380742087791
20
-165.55096821618343
10
-67.440863399547879
20
-165.60098074660038
10
-67.464585121558898
20
-165.65185214263772
10
-67.486517006857639
20
-165.7035204253381
10
-67.50663233482156
20
-165.75592264486019
10
-67.524906598023023
20
-165.80899495717472
10
-67.541317532087987
20
-165.86267270184669
10
-67.555845142822363
20
-165.91689048081543
10
-67.568471730570749
20
-165.97158223807168
10
-67.579181911781916
20
-166.02668134013695
10
-67.587962637750252
20
-166.08212065724501
10
-67.594803210513987
20
-166.13783264513108
10
-67.599695295889418
20
-166.1937494273225
10
-67.602632933624477
20
-166.24980287783612
10
-67.603612544660336
20
-166.30592470418003
10
-67.602647289810292
20
-166.36163404150841
10
-67.599752676513049
20
-166.41727650008409
10
-67.594932179742955
20
-166.47278528131159
10
-67.588191586491007
20
-166.52809374707513
10
-67.579538988818058
20
-166.58313549973622
10
-67.568984774140176
20
-166.63784446184491
10
-67.556541612758792
20
-166.69215495546564
10
-67.54222444264974
20
-166.7460017810225
10
-67.526050451530523
20
-166.79932029557199
10
-67.508039056226039
20
-166.852046490406
10
-67.488211879359469
20
-166.90411706789459
10
-67.466592723394001
20
-166.95546951747431
10
-67.443207542057849
20
-167.0060421906918
10
-67.418084409187145
20
-167.05577437521299
10
-67.391253485023526
20
-167.10460636770785
10
-67.362746980006477
20
-167.15247954552382
10
-67.33259911610503
20
-167.19933643706253
10
-67.300846085734293
20
-167.24512079077391
10
-67.267526008306959
20
-167.2897776426862
10
-67.232678884470374
20
-167.3332533823901
10
-67.196346548086353
20
-167.37549581739768
10
-67.158572616009792
20
-167.41645423579942
10
-67.119402435726784
20
-167.45607946714358
10
-67.07888303091454
20
-167.4943239414655
10
-67.037063044990532
20
-167.53114174639461
10
-66.993992682715202
20
-167.56648868227259
10
-66.949723649922362
20
-167.60032231521504
10
-66.904309091445853
20
-167.63260202805242
10
-66.85780352731922
20
-167.66328906909169
10
-66.810262787325101
20
-167.6923465986373
10
-66.761743943971283
20
-167.71973973321701
10
-66.71230524397572
20
-167.74543558745944
10
-66.66200603834146
20
-167.76940331357264
10
-66.610906711105372
20
-167.7916141383777
10
-66.559068606848314
20
-167.81204139784944
10
-66.506553957050414
20
-167.83066056912742
10
-66.453425805382267
20
-167.8474492999558
10
-66.399747932022137
20
-167.8623874355161
10
-66.345584777086856
20
-167.87545704262391
10
-66.291001363272812
20
-167.88664243125734
10
-66.236063217795049
20
-167.8959301733926
10
-66.180836293723814
20
-167.9033091191246
10
-66.125386890806567
20
-167.9087704100526
10
-66.069781575875822
20
-167.91230748991399
10
-66.014087102936401
20
-167.91391611245561
10
-65.958370333026551
20
-167.913594346531
10
-65.902698153952429
20
-167.91134257841944
10
-65.847137399988696
20
-167.90716351136132
10
-65.791754771644833
20
-167.9010621623132
10
-65.736616755590603
20
-167.89304585592572
10
-65.681789544840171
20
-167.88312421574884
10
-65.627338959286021
20
-167.87130915268062
10
-65.573330366684104
20
-167.85761485066661
10
-65.519828604178883
20
-167.84205774967313
10
-65.466897900466734
20
-167.82465652595067
10
-65.414601798690342
20
-167.80543206961335
10
-65.363003080154044
20
-167.7844074595599
10
-65.312163688956048
20
-167.76160793576832
10
-65.262144657624845
20
-167.73706086899492
10
-65.213006033849297
20
-167.71079572791533
10
-65.164806808391518
20
-167.68284404374867
10
-65.117604844269181
20
-167.65323937240294
10
-65.071456807290929
20
-167.62201725419271
10
-65.026418098028898
20
-167.58921517117184
10
-64.982542785311239
20
-167.55487250213733
10
-64.939883541311929
20
-167.5190304753545
10
-64.898491578318385
20
-167.48173211906331
10
-64.858416587251099
20
-167.44302220982232
10
-64.819706678010107
20
-167.402947218755
10
-64.78240832171889
20
-167.36155525576152
10
-64.746566294936201
20
-167.31889601176204
10
-64.712223625901629
20
-167.27502069904449
10
-64.679421542880846
20
-167.22998198978252
10
-64.648199424670565
20
-167.18383395280409
10
-64.618594753324828
20
-167.1366319886819
10
-64.590643069158091
20
-167.08843276322398
10
-64.56437792807867
20
-167.03929413944832
10
-64.539830861305063
20
-166.98927510811717
10
-64.517031337513686
20
-166.93843571691951
10
-64.496006727460212
20
-166.88683699838305
10
-64.476782271122943
20
-166.8345408966064
10
-64.459381047400484
20
-166.7816101928945
10
-64.443823946407065
20
-166.72810843038931
10
-64.430129644392991
20
-166.67409983778731
10
-64.418314581324822
20
-166.61964925223319
10
-64.408392941148122
20
-166.56482204148261
10
-64.400376634760391
20
-166.50968402542841
10
-64.394275285712524
20
-166.45430139708449
10
-64.390096218654207
20
-166.3987406431207
10
-64.387844450542616
20
-166.34306846404669
10
-64.387522684618247
20
-166.28735169413699
10
-64.389131307159687
20
-166.23165722119748
10
-64.392668387021104
20
-166.17605190626671
10
-64.3981296779491
20
-166.12060250334932
10
-64.405508623681271
20
-166.06537557927808
10
-64.414796365816542
20
-166.0104374338006
10
-64.425981754449936
20
-165.9558540199863
10
-64.439051361557745
20
-165.90169086505131
10
-64.453989497117959
20
-165.84801299169101
10
-64.470778227946312
20
-165.794884840023
10
-64.489397399224458
20
-165.74237019022502
10
-64.509824658696289
20
-165.6905320859679
10
-64.532035483501204
20
-165.639432758732
10
-64.55600320961446
20
-165.58913355309758
10
-64.581699063856959
20
-165.53969485310211
10
-64.609092198436656
20
-165.49117600974841
10
-64.638149727982182
20
-165.44363526975417
10
-64.668836769021596
20
-165.39712970562749
10
-64.701116481859117
20
-165.35171514715088
10
-64.73495011480145
20
-165.3074461143581
10
-64.77029705067946
20
-165.26437575208303
10
-64.807114855608688
20
-165.22255576615873
10
-64.845359329930517
20
-165.18203636134658
10
-64.884984561274678
20
-165.1428661810636
10
-64.925942979676392
20
-165.10509224898701
10
-64.96818541468393
20
-165.06875991260313
10
-65.01166115438798
20
-165.03391278876649
10
-65.05631800630033
20
-165.0005927113391
10
-65.102102360011713
20
-164.9688396809685
10
-65.148959251550423
20
-164.938691817067
10
-65.196832429366395
20
-164.91018531205
10
-65.245664421861193
20
-164.88335438788621
10
-65.295396606382383
20
-164.85823125501582
10
-65.345969279599899
20
-164.83484607367953
10
-65.397321729179453
20
-164.81322691771399
10
-65.449392306668074
20
-164.79339974084758
10
-65.502118501502082
20
-164.77538834554321
10
-65.555437016051542
20
-164.7592143544239
10
-65.609283841608544
20
-164.74489718431482
10
-65.663594335229277
20
-164.73245402293361
10
-65.718303297338139
20
-164.72189980825573
10
-65.773345049999079
20
-164.71324721058269
10
-65.82865351576244
20
-164.70650661733086
10
-65.884162296990212
20
-164.70168612056059
10
-65.939804755565888
20
-164.69879150726342
10
-65.995514092894297
20
-164.69782625241339
10
-66.051635919237924
20
-164.698805863449
10
-66.107689369751711
20
-164.70174350118401
10
-66.163606151942986
20
-164.70663558655954
10
-66.219318139829085
20
-164.71347615932342
10
-66.274757456937323
20
-164.72225688529161
10
-66.329856559002337
20
-164.7329670665026
10
-66.384548316258702
20
-164.74559365425134
10
-66.438766095227493
20
-164.76012126498551
10
-66.492443839899352
20
-164.77653219905062
10
-66.54551615221385
20
-164.79480646225221
10
-66.597918371736114
20
-164.814921790216
10
-66.649586654436348
20
-164.83685367551485
10
-66.700458050473685
20
-164.86057539752579
10
-66.750470580890806
20
-164.88605805498611
10
-66.799563313125759
20
-164.91327060120392
10
-66.847676435248999
20
-164.9421798818851
10
-66.894751328835127
20
-164.97275067552567
10
-66.940730640379911
20
-165.00494573632434
10
-66.985558351177133
20
-165.0387258395601
10
-67.029179845568819
20
-165.07404982938283
10
-67.071541977485595
20
-165.11087466895373
10
-67.112593135197358
20
-165.14915549288003
10
-67.152283304193929
20
-165.18884566187663
0
LWPOLYLINE
5
103
100
AcDbEntity
8
0
100
AcDbPolyline
90
181
70
1
43
0.0
10
-16.435449366664901
20
-210.51908454308068
10
-16.39767543458856
20
-210.56004296148242
10
-16.358505254305442
20
-210.59966819282681
10
-16.317985849493432
20
-210.63791266714844
10
-16.2761658635693
20
-210.6747304720775
10
-16.233095501294091
20
-210.7100774079554
10
-16.188826468501361
20
-210.7439110408977
10
-16.143411910024842
20
-210.77619075373508
10
-16.096906345898219
20
-210.80687779477418
10
-16.049365605904093
20
-210.83593532432002
10
-16.000846762550399
20
-210.86332845889962
10
-15.95140806255495
20
-210.88902431314182
10
-15.901108856920592
20
-210.91299203925519
10
-15.850009529684829
20
-210.9352028640601
10
-15.798171425427654
20
-210.95563012353165
10
-15.745656775629868
20
-210.97424929480994
10
-15.692528623961833
20
-210.99103802563809
10
-15.63885075060182
20
-211.0059761611983
10
-15.584687595666541
20
-211.01904576830609
10
-15.53010418185249
20
-211.03023115693941
10
-15.475166036374961
20
-211.03951889907466
10
-15.419939112303719
20
-211.04689784480684
10
-15.364489709386591
20
-211.05235913573483
10
-15.308884394455962
20
-211.05589621559602
10
-15.253189921516421
20
-211.05750483813793
10
-15.197473151606802
20
-211.05718307221335
10
-15.141800972532682
20
-211.05493130410167
10
-15.08624021856917
20
-211.0507522370435
10
-15.03085759022531
20
-211.04465088799543
10
-14.97571957417119
20
-211.03663458160781
10
-14.920892363420762
20
-211.02671294143104
10
-14.866441777866733
20
-211.01489787836272
10
-14.812433185264918
20
-211.00120357634893
10
-14.7589314227597
20
-210.98564647535551
10
-14.706000719047783
20
-210.96824525163314
10
-14.653704617271268
20
-210.94902079529561
10
-14.60210589873498
20
-210.92799618524242
10
-14.551266507537211
20
-210.90519666145059
10
-14.501247476206121
20
-210.88064959467741
10
-14.45210885243057
20
-210.85438445359799
10
-14.403909626972791
20
-210.82643276943119
10
-14.356707662850571
20
-210.7968280980856
10
-14.310559625872321
20
-210.76560597987532
10
-14.265520916610402
20
-210.73280389685439
10
-14.221645603892849
20
-210.69846122781999
10
-14.178986359893539
20
-210.66261920103742
10
-14.137594396900003
20
-210.62532084474611
10
-14.097519405832831
20
-210.58661093550518
10
-14.058809496591831
20
-210.54653594443792
10
-14.021511140300619
20
-210.50514398144455
10
-13.985669113517931
20
-210.46248473744529
10
-13.951326444483472
20
-210.41860942472752
10
-13.918524361462691
20
-210.37357071546558
10
-13.88730224325241
20
-210.32742267848744
10
-13.85769757190678
20
-210.28022071436521
10
-13.829745887740053
20
-210.23202148890755
10
-13.80348074666051
20
-210.18288286513194
10
-13.77893367988702
20
-210.13286383380091
10
-13.756134156095531
20
-210.08202444260314
10
-13.735109546042281
20
-210.03042572406684
10
-13.7158850897049
20
-209.97812962229051
10
-13.698483865982551
20
-209.92519891857842
10
-13.682926764989018
20
-209.87169715607342
10
-13.66923246297506
20
-209.81768856347145
10
-13.657417399906759
20
-209.76323797791753
10
-13.647495759729962
20
-209.70841076716692
10
-13.639479453342352
20
-209.65327275111287
10
-13.633378104294369
20
-209.59789012276912
10
-13.629199037236162
20
-209.54232936880541
10
-13.626947269124569
20
-209.48665718973143
10
-13.626625503200101
20
-209.43094041982161
10
-13.628234125741642
20
-209.37524594688242
10
-13.631771205602941
20
-209.31964063195159
10
-13.637232496530833
20
-209.26419122903422
10
-13.644611442262891
20
-209.20896430496299
10
-13.653899184398142
20
-209.15402615948551
10
-13.665084573031551
20
-209.09944274567152
10
-13.678154180139362
20
-209.04527959073633
10
-13.693092315699571
20
-208.9916017173764
10
-13.709881046527812
20
-208.93847356570808
10
-13.728500217805841
20
-208.88595891591041
10
-13.748927477277448
20
-208.83412081165352
10
-13.771138302082484
20
-208.7830214844175
10
-13.795106028195621
20
-208.73272227878314
10
-13.820801882437992
20
-208.68328357878769
10
-13.8481950170177
20
-208.63476473543415
10
-13.877252546563231
20
-208.58722399543993
10
-13.907939587602412
20
-208.54071843131308
10
-13.94021930043982
20
-208.49530387283679
10
-13.97405293338204
20
-208.45103484004397
10
-14.009399869260051
20
-208.40796447776893
10
-14.046217674189169
20
-208.36614449184484
10
-14.084462148510973
20
-208.32562508703239
10
-14.124087379855039
20
-208.28645490674944
10
-14.165045798256642
20
-208.24868097467288
10
-14.20728823326419
20
-208.21234863828914
10
-14.250763972967999
20
-208.17750151445239
10
-14.295420824880349
20
-208.14418143702511
10
-14.341205178591618
20
-208.11242840665454
10
-14.388062070130223
20
-208.08228054275293
10
-14.43593524794608
20
-208.05377403773582
10
-14.48476724044076
20
-208.02694311357212
10
-14.534499424961949
20
-208.00181998070161
10
-14.585072098179241
20
-207.97843479936549
10
-14.63642454775891
20
-207.95681564339984
10
-14.68849512524741
20
-207.93698846653342
10
-14.74122132008131
20
-207.91897707122916
10
-14.794539834630651
20
-207.90280308010963
10
-14.84838666018754
20
-207.88848591000084
10
-14.902697153808159
20
-207.87604274861934
10
-14.95740611591691
20
-207.86548853394152
10
-15.01244786857785
20
-207.85683593626854
10
-15.06775633434108
20
-207.85009534301639
10
-15.12326511556876
20
-207.84527484624601
10
-15.17890757414432
20
-207.84238023294893
10
-15.234616911472592
20
-207.84141497809884
10
-15.290738737816472
20
-207.84239458913433
10
-15.346792188330141
20
-207.8453322268692
10
-15.40270897052153
20
-207.85022431224479
10
-15.458420958407601
20
-207.85706488500861
10
-15.513860275515752
20
-207.86584561097698
10
-15.568959377581002
20
-207.87655579218793
10
-15.62365113483736
20
-207.8891823799363
10
-15.677868913806039
20
-207.90370999067073
10
-15.73154665847801
20
-207.92012092473581
10
-15.784618970792392
20
-207.9383951879372
10
-15.83702119031477
20
-207.9585105159008
10
-15.888689473014892
20
-207.98044240119981
10
-15.939560869052343
20
-208.00416412321061
10
-15.989573399469464
20
-208.02964678067093
10
-16.038666131704527
20
-208.0568593268888
10
-16.086779253827789
20
-208.08576860756995
10
-16.133854147413899
20
-208.11633940121058
10
-16.179833458958683
20
-208.14853446200911
10
-16.224661169755905
20
-208.1823145652447
10
-16.268282664147588
20
-208.21763855506742
10
-16.31064479606448
20
-208.25446339463841
10
-16.35169595377624
20
-208.29274421856482
10
-16.391386122772815
20
-208.33243438756131
10
-16.429666946699172
20
-208.3734855452731
10
-16.466491786270012
20
-208.41584767718999
10
-16.501815776092599
20
-208.45946917158153
10
-16.535595879328639
20
-208.50429688237895
10
-16.567790940127225
20
-208.55027619392382
10
-16.598361733767774
20
-208.59735108750968
10
-16.627271014448983
20
-208.64546420963302
10
-16.6544835606669
20
-208.69455694186811
10
-16.679966218126992
20
-208.74456947228509
10
-16.703687940138021
20
-208.7954408683222
10
-16.725619825436869
20
-208.84710915102283
10
-16.745735153400801
20
-208.89951137054504
10
-16.764009416602221
20
-208.95258368285934
10
-16.78042035066721
20
-209.0062614275314
10
-16.79494796140159
20
-209.0604792065001
10
-16.8075745491501
20
-209.11517096375661
10
-16.818284730361263
20
-209.1702700658216
10
-16.827065456329482
20
-209.22570938292981
10
-16.83390602909321
20
-209.28142137081574
10
-16.838798114468769
20
-209.33733815300735
10
-16.841735752203697
20
-209.39339160352102
10
-16.842715363238991
20
-209.44951342986499
10
-16.841750108388851
20
-209.50522276719312
10
-16.83885549509171
20
-209.56086522576882
10
-16.834034998321499
20
-209.61637400699618
10
-16.827294405069438
20
-209.67168247275961
10
-16.818641807396492
20
-209.72672422542061
10
-16.808087592718607
20
-209.7814331875293
10
-16.795644431337344
20
-209.83574368114986
10
-16.781327261228284
20
-209.88959050670684
10
-16.76515327010895
20
-209.94290902125613
10
-16.74714187480447
20
-209.99563521608997
10
-16.727314697938031
20
-210.04770579357864
10
-16.705695541972428
20
-210.09905824315823
10
-16.682310360636393
20
-210.1496309163754
10
-16.657187227765689
20
-210.19936310089679
10
-16.63035630360196
20
-210.24819509339164
10
-16.601849798584908
20
-210.2960682712073
10
-16.57170193468346
20
-210.34292516274581
10
-16.539948904312844
20
-210.38870951645734
10
-16.5066288268855
20
-210.43336636836941
10
-16.471781703048922
20
-210.4768421080735
0
LWPOLYLINE
5
104
100
AcDbEntity
8
0
100
AcDbPolyline
90
27
70
1
43
0.0
10
-68.534616911472639
20
-196.50008905511282
10
-68.534616911472639
20
-163.76682188560159
10
-65.995514092893586
20
-161.22771906702263
10
-65.995514092893586
20
-159.6830981857207
10
-65.953195712584034
20
-159.4291879038627
10
-65.868558951964928
20
-159.1964368121597
10
-65.699285430726718
20
-158.9848449106106
10
-65.487693529178046
20
-158.81557138937262
10
-65.254942437475037
20
-158.73093462875352
10
-65.001032155617281
20
-158.68861624844368
10
-0.99448193727619483
20
-158.68861624844368
10
-0.74057165541887571
20
-158.73093462875261
10
-0.50782056371588169
20
-158.81557138937262
10
-0.29622866216721278
20
-158.9848449106106
10
-0.12695514092899707
20
-159.1964368121597
10
-0.042318380309440684
20
-159.4291879038627
10
-3.3750779948604759e-13
20
-159.6830981857207
10
-3.3750779948604759e-13
20
-210.97297512101161
10
-0.042318380309440684
20
-211.24804459302459
10
-0.12695514092899707
20
-211.48079568472758
10
-0.29622866216721278
20
-211.69238758627586
10
-0.50782056371588169
20
-211.84050191735969
10
-0.74057165541887571
20
-211.94629786813357
10
-0.9944819372766478
20
-211.98861624844363
10
-64.47205240174651
20
-211.98861624844363
10
-65.995514092893586
20
-210.46515455729647
10
-65.995514092893586
20
-199.03919187369183
0
LWPOLYLINE
5
105
100
AcDbEntity
8
0
100
AcDbPolyline
90
4
70
1
43
0.0
10
-64.995514092893586
20
-210.98861624844361
10
-17.295514092893587
20
-210.98861624844361
10
-17.295514092893587
20
-208.6486162484436
10
-64.995514092893586
20
-208.6486162484436
0
LWPOLYLINE
5
106
100
AcDbEntity
8
0
100
AcDbPolyline
90
4
70
1
43
0.0
10
-64.995514092893586
20
-162.02861624844371
10
-26.395514092893588
20
-162.02861624844371
10
-26.395514092893588
20
-159.68861624844368
10
-64.995514092893586
20
-159.68861624844368
0
LWPOLYLINE
5
107
100
AcDbEntity
8
0
100
AcDbPolyline
90
4
70
1
43
0.0
10
-9.6200000000003421
20
-202.65861624844362
10
6.8799999999996597
20
-202.65861624844362
10
6.8799999999996597
20
-190.40861624844359
10
-9.6200000000003421
20
-190.40861624844359
0
LWPOLYLINE
5
108
100
AcDbEntity
8
0
100
AcDbPolyline
90
4
70
1
43
0.0
10
-12.000000000000341
20
-171.68861624844368
10
1.9999999999996594
20
-171.68861624844368
10
1.9999999999996598
20
-162.68861624844368
10
-12.000000000000341
20
-162.68861624844368
0
LINE
5
109
100
AcDbEntity
8
0
100
AcDbLine
10
-65.995514092893586
20
-210.46515455729647
30
0
11
-65.995514092893586
21
-199.03919187369183
31
0
0
LINE
5
110
100
AcDbEntity
8
0
100
AcDbLine
10
-0.99448193727664613
20
-211.98861624844363
30
0
11
-64.47205240174651
21
-211.98861624844363
31
0
0
LINE
5
111
100
AcDbEntity
8
0
100
AcDbLine
10
-65.001032155617281
20
-158.68861624844368
30
0
11
-0.99448193727619483
21
-158.68861624844368
31
0
0
LINE
5
112
100
AcDbEntity
8
0
100
AcDbLine
10
-65.995514092893586
20
-161.22771906702263
30
0
11
-65.995514092893586
21
-159.6830981857207
31
0
0
LINE
5
113
100
AcDbEntity
8
0
100
AcDbLine
10
-65.001032155617281
20
-158.68861624844368
30
0
11
-0.99448193727619483
21
-158.68861624844368
31
0
0
LINE
5
114
100
AcDbEntity
8
0
100
AcDbLine
10
-3.4109999999999998e-13
20
-159.6830981857207
30
0
11
-3.4109999999999998e-13
21
-210.97297512101161
31
0
0
LINE
5
115
100
AcDbEntity
8
0
100
AcDbLine
10
-3.4109999999999998e-13
20
-159.6830981857207
30
0
11
-3.4109999999999998e-13
21
-210.97297512101161
31
0
0
LINE
5
116
100
AcDbEntity
8
0
100
AcDbLine
10
-0.99448193727664613
20
-211.98861624844363
30
0
11
-64.47205240174651
21
-211.98861624844363
31
0
0
ENDSEC
0
SECTION
2
OBJECTS
0
DICTIONARY
5
C
100
AcDbDictionary
3
ACAD_GROUP
350
D
3
ACAD_MLINESTYLE
350
17
0
DICTIONARY
5
D
100
AcDbDictionary
0
DICTIONARY
5
1A
330
C
100
AcDbDictionary
0
DICTIONARY
5
17
100
AcDbDictionary
0
ENDSEC
0
EOF
