                                                                        S      1
,,22HDHECbottomlockcapv2 v5,22HDHECbottomlockcapv2 v5,7Hunknown,7HunknowG      1
n,32,38,7,99,15,,1.,2,2HMM,1,0.08,15H20210504.162830,0.01,10000.,7HunknoG      2
wn,7Hunknown,11,0,15H20210329.210248;                                   G      3
     186       1                                                00000000D      1
     186            -223       1       0                               0D      2
     514       2                                                00010000D      3
     514                       2       1                               0D      4
     510       4                                                00010000D      5
     510            -223       1       1                               0D      6
     510       5                                                00010000D      7
     510            -223       1       1                               0D      8
     510       6                                                00010000D      9
     510            -223       1       1                               0D     10
     510       7                                                00010000D     11
     510            -223       1       1                               0D     12
     510       8                                                00010000D     13
     510            -223       1       1                               0D     14
     510       9                                                00010000D     15
     510            -223       1       1                               0D     16
     510      10                                                00010000D     17
     510            -223       1       1                               0D     18
     510      11                                                00010000D     19
     510            -223       1       1                               0D     20
     510      12                                                00010000D     21
     510            -223       1       1                               0D     22
     510      13                                                00010000D     23
     510            -223       1       1                               0D     24
     510      14                                                00010000D     25
     510            -223       1       1                               0D     26
     510      15                                                00010000D     27
     510            -223       1       1                               0D     28
     510      16                                                00010000D     29
     510            -223       1       1                               0D     30
     510      17                                                00010000D     31
     510            -223       1       1                               0D     32
     510      18                                                00010000D     33
     510            -223       1       1                               0D     34
     510      19                                                00010000D     35
     510            -223       1       1                               0D     36
     510      20                                                00010000D     37
     510            -223       1       1                               0D     38
     510      21                                                00010000D     39
     510            -223       1       1                               0D     40
     510      22                                                00010000D     41
     510            -223       1       1                               0D     42
     508      23                                                00010000D     43
     508                       1       1                               0D     44
     508      24                                                00010000D     45
     508                       1       1                               0D     46
     508      25                                                00010000D     47
     508                       1       1                               0D     48
     508      26                                                00010000D     49
     508                       1       1                               0D     50
     508      27                                                00010000D     51
     508                       1       1                               0D     52
     508      28                                                00010000D     53
     508                       1       1                               0D     54
     508      29                                                00010000D     55
     508                       1       1                               0D     56
     508      30                                                00010000D     57
     508                       1       1                               0D     58
     508      31                                                00010000D     59
     508                       1       1                               0D     60
     508      32                                                00010000D     61
     508                       1       1                               0D     62
     508      33                                                00010000D     63
     508                       1       1                               0D     64
     508      34                                                00010000D     65
     508                       1       1                               0D     66
     508      35                                                00010000D     67
     508                       1       1                               0D     68
     508      36                                                00010000D     69
     508                       1       1                               0D     70
     508      37                                                00010000D     71
     508                       1       1                               0D     72
     508      38                                                00010000D     73
     508                       1       1                               0D     74
     508      39                                                00010000D     75
     508                       1       1                               0D     76
     508      40                                                00010000D     77
     508                       1       1                               0D     78
     508      41                                                00010000D     79
     508                       2       1                               0D     80
     508      43                                                00010000D     81
     508                       1       1                               0D     82
     508      44                                                00010000D     83
     508                       1       1                               0D     84
     508      45                                                00010000D     85
     508                       1       1                               0D     86
     508      46                                                00010000D     87
     508                       2       1                               0D     88
     508      48                                                00010000D     89
     508                       1       1                               0D     90
     126      49                                                00010000D     91
     126       0               3       0                               0D     92
     126      52                                                00010000D     93
     126       0               2       0                               0D     94
     126      54                                                00010000D     95
     126       0               3       0                               0D     96
     126      57                                                00010000D     97
     126       0               2       0                               0D     98
     126      59                                                00010000D     99
     126       0               3       0                               0D    100
     126      62                                                00010000D    101
     126       0               2       0                               0D    102
     126      64                                                00010000D    103
     126       0               3       0                               0D    104
     126      67                                                00010000D    105
     126       0               2       0                               0D    106
     126      69                                                00010000D    107
     126       0               6       0                               0D    108
     126      75                                                00010000D    109
     126       0               6       0                               0D    110
     126      81                                                00010000D    111
     126       0              12       0                               0D    112
     126      93                                                00010000D    113
     126       0              12       0                               0D    114
     126     105                                                00010000D    115
     126       0               2       0                               0D    116
     126     107                                                00010000D    117
     126       0               2       0                               0D    118
     126     109                                                00010000D    119
     126       0               2       0                               0D    120
     126     111                                                00010000D    121
     126       0               2       0                               0D    122
     126     113                                                00010000D    123
     126       0               2       0                               0D    124
     126     115                                                00010000D    125
     126       0               5       0                               0D    126
     126     120                                                00010000D    127
     126       0               2       0                               0D    128
     126     122                                                00010000D    129
     126       0               5       0                               0D    130
     126     127                                                00010000D    131
     126       0               9       0                               0D    132
     126     136                                                00010000D    133
     126       0               9       0                               0D    134
     126     145                                                00010000D    135
     126       0               2       0                               0D    136
     126     147                                                00010000D    137
     126       0               2       0                               0D    138
     126     149                                                00010000D    139
     126       0               5       0                               0D    140
     126     154                                                00010000D    141
     126       0               2       0                               0D    142
     126     156                                                00010000D    143
     126       0               2       0                               0D    144
     126     158                                                00010000D    145
     126       0               2       0                               0D    146
     126     160                                                00010000D    147
     126       0               9       0                               0D    148
     126     169                                                00010000D    149
     126       0               2       0                               0D    150
     126     171                                                00010000D    151
     126       0               9       0                               0D    152
     126     180                                                00010000D    153
     126       0               5       0                               0D    154
     126     185                                                00010000D    155
     126       0               2       0                               0D    156
     126     187                                                00010000D    157
     126       0               5       0                               0D    158
     126     192                                                00010000D    159
     126       0               2       0                               0D    160
     126     194                                                00010000D    161
     126       0               2       0                               0D    162
     126     196                                                00010000D    163
     126       0               2       0                               0D    164
     126     198                                                00010000D    165
     126       0               2       0                               0D    166
     126     200                                                00010000D    167
     126       0               2       0                               0D    168
     126     202                                                00010000D    169
     126       0               5       0                               0D    170
     126     207                                                00010000D    171
     126       0               2       0                               0D    172
     126     209                                                00010000D    173
     126       0               2       0                               0D    174
     126     211                                                00010000D    175
     126       0               2       0                               0D    176
     126     213                                                00010000D    177
     126       0               2       0                               0D    178
     128     215                                                00010000D    179
     128       0    -223       4       0                               0D    180
     128     219                                                00010000D    181
     128       0    -223       4       0                               0D    182
     128     223                                                00010000D    183
     128       0    -223       8       0                               0D    184
     128     231                                                00010000D    185
     128       0    -223      19       0                               0D    186
     128     250                                                00010000D    187
     128       0    -223       6       0                               0D    188
     128     256                                                00010000D    189
     128       0    -223       3       0                               0D    190
     128     259                                                00010000D    191
     128       0    -223      13       0                               0D    192
     128     272                                                00010000D    193
     128       0    -223       7       0                               0D    194
     128     279                                                00010000D    195
     128       0    -223       3       0                               0D    196
     128     282                                                00010000D    197
     128       0    -223      12       0                               0D    198
     128     294                                                00010000D    199
     128       0    -223       7       0                               0D    200
     128     301                                                00010000D    201
     128       0    -223       3       0                               0D    202
     128     304                                                00010000D    203
     128       0    -223       3       0                               0D    204
     128     307                                                00010000D    205
     128       0    -223       4       0                               0D    206
     128     311                                                00010000D    207
     128       0    -223       3       0                               0D    208
     128     314                                                00010000D    209
     128       0    -223       9       0                               0D    210
     128     323                                                00010000D    211
     128       0    -223       3       0                               0D    212
     128     326                                                00010000D    213
     128       0    -223       3       0                               0D    214
     128     329                                                00010000D    215
     128       0    -223       6       0                               0D    216
     502     335                                                00010000D    217
     502                       8       1                               0D    218
     504     343                                                00010001D    219
     504                      13       1                               0D    220
     406     356                                                00000000D    221
     406                       1      15                               0D    222
     314     357                                                00000200D    223
     314                       2       0                               0D    224
186,3,1,0,0,1,221;                                                     1P      1
514,19,5,1,7,1,9,1,11,1,13,1,15,1,17,1,19,1,21,1,23,1,25,1,27,1,       3P      2
29,1,31,1,33,1,35,1,37,1,39,1,41,1;                                    3P      3
510,179,1,1,43;                                                        5P      4
510,181,1,1,45;                                                        7P      5
510,183,1,1,47;                                                        9P      6
510,185,1,1,49;                                                       11P      7
510,187,2,1,51,53;                                                    13P      8
510,189,2,1,55,57;                                                    15P      9
510,191,1,1,59;                                                       17P     10
510,193,1,1,61;                                                       19P     11
510,195,2,1,63,65;                                                    21P     12
510,197,1,1,67;                                                       23P     13
510,199,1,1,69;                                                       25P     14
510,201,2,1,71,73;                                                    27P     15
510,203,2,1,75,77;                                                    29P     16
510,205,1,1,79;                                                       31P     17
510,207,1,1,81;                                                       33P     18
510,209,1,1,83;                                                       35P     19
510,211,1,1,85;                                                       37P     20
510,213,1,1,87;                                                       39P     21
510,215,1,1,89;                                                       41P     22
508,4,0,219,1,0,0,0,219,2,0,0,0,219,3,0,0,0,219,4,0,0;                43P     23
508,4,0,219,5,0,0,0,219,6,0,0,0,219,7,0,0,0,219,8,1,0;                45P     24
508,4,0,219,9,0,0,0,219,8,0,0,0,219,10,0,0,0,219,2,1,0;               47P     25
508,4,0,219,4,1,0,0,219,11,0,0,0,219,6,1,0,0,219,12,1,0;              49P     26
508,4,0,219,3,1,0,0,219,10,1,0,0,219,7,1,0,0,219,11,1,0;              51P     27
508,4,0,219,13,1,0,0,219,14,1,0,0,219,15,1,0,0,219,16,1,0;            53P     28
508,4,0,219,17,1,0,0,219,18,1,0,0,219,19,1,0,0,219,20,1,0;            55P     29
508,1,0,219,21,1,0;                                                   57P     30
508,4,0,219,22,1,0,0,219,23,1,0,0,219,21,0,0,0,219,23,0,0;            59P     31
508,4,0,219,20,0,0,0,219,24,1,0,0,219,25,1,0,0,219,26,0,0;            61P     32
508,4,0,219,14,0,0,0,219,27,0,0,0,219,25,0,0,0,219,28,0,0;            63P     33
508,1,0,219,22,0,0;                                                   65P     34
508,4,0,219,29,0,0,0,219,30,1,0,0,219,31,1,0,0,219,30,0,0;            67P     35
508,4,0,219,32,1,0,0,219,33,1,0,0,219,34,0,0,0,219,35,0,0;            69P     36
508,4,0,219,16,0,0,0,219,36,1,0,0,219,34,1,0,0,219,37,1,0;            71P     37
508,1,0,219,29,1,0;                                                   73P     38
508,4,0,219,38,1,0,0,219,32,0,0,0,219,39,1,0,0,219,40,1,0;            75P     39
508,1,0,219,31,0,0;                                                   77P     40
508,6,0,219,13,0,0,0,219,37,0,0,0,219,33,0,0,0,219,41,0,0,0,219,      79P     41
26,1,0,0,219,27,1,0;                                                  79P     42
508,4,0,219,41,1,0,0,219,38,0,0,0,219,42,0,0,0,219,17,0,0;            81P     43
508,4,0,219,42,1,0,0,219,40,0,0,0,219,43,0,0,0,219,18,0,0;            83P     44
508,4,0,219,43,1,0,0,219,39,0,0,0,219,44,0,0,0,219,19,0,0;            85P     45
508,6,0,219,44,1,0,0,219,35,1,0,0,219,36,0,0,0,219,15,0,0,0,219,      87P     46
28,1,0,0,219,24,0,0;                                                  87P     47
508,4,0,219,1,1,0,0,219,12,0,0,0,219,5,1,0,0,219,9,1,0;               89P     48
126,1,1,0,0,1,0,1.39174140658519,1.39174140658519,                    91P     49
1.85825859341481,1.85825859341481,1.,1.,-5.,-32.5,0.,-5.,             91P     50
-37.1651718682963,0.,1.39174140658519,1.85825859341481,0.,0.,0.;      91P     51
126,1,1,0,0,1,0,0.,0.,0.5,0.5,1.,1.,-5.,-32.5,5.,-5.,-32.5,0.,        93P     52
0.,0.5,0.,0.,0.;                                                      93P     53
126,1,1,0,0,1,0,-1.85825859341481,-1.85825859341481,                  95P     54
-1.39174140658519,-1.39174140658519,1.,1.,-5.,-37.1651718682963,      95P     55
5.,-5.,-32.5,5.,-1.85825859341481,-1.39174140658519,0.,0.,0.;         95P     56
126,1,1,0,0,1,0,0.,0.,0.5,0.5,1.,1.,-5.,-37.1651718682963,0.,         97P     57
-5.,-37.1651718682963,5.,0.,0.5,0.,0.,0.;                             97P     58
126,1,1,0,0,1,0,-2.09151718682963,-2.09151718682963,-1.625,           99P     59
-1.625,1.,1.,5.,-37.1651718682963,0.,5.,-32.5,0.,                     99P     60
-2.09151718682963,-1.625,0.,0.,0.;                                    99P     61
126,1,1,0,0,1,0,-0.5,-0.5,0.,0.,1.,1.,5.,-37.1651718682963,5.,       101P     62
5.,-37.1651718682963,0.,-0.5,0.,0.,0.,0.;                            101P     63
126,1,1,0,0,1,0,1.625,1.625,2.09151718682963,2.09151718682963,       103P     64
1.,1.,5.,-32.5,5.,5.,-37.1651718682963,5.,1.625,                     103P     65
2.09151718682963,0.,0.,0.;                                           103P     66
126,1,1,0,0,1,0,0.,0.,0.5,0.5,1.,1.,5.,-32.5,5.,5.,-32.5,0.,0.,      105P     67
0.5,0.,0.,0.;                                                        105P     68
126,4,2,0,0,0,0,-3.14159265358979,-3.14159265358979,                 107P     69
-3.14159265358979,-1.5707963267949,-1.5707963267949,                 107P     70
8.88178419700125D-16,8.88178419700125D-16,8.88178419700125D-16,      107P     71
1.,0.707106781186549,1.,0.707106781186547,1.,5.,-32.5,0.,5.,         107P     72
-27.5,0.,-2.52660774903715D-15,-27.5,0.,-5.,-27.5,0.,-5.,-32.5,      107P     73
0.,-3.14159265358979,8.88178419700125D-16,0.,0.,0.;                  107P     74
126,4,2,0,0,0,0,-8.88178419700125D-16,-8.88178419700125D-16,         109P     75
-8.88178419700125D-16,1.5707963267949,1.5707963267949,               109P     76
3.14159265358979,3.14159265358979,3.14159265358979,1.,               109P     77
0.707106781186547,1.,0.707106781186549,1.,-5.,-32.5,5.,-5.,          109P     78
-27.5,5.,-2.52660774903715D-15,-27.5,5.,5.,-27.5,5.,5.,-32.5,5.,     109P     79
-8.88178419700125D-16,3.14159265358979,0.,0.,0.;                     109P     80
126,8,2,0,0,0,0,-7.72025004456454,-7.72025004456454,                 111P     81
-7.72025004456454,-6.21631951247462,-6.21631951247462,               111P     82
-4.71238898038469,-4.71238898038469,-3.20845844829476,               111P     83
-3.20845844829476,-1.70452791620484,-1.70452791620484,               111P     84
-1.70452791620484,1.,0.730347855236375,1.,0.730347855236375,1.,      111P     85
0.730347855236375,1.,0.730347855236375,1.,5.,-37.1651718682963,      111P     86
5.,39.7596212994592,-32.4888015527441,5.,37.4161993330503,           111P     87
2.50559922362795,5.,35.0727773666414,37.5,5.,                        111P     88
-6.88863824520386D-15,37.5,5.,-35.0727773666414,37.5,5.,             111P     89
-37.4161993330503,2.50559922362797,5.,-39.7596212994592,             111P     90
-32.4888015527441,5.,-5.,-37.1651718682963,5.,-7.72025004456454,     111P     91
-1.70452791620484,0.,0.,0.;                                          111P     92
126,8,2,0,0,0,0,-7.72025004456454,-7.72025004456454,                 113P     93
-7.72025004456454,-6.21631951247462,-6.21631951247462,               113P     94
-4.71238898038469,-4.71238898038469,-3.20845844829476,               113P     95
-3.20845844829476,-1.70452791620484,-1.70452791620484,               113P     96
-1.70452791620484,1.,0.730347855236375,1.,0.730347855236375,1.,      113P     97
0.730347855236375,1.,0.730347855236375,1.,5.,-37.1651718682963,      113P     98
0.,39.7596212994592,-32.4888015527441,0.,37.4161993330503,           113P     99
2.50559922362795,0.,35.0727773666414,37.5,0.,                        113P    100
-6.88863824520386D-15,37.5,0.,-35.0727773666414,37.5,0.,             113P    101
-37.4161993330503,2.50559922362797,0.,-39.7596212994592,             113P    102
-32.4888015527441,0.,-5.,-37.1651718682963,0.,-7.72025004456454,     113P    103
-1.70452791620484,0.,0.,0.;                                          113P    104
126,1,1,0,0,1,0,-3.125,-3.125,1.375,1.375,1.,1.,22.5,-10.,5.,        115P    105
-22.5,-10.,5.,-3.125,1.375,0.,0.,0.;                                 115P    106
126,1,1,0,0,1,0,-1.,-1.,1.,1.,1.,1.,-22.5,-10.,5.,-22.5,10.,5.,      117P    107
-1.,1.,0.,0.,0.;                                                     117P    108
126,1,1,0,0,1,0,-1.375,-1.375,3.125,3.125,1.,1.,-22.5,10.,5.,        119P    109
22.5,10.,5.,-1.375,3.125,0.,0.,0.;                                   119P    110
126,1,1,0,0,1,0,-1.,-1.,1.,1.,1.,1.,22.5,10.,5.,22.5,-10.,5.,        121P    111
-1.,1.,0.,0.,0.;                                                     121P    112
126,1,1,0,0,1,0,0.,0.,0.35,0.35,1.,1.,-17.5,-10.,15.,-17.5,-6.5,     123P    113
15.,0.,0.35,0.,0.,0.;                                                123P    114
126,4,2,0,0,0,0,-3.14159265358979,-3.14159265358979,                 125P    115
-3.14159265358979,-1.5707963267949,-1.5707963267949,0.,0.,0.,1.,     125P    116
0.707106781186548,1.,0.707106781186547,1.,-17.5,-6.5,15.,-17.5,      125P    117
-6.5,8.5,-17.5,3.9801020972289D-16,8.5,-17.5,6.5,8.5,-17.5,6.5,      125P    118
15.,-3.14159265358979,0.,0.,0.,0.;                                   125P    119
126,1,1,0,0,1,0,-0.35,-0.35,0.,0.,1.,1.,-17.5,6.5,15.,-17.5,10.,     127P    120
15.,-0.35,0.,0.,0.,0.;                                               127P    121
126,4,2,0,0,0,0,0.,0.,0.,1.5707963267949,1.5707963267949,            129P    122
3.14159265358979,3.14159265358979,3.14159265358979,1.,               129P    123
0.707106781186547,1.,0.707106781186547,1.,-17.5,10.,15.,-17.5,       129P    124
10.,25.,-17.5,6.12323399573677D-16,25.,-17.5,-10.,25.,-17.5,         129P    125
-10.,15.,0.,3.14159265358979,0.,0.,0.;                               129P    126
126,8,2,0,1,0,0,-3.14159265358979,-3.14159265358979,                 131P    127
-3.14159265358979,-1.5707963267949,-1.5707963267949,0.,0.,           131P    128
1.5707963267949,1.5707963267949,3.14159265358979,                    131P    129
3.14159265358979,3.14159265358979,1.,0.707106781186547,1.,           131P    130
0.707106781186547,1.,0.707106781186547,1.,0.707106781186547,1.,      131P    131
-17.5,-3.5,15.,-17.5,-3.5,18.5,-17.5,2.14313189850787D-16,18.5,      131P    132
-17.5,3.5,18.5,-17.5,3.5,15.,-17.5,3.5,11.5,-17.5,                   131P    133
2.14313189850787D-16,11.5,-17.5,-3.5,11.5,-17.5,-3.5,15.,            131P    134
-3.14159265358979,3.14159265358979,0.,0.,0.;                         131P    135
126,8,2,0,1,0,0,-3.14159265358979,-3.14159265358979,                 133P    136
-3.14159265358979,-1.5707963267949,-1.5707963267949,0.,0.,           133P    137
1.5707963267949,1.5707963267949,3.14159265358979,                    133P    138
3.14159265358979,3.14159265358979,1.,0.707106781186547,1.,           133P    139
0.707106781186547,1.,0.707106781186547,1.,0.707106781186547,1.,      133P    140
-22.5,-3.5,15.,-22.5,-3.5,18.5,-22.5,2.14313189850787D-16,18.5,      133P    141
-22.5,3.5,18.5,-22.5,3.5,15.,-22.5,3.5,11.5,-22.5,                   133P    142
2.14313189850787D-16,11.5,-22.5,-3.5,11.5,-22.5,-3.5,15.,            133P    143
-3.14159265358979,3.14159265358979,0.,0.,0.;                         133P    144
126,1,1,0,0,1,0,-1.42857142857143,-1.42857142857143,0.,0.,1.,1.,     135P    145
-22.5,-3.5,15.,-17.5,-3.5,15.,-1.42857142857143,0.,0.,0.,0.;         135P    146
126,1,1,0,0,1,0,0.,0.,0.5,0.5,1.,1.,-17.5,10.,15.,-22.5,10.,15.,     137P    147
0.,0.5,0.,0.,0.;                                                     137P    148
126,4,2,0,0,0,0,0.,0.,0.,1.5707963267949,1.5707963267949,            139P    149
3.14159265358979,3.14159265358979,3.14159265358979,1.,               139P    150
0.707106781186547,1.,0.707106781186547,1.,-22.5,10.,15.,-22.5,       139P    151
10.,25.,-22.5,6.12323399573677D-16,25.,-22.5,-10.,25.,-22.5,         139P    152
-10.,15.,0.,3.14159265358979,0.,0.,0.;                               139P    153
126,1,1,0,0,1,0,0.,0.,0.5,0.5,1.,1.,-17.5,-10.,15.,-22.5,-10.,       141P    154
15.,0.,0.5,0.,0.,0.;                                                 141P    155
126,1,1,0,0,1,0,-1.,-1.,0.,0.,1.,1.,-22.5,-10.,15.,-22.5,-10.,       143P    156
5.,-1.,0.,0.,0.,0.;                                                  143P    157
126,1,1,0,0,1,0,0.,0.,1.,1.,1.,1.,-22.5,10.,5.,-22.5,10.,15.,0.,     145P    158
1.,0.,0.,0.;                                                         145P    159
126,8,2,0,1,0,0,-3.14159265358979,-3.14159265358979,                 147P    160
-3.14159265358979,-1.5707963267949,-1.5707963267949,0.,0.,           147P    161
1.5707963267949,1.5707963267949,3.14159265358979,                    147P    162
3.14159265358979,3.14159265358979,1.,0.707106781186547,1.,           147P    163
0.707106781186547,1.,0.707106781186547,1.,0.707106781186547,1.,      147P    164
22.5,-3.5,15.,22.5,-3.5,18.5,22.5,2.14313189850787D-16,18.5,         147P    165
22.5,3.5,18.5,22.5,3.5,15.,22.5,3.5,11.5,22.5,                       147P    166
2.14313189850787D-16,11.5,22.5,-3.5,11.5,22.5,-3.5,15.,              147P    167
-3.14159265358979,3.14159265358979,0.,0.,0.;                         147P    168
126,1,1,0,0,1,0,-1.42857142857143,-1.42857142857143,0.,0.,1.,1.,     149P    169
22.5,-3.5,15.,17.5,-3.5,15.,-1.42857142857143,0.,0.,0.,0.;           149P    170
126,8,2,0,1,0,0,-3.14159265358979,-3.14159265358979,                 151P    171
-3.14159265358979,-1.5707963267949,-1.5707963267949,0.,0.,           151P    172
1.5707963267949,1.5707963267949,3.14159265358979,                    151P    173
3.14159265358979,3.14159265358979,1.,0.707106781186547,1.,           151P    174
0.707106781186547,1.,0.707106781186547,1.,0.707106781186547,1.,      151P    175
17.5,-3.5,15.,17.5,-3.5,18.5,17.5,2.14313189850787D-16,18.5,         151P    176
17.5,3.5,18.5,17.5,3.5,15.,17.5,3.5,11.5,17.5,                       151P    177
2.14313189850787D-16,11.5,17.5,-3.5,11.5,17.5,-3.5,15.,              151P    178
-3.14159265358979,3.14159265358979,0.,0.,0.;                         151P    179
126,4,2,0,0,0,0,0.,0.,0.,1.5707963267949,1.5707963267949,            153P    180
3.14159265358979,3.14159265358979,3.14159265358979,1.,               153P    181
0.707106781186547,1.,0.707106781186547,1.,17.5,10.,15.,17.5,10.,     153P    182
25.,17.5,6.12323399573677D-16,25.,17.5,-10.,25.,17.5,-10.,15.,       153P    183
0.,3.14159265358979,0.,0.,0.;                                        153P    184
126,1,1,0,0,1,0,0.,0.,0.5,0.5,1.,1.,17.5,-10.,15.,22.5,-10.,15.,     155P    185
0.,0.5,0.,0.,0.;                                                     155P    186
126,4,2,0,0,0,0,0.,0.,0.,1.5707963267949,1.5707963267949,            157P    187
3.14159265358979,3.14159265358979,3.14159265358979,1.,               157P    188
0.707106781186547,1.,0.707106781186547,1.,22.5,10.,15.,22.5,10.,     157P    189
25.,22.5,6.12323399573677D-16,25.,22.5,-10.,25.,22.5,-10.,15.,       157P    190
0.,3.14159265358979,0.,0.,0.;                                        157P    191
126,1,1,0,0,1,0,0.,0.,0.5,0.5,1.,1.,17.5,10.,15.,22.5,10.,15.,       159P    192
0.,0.5,0.,0.,0.;                                                     159P    193
126,1,1,0,0,1,0,0.,0.,1.,1.,1.,1.,22.5,10.,5.,22.5,10.,15.,0.,       161P    194
1.,0.,0.,0.;                                                         161P    195
126,1,1,0,0,1,0,-1.,-1.,0.,0.,1.,1.,22.5,-10.,15.,22.5,-10.,5.,      163P    196
-1.,0.,0.,0.,0.;                                                     163P    197
126,1,1,0,0,1,0,-0.35,-0.35,0.,0.,1.,1.,17.5,-6.5,15.,17.5,-10.,     165P    198
15.,-0.35,0.,0.,0.,0.;                                               165P    199
126,1,1,0,0,1,0,0.,0.,0.35,0.35,1.,1.,17.5,10.,15.,17.5,6.5,15.,     167P    200
0.,0.35,0.,0.,0.;                                                    167P    201
126,4,2,0,0,0,0,0.,0.,0.,1.5707963267949,1.5707963267949,            169P    202
3.14159265358979,3.14159265358979,3.14159265358979,1.,               169P    203
0.707106781186547,1.,0.707106781186548,1.,17.5,6.5,15.,17.5,6.5,     169P    204
8.5,17.5,3.9801020972289D-16,8.5,17.5,-6.5,8.5,17.5,-6.5,15.,0.,     169P    205
3.14159265358979,0.,0.,0.;                                           169P    206
126,1,1,0,0,1,0,-1.75,-1.75,1.75,1.75,1.,1.,-17.5,-10.,15.,17.5,     171P    207
-10.,15.,-1.75,1.75,0.,0.,0.;                                        171P    208
126,1,1,0,0,1,0,-1.75,-1.75,1.75,1.75,1.,1.,-17.5,-6.5,15.,17.5,     173P    209
-6.5,15.,-1.75,1.75,0.,0.,0.;                                        173P    210
126,1,1,0,0,1,0,-1.75,-1.75,1.75,1.75,1.,1.,-17.5,6.5,15.,17.5,      175P    211
6.5,15.,-1.75,1.75,0.,0.,0.;                                         175P    212
126,1,1,0,0,1,0,-1.75,-1.75,1.75,1.75,1.,1.,-17.5,10.,15.,17.5,      177P    213
10.,15.,-1.75,1.75,0.,0.,0.;                                         177P    214
128,1,1,1,1,0,0,1,0,0,-0.001,-0.001,0.467517186829626,               179P    215
0.467517186829626,-0.001,-0.001,0.501,0.501,1.,1.,1.,1.,-5.,         179P    216
-32.49,5.01,-5.,-37.1751718682963,5.01,-5.,-32.49,-0.01,-5.,         179P    217
-37.1751718682963,-0.01,-0.001,0.467517186829626,-0.001,0.501;       179P    218
128,1,1,1,1,0,0,1,0,0,-0.001,-0.001,0.467517186829626,               181P    219
0.467517186829626,-0.001,-0.001,0.501,0.501,1.,1.,1.,1.,5.,          181P    220
-37.1751718682963,5.01,5.,-32.49,5.01,5.,-37.1751718682963,          181P    221
-0.01,5.,-32.49,-0.01,-0.001,0.467517186829626,-0.001,0.501;         181P    222
128,1,4,1,2,0,0,0,0,0,0.,0.,1.,1.,-8.88178419700125D-16,             183P    223
-8.88178419700125D-16,-8.88178419700125D-16,1.5707963267949,         183P    224
1.5707963267949,3.14159265358979,3.14159265358979,                   183P    225
3.14159265358979,1.,1.,0.707106781186547,0.707106781186547,1.,       183P    226
1.,0.707106781186547,0.707106781186547,1.,1.,-5.,-32.5,5.,-5.,       183P    227
-32.5,0.,-5.,-27.5,5.,-5.,-27.5,0.,0.,-27.5,5.,0.,-27.5,0.,5.,       183P    228
-27.5,5.,5.,-27.5,0.,5.,-32.5,5.,5.,-32.5,0.,0.,1.,                  183P    229
-8.88178419700125D-16,3.14159265358979;                              183P    230
128,1,8,1,2,0,0,0,0,0,0.,0.,0.133333333333333,0.133333333333333,     185P    231
-7.72025004456454,-7.72025004456454,-7.72025004456454,               185P    232
-6.21631951247462,-6.21631951247462,-4.71238898038469,               185P    233
-4.71238898038469,-3.20845844829476,-3.20845844829476,               185P    234
-1.70452791620484,-1.70452791620484,-1.70452791620484,1.,1.,         185P    235
0.730347855236375,0.730347855236375,1.,1.,0.730347855236375,         185P    236
0.730347855236375,1.,1.,0.730347855236375,0.730347855236375,1.,      185P    237
1.,0.730347855236375,0.730347855236375,1.,1.,5.,                     185P    238
-37.1651718682963,5.,5.,-37.1651718682963,0.,39.7596212994592,       185P    239
-32.4888015527441,5.,39.7596212994592,-32.4888015527441,0.,          185P    240
37.4161993330503,2.50559922362795,5.,37.4161993330503,               185P    241
2.50559922362795,0.,35.0727773666414,37.5,5.,35.0727773666414,       185P    242
37.5,0.,0.,37.5,5.,0.,37.5,0.,-35.0727773666414,37.5,5.,             185P    243
-35.0727773666414,37.5,0.,-37.4161993330503,2.50559922362795,5.,     185P    244
-37.4161993330503,2.50559922362795,0.,-39.7596212994592,             185P    245
-32.4888015527441,5.,-39.7596212994592,-32.4888015527441,0.,         185P    246
-4.99999999999999,-37.1651718682963,5.,-4.99999999999999,            185P    247
-37.1651718682963,0.,0.,0.133333333333333,-7.72025004456454,         185P    248
-1.70452791620484;                                                   185P    249
128,1,1,1,1,0,0,1,0,0,-3.97696212994592,-3.97696212994592,           187P    250
3.97696212994592,3.97696212994592,-3.71751718682963,                 187P    251
-3.71751718682963,3.751,3.751,1.,1.,1.,1.,-39.7696212994592,         187P    252
-37.1751718682963,5.,39.7696212994592,-37.1751718682963,5.,          187P    253
-39.7696212994592,37.51,5.,39.7696212994592,37.51,5.,                187P    254
-3.97696212994592,3.97696212994592,-3.71751718682963,3.751;          187P    255
128,1,1,1,1,0,0,1,0,0,-1.001,-1.001,1.001,1.001,-0.651,-0.651,       189P    256
1.001,1.001,1.,1.,1.,1.,-17.5,-10.01,8.49,-17.5,10.01,8.49,          189P    257
-17.5,-10.01,25.01,-17.5,10.01,25.01,-1.001,1.001,-0.651,1.001;      189P    258
128,1,8,1,2,0,1,0,0,1,0.,0.,1.42857142857143,1.42857142857143,       191P    259
-3.14159265358979,-3.14159265358979,-3.14159265358979,               191P    260
-1.5707963267949,-1.5707963267949,0.,0.,1.5707963267949,             191P    261
1.5707963267949,3.14159265358979,3.14159265358979,                   191P    262
3.14159265358979,1.,1.,0.707106781186548,0.707106781186548,1.,       191P    263
1.,0.707106781186548,0.707106781186548,1.,1.,0.707106781186548,      191P    264
0.707106781186548,1.,1.,0.707106781186548,0.707106781186548,1.,      191P    265
1.,-22.5,-3.5,15.,-17.5,-3.5,15.,-22.5,-3.5,11.5,-17.5,-3.5,         191P    266
11.5,-22.5,0.,11.5,-17.5,0.,11.5,-22.5,3.5,11.5,-17.5,3.5,11.5,      191P    267
-22.5,3.5,15.,-17.5,3.5,15.,-22.5,3.5,18.5,-17.5,3.5,18.5,-22.5,     191P    268
0.,18.5,-17.5,0.,18.5,-22.5,-3.5,18.5,-17.5,-3.5,18.5,-22.5,         191P    269
-3.5,15.,-17.5,-3.5,15.,0.,1.42857142857143,-3.14159265358979,       191P    270
3.14159265358979;                                                    191P    271
128,1,4,1,2,0,0,0,0,0,0.,0.,0.5,0.5,0.,0.,0.,1.5707963267949,        193P    272
1.5707963267949,3.14159265358979,3.14159265358979,                   193P    273
3.14159265358979,1.,1.,0.707106781186548,0.707106781186548,1.,       193P    274
1.,0.707106781186548,0.707106781186548,1.,1.,-17.5,10.,15.,          193P    275
-22.5,10.,15.,-17.5,10.,25.,-22.5,10.,25.,-17.5,0.,25.,-22.5,0.,     193P    276
25.,-17.5,-10.,25.,-22.5,-10.,25.,-17.5,-10.,15.,-22.5,-10.,15.,     193P    277
0.,0.5,0.,3.14159265358979;                                          193P    278
128,1,1,1,1,0,0,1,0,0,-1.001,-1.001,1.001,1.001,-1.001,-1.001,       195P    279
1.001,1.001,1.,1.,1.,1.,-22.5,10.01,4.99,-22.5,-10.01,4.99,          195P    280
-22.5,10.01,25.01,-22.5,-10.01,25.01,-1.001,1.001,-1.001,1.001;      195P    281
128,1,8,1,2,0,1,0,0,1,0.,0.,1.42857142857143,1.42857142857143,       197P    282
-3.14159265358979,-3.14159265358979,-3.14159265358979,               197P    283
-1.5707963267949,-1.5707963267949,0.,0.,1.5707963267949,             197P    284
1.5707963267949,3.14159265358979,3.14159265358979,                   197P    285
3.14159265358979,1.,1.,0.707106781186548,0.707106781186548,1.,       197P    286
1.,0.707106781186548,0.707106781186548,1.,1.,0.707106781186548,      197P    287
0.707106781186548,1.,1.,0.707106781186548,0.707106781186548,1.,      197P    288
1.,17.5,-3.5,15.,22.5,-3.5,15.,17.5,-3.5,11.5,22.5,-3.5,11.5,        197P    289
17.5,0.,11.5,22.5,0.,11.5,17.5,3.5,11.5,22.5,3.5,11.5,17.5,3.5,      197P    290
15.,22.5,3.5,15.,17.5,3.5,18.5,22.5,3.5,18.5,17.5,0.,18.5,22.5,      197P    291
0.,18.5,17.5,-3.5,18.5,22.5,-3.5,18.5,17.5,-3.5,15.,22.5,-3.5,       197P    292
15.,0.,1.42857142857143,-3.14159265358979,3.14159265358979;          197P    293
128,1,4,1,2,0,0,0,0,0,0.,0.,0.5,0.5,0.,0.,0.,1.5707963267949,        199P    294
1.5707963267949,3.14159265358979,3.14159265358979,                   199P    295
3.14159265358979,1.,1.,0.707106781186548,0.707106781186548,1.,       199P    296
1.,0.707106781186548,0.707106781186548,1.,1.,22.5,10.,15.,17.5,      199P    297
10.,15.,22.5,10.,25.,17.5,10.,25.,22.5,0.,25.,17.5,0.,25.,22.5,      199P    298
-10.,25.,17.5,-10.,25.,22.5,-10.,15.,17.5,-10.,15.,0.,0.5,0.,        199P    299
3.14159265358979;                                                    199P    300
128,1,1,1,1,0,0,1,0,0,-1.001,-1.001,1.001,1.001,-1.001,-1.001,       201P    301
1.001,1.001,1.,1.,1.,1.,22.5,-10.01,4.99,22.5,10.01,4.99,22.5,       201P    302
-10.01,25.01,22.5,10.01,25.01,-1.001,1.001,-1.001,1.001;             201P    303
128,1,1,1,1,0,0,1,0,0,-1.001,-1.001,1.001,1.001,-0.651,-0.651,       203P    304
1.001,1.001,1.,1.,1.,1.,17.5,10.01,8.49,17.5,-10.01,8.49,17.5,       203P    305
10.01,25.01,17.5,-10.01,25.01,-1.001,1.001,-0.651,1.001;             203P    306
128,1,1,1,1,0,0,1,0,0,-0.00100000000000022,-0.00100000000000022,     205P    307
1.001,1.001,-2.251,-2.251,2.251,2.251,1.,1.,1.,1.,-22.51,-10.,       205P    308
15.01,-22.51,-10.,4.99,22.51,-10.,15.01,22.51,-10.,4.99,             205P    309
-0.00100000000000022,1.001,-2.251,2.251;                             205P    310
128,1,1,1,1,0,0,1,0,0,-0.001,-0.001,0.351,0.351,-1.751,-1.751,       207P    311
1.751,1.751,1.,1.,1.,1.,-17.51,-6.49,15.,-17.51,-10.01,15.,          207P    312
17.51,-6.49,15.,17.51,-10.01,15.,-0.001,0.351,-1.751,1.751;          207P    313
128,1,4,1,2,0,0,0,0,0,-2.69230769230769,-2.69230769230769,           209P    314
2.69230769230769,2.69230769230769,-3.14159265358979,                 209P    315
-3.14159265358979,-3.14159265358979,-1.5707963267949,                209P    316
-1.5707963267949,0.,0.,0.,1.,1.,0.707106781186548,                   209P    317
0.707106781186548,1.,1.,0.707106781186548,0.707106781186548,1.,      209P    318
1.,-17.5,-6.5,15.,17.5,-6.5,15.,-17.5,-6.5,8.5,17.5,-6.5,8.5,        209P    319
-17.5,0.,8.5,17.5,0.,8.5,-17.5,6.5,8.5,17.5,6.5,8.5,-17.5,6.5,       209P    320
15.,17.5,6.5,15.,-2.69230769230769,2.69230769230769,                 209P    321
-3.14159265358979,0.;                                                209P    322
128,1,1,1,1,0,0,1,0,0,-0.001,-0.001,0.351,0.351,-1.751,-1.751,       211P    323
1.751,1.751,1.,1.,1.,1.,-17.51,10.01,15.,-17.51,6.49,15.,17.51,      211P    324
10.01,15.,17.51,6.49,15.,-0.001,0.351,-1.751,1.751;                  211P    325
128,1,1,1,1,0,0,1,0,0,-0.001,-0.001,1.001,1.001,-2.251,-2.251,       213P    326
2.251,2.251,1.,1.,1.,1.,-22.51,10.,4.99,-22.51,10.,15.01,22.51,      213P    327
10.,4.99,22.51,10.,15.01,-0.001,1.001,-2.251,2.251;                  213P    328
128,1,1,1,1,0,0,1,0,0,-3.97696212994592,-3.97696212994592,           215P    329
3.97696212994592,3.97696212994592,-3.71751718682963,                 215P    330
-3.71751718682963,3.751,3.751,1.,1.,1.,1.,39.7696212994592,          215P    331
-37.1751718682963,0.,-39.7696212994592,-37.1751718682963,0.,         215P    332
39.7696212994592,37.51,0.,-39.7696212994592,37.51,0.,                215P    333
-3.97696212994592,3.97696212994592,-3.71751718682963,3.751;          215P    334
502,28,-5.,-32.5,0.,-5.,-37.1651718682963,0.,-5.,-32.5,5.,-5.,       217P    335
-37.1651718682963,5.,5.,-37.1651718682963,0.,5.,-32.5,0.,5.,         217P    336
-37.1651718682963,5.,5.,-32.5,5.,22.5,-10.,5.,-22.5,-10.,5.,         217P    337
-22.5,10.,5.,22.5,10.,5.,-17.5,-10.,15.,-17.5,-6.5,15.,-17.5,        217P    338
6.5,15.,-17.5,10.,15.,-17.5,-3.5,15.,-22.5,-3.5,15.,-22.5,10.,       217P    339
15.,-22.5,-10.,15.,22.5,-3.5,15.,17.5,-3.5,15.,17.5,10.,15.,         217P    340
17.5,-10.,15.,22.5,-10.,15.,22.5,10.,15.,17.5,-6.5,15.,17.5,6.5,     217P    341
15.;                                                                 217P    342
504,44,91,217,1,217,2,93,217,3,217,1,95,217,4,217,3,97,217,2,        219P    343
217,4,99,217,5,217,6,101,217,7,217,5,103,217,8,217,7,105,217,8,      219P    344
217,6,107,217,6,217,1,109,217,3,217,8,111,217,7,217,4,113,217,5,     219P    345
217,2,115,217,9,217,10,117,217,10,217,11,119,217,11,217,12,121,      219P    346
217,12,217,9,123,217,13,217,14,125,217,14,217,15,127,217,15,217,     219P    347
16,129,217,16,217,13,131,217,17,217,17,133,217,18,217,18,135,        219P    348
217,18,217,17,137,217,16,217,19,139,217,19,217,20,141,217,13,        219P    349
217,20,143,217,20,217,10,145,217,11,217,19,147,217,21,217,21,        219P    350
149,217,21,217,22,151,217,22,217,22,153,217,23,217,24,155,217,       219P    351
24,217,25,157,217,26,217,25,159,217,23,217,26,161,217,12,217,26,     219P    352
163,217,25,217,9,165,217,27,217,24,167,217,23,217,28,169,217,28,     219P    353
217,27,171,217,13,217,24,173,217,14,217,27,175,217,15,217,28,        219P    354
177,217,16,217,23;                                                   219P    355
406,1,5HBody1;                                                       221P    356
314,62.7450980392157,62.7450980392157,62.7450980392157,13HSteel      223P    357
- Satin;                                                             223P    358
S      1G      3D    224P    358                                        T      1
